<?xml version="1.0" encoding="utf-8" standalone="no"?>
<!DOCTYPE svg PUBLIC "-//W3C//DTD SVG 1.1//EN"
  "http://www.w3.org/Graphics/SVG/1.1/DTD/svg11.dtd">
<svg xmlns:xlink="http://www.w3.org/1999/xlink" width="624.153125pt" height="270.3875pt" viewBox="0 0 624.153125 270.3875" xmlns="http://www.w3.org/2000/svg" version="1.1">
 <metadata>
  <rdf:RDF xmlns:dc="http://purl.org/dc/elements/1.1/" xmlns:cc="http://creativecommons.org/ns#" xmlns:rdf="http://www.w3.org/1999/02/22-rdf-syntax-ns#">
   <cc:Work>
    <dc:type rdf:resource="http://purl.org/dc/dcmitype/StillImage"/>
    <dc:date>2024-05-27T22:52:22.306074</dc:date>
    <dc:format>image/svg+xml</dc:format>
    <dc:creator>
     <cc:Agent>
      <dc:title>Matplotlib v3.7.2, https://matplotlib.org/</dc:title>
     </cc:Agent>
    </dc:creator>
   </cc:Work>
  </rdf:RDF>
 </metadata>
 <defs>
  <style type="text/css">*{stroke-linejoin: round; stroke-linecap: butt}</style>
 </defs>
 <g id="figure_1">
  <g id="patch_1">
   <path d="M 0 270.3875 
L 624.153125 270.3875 
L 624.153125 0 
L 0 0 
z
" style="fill: #ffffff"/>
  </g>
  <g id="axes_1">
   <g id="patch_2">
    <path d="M 58.953125 228.96 
L 616.953125 228.96 
L 616.953125 7.2 
L 58.953125 7.2 
z
" style="fill: #ffffff"/>
   </g>
   <g id="PolyCollection_1">
    <path d="M 84.316761 123.184649 
L 84.316761 152.547829 
L 85.588122 151.741907 
L 86.859482 150.878972 
L 88.130842 150.252151 
L 89.402202 149.705124 
L 90.673562 150.288259 
L 91.944923 151.681492 
L 93.216283 152.355161 
L 94.487643 152.291055 
L 95.759003 151.708988 
L 97.030364 151.080167 
L 98.301724 150.690932 
L 99.573084 150.7285 
L 100.844444 150.729451 
L 102.115804 150.342284 
L 103.387165 150.338757 
L 104.658525 150.412605 
L 105.929885 151.212886 
L 107.201245 152.045322 
L 108.472606 152.301227 
L 109.743966 152.573748 
L 111.015326 152.910969 
L 112.286686 152.479331 
L 113.558046 151.646599 
L 114.829407 151.13759 
L 116.100767 151.243734 
L 117.372127 150.332951 
L 118.643487 148.364404 
L 119.914847 143.693007 
L 121.186208 136.604251 
L 122.457568 127.746824 
L 123.728928 117.621409 
L 125.000288 108.25012 
L 126.271649 101.257981 
L 127.543009 96.95313 
L 128.814369 95.074348 
L 130.085729 95.203447 
L 131.357089 95.634508 
L 132.62845 94.414281 
L 133.89981 93.196502 
L 135.17117 93.550723 
L 136.44253 95.849609 
L 137.713891 102.090691 
L 138.985251 109.586053 
L 140.256611 118.384397 
L 141.527971 126.037525 
L 142.799331 131.274364 
L 144.070692 133.806132 
L 145.342052 134.57333 
L 146.613412 135.471931 
L 147.884772 141.056838 
L 149.156133 151.150168 
L 150.427493 161.168126 
L 151.698853 168.695153 
L 152.970213 172.126024 
L 154.241573 171.77407 
L 155.512934 168.32069 
L 156.784294 164.504025 
L 158.055654 162.636304 
L 159.327014 162.306468 
L 160.598374 160.962647 
L 161.869735 159.40057 
L 163.141095 157.567256 
L 164.412455 155.459527 
L 165.683815 153.70893 
L 166.955176 152.634739 
L 168.226536 151.643243 
L 169.497896 151.061895 
L 170.769256 150.853425 
L 172.040616 150.788505 
L 173.311977 151.451053 
L 174.583337 152.451161 
L 175.854697 152.417656 
L 177.126057 152.223003 
L 178.397418 151.994294 
L 179.668778 152.079536 
L 180.940138 152.131639 
L 182.211498 151.588392 
L 183.482858 151.181011 
L 184.754219 151.215768 
L 186.025579 151.500623 
L 187.296939 151.639856 
L 188.568299 152.037891 
L 189.83966 153.227098 
L 191.11102 155.01063 
L 192.38238 156.584022 
L 193.65374 156.818792 
L 194.9251 154.679762 
L 196.196461 151.870934 
L 197.467821 148.661901 
L 198.739181 145.766493 
L 200.010541 140.782604 
L 201.281901 134.01327 
L 202.553262 127.401394 
L 203.824622 124.444859 
L 205.095982 122.871741 
L 206.367342 121.500964 
L 207.638703 119.402202 
L 208.910063 115.828483 
L 210.181423 114.909098 
L 211.452783 120.836772 
L 212.724143 129.469456 
L 213.995504 137.224344 
L 215.266864 143.172571 
L 216.538224 146.534529 
L 217.809584 147.346806 
L 219.080945 147.047255 
L 220.352305 146.070754 
L 221.623665 143.214889 
L 222.895025 140.634296 
L 224.166385 141.387978 
L 225.437746 144.027702 
L 226.709106 148.256655 
L 227.980466 151.318652 
L 229.251826 153.641312 
L 230.523187 154.508665 
L 231.794547 154.787188 
L 233.065907 153.759473 
L 234.337267 152.146109 
L 235.608627 151.02863 
L 236.879988 150.590698 
L 238.151348 151.193031 
L 239.422708 151.689093 
L 240.694068 152.445358 
L 241.965428 153.127729 
L 243.236789 153.272777 
L 244.508149 152.733087 
L 245.779509 152.17284 
L 247.050869 151.877287 
L 248.32223 151.685127 
L 249.59359 150.703633 
L 250.86495 150.860064 
L 252.13631 151.045626 
L 253.40767 151.067768 
L 254.679031 150.989472 
L 255.950391 151.338286 
L 257.221751 151.642314 
L 258.493111 152.8321 
L 259.764472 153.637772 
L 261.035832 154.697525 
L 262.307192 158.125051 
L 263.578552 164.092234 
L 264.849912 171.162798 
L 266.121273 178.582999 
L 267.392633 186.268224 
L 268.663993 192.766094 
L 269.935353 202.393976 
L 271.206714 210.282714 
L 272.478074 214.369165 
L 273.749434 217.238989 
L 275.020794 217.353826 
L 276.292154 214.227394 
L 277.563515 210.63416 
L 278.834875 206.721815 
L 280.106235 204.727829 
L 281.377595 202.929917 
L 282.648955 199.044975 
L 283.920316 194.309452 
L 285.191676 188.039156 
L 286.463036 179.996365 
L 287.734396 171.356134 
L 289.005757 163.457326 
L 290.277117 157.721859 
L 291.548477 155.052423 
L 292.819837 155.032191 
L 294.091197 155.064352 
L 295.362558 153.013839 
L 296.633918 151.200038 
L 297.905278 149.846051 
L 299.176638 151.266324 
L 300.447999 154.04349 
L 301.719359 157.28935 
L 302.990719 159.66027 
L 304.262079 160.974254 
L 305.533439 159.457455 
L 306.8048 157.477869 
L 308.07616 156.507628 
L 309.34752 155.176816 
L 310.61888 152.531815 
L 311.890241 149.967033 
L 313.161601 148.146936 
L 314.432961 148.293368 
L 315.704321 148.679205 
L 316.975681 148.747352 
L 318.247042 148.842443 
L 319.518402 149.217608 
L 320.789762 149.49206 
L 322.061122 149.614806 
L 323.332482 149.788008 
L 324.603843 149.933793 
L 325.875203 149.957773 
L 327.146563 149.773673 
L 328.417923 149.332817 
L 329.689284 148.829802 
L 330.960644 149.235556 
L 332.232004 149.480452 
L 333.503364 149.08413 
L 334.774724 149.033157 
L 336.046085 149.136832 
L 337.317445 149.552829 
L 338.588805 150.134529 
L 339.860165 149.944611 
L 341.131526 149.620551 
L 342.402886 148.712733 
L 343.674246 146.845456 
L 344.945606 145.062246 
L 346.216966 141.690478 
L 347.488327 138.54049 
L 348.759687 134.791339 
L 350.031047 127.670071 
L 351.302407 115.728879 
L 352.573768 97.841912 
L 353.845128 79.688853 
L 355.116488 62.950413 
L 356.387848 51.488039 
L 357.659208 46.643181 
L 358.930569 48.350158 
L 360.201929 55.431884 
L 361.473289 68.443564 
L 362.744649 88.063332 
L 364.016009 109.993736 
L 365.28737 132.76242 
L 366.55873 153.009324 
L 367.83009 166.83419 
L 369.10145 174.191703 
L 370.372811 175.000526 
L 371.644171 169.87571 
L 372.915531 162.416891 
L 374.186891 155.203689 
L 375.458251 148.76903 
L 376.729612 144.82524 
L 378.000972 143.136959 
L 379.272332 142.900616 
L 380.543692 143.509643 
L 381.815053 144.137473 
L 383.086413 145.375379 
L 384.357773 146.823303 
L 385.629133 150.494016 
L 386.900493 155.027928 
L 388.171854 157.775709 
L 389.443214 160.204874 
L 390.714574 162.784991 
L 391.985934 166.980819 
L 393.257295 171.568497 
L 394.528655 174.460661 
L 395.800015 170.918407 
L 397.071375 165.522142 
L 398.342735 161.068791 
L 399.614096 157.677503 
L 400.885456 156.444596 
L 402.156816 155.953749 
L 403.428176 155.252601 
L 404.699536 153.244418 
L 405.970897 150.701533 
L 407.242257 146.997789 
L 408.513617 144.283826 
L 409.784977 142.975503 
L 411.056338 141.20208 
L 412.327698 140.955349 
L 413.599058 142.311913 
L 414.870418 144.556925 
L 416.141778 145.98451 
L 417.413139 148.12397 
L 418.684499 150.581749 
L 419.955859 152.854182 
L 421.227219 154.465924 
L 422.49858 155.872599 
L 423.76994 156.216459 
L 425.0413 156.697044 
L 426.31266 157.451744 
L 427.58402 157.93668 
L 428.855381 157.731988 
L 430.126741 157.674213 
L 431.398101 158.271113 
L 432.669461 159.851801 
L 433.940822 161.09104 
L 435.212182 160.178384 
L 436.483542 158.717907 
L 437.754902 156.290217 
L 439.026262 153.861641 
L 440.297623 152.2887 
L 441.568983 150.455762 
L 442.840343 147.909283 
L 444.111703 146.167933 
L 445.383063 145.778056 
L 446.654424 146.060369 
L 447.925784 146.766176 
L 449.197144 146.003137 
L 450.468504 143.932637 
L 451.739865 140.164904 
L 453.011225 135.787926 
L 454.282585 132.392293 
L 455.553945 130.984573 
L 456.825305 133.350333 
L 458.096666 139.720961 
L 459.368026 148.047406 
L 460.639386 155.248004 
L 461.910746 159.39322 
L 463.182107 160.324214 
L 464.453467 159.355415 
L 465.724827 157.996028 
L 466.996187 154.278799 
L 468.267547 149.660932 
L 469.538908 144.879459 
L 470.810268 143.63606 
L 472.081628 146.367588 
L 473.352988 149.789786 
L 474.624349 152.519268 
L 475.895709 153.104945 
L 477.167069 151.802014 
L 478.438429 151.052417 
L 479.709789 151.017505 
L 480.98115 152.75028 
L 482.25251 154.583723 
L 483.52387 156.324506 
L 484.79523 157.069271 
L 486.06659 156.555879 
L 487.337951 156.634504 
L 488.609311 156.066048 
L 489.880671 155.672119 
L 491.152031 155.384022 
L 492.423392 154.782334 
L 493.694752 154.107065 
L 494.966112 154.285362 
L 496.237472 154.729388 
L 497.508832 153.680983 
L 498.780193 152.633718 
L 500.051553 152.199967 
L 501.322913 151.052108 
L 502.594273 150.921633 
L 503.865634 151.69777 
L 505.136994 152.181126 
L 506.408354 151.808411 
L 507.679714 151.626995 
L 508.951074 152.441081 
L 510.222435 153.295498 
L 511.493795 153.964744 
L 512.765155 153.948672 
L 514.036515 153.556549 
L 515.307876 152.496846 
L 516.579236 151.63253 
L 517.850596 149.26258 
L 519.121956 144.675416 
L 520.393316 138.220587 
L 521.664677 132.764335 
L 522.936037 126.822609 
L 524.207397 120.892236 
L 525.478757 118.626856 
L 526.750117 120.371803 
L 528.021478 120.959814 
L 529.292838 120.417726 
L 530.564198 117.472312 
L 531.835558 114.542407 
L 533.106919 113.41144 
L 534.378279 115.311884 
L 535.649639 120.830504 
L 536.920999 128.364006 
L 538.192359 135.809267 
L 539.46372 142.222525 
L 540.73508 146.710601 
L 542.00644 149.705678 
L 543.2778 151.078755 
L 544.549161 152.698485 
L 545.820521 156.531221 
L 547.091881 161.525441 
L 548.363241 165.918844 
L 549.634601 169.349546 
L 550.905962 171.867588 
L 552.177322 169.792481 
L 553.448682 165.64267 
L 554.720042 160.821554 
L 555.991403 156.638083 
L 557.262763 152.548676 
L 558.534123 149.986872 
L 559.805483 148.466899 
L 561.076843 146.426442 
L 562.348204 145.787501 
L 563.619564 145.60855 
L 564.890924 146.25945 
L 566.162284 146.88531 
L 567.433644 147.362568 
L 568.705005 148.843956 
L 569.976365 149.734352 
L 571.247725 150.426213 
L 572.519085 150.24724 
L 573.790446 150.982565 
L 575.061806 153.095285 
L 576.333166 153.603532 
L 577.604526 153.820674 
L 578.875886 154.084844 
L 580.147247 153.72396 
L 581.418607 152.746975 
L 582.689967 151.735633 
L 583.961327 151.247609 
L 585.232688 150.222188 
L 586.504048 148.577185 
L 587.775408 148.140424 
L 589.046768 148.866463 
L 590.318128 148.438434 
L 591.589489 148.603587 
L 591.589489 119.240406 
L 591.589489 119.240406 
L 590.318128 119.075254 
L 589.046768 119.503282 
L 587.775408 118.777243 
L 586.504048 119.214004 
L 585.232688 120.859008 
L 583.961327 121.884428 
L 582.689967 122.372452 
L 581.418607 123.383794 
L 580.147247 124.360779 
L 578.875886 124.721663 
L 577.604526 124.457493 
L 576.333166 124.240352 
L 575.061806 123.732104 
L 573.790446 121.619384 
L 572.519085 120.88406 
L 571.247725 121.063033 
L 569.976365 120.371171 
L 568.705005 119.480775 
L 567.433644 117.999387 
L 566.162284 117.522129 
L 564.890924 116.896269 
L 563.619564 116.245369 
L 562.348204 116.424321 
L 561.076843 117.063261 
L 559.805483 119.103718 
L 558.534123 120.623691 
L 557.262763 123.185495 
L 555.991403 127.274902 
L 554.720042 131.458374 
L 553.448682 136.279489 
L 552.177322 140.429301 
L 550.905962 142.504407 
L 549.634601 139.986365 
L 548.363241 136.555664 
L 547.091881 132.162261 
L 545.820521 127.16804 
L 544.549161 123.335305 
L 543.2778 121.715574 
L 542.00644 120.342498 
L 540.73508 117.347421 
L 539.46372 112.859344 
L 538.192359 106.446086 
L 536.920999 99.000825 
L 535.649639 91.467323 
L 534.378279 85.948703 
L 533.106919 84.048259 
L 531.835558 85.179227 
L 530.564198 88.109131 
L 529.292838 91.054545 
L 528.021478 91.596633 
L 526.750117 91.008622 
L 525.478757 89.263675 
L 524.207397 91.529055 
L 522.936037 97.459429 
L 521.664677 103.401154 
L 520.393316 108.857406 
L 519.121956 115.312235 
L 517.850596 119.899399 
L 516.579236 122.269349 
L 515.307876 123.133665 
L 514.036515 124.193368 
L 512.765155 124.585492 
L 511.493795 124.601563 
L 510.222435 123.932317 
L 508.951074 123.077901 
L 507.679714 122.263814 
L 506.408354 122.44523 
L 505.136994 122.817946 
L 503.865634 122.33459 
L 502.594273 121.558452 
L 501.322913 121.688928 
L 500.051553 122.836786 
L 498.780193 123.270538 
L 497.508832 124.317802 
L 496.237472 125.366207 
L 494.966112 124.922181 
L 493.694752 124.743884 
L 492.423392 125.419153 
L 491.152031 126.020841 
L 489.880671 126.308938 
L 488.609311 126.702868 
L 487.337951 127.271323 
L 486.06659 127.192698 
L 484.79523 127.706091 
L 483.52387 126.961326 
L 482.25251 125.220542 
L 480.98115 123.3871 
L 479.709789 121.654325 
L 478.438429 121.689237 
L 477.167069 122.438834 
L 475.895709 123.741764 
L 474.624349 123.156087 
L 473.352988 120.426605 
L 472.081628 117.004407 
L 470.810268 114.272879 
L 469.538908 115.516278 
L 468.267547 120.297751 
L 466.996187 124.915618 
L 465.724827 128.632847 
L 464.453467 129.992234 
L 463.182107 130.961033 
L 461.910746 130.030039 
L 460.639386 125.884824 
L 459.368026 118.684225 
L 458.096666 110.35778 
L 456.825305 103.987153 
L 455.553945 101.621392 
L 454.282585 103.029112 
L 453.011225 106.424745 
L 451.739865 110.801723 
L 450.468504 114.569457 
L 449.197144 116.639956 
L 447.925784 117.402995 
L 446.654424 116.697189 
L 445.383063 116.414876 
L 444.111703 116.804753 
L 442.840343 118.546103 
L 441.568983 121.092582 
L 440.297623 122.92552 
L 439.026262 124.49846 
L 437.754902 126.927036 
L 436.483542 129.354727 
L 435.212182 130.815203 
L 433.940822 131.727859 
L 432.669461 130.48862 
L 431.398101 128.907933 
L 430.126741 128.311032 
L 428.855381 128.368808 
L 427.58402 128.573499 
L 426.31266 128.088563 
L 425.0413 127.333864 
L 423.76994 126.853279 
L 422.49858 126.509419 
L 421.227219 125.102743 
L 419.955859 123.491002 
L 418.684499 121.218569 
L 417.413139 118.760789 
L 416.141778 116.621329 
L 414.870418 115.193744 
L 413.599058 112.948733 
L 412.327698 111.592169 
L 411.056338 111.838899 
L 409.784977 113.612322 
L 408.513617 114.920645 
L 407.242257 117.634608 
L 405.970897 121.338352 
L 404.699536 123.881237 
L 403.428176 125.88942 
L 402.156816 126.590568 
L 400.885456 127.081415 
L 399.614096 128.314322 
L 398.342735 131.70561 
L 397.071375 136.158962 
L 395.800015 141.555227 
L 394.528655 145.097481 
L 393.257295 142.205317 
L 391.985934 137.617638 
L 390.714574 133.42181 
L 389.443214 130.841693 
L 388.171854 128.412529 
L 386.900493 125.664747 
L 385.629133 121.130835 
L 384.357773 117.460122 
L 383.086413 116.012199 
L 381.815053 114.774292 
L 380.543692 114.146462 
L 379.272332 113.537436 
L 378.000972 113.773779 
L 376.729612 115.462059 
L 375.458251 119.405849 
L 374.186891 125.840509 
L 372.915531 133.05371 
L 371.644171 140.51253 
L 370.372811 145.637345 
L 369.10145 144.828522 
L 367.83009 137.471009 
L 366.55873 123.646143 
L 365.28737 103.399239 
L 364.016009 80.630556 
L 362.744649 58.700152 
L 361.473289 39.080384 
L 360.201929 26.068703 
L 358.930569 18.986977 
L 357.659208 17.28 
L 356.387848 22.124859 
L 355.116488 33.587232 
L 353.845128 50.325672 
L 352.573768 68.478732 
L 351.302407 86.365699 
L 350.031047 98.306891 
L 348.759687 105.428159 
L 347.488327 109.177309 
L 346.216966 112.327298 
L 344.945606 115.699065 
L 343.674246 117.482275 
L 342.402886 119.349552 
L 341.131526 120.257371 
L 339.860165 120.58143 
L 338.588805 120.771348 
L 337.317445 120.189649 
L 336.046085 119.773651 
L 334.774724 119.669976 
L 333.503364 119.720949 
L 332.232004 120.117271 
L 330.960644 119.872376 
L 329.689284 119.466621 
L 328.417923 119.969636 
L 327.146563 120.410493 
L 325.875203 120.594592 
L 324.603843 120.570612 
L 323.332482 120.424827 
L 322.061122 120.251626 
L 320.789762 120.128879 
L 319.518402 119.854427 
L 318.247042 119.479262 
L 316.975681 119.384172 
L 315.704321 119.316025 
L 314.432961 118.930187 
L 313.161601 118.783755 
L 311.890241 120.603852 
L 310.61888 123.168634 
L 309.34752 125.813635 
L 308.07616 127.144447 
L 306.8048 128.114688 
L 305.533439 130.094274 
L 304.262079 131.611073 
L 302.990719 130.297089 
L 301.719359 127.926169 
L 300.447999 124.68031 
L 299.176638 121.903143 
L 297.905278 120.482871 
L 296.633918 121.836858 
L 295.362558 123.650658 
L 294.091197 125.701172 
L 292.819837 125.66901 
L 291.548477 125.689242 
L 290.277117 128.358678 
L 289.005757 134.094146 
L 287.734396 141.992953 
L 286.463036 150.633184 
L 285.191676 158.675975 
L 283.920316 164.946271 
L 282.648955 169.681794 
L 281.377595 173.566736 
L 280.106235 175.364649 
L 278.834875 177.358634 
L 277.563515 181.27098 
L 276.292154 184.864214 
L 275.020794 187.990646 
L 273.749434 187.875809 
L 272.478074 185.005984 
L 271.206714 180.919533 
L 269.935353 173.030795 
L 268.663993 163.402913 
L 267.392633 156.905044 
L 266.121273 149.219818 
L 264.849912 141.799617 
L 263.578552 134.729053 
L 262.307192 128.76187 
L 261.035832 125.334344 
L 259.764472 124.274592 
L 258.493111 123.468919 
L 257.221751 122.279133 
L 255.950391 121.975105 
L 254.679031 121.626291 
L 253.40767 121.704587 
L 252.13631 121.682445 
L 250.86495 121.496883 
L 249.59359 121.340453 
L 248.32223 122.321946 
L 247.050869 122.514106 
L 245.779509 122.809659 
L 244.508149 123.369906 
L 243.236789 123.909597 
L 241.965428 123.764549 
L 240.694068 123.082178 
L 239.422708 122.325912 
L 238.151348 121.829851 
L 236.879988 121.227518 
L 235.608627 121.665449 
L 234.337267 122.782929 
L 233.065907 124.396292 
L 231.794547 125.424007 
L 230.523187 125.145485 
L 229.251826 124.278131 
L 227.980466 121.955471 
L 226.709106 118.893474 
L 225.437746 114.664521 
L 224.166385 112.024797 
L 222.895025 111.271115 
L 221.623665 113.851709 
L 220.352305 116.707573 
L 219.080945 117.684074 
L 217.809584 117.983625 
L 216.538224 117.171348 
L 215.266864 113.809391 
L 213.995504 107.861163 
L 212.724143 100.106275 
L 211.452783 91.473592 
L 210.181423 85.545918 
L 208.910063 86.465302 
L 207.638703 90.039021 
L 206.367342 92.137784 
L 205.095982 93.508561 
L 203.824622 95.081678 
L 202.553262 98.038213 
L 201.281901 104.650089 
L 200.010541 111.419424 
L 198.739181 116.403312 
L 197.467821 119.298721 
L 196.196461 122.507753 
L 194.9251 125.316581 
L 193.65374 127.455611 
L 192.38238 127.220841 
L 191.11102 125.647449 
L 189.83966 123.863918 
L 188.568299 122.67471 
L 187.296939 122.276676 
L 186.025579 122.137442 
L 184.754219 121.852587 
L 183.482858 121.817831 
L 182.211498 122.225211 
L 180.940138 122.768459 
L 179.668778 122.716355 
L 178.397418 122.631113 
L 177.126057 122.859823 
L 175.854697 123.054476 
L 174.583337 123.08798 
L 173.311977 122.087873 
L 172.040616 121.425324 
L 170.769256 121.490244 
L 169.497896 121.698714 
L 168.226536 122.280062 
L 166.955176 123.271558 
L 165.683815 124.345749 
L 164.412455 126.096347 
L 163.141095 128.204076 
L 161.869735 130.037389 
L 160.598374 131.599466 
L 159.327014 132.943288 
L 158.055654 133.273123 
L 156.784294 135.140844 
L 155.512934 138.95751 
L 154.241573 142.410889 
L 152.970213 142.762843 
L 151.698853 139.331973 
L 150.427493 131.804945 
L 149.156133 121.786987 
L 147.884772 111.693658 
L 146.613412 106.10875 
L 145.342052 105.210149 
L 144.070692 104.442951 
L 142.799331 101.911184 
L 141.527971 96.674344 
L 140.256611 89.021217 
L 138.985251 80.222872 
L 137.713891 72.72751 
L 136.44253 66.486428 
L 135.17117 64.187542 
L 133.89981 63.833321 
L 132.62845 65.051101 
L 131.357089 66.271327 
L 130.085729 65.840267 
L 128.814369 65.711167 
L 127.543009 67.589949 
L 126.271649 71.8948 
L 125.000288 78.88694 
L 123.728928 88.258228 
L 122.457568 98.383643 
L 121.186208 107.24107 
L 119.914847 114.329827 
L 118.643487 119.001223 
L 117.372127 120.96977 
L 116.100767 121.880554 
L 114.829407 121.77441 
L 113.558046 122.283418 
L 112.286686 123.116151 
L 111.015326 123.547789 
L 109.743966 123.210567 
L 108.472606 122.938046 
L 107.201245 122.682141 
L 105.929885 121.849705 
L 104.658525 121.049424 
L 103.387165 120.975577 
L 102.115804 120.979103 
L 100.844444 121.36627 
L 99.573084 121.365319 
L 98.301724 121.327752 
L 97.030364 121.716986 
L 95.759003 122.345807 
L 94.487643 122.927874 
L 93.216283 122.991981 
L 91.944923 122.318311 
L 90.673562 120.925078 
L 89.402202 120.341944 
L 88.130842 120.888971 
L 86.859482 121.515791 
L 85.588122 122.378726 
L 84.316761 123.184649 
z
" clip-path="url(#p0b2c1a21db)" style="fill: #1f77b4; fill-opacity: 0.5"/>
   </g>
   <g id="matplotlib.axis_1">
    <g id="xtick_1">
     <g id="line2d_1">
      <defs>
       <path id="m6ff3204b53" d="M 0 0 
L 0 3.5 
" style="stroke: #000000; stroke-width: 0.8"/>
      </defs>
      <g>
       <use xlink:href="#m6ff3204b53" x="135.17117" y="228.96" style="stroke: #000000; stroke-width: 0.8"/>
      </g>
     </g>
     <g id="text_1">
      <!-- 326 -->
      <g transform="translate(123.71867 245.078125) scale(0.12 -0.12)">
       <defs>
        <path id="DejaVuSans-33" d="M 2597 2516 
Q 3050 2419 3304 2112 
Q 3559 1806 3559 1356 
Q 3559 666 3084 287 
Q 2609 -91 1734 -91 
Q 1441 -91 1130 -33 
Q 819 25 488 141 
L 488 750 
Q 750 597 1062 519 
Q 1375 441 1716 441 
Q 2309 441 2620 675 
Q 2931 909 2931 1356 
Q 2931 1769 2642 2001 
Q 2353 2234 1838 2234 
L 1294 2234 
L 1294 2753 
L 1863 2753 
Q 2328 2753 2575 2939 
Q 2822 3125 2822 3475 
Q 2822 3834 2567 4026 
Q 2313 4219 1838 4219 
Q 1578 4219 1281 4162 
Q 984 4106 628 3988 
L 628 4550 
Q 988 4650 1302 4700 
Q 1616 4750 1894 4750 
Q 2613 4750 3031 4423 
Q 3450 4097 3450 3541 
Q 3450 3153 3228 2886 
Q 3006 2619 2597 2516 
z
" transform="scale(0.015625)"/>
        <path id="DejaVuSans-32" d="M 1228 531 
L 3431 531 
L 3431 0 
L 469 0 
L 469 531 
Q 828 903 1448 1529 
Q 2069 2156 2228 2338 
Q 2531 2678 2651 2914 
Q 2772 3150 2772 3378 
Q 2772 3750 2511 3984 
Q 2250 4219 1831 4219 
Q 1534 4219 1204 4116 
Q 875 4013 500 3803 
L 500 4441 
Q 881 4594 1212 4672 
Q 1544 4750 1819 4750 
Q 2544 4750 2975 4387 
Q 3406 4025 3406 3419 
Q 3406 3131 3298 2873 
Q 3191 2616 2906 2266 
Q 2828 2175 2409 1742 
Q 1991 1309 1228 531 
z
" transform="scale(0.015625)"/>
        <path id="DejaVuSans-36" d="M 2113 2584 
Q 1688 2584 1439 2293 
Q 1191 2003 1191 1497 
Q 1191 994 1439 701 
Q 1688 409 2113 409 
Q 2538 409 2786 701 
Q 3034 994 3034 1497 
Q 3034 2003 2786 2293 
Q 2538 2584 2113 2584 
z
M 3366 4563 
L 3366 3988 
Q 3128 4100 2886 4159 
Q 2644 4219 2406 4219 
Q 1781 4219 1451 3797 
Q 1122 3375 1075 2522 
Q 1259 2794 1537 2939 
Q 1816 3084 2150 3084 
Q 2853 3084 3261 2657 
Q 3669 2231 3669 1497 
Q 3669 778 3244 343 
Q 2819 -91 2113 -91 
Q 1303 -91 875 529 
Q 447 1150 447 2328 
Q 447 3434 972 4092 
Q 1497 4750 2381 4750 
Q 2619 4750 2861 4703 
Q 3103 4656 3366 4563 
z
" transform="scale(0.015625)"/>
       </defs>
       <use xlink:href="#DejaVuSans-33"/>
       <use xlink:href="#DejaVuSans-32" x="63.623047"/>
       <use xlink:href="#DejaVuSans-36" x="127.246094"/>
      </g>
     </g>
    </g>
    <g id="xtick_2">
     <g id="line2d_2">
      <g>
       <use xlink:href="#m6ff3204b53" x="236.879988" y="228.96" style="stroke: #000000; stroke-width: 0.8"/>
      </g>
     </g>
     <g id="text_2">
      <!-- 328 -->
      <g transform="translate(225.427488 245.078125) scale(0.12 -0.12)">
       <defs>
        <path id="DejaVuSans-38" d="M 2034 2216 
Q 1584 2216 1326 1975 
Q 1069 1734 1069 1313 
Q 1069 891 1326 650 
Q 1584 409 2034 409 
Q 2484 409 2743 651 
Q 3003 894 3003 1313 
Q 3003 1734 2745 1975 
Q 2488 2216 2034 2216 
z
M 1403 2484 
Q 997 2584 770 2862 
Q 544 3141 544 3541 
Q 544 4100 942 4425 
Q 1341 4750 2034 4750 
Q 2731 4750 3128 4425 
Q 3525 4100 3525 3541 
Q 3525 3141 3298 2862 
Q 3072 2584 2669 2484 
Q 3125 2378 3379 2068 
Q 3634 1759 3634 1313 
Q 3634 634 3220 271 
Q 2806 -91 2034 -91 
Q 1263 -91 848 271 
Q 434 634 434 1313 
Q 434 1759 690 2068 
Q 947 2378 1403 2484 
z
M 1172 3481 
Q 1172 3119 1398 2916 
Q 1625 2713 2034 2713 
Q 2441 2713 2670 2916 
Q 2900 3119 2900 3481 
Q 2900 3844 2670 4047 
Q 2441 4250 2034 4250 
Q 1625 4250 1398 4047 
Q 1172 3844 1172 3481 
z
" transform="scale(0.015625)"/>
       </defs>
       <use xlink:href="#DejaVuSans-33"/>
       <use xlink:href="#DejaVuSans-32" x="63.623047"/>
       <use xlink:href="#DejaVuSans-38" x="127.246094"/>
      </g>
     </g>
    </g>
    <g id="xtick_3">
     <g id="line2d_3">
      <g>
       <use xlink:href="#m6ff3204b53" x="338.588805" y="228.96" style="stroke: #000000; stroke-width: 0.8"/>
      </g>
     </g>
     <g id="text_3">
      <!-- 330 -->
      <g transform="translate(327.136305 245.078125) scale(0.12 -0.12)">
       <defs>
        <path id="DejaVuSans-30" d="M 2034 4250 
Q 1547 4250 1301 3770 
Q 1056 3291 1056 2328 
Q 1056 1369 1301 889 
Q 1547 409 2034 409 
Q 2525 409 2770 889 
Q 3016 1369 3016 2328 
Q 3016 3291 2770 3770 
Q 2525 4250 2034 4250 
z
M 2034 4750 
Q 2819 4750 3233 4129 
Q 3647 3509 3647 2328 
Q 3647 1150 3233 529 
Q 2819 -91 2034 -91 
Q 1250 -91 836 529 
Q 422 1150 422 2328 
Q 422 3509 836 4129 
Q 1250 4750 2034 4750 
z
" transform="scale(0.015625)"/>
       </defs>
       <use xlink:href="#DejaVuSans-33"/>
       <use xlink:href="#DejaVuSans-33" x="63.623047"/>
       <use xlink:href="#DejaVuSans-30" x="127.246094"/>
      </g>
     </g>
    </g>
    <g id="xtick_4">
     <g id="line2d_4">
      <g>
       <use xlink:href="#m6ff3204b53" x="440.297623" y="228.96" style="stroke: #000000; stroke-width: 0.8"/>
      </g>
     </g>
     <g id="text_4">
      <!-- 332 -->
      <g transform="translate(428.845123 245.078125) scale(0.12 -0.12)">
       <use xlink:href="#DejaVuSans-33"/>
       <use xlink:href="#DejaVuSans-33" x="63.623047"/>
       <use xlink:href="#DejaVuSans-32" x="127.246094"/>
      </g>
     </g>
    </g>
    <g id="xtick_5">
     <g id="line2d_5">
      <g>
       <use xlink:href="#m6ff3204b53" x="542.00644" y="228.96" style="stroke: #000000; stroke-width: 0.8"/>
      </g>
     </g>
     <g id="text_5">
      <!-- 334 -->
      <g transform="translate(530.55394 245.078125) scale(0.12 -0.12)">
       <defs>
        <path id="DejaVuSans-34" d="M 2419 4116 
L 825 1625 
L 2419 1625 
L 2419 4116 
z
M 2253 4666 
L 3047 4666 
L 3047 1625 
L 3713 1625 
L 3713 1100 
L 3047 1100 
L 3047 0 
L 2419 0 
L 2419 1100 
L 313 1100 
L 313 1709 
L 2253 4666 
z
" transform="scale(0.015625)"/>
       </defs>
       <use xlink:href="#DejaVuSans-33"/>
       <use xlink:href="#DejaVuSans-33" x="63.623047"/>
       <use xlink:href="#DejaVuSans-34" x="127.246094"/>
      </g>
     </g>
    </g>
    <g id="text_6">
     <!-- time (s) -->
     <g transform="translate(314.683438 260.691875) scale(0.12 -0.12)">
      <defs>
       <path id="DejaVuSans-74" d="M 1172 4494 
L 1172 3500 
L 2356 3500 
L 2356 3053 
L 1172 3053 
L 1172 1153 
Q 1172 725 1289 603 
Q 1406 481 1766 481 
L 2356 481 
L 2356 0 
L 1766 0 
Q 1100 0 847 248 
Q 594 497 594 1153 
L 594 3053 
L 172 3053 
L 172 3500 
L 594 3500 
L 594 4494 
L 1172 4494 
z
" transform="scale(0.015625)"/>
       <path id="DejaVuSans-69" d="M 603 3500 
L 1178 3500 
L 1178 0 
L 603 0 
L 603 3500 
z
M 603 4863 
L 1178 4863 
L 1178 4134 
L 603 4134 
L 603 4863 
z
" transform="scale(0.015625)"/>
       <path id="DejaVuSans-6d" d="M 3328 2828 
Q 3544 3216 3844 3400 
Q 4144 3584 4550 3584 
Q 5097 3584 5394 3201 
Q 5691 2819 5691 2113 
L 5691 0 
L 5113 0 
L 5113 2094 
Q 5113 2597 4934 2840 
Q 4756 3084 4391 3084 
Q 3944 3084 3684 2787 
Q 3425 2491 3425 1978 
L 3425 0 
L 2847 0 
L 2847 2094 
Q 2847 2600 2669 2842 
Q 2491 3084 2119 3084 
Q 1678 3084 1418 2786 
Q 1159 2488 1159 1978 
L 1159 0 
L 581 0 
L 581 3500 
L 1159 3500 
L 1159 2956 
Q 1356 3278 1631 3431 
Q 1906 3584 2284 3584 
Q 2666 3584 2933 3390 
Q 3200 3197 3328 2828 
z
" transform="scale(0.015625)"/>
       <path id="DejaVuSans-65" d="M 3597 1894 
L 3597 1613 
L 953 1613 
Q 991 1019 1311 708 
Q 1631 397 2203 397 
Q 2534 397 2845 478 
Q 3156 559 3463 722 
L 3463 178 
Q 3153 47 2828 -22 
Q 2503 -91 2169 -91 
Q 1331 -91 842 396 
Q 353 884 353 1716 
Q 353 2575 817 3079 
Q 1281 3584 2069 3584 
Q 2775 3584 3186 3129 
Q 3597 2675 3597 1894 
z
M 3022 2063 
Q 3016 2534 2758 2815 
Q 2500 3097 2075 3097 
Q 1594 3097 1305 2825 
Q 1016 2553 972 2059 
L 3022 2063 
z
" transform="scale(0.015625)"/>
       <path id="DejaVuSans-20" transform="scale(0.015625)"/>
       <path id="DejaVuSans-28" d="M 1984 4856 
Q 1566 4138 1362 3434 
Q 1159 2731 1159 2009 
Q 1159 1288 1364 580 
Q 1569 -128 1984 -844 
L 1484 -844 
Q 1016 -109 783 600 
Q 550 1309 550 2009 
Q 550 2706 781 3412 
Q 1013 4119 1484 4856 
L 1984 4856 
z
" transform="scale(0.015625)"/>
       <path id="DejaVuSans-73" d="M 2834 3397 
L 2834 2853 
Q 2591 2978 2328 3040 
Q 2066 3103 1784 3103 
Q 1356 3103 1142 2972 
Q 928 2841 928 2578 
Q 928 2378 1081 2264 
Q 1234 2150 1697 2047 
L 1894 2003 
Q 2506 1872 2764 1633 
Q 3022 1394 3022 966 
Q 3022 478 2636 193 
Q 2250 -91 1575 -91 
Q 1294 -91 989 -36 
Q 684 19 347 128 
L 347 722 
Q 666 556 975 473 
Q 1284 391 1588 391 
Q 1994 391 2212 530 
Q 2431 669 2431 922 
Q 2431 1156 2273 1281 
Q 2116 1406 1581 1522 
L 1381 1569 
Q 847 1681 609 1914 
Q 372 2147 372 2553 
Q 372 3047 722 3315 
Q 1072 3584 1716 3584 
Q 2034 3584 2315 3537 
Q 2597 3491 2834 3397 
z
" transform="scale(0.015625)"/>
       <path id="DejaVuSans-29" d="M 513 4856 
L 1013 4856 
Q 1481 4119 1714 3412 
Q 1947 2706 1947 2009 
Q 1947 1309 1714 600 
Q 1481 -109 1013 -844 
L 513 -844 
Q 928 -128 1133 580 
Q 1338 1288 1338 2009 
Q 1338 2731 1133 3434 
Q 928 4138 513 4856 
z
" transform="scale(0.015625)"/>
      </defs>
      <use xlink:href="#DejaVuSans-74"/>
      <use xlink:href="#DejaVuSans-69" x="39.208984"/>
      <use xlink:href="#DejaVuSans-6d" x="66.992188"/>
      <use xlink:href="#DejaVuSans-65" x="164.404297"/>
      <use xlink:href="#DejaVuSans-20" x="225.927734"/>
      <use xlink:href="#DejaVuSans-28" x="257.714844"/>
      <use xlink:href="#DejaVuSans-73" x="296.728516"/>
      <use xlink:href="#DejaVuSans-29" x="348.828125"/>
     </g>
    </g>
   </g>
   <g id="matplotlib.axis_2">
    <g id="ytick_1">
     <g id="line2d_6">
      <defs>
       <path id="m3c67f9a15d" d="M 0 0 
L -3.5 0 
" style="stroke: #000000; stroke-width: 0.8"/>
      </defs>
      <g>
       <use xlink:href="#m3c67f9a15d" x="58.953125" y="227.735315" style="stroke: #000000; stroke-width: 0.8"/>
      </g>
     </g>
     <g id="text_7">
      <!-- −0.3 -->
      <g transform="translate(22.81375 232.294377) scale(0.12 -0.12)">
       <defs>
        <path id="DejaVuSans-2212" d="M 678 2272 
L 4684 2272 
L 4684 1741 
L 678 1741 
L 678 2272 
z
" transform="scale(0.015625)"/>
        <path id="DejaVuSans-2e" d="M 684 794 
L 1344 794 
L 1344 0 
L 684 0 
L 684 794 
z
" transform="scale(0.015625)"/>
       </defs>
       <use xlink:href="#DejaVuSans-2212"/>
       <use xlink:href="#DejaVuSans-30" x="83.789062"/>
       <use xlink:href="#DejaVuSans-2e" x="147.412109"/>
       <use xlink:href="#DejaVuSans-33" x="179.199219"/>
      </g>
     </g>
    </g>
    <g id="ytick_2">
     <g id="line2d_7">
      <g>
       <use xlink:href="#m3c67f9a15d" x="58.953125" y="197.289954" style="stroke: #000000; stroke-width: 0.8"/>
      </g>
     </g>
     <g id="text_8">
      <!-- −0.2 -->
      <g transform="translate(22.81375 201.849017) scale(0.12 -0.12)">
       <use xlink:href="#DejaVuSans-2212"/>
       <use xlink:href="#DejaVuSans-30" x="83.789062"/>
       <use xlink:href="#DejaVuSans-2e" x="147.412109"/>
       <use xlink:href="#DejaVuSans-32" x="179.199219"/>
      </g>
     </g>
    </g>
    <g id="ytick_3">
     <g id="line2d_8">
      <g>
       <use xlink:href="#m3c67f9a15d" x="58.953125" y="166.844594" style="stroke: #000000; stroke-width: 0.8"/>
      </g>
     </g>
     <g id="text_9">
      <!-- −0.1 -->
      <g transform="translate(22.81375 171.403656) scale(0.12 -0.12)">
       <defs>
        <path id="DejaVuSans-31" d="M 794 531 
L 1825 531 
L 1825 4091 
L 703 3866 
L 703 4441 
L 1819 4666 
L 2450 4666 
L 2450 531 
L 3481 531 
L 3481 0 
L 794 0 
L 794 531 
z
" transform="scale(0.015625)"/>
       </defs>
       <use xlink:href="#DejaVuSans-2212"/>
       <use xlink:href="#DejaVuSans-30" x="83.789062"/>
       <use xlink:href="#DejaVuSans-2e" x="147.412109"/>
       <use xlink:href="#DejaVuSans-31" x="179.199219"/>
      </g>
     </g>
    </g>
    <g id="ytick_4">
     <g id="line2d_9">
      <g>
       <use xlink:href="#m3c67f9a15d" x="58.953125" y="136.399234" style="stroke: #000000; stroke-width: 0.8"/>
      </g>
     </g>
     <g id="text_10">
      <!-- 0.0 -->
      <g transform="translate(32.869375 140.958296) scale(0.12 -0.12)">
       <use xlink:href="#DejaVuSans-30"/>
       <use xlink:href="#DejaVuSans-2e" x="63.623047"/>
       <use xlink:href="#DejaVuSans-30" x="95.410156"/>
      </g>
     </g>
    </g>
    <g id="ytick_5">
     <g id="line2d_10">
      <g>
       <use xlink:href="#m3c67f9a15d" x="58.953125" y="105.953873" style="stroke: #000000; stroke-width: 0.8"/>
      </g>
     </g>
     <g id="text_11">
      <!-- 0.1 -->
      <g transform="translate(32.869375 110.512936) scale(0.12 -0.12)">
       <use xlink:href="#DejaVuSans-30"/>
       <use xlink:href="#DejaVuSans-2e" x="63.623047"/>
       <use xlink:href="#DejaVuSans-31" x="95.410156"/>
      </g>
     </g>
    </g>
    <g id="ytick_6">
     <g id="line2d_11">
      <g>
       <use xlink:href="#m3c67f9a15d" x="58.953125" y="75.508513" style="stroke: #000000; stroke-width: 0.8"/>
      </g>
     </g>
     <g id="text_12">
      <!-- 0.2 -->
      <g transform="translate(32.869375 80.067575) scale(0.12 -0.12)">
       <use xlink:href="#DejaVuSans-30"/>
       <use xlink:href="#DejaVuSans-2e" x="63.623047"/>
       <use xlink:href="#DejaVuSans-32" x="95.410156"/>
      </g>
     </g>
    </g>
    <g id="ytick_7">
     <g id="line2d_12">
      <g>
       <use xlink:href="#m3c67f9a15d" x="58.953125" y="45.063152" style="stroke: #000000; stroke-width: 0.8"/>
      </g>
     </g>
     <g id="text_13">
      <!-- 0.3 -->
      <g transform="translate(32.869375 49.622215) scale(0.12 -0.12)">
       <use xlink:href="#DejaVuSans-30"/>
       <use xlink:href="#DejaVuSans-2e" x="63.623047"/>
       <use xlink:href="#DejaVuSans-33" x="95.410156"/>
      </g>
     </g>
    </g>
    <g id="ytick_8">
     <g id="line2d_13">
      <g>
       <use xlink:href="#m3c67f9a15d" x="58.953125" y="14.617792" style="stroke: #000000; stroke-width: 0.8"/>
      </g>
     </g>
     <g id="text_14">
      <!-- 0.4 -->
      <g transform="translate(32.869375 19.176854) scale(0.12 -0.12)">
       <use xlink:href="#DejaVuSans-30"/>
       <use xlink:href="#DejaVuSans-2e" x="63.623047"/>
       <use xlink:href="#DejaVuSans-34" x="95.410156"/>
      </g>
     </g>
    </g>
    <g id="text_15">
     <!-- velocity (a.u.) -->
     <g transform="translate(16.318125 159.4125) rotate(-90) scale(0.12 -0.12)">
      <defs>
       <path id="DejaVuSans-76" d="M 191 3500 
L 800 3500 
L 1894 563 
L 2988 3500 
L 3597 3500 
L 2284 0 
L 1503 0 
L 191 3500 
z
" transform="scale(0.015625)"/>
       <path id="DejaVuSans-6c" d="M 603 4863 
L 1178 4863 
L 1178 0 
L 603 0 
L 603 4863 
z
" transform="scale(0.015625)"/>
       <path id="DejaVuSans-6f" d="M 1959 3097 
Q 1497 3097 1228 2736 
Q 959 2375 959 1747 
Q 959 1119 1226 758 
Q 1494 397 1959 397 
Q 2419 397 2687 759 
Q 2956 1122 2956 1747 
Q 2956 2369 2687 2733 
Q 2419 3097 1959 3097 
z
M 1959 3584 
Q 2709 3584 3137 3096 
Q 3566 2609 3566 1747 
Q 3566 888 3137 398 
Q 2709 -91 1959 -91 
Q 1206 -91 779 398 
Q 353 888 353 1747 
Q 353 2609 779 3096 
Q 1206 3584 1959 3584 
z
" transform="scale(0.015625)"/>
       <path id="DejaVuSans-63" d="M 3122 3366 
L 3122 2828 
Q 2878 2963 2633 3030 
Q 2388 3097 2138 3097 
Q 1578 3097 1268 2742 
Q 959 2388 959 1747 
Q 959 1106 1268 751 
Q 1578 397 2138 397 
Q 2388 397 2633 464 
Q 2878 531 3122 666 
L 3122 134 
Q 2881 22 2623 -34 
Q 2366 -91 2075 -91 
Q 1284 -91 818 406 
Q 353 903 353 1747 
Q 353 2603 823 3093 
Q 1294 3584 2113 3584 
Q 2378 3584 2631 3529 
Q 2884 3475 3122 3366 
z
" transform="scale(0.015625)"/>
       <path id="DejaVuSans-79" d="M 2059 -325 
Q 1816 -950 1584 -1140 
Q 1353 -1331 966 -1331 
L 506 -1331 
L 506 -850 
L 844 -850 
Q 1081 -850 1212 -737 
Q 1344 -625 1503 -206 
L 1606 56 
L 191 3500 
L 800 3500 
L 1894 763 
L 2988 3500 
L 3597 3500 
L 2059 -325 
z
" transform="scale(0.015625)"/>
       <path id="DejaVuSans-61" d="M 2194 1759 
Q 1497 1759 1228 1600 
Q 959 1441 959 1056 
Q 959 750 1161 570 
Q 1363 391 1709 391 
Q 2188 391 2477 730 
Q 2766 1069 2766 1631 
L 2766 1759 
L 2194 1759 
z
M 3341 1997 
L 3341 0 
L 2766 0 
L 2766 531 
Q 2569 213 2275 61 
Q 1981 -91 1556 -91 
Q 1019 -91 701 211 
Q 384 513 384 1019 
Q 384 1609 779 1909 
Q 1175 2209 1959 2209 
L 2766 2209 
L 2766 2266 
Q 2766 2663 2505 2880 
Q 2244 3097 1772 3097 
Q 1472 3097 1187 3025 
Q 903 2953 641 2809 
L 641 3341 
Q 956 3463 1253 3523 
Q 1550 3584 1831 3584 
Q 2591 3584 2966 3190 
Q 3341 2797 3341 1997 
z
" transform="scale(0.015625)"/>
       <path id="DejaVuSans-75" d="M 544 1381 
L 544 3500 
L 1119 3500 
L 1119 1403 
Q 1119 906 1312 657 
Q 1506 409 1894 409 
Q 2359 409 2629 706 
Q 2900 1003 2900 1516 
L 2900 3500 
L 3475 3500 
L 3475 0 
L 2900 0 
L 2900 538 
Q 2691 219 2414 64 
Q 2138 -91 1772 -91 
Q 1169 -91 856 284 
Q 544 659 544 1381 
z
M 1991 3584 
L 1991 3584 
z
" transform="scale(0.015625)"/>
      </defs>
      <use xlink:href="#DejaVuSans-76"/>
      <use xlink:href="#DejaVuSans-65" x="59.179688"/>
      <use xlink:href="#DejaVuSans-6c" x="120.703125"/>
      <use xlink:href="#DejaVuSans-6f" x="148.486328"/>
      <use xlink:href="#DejaVuSans-63" x="209.667969"/>
      <use xlink:href="#DejaVuSans-69" x="264.648438"/>
      <use xlink:href="#DejaVuSans-74" x="292.431641"/>
      <use xlink:href="#DejaVuSans-79" x="331.640625"/>
      <use xlink:href="#DejaVuSans-20" x="390.820312"/>
      <use xlink:href="#DejaVuSans-28" x="422.607422"/>
      <use xlink:href="#DejaVuSans-61" x="461.621094"/>
      <use xlink:href="#DejaVuSans-2e" x="522.900391"/>
      <use xlink:href="#DejaVuSans-75" x="554.6875"/>
      <use xlink:href="#DejaVuSans-2e" x="618.066406"/>
      <use xlink:href="#DejaVuSans-29" x="649.853516"/>
     </g>
    </g>
   </g>
   <g id="line2d_14">
    <path d="M 84.316761 137.242194 
L 85.588122 137.040429 
L 88.130842 137.212617 
L 91.944923 136.886948 
L 94.487643 137.029912 
L 98.301724 136.538961 
L 99.573084 136.757709 
L 100.844444 136.779552 
L 103.387165 136.412221 
L 105.929885 136.486257 
L 108.472606 136.329321 
L 111.015326 136.393747 
L 114.829407 136.252844 
L 116.100767 136.065018 
L 117.372127 136.001726 
L 118.643487 136.347686 
L 119.914847 136.098944 
L 121.186208 132.520176 
L 122.457568 124.071177 
L 123.728928 109.937402 
L 125.000288 97.601206 
L 126.271649 93.534214 
L 127.543009 93.275712 
L 128.814369 92.803147 
L 130.085729 95.342085 
L 131.357089 101.295277 
L 132.62845 104.465838 
L 135.17117 99.212452 
L 137.713891 103.310544 
L 140.256611 99.53604 
L 141.527971 99.798276 
L 142.799331 97.442881 
L 144.070692 89.840503 
L 145.342052 83.940155 
L 146.613412 85.4452 
L 147.884772 89.537032 
L 149.156133 98.182107 
L 150.427493 119.870833 
L 151.698853 144.114961 
L 152.970213 158.876944 
L 154.241573 165.844276 
L 155.512934 162.659021 
L 156.784294 153.167315 
L 158.055654 146.892037 
L 159.327014 146.230503 
L 160.598374 148.390822 
L 161.869735 149.517283 
L 163.141095 149.829969 
L 164.412455 150.348202 
L 165.683815 148.076658 
L 166.955176 142.506145 
L 168.226536 137.681683 
L 169.497896 135.707736 
L 170.769256 136.841383 
L 172.040616 138.286998 
L 173.311977 138.222429 
L 174.583337 137.427967 
L 175.854697 137.001036 
L 177.126057 137.376936 
L 178.397418 137.890063 
L 179.668778 138.085135 
L 182.211498 137.968179 
L 184.754219 138.363092 
L 186.025579 138.302207 
L 189.83966 137.267622 
L 191.11102 137.456549 
L 192.38238 138.690256 
L 193.65374 140.153552 
L 194.9251 141.285842 
L 196.196461 141.682408 
L 197.467821 141.51509 
L 198.739181 141.486575 
L 200.010541 140.579304 
L 201.281901 136.059236 
L 203.824622 122.175011 
L 205.095982 110.141411 
L 206.367342 96.636579 
L 207.638703 91.998547 
L 208.910063 94.478835 
L 210.181423 101.579678 
L 211.452783 112.89796 
L 212.724143 122.747725 
L 213.995504 127.920443 
L 215.266864 130.90569 
L 216.538224 132.811938 
L 217.809584 133.160039 
L 219.080945 132.272252 
L 220.352305 127.750023 
L 221.623665 121.086143 
L 222.895025 118.368189 
L 224.166385 118.378835 
L 225.437746 117.638274 
L 226.709106 118.631113 
L 227.980466 123.158744 
L 230.523187 133.486032 
L 231.794547 137.726035 
L 233.065907 139.549722 
L 234.337267 138.910942 
L 235.608627 137.770357 
L 236.879988 137.610322 
L 238.151348 137.885579 
L 240.694068 137.803318 
L 243.236789 138.641087 
L 244.508149 138.790907 
L 245.779509 139.155694 
L 247.050869 139.35705 
L 249.59359 138.971308 
L 250.86495 139.05626 
L 252.13631 138.890185 
L 254.679031 137.563429 
L 255.950391 137.284801 
L 257.221751 137.156677 
L 259.764472 136.440374 
L 261.035832 136.813881 
L 262.307192 138.911304 
L 263.578552 143.485175 
L 264.849912 150.20944 
L 266.121273 161.572266 
L 267.392633 176.432511 
L 268.663993 188.536806 
L 269.935353 198.422309 
L 271.206714 212.016998 
L 272.478074 218.88 
L 275.020794 204.977521 
L 276.292154 205.531392 
L 277.563515 201.894942 
L 278.834875 190.485962 
L 280.106235 184.542721 
L 281.377595 187.873746 
L 282.648955 189.258434 
L 286.463036 171.817259 
L 287.734396 160.215276 
L 289.005757 146.083633 
L 290.277117 136.545735 
L 291.548477 130.591042 
L 292.819837 129.317345 
L 294.091197 132.171622 
L 295.362558 134.602228 
L 296.633918 136.243519 
L 297.905278 140.116248 
L 299.176638 144.731951 
L 300.447999 146.8128 
L 301.719359 146.786571 
L 302.990719 145.380006 
L 304.262079 141.934173 
L 306.8048 133.622983 
L 308.07616 131.800822 
L 309.34752 132.982915 
L 310.61888 135.00697 
L 311.890241 136.117242 
L 314.432961 136.077258 
L 319.518402 136.901739 
L 322.061122 136.766753 
L 323.332482 136.937125 
L 324.603843 136.825733 
L 325.875203 136.540065 
L 327.146563 136.554247 
L 329.689284 136.742615 
L 334.774724 136.994904 
L 336.046085 137.139955 
L 337.317445 137.171546 
L 341.131526 136.509443 
L 342.402886 135.812567 
L 343.674246 134.681041 
L 344.945606 134.159957 
L 346.216966 133.92985 
L 347.488327 132.322471 
L 348.759687 129.049413 
L 350.031047 123.639945 
L 351.302407 115.40937 
L 352.573768 100.716563 
L 353.845128 82.42087 
L 355.116488 68.944007 
L 356.387848 56.720472 
L 357.659208 36.042737 
L 358.930569 19.141232 
L 360.201929 18.972369 
L 361.473289 22.955632 
L 362.744649 22.904873 
L 364.016009 31.531673 
L 365.28737 50.298315 
L 366.55873 64.108081 
L 367.83009 72.454185 
L 369.10145 85.102496 
L 370.372811 100.356786 
L 371.644171 110.883492 
L 372.915531 116.864209 
L 375.458251 130.650294 
L 376.729612 132.974911 
L 378.000972 130.633633 
L 379.272332 130.813903 
L 380.543692 133.976465 
L 381.815053 135.523165 
L 383.086413 138.481897 
L 384.357773 148.78071 
L 385.629133 156.350639 
L 386.900493 154.364189 
L 389.443214 144.37377 
L 390.714574 142.326723 
L 391.985934 143.954308 
L 393.257295 147.906146 
L 394.528655 150.049354 
L 395.800015 149.254461 
L 397.071375 148.864471 
L 398.342735 149.837784 
L 399.614096 149.958787 
L 400.885456 148.808069 
L 402.156816 148.185723 
L 403.428176 147.391943 
L 404.699536 143.979505 
L 405.970897 139.790767 
L 407.242257 137.595273 
L 408.513617 135.720321 
L 409.784977 132.492372 
L 411.056338 129.770972 
L 412.327698 127.530061 
L 413.599058 124.424435 
L 414.870418 123.993461 
L 416.141778 128.245526 
L 417.413139 132.998823 
L 418.684499 136.702106 
L 419.955859 138.240735 
L 421.227219 138.038139 
L 422.49858 138.747929 
L 423.76994 140.240771 
L 425.0413 140.336384 
L 426.31266 139.646642 
L 427.58402 139.397501 
L 430.126741 140.908879 
L 432.669461 138.825891 
L 433.940822 139.687249 
L 435.212182 141.799884 
L 436.483542 143.016855 
L 439.026262 143.557671 
L 440.297623 142.855343 
L 442.840343 138.849144 
L 445.383063 136.025376 
L 446.654424 135.193077 
L 447.925784 134.964803 
L 449.197144 134.249828 
L 450.468504 131.525596 
L 451.739865 126.582414 
L 453.011225 119.742298 
L 454.282585 108.8504 
L 455.553945 96.910502 
L 456.825305 93.941093 
L 459.368026 103.723986 
L 460.639386 109.73902 
L 461.910746 119.196176 
L 463.182107 126.698994 
L 464.453467 132.899618 
L 465.724827 142.507463 
L 466.996187 150.912158 
L 468.267547 156.573345 
L 469.538908 160.987027 
L 470.810268 159.212384 
L 472.081628 153.772323 
L 473.352988 149.54535 
L 475.895709 139.340453 
L 477.167069 138.093513 
L 478.438429 139.242306 
L 479.709789 140.032934 
L 480.98115 140.250082 
L 482.25251 140.749504 
L 483.52387 141.103698 
L 484.79523 140.812573 
L 487.337951 137.879881 
L 488.609311 137.854507 
L 489.880671 139.218155 
L 491.152031 140.034523 
L 492.423392 140.197899 
L 493.694752 141.418633 
L 494.966112 144.014683 
L 496.237472 144.024747 
L 497.508832 140.568785 
L 498.780193 137.589009 
L 500.051553 136.148023 
L 501.322913 135.676352 
L 502.594273 135.903115 
L 503.865634 136.621442 
L 505.136994 137.687687 
L 506.408354 138.469229 
L 507.679714 138.319071 
L 508.951074 137.490949 
L 510.222435 136.984907 
L 512.765155 137.528896 
L 514.036515 137.000003 
L 515.307876 133.943733 
L 516.579236 130.145739 
L 517.850596 129.848461 
L 519.121956 130.98923 
L 520.393316 128.47129 
L 521.664677 119.216738 
L 522.936037 108.543696 
L 524.207397 99.84708 
L 525.478757 88.355743 
L 526.750117 83.536028 
L 528.021478 89.359669 
L 529.292838 92.455661 
L 530.564198 88.301808 
L 531.835558 85.456356 
L 533.106919 85.455585 
L 534.378279 83.562515 
L 535.649639 91.502226 
L 536.920999 117.472227 
L 538.192359 137.738798 
L 542.00644 160.014059 
L 543.2778 159.683282 
L 544.549161 157.773691 
L 545.820521 156.710215 
L 548.363241 152.380382 
L 549.634601 152.741625 
L 552.177322 161.208806 
L 553.448682 160.014453 
L 554.720042 154.127164 
L 555.991403 143.35961 
L 557.262763 134.072557 
L 558.534123 133.184355 
L 559.805483 134.976858 
L 561.076843 135.341792 
L 562.348204 135.483818 
L 563.619564 134.698621 
L 564.890924 132.775783 
L 566.162284 130.083701 
L 567.433644 129.470387 
L 568.705005 132.213747 
L 569.976365 134.174334 
L 571.247725 134.493113 
L 572.519085 135.584955 
L 573.790446 136.981095 
L 575.061806 137.904446 
L 576.333166 138.341205 
L 578.875886 137.775885 
L 580.147247 137.90754 
L 581.418607 137.774434 
L 582.689967 137.289536 
L 585.232688 136.7304 
L 586.504048 136.240817 
L 587.775408 135.463183 
L 589.046768 134.40018 
L 590.318128 133.69069 
L 591.589489 133.776541 
L 591.589489 133.776541 
" clip-path="url(#p0b2c1a21db)" style="fill: none; stroke-dasharray: 5.55,2.4; stroke-dashoffset: 0; stroke: #ff0000; stroke-width: 1.5"/>
   </g>
   <g id="line2d_15">
    <path d="M 84.316761 137.149762 
L 85.588122 136.621658 
L 86.859482 135.890414 
L 88.130842 136.03191 
L 89.402202 136.499265 
L 90.673562 136.803907 
L 91.944923 135.575213 
L 93.216283 134.930893 
L 94.487643 136.32137 
L 95.759003 137.505719 
L 97.030364 136.842314 
L 98.301724 135.762548 
L 99.573084 132.666864 
L 100.844444 136.437798 
L 102.115804 133.86802 
L 103.387165 135.763269 
L 104.658525 134.546645 
L 105.929885 133.970188 
L 107.201245 135.221255 
L 108.472606 133.519219 
L 109.743966 136.365301 
L 111.015326 136.803142 
L 113.558046 132.873779 
L 114.829407 132.841342 
L 116.100767 134.402043 
L 117.372127 129.838493 
L 118.643487 129.82964 
L 119.914847 128.357731 
L 121.186208 124.045014 
L 122.457568 114.151327 
L 123.728928 98.758632 
L 125.000288 87.931797 
L 126.271649 81.048616 
L 127.543009 60.234208 
L 128.814369 67.04447 
L 130.085729 70.825258 
L 131.357089 63.671176 
L 132.62845 68.819204 
L 133.89981 65.144802 
L 135.17117 66.644321 
L 136.44253 67.313807 
L 137.713891 76.379381 
L 138.985251 78.167713 
L 140.256611 87.023629 
L 141.527971 97.551272 
L 142.799331 105.600765 
L 144.070692 108.90384 
L 145.342052 103.333923 
L 146.613412 93.76987 
L 147.884772 91.162693 
L 149.156133 107.45447 
L 150.427493 114.326732 
L 151.698853 137.500254 
L 154.241573 149.685845 
L 155.512934 153.913904 
L 156.784294 148.738056 
L 158.055654 145.912459 
L 159.327014 142.321263 
L 160.598374 146.693368 
L 161.869735 145.271613 
L 163.141095 142.492602 
L 164.412455 143.921011 
L 165.683815 140.297916 
L 168.226536 137.037852 
L 169.497896 138.48718 
L 172.040616 136.578677 
L 173.311977 135.385012 
L 174.583337 135.478088 
L 175.854697 132.545515 
L 177.126057 134.227239 
L 178.397418 134.188593 
L 179.668778 134.377541 
L 180.940138 135.879983 
L 182.211498 134.659969 
L 183.482858 135.836408 
L 184.754219 135.929035 
L 186.025579 138.543366 
L 187.296939 139.009572 
L 188.568299 137.084213 
L 189.83966 131.771987 
L 191.11102 132.589663 
L 192.38238 133.773891 
L 193.65374 129.157711 
L 194.9251 128.137524 
L 196.196461 134.614202 
L 197.467821 145.037381 
L 198.739181 153.690488 
L 200.010541 148.45869 
L 201.281901 139.054384 
L 202.553262 121.232529 
L 203.824622 94.413492 
L 205.095982 72.560698 
L 206.367342 72.168043 
L 207.638703 71.380526 
L 208.910063 66.357275 
L 210.181423 67.422523 
L 211.452783 73.562281 
L 212.724143 88.329799 
L 213.995504 97.764951 
L 215.266864 116.587564 
L 216.538224 115.350667 
L 217.809584 115.603323 
L 219.080945 116.383426 
L 221.623665 96.513344 
L 222.895025 90.76787 
L 224.166385 92.910548 
L 225.437746 84.718961 
L 226.709106 90.355111 
L 229.251826 111.382013 
L 230.523187 123.413797 
L 231.794547 129.713478 
L 233.065907 135.438045 
L 234.337267 134.201198 
L 235.608627 135.194219 
L 238.151348 135.764706 
L 239.422708 133.962633 
L 240.694068 135.114748 
L 241.965428 135.937167 
L 243.236789 139.387995 
L 244.508149 138.207367 
L 245.779509 139.348779 
L 247.050869 140.672608 
L 248.32223 142.937515 
L 249.59359 140.431296 
L 250.86495 140.358763 
L 252.13631 142.38416 
L 253.40767 140.447064 
L 254.679031 142.148985 
L 255.950391 139.208951 
L 257.221751 139.226982 
L 258.493111 139.977953 
L 259.764472 139.734739 
L 261.035832 140.762818 
L 262.307192 141.38042 
L 263.578552 139.914628 
L 264.849912 147.335249 
L 266.121273 149.655141 
L 267.392633 161.721881 
L 268.663993 165.613641 
L 269.935353 161.90412 
L 272.478074 165.891268 
L 273.749434 175.034494 
L 275.020794 172.652494 
L 276.292154 167.844239 
L 277.563515 175.310173 
L 278.834875 171.8828 
L 280.106235 170.609488 
L 281.377595 159.402728 
L 282.648955 152.42876 
L 283.920316 150.934911 
L 285.191676 149.849937 
L 286.463036 142.344343 
L 287.734396 138.726191 
L 290.277117 124.520346 
L 291.548477 123.35706 
L 292.819837 122.422765 
L 294.091197 133.665934 
L 295.362558 132.414515 
L 296.633918 133.253604 
L 297.905278 129.772144 
L 299.176638 115.9013 
L 300.447999 117.131539 
L 301.719359 126.287269 
L 302.990719 131.599071 
L 304.262079 132.57339 
L 305.533439 137.461922 
L 306.8048 140.243601 
L 308.07616 138.281217 
L 309.34752 139.996059 
L 310.61888 137.618268 
L 311.890241 137.070101 
L 313.161601 138.187851 
L 314.432961 139.130281 
L 315.704321 137.814018 
L 316.975681 134.559939 
L 318.247042 136.231043 
L 319.518402 135.707319 
L 320.789762 136.40247 
L 322.061122 136.151016 
L 323.332482 138.357276 
L 324.603843 134.669415 
L 325.875203 137.286189 
L 327.146563 137.814118 
L 329.689284 141.650243 
L 330.960644 143.071485 
L 332.232004 139.634556 
L 333.503364 139.874103 
L 334.774724 139.314065 
L 336.046085 138.140133 
L 337.317445 137.791889 
L 338.588805 135.162544 
L 341.131526 136.178184 
L 342.402886 135.400861 
L 343.674246 133.186488 
L 344.945606 137.516912 
L 346.216966 139.994274 
L 347.488327 145.644665 
L 348.759687 140.89181 
L 350.031047 134.725013 
L 352.573768 120.935806 
L 353.845128 105.396802 
L 355.116488 103.800769 
L 356.387848 97.113764 
L 357.659208 75.241683 
L 358.930569 85.425691 
L 360.201929 86.929638 
L 361.473289 86.267665 
L 362.744649 77.745642 
L 364.016009 83.450555 
L 365.28737 82.207077 
L 366.55873 103.64005 
L 367.83009 110.51905 
L 369.10145 113.415055 
L 370.372811 103.608527 
L 371.644171 107.586251 
L 372.915531 102.319904 
L 374.186891 101.94238 
L 375.458251 111.386662 
L 376.729612 118.620259 
L 378.000972 123.214756 
L 379.272332 129.12681 
L 380.543692 129.9605 
L 381.815053 133.240214 
L 383.086413 133.515082 
L 384.357773 130.723548 
L 385.629133 133.07001 
L 386.900493 133.766976 
L 388.171854 133.704648 
L 389.443214 134.611235 
L 390.714574 134.486905 
L 393.257295 139.966398 
L 394.528655 145.133539 
L 395.800015 143.299371 
L 397.071375 143.347959 
L 398.342735 145.685242 
L 399.614096 144.178598 
L 400.885456 139.876835 
L 402.156816 140.416291 
L 403.428176 141.61654 
L 404.699536 137.503205 
L 405.970897 136.086122 
L 407.242257 139.674526 
L 408.513617 134.535426 
L 409.784977 133.251935 
L 411.056338 129.399288 
L 412.327698 131.44774 
L 413.599058 130.834535 
L 414.870418 129.549753 
L 416.141778 126.481628 
L 417.413139 122.025063 
L 418.684499 127.095985 
L 419.955859 134.462928 
L 421.227219 135.42268 
L 422.49858 129.178673 
L 423.76994 136.610586 
L 425.0413 136.1615 
L 426.31266 138.831351 
L 427.58402 137.19731 
L 428.855381 137.610849 
L 430.126741 141.321989 
L 431.398101 140.094462 
L 432.669461 140.704135 
L 433.940822 136.77165 
L 435.212182 141.480291 
L 436.483542 144.080827 
L 437.754902 142.133856 
L 439.026262 142.414408 
L 440.297623 142.104416 
L 441.568983 144.425253 
L 442.840343 137.188506 
L 445.383063 131.479444 
L 446.654424 133.994948 
L 447.925784 135.818938 
L 449.197144 132.21807 
L 450.468504 130.855899 
L 451.739865 128.333321 
L 453.011225 129.204196 
L 454.282585 139.122096 
L 455.553945 141.47196 
L 456.825305 140.486125 
L 458.096666 144.453167 
L 459.368026 135.872523 
L 460.639386 133.616915 
L 461.910746 127.740847 
L 463.182107 125.315126 
L 464.453467 126.176949 
L 465.724827 127.865959 
L 466.996187 120.693834 
L 468.267547 133.849193 
L 469.538908 132.296989 
L 470.810268 136.024565 
L 472.081628 149.442334 
L 473.352988 142.707383 
L 474.624349 140.281017 
L 477.167069 143.302024 
L 479.709789 138.853169 
L 480.98115 143.156134 
L 482.25251 136.010693 
L 483.52387 133.913814 
L 484.79523 142.414439 
L 486.06659 135.547148 
L 487.337951 135.634343 
L 488.609311 131.377267 
L 489.880671 133.684703 
L 491.152031 143.169368 
L 493.694752 137.176812 
L 494.966112 138.238873 
L 496.237472 137.117664 
L 497.508832 136.176305 
L 498.780193 138.811478 
L 500.051553 137.502487 
L 501.322913 136.662213 
L 502.594273 134.754405 
L 503.865634 136.036934 
L 505.136994 137.942665 
L 506.408354 137.4203 
L 507.679714 136.299221 
L 508.951074 138.310439 
L 510.222435 135.021303 
L 511.493795 139.237773 
L 512.765155 139.952168 
L 514.036515 135.0962 
L 515.307876 136.950934 
L 516.579236 132.818752 
L 517.850596 134.610784 
L 519.121956 132.192097 
L 521.664677 114.396703 
L 522.936037 102.978768 
L 524.207397 105.389307 
L 525.478757 112.765611 
L 526.750117 110.695913 
L 528.021478 102.436784 
L 529.292838 97.538327 
L 530.564198 85.969043 
L 531.835558 77.638138 
L 533.106919 70.404012 
L 534.378279 71.681627 
L 535.649639 90.543619 
L 536.920999 89.417642 
L 538.192359 94.958182 
L 539.46372 105.473129 
L 540.73508 124.423683 
L 542.00644 126.181373 
L 543.2778 135.690355 
L 544.549161 136.031028 
L 545.820521 136.246558 
L 547.091881 141.786188 
L 548.363241 135.763173 
L 549.634601 136.589907 
L 550.905962 131.746895 
L 552.177322 134.721418 
L 553.448682 135.292226 
L 554.720042 139.925872 
L 555.991403 137.149383 
L 558.534123 140.053202 
L 559.805483 141.305982 
L 561.076843 135.238139 
L 562.348204 132.513652 
L 563.619564 136.833293 
L 566.162284 129.930839 
L 567.433644 137.262574 
L 568.705005 139.775457 
L 569.976365 142.624432 
L 571.247725 146.260082 
L 572.519085 141.613542 
L 573.790446 149.428793 
L 575.061806 140.996334 
L 576.333166 143.874147 
L 577.604526 151.759504 
L 578.875886 142.046944 
L 580.147247 136.393611 
L 581.418607 137.701718 
L 582.689967 140.327409 
L 583.961327 138.38718 
L 585.232688 136.006521 
L 586.504048 132.363172 
L 587.775408 131.757111 
L 589.046768 137.719901 
L 590.318128 132.687834 
L 591.589489 128.750336 
L 591.589489 128.750336 
" clip-path="url(#p0b2c1a21db)" style="fill: none; stroke-dasharray: 1.5,2.475; stroke-dashoffset: 0; stroke: #ff7f0e; stroke-width: 1.5"/>
   </g>
   <g id="line2d_16">
    <path d="M 84.316761 137.866239 
L 88.130842 135.570561 
L 89.402202 135.023534 
L 90.673562 135.606669 
L 91.944923 136.999902 
L 93.216283 137.673571 
L 94.487643 137.609464 
L 97.030364 136.398576 
L 98.301724 136.009342 
L 100.844444 136.047861 
L 102.115804 135.660693 
L 104.658525 135.731015 
L 107.201245 137.363732 
L 111.015326 138.229379 
L 112.286686 137.797741 
L 113.558046 136.965009 
L 114.829407 136.456 
L 116.100767 136.562144 
L 117.372127 135.651361 
L 118.643487 133.682814 
L 119.914847 129.011417 
L 121.186208 121.922661 
L 122.457568 113.065234 
L 125.000288 93.56853 
L 126.271649 86.576391 
L 127.543009 82.27154 
L 128.814369 80.392758 
L 130.085729 80.521857 
L 131.357089 80.952917 
L 133.89981 78.514912 
L 135.17117 78.869133 
L 136.44253 81.168019 
L 137.713891 87.4091 
L 138.985251 94.904463 
L 140.256611 103.702807 
L 141.527971 111.355934 
L 142.799331 116.592774 
L 144.070692 119.124541 
L 145.342052 119.89174 
L 146.613412 120.79034 
L 147.884772 126.375248 
L 150.427493 146.486536 
L 151.698853 154.013563 
L 152.970213 157.444434 
L 154.241573 157.09248 
L 155.512934 153.6391 
L 156.784294 149.822435 
L 158.055654 147.954713 
L 159.327014 147.624878 
L 160.598374 146.281057 
L 161.869735 144.71898 
L 163.141095 142.885666 
L 164.412455 140.777937 
L 165.683815 139.02734 
L 168.226536 136.961652 
L 169.497896 136.380304 
L 170.769256 136.171834 
L 172.040616 136.106915 
L 173.311977 136.769463 
L 174.583337 137.769571 
L 175.854697 137.736066 
L 178.397418 137.312703 
L 180.940138 137.450049 
L 182.211498 136.906802 
L 183.482858 136.499421 
L 184.754219 136.534178 
L 186.025579 136.819033 
L 187.296939 136.958266 
L 188.568299 137.3563 
L 189.83966 138.545508 
L 191.11102 140.32904 
L 192.38238 141.902431 
L 193.65374 142.137202 
L 194.9251 139.998171 
L 196.196461 137.189344 
L 197.467821 133.980311 
L 198.739181 131.084902 
L 200.010541 126.101014 
L 202.553262 112.719804 
L 203.824622 109.763268 
L 205.095982 108.190151 
L 206.367342 106.819374 
L 207.638703 104.720612 
L 208.910063 101.146892 
L 210.181423 100.227508 
L 211.452783 106.155182 
L 212.724143 114.787866 
L 213.995504 122.542753 
L 215.266864 128.490981 
L 216.538224 131.852939 
L 217.809584 132.665216 
L 219.080945 132.365664 
L 220.352305 131.389163 
L 221.623665 128.533299 
L 222.895025 125.952706 
L 224.166385 126.706388 
L 225.437746 129.346112 
L 226.709106 133.575065 
L 227.980466 136.637061 
L 229.251826 138.959722 
L 230.523187 139.827075 
L 231.794547 140.105598 
L 233.065907 139.077883 
L 234.337267 137.464519 
L 235.608627 136.347039 
L 236.879988 135.909108 
L 240.694068 137.763768 
L 241.965428 138.446139 
L 243.236789 138.591187 
L 245.779509 137.491249 
L 248.32223 137.003537 
L 249.59359 136.022043 
L 253.40767 136.386177 
L 254.679031 136.307881 
L 257.221751 136.960724 
L 258.493111 138.15051 
L 259.764472 138.956182 
L 261.035832 140.015935 
L 262.307192 143.44346 
L 263.578552 149.410643 
L 266.121273 163.901409 
L 267.392633 171.586634 
L 268.663993 178.084503 
L 269.935353 187.712385 
L 271.206714 195.601124 
L 272.478074 199.687575 
L 273.749434 202.557399 
L 275.020794 202.672236 
L 276.292154 199.545804 
L 278.834875 192.040224 
L 281.377595 188.248327 
L 282.648955 184.363384 
L 283.920316 179.627861 
L 285.191676 173.357566 
L 289.005757 148.775736 
L 290.277117 143.040269 
L 291.548477 140.370833 
L 294.091197 140.382762 
L 295.362558 138.332249 
L 296.633918 136.518448 
L 297.905278 135.164461 
L 299.176638 136.584734 
L 300.447999 139.3619 
L 301.719359 142.60776 
L 302.990719 144.978679 
L 304.262079 146.292663 
L 305.533439 144.775865 
L 306.8048 142.796279 
L 308.07616 141.826037 
L 309.34752 140.495225 
L 311.890241 135.285443 
L 313.161601 133.465346 
L 314.432961 133.611777 
L 315.704321 133.997615 
L 318.247042 134.160853 
L 320.789762 134.81047 
L 325.875203 135.276182 
L 327.146563 135.092083 
L 329.689284 134.148211 
L 330.960644 134.553966 
L 332.232004 134.798861 
L 333.503364 134.40254 
L 334.774724 134.351567 
L 336.046085 134.455242 
L 337.317445 134.871239 
L 338.588805 135.452939 
L 339.860165 135.263021 
L 341.131526 134.938961 
L 342.402886 134.031143 
L 344.945606 130.380656 
L 348.759687 120.109749 
L 350.031047 112.988481 
L 351.302407 101.047289 
L 355.116488 48.268822 
L 356.387848 36.806449 
L 357.659208 31.96159 
L 358.930569 33.668568 
L 360.201929 40.750293 
L 361.473289 53.761974 
L 362.744649 73.381742 
L 366.55873 138.327734 
L 367.83009 152.1526 
L 369.10145 159.510112 
L 370.372811 160.318935 
L 371.644171 155.19412 
L 374.186891 140.522099 
L 375.458251 134.087439 
L 376.729612 130.14365 
L 378.000972 128.455369 
L 379.272332 128.219026 
L 381.815053 129.455882 
L 383.086413 130.693789 
L 384.357773 132.141713 
L 385.629133 135.812425 
L 386.900493 140.346337 
L 388.171854 143.094119 
L 390.714574 148.103401 
L 391.985934 152.299229 
L 393.257295 156.886907 
L 394.528655 159.779071 
L 395.800015 156.236817 
L 397.071375 150.840552 
L 398.342735 146.387201 
L 399.614096 142.995913 
L 400.885456 141.763006 
L 402.156816 141.272158 
L 403.428176 140.571011 
L 404.699536 138.562827 
L 405.970897 136.019942 
L 407.242257 132.316198 
L 408.513617 129.602236 
L 409.784977 128.293913 
L 411.056338 126.52049 
L 412.327698 126.273759 
L 413.599058 127.630323 
L 414.870418 129.875335 
L 416.141778 131.30292 
L 417.413139 133.44238 
L 419.955859 138.172592 
L 421.227219 139.784334 
L 422.49858 141.191009 
L 423.76994 141.534869 
L 425.0413 142.015454 
L 426.31266 142.770153 
L 427.58402 143.255089 
L 428.855381 143.050398 
L 430.126741 142.992622 
L 431.398101 143.589523 
L 432.669461 145.17021 
L 433.940822 146.40945 
L 435.212182 145.496794 
L 436.483542 144.036317 
L 439.026262 139.180051 
L 440.297623 137.60711 
L 441.568983 135.774172 
L 442.840343 133.227693 
L 444.111703 131.486343 
L 445.383063 131.096466 
L 446.654424 131.378779 
L 447.925784 132.084586 
L 449.197144 131.321546 
L 450.468504 129.251047 
L 451.739865 125.483313 
L 453.011225 121.106335 
L 454.282585 117.710703 
L 455.553945 116.302983 
L 456.825305 118.668743 
L 458.096666 125.039371 
L 459.368026 133.365815 
L 460.639386 140.566414 
L 461.910746 144.711629 
L 463.182107 145.642623 
L 464.453467 144.673824 
L 465.724827 143.314438 
L 466.996187 139.597209 
L 469.538908 130.197868 
L 470.810268 128.954469 
L 472.081628 131.685998 
L 473.352988 135.108196 
L 474.624349 137.837678 
L 475.895709 138.423355 
L 477.167069 137.120424 
L 478.438429 136.370827 
L 479.709789 136.335915 
L 483.52387 141.642916 
L 484.79523 142.387681 
L 486.06659 141.874288 
L 487.337951 141.952914 
L 488.609311 141.384458 
L 492.423392 140.100743 
L 493.694752 139.425475 
L 494.966112 139.603772 
L 496.237472 140.047797 
L 498.780193 137.952128 
L 500.051553 137.518376 
L 501.322913 136.370518 
L 502.594273 136.240042 
L 503.865634 137.01618 
L 505.136994 137.499536 
L 506.408354 137.12682 
L 507.679714 136.945404 
L 511.493795 139.283153 
L 512.765155 139.267082 
L 514.036515 138.874959 
L 515.307876 137.815256 
L 516.579236 136.95094 
L 517.850596 134.580989 
L 519.121956 129.993825 
L 520.393316 123.538997 
L 522.936037 112.141019 
L 524.207397 106.210646 
L 525.478757 103.945265 
L 526.750117 105.690213 
L 528.021478 106.278224 
L 529.292838 105.736135 
L 531.835558 99.860817 
L 533.106919 98.729849 
L 534.378279 100.630293 
L 535.649639 106.148913 
L 538.192359 121.127676 
L 539.46372 127.540935 
L 540.73508 132.029011 
L 542.00644 135.024088 
L 543.2778 136.397165 
L 544.549161 138.016895 
L 545.820521 141.84963 
L 547.091881 146.843851 
L 548.363241 151.237254 
L 549.634601 154.667955 
L 550.905962 157.185997 
L 552.177322 155.110891 
L 553.448682 150.96108 
L 554.720042 146.139964 
L 557.262763 137.867086 
L 558.534123 135.305282 
L 559.805483 133.785309 
L 561.076843 131.744852 
L 562.348204 131.105911 
L 563.619564 130.92696 
L 566.162284 132.203719 
L 567.433644 132.680977 
L 568.705005 134.162366 
L 569.976365 135.052762 
L 571.247725 135.744623 
L 572.519085 135.56565 
L 573.790446 136.300975 
L 575.061806 138.413695 
L 576.333166 138.921942 
L 578.875886 139.403253 
L 580.147247 139.04237 
L 582.689967 137.054042 
L 583.961327 136.566019 
L 585.232688 135.540598 
L 586.504048 133.895595 
L 587.775408 133.458834 
L 589.046768 134.184872 
L 590.318128 133.756844 
L 591.589489 133.921996 
L 591.589489 133.921996 
" clip-path="url(#p0b2c1a21db)" style="fill: none; stroke: #1f77b4; stroke-width: 1.5; stroke-linecap: square"/>
   </g>
   <g id="patch_3">
    <path d="M 58.953125 228.96 
L 58.953125 7.2 
" style="fill: none; stroke: #000000; stroke-width: 0.8; stroke-linejoin: miter; stroke-linecap: square"/>
   </g>
   <g id="patch_4">
    <path d="M 616.953125 228.96 
L 616.953125 7.2 
" style="fill: none; stroke: #000000; stroke-width: 0.8; stroke-linejoin: miter; stroke-linecap: square"/>
   </g>
   <g id="patch_5">
    <path d="M 58.953125 228.96 
L 616.953125 228.96 
" style="fill: none; stroke: #000000; stroke-width: 0.8; stroke-linejoin: miter; stroke-linecap: square"/>
   </g>
   <g id="patch_6">
    <path d="M 58.953125 7.2 
L 616.953125 7.2 
" style="fill: none; stroke: #000000; stroke-width: 0.8; stroke-linejoin: miter; stroke-linecap: square"/>
   </g>
   <g id="legend_1">
    <g id="patch_7">
     <path d="M 425.433125 87.33375 
L 608.553125 87.33375 
Q 610.953125 87.33375 610.953125 84.93375 
L 610.953125 15.6 
Q 610.953125 13.2 608.553125 13.2 
L 425.433125 13.2 
Q 423.033125 13.2 423.033125 15.6 
L 423.033125 84.93375 
Q 423.033125 87.33375 425.433125 87.33375 
z
" style="fill: #ffffff; opacity: 0.8; stroke: #cccccc; stroke-linejoin: miter"/>
    </g>
    <g id="line2d_17">
     <path d="M 427.833125 22.92 
L 439.833125 22.92 
L 451.833125 22.92 
" style="fill: none; stroke-dasharray: 5.55,2.4; stroke-dashoffset: 0; stroke: #ff0000; stroke-width: 1.5"/>
    </g>
    <g id="text_16">
     <!-- original $v_x$ -->
     <g transform="translate(461.433125 27.12) scale(0.12 -0.12)">
      <defs>
       <path id="DejaVuSans-72" d="M 2631 2963 
Q 2534 3019 2420 3045 
Q 2306 3072 2169 3072 
Q 1681 3072 1420 2755 
Q 1159 2438 1159 1844 
L 1159 0 
L 581 0 
L 581 3500 
L 1159 3500 
L 1159 2956 
Q 1341 3275 1631 3429 
Q 1922 3584 2338 3584 
Q 2397 3584 2469 3576 
Q 2541 3569 2628 3553 
L 2631 2963 
z
" transform="scale(0.015625)"/>
       <path id="DejaVuSans-67" d="M 2906 1791 
Q 2906 2416 2648 2759 
Q 2391 3103 1925 3103 
Q 1463 3103 1205 2759 
Q 947 2416 947 1791 
Q 947 1169 1205 825 
Q 1463 481 1925 481 
Q 2391 481 2648 825 
Q 2906 1169 2906 1791 
z
M 3481 434 
Q 3481 -459 3084 -895 
Q 2688 -1331 1869 -1331 
Q 1566 -1331 1297 -1286 
Q 1028 -1241 775 -1147 
L 775 -588 
Q 1028 -725 1275 -790 
Q 1522 -856 1778 -856 
Q 2344 -856 2625 -561 
Q 2906 -266 2906 331 
L 2906 616 
Q 2728 306 2450 153 
Q 2172 0 1784 0 
Q 1141 0 747 490 
Q 353 981 353 1791 
Q 353 2603 747 3093 
Q 1141 3584 1784 3584 
Q 2172 3584 2450 3431 
Q 2728 3278 2906 2969 
L 2906 3500 
L 3481 3500 
L 3481 434 
z
" transform="scale(0.015625)"/>
       <path id="DejaVuSans-6e" d="M 3513 2113 
L 3513 0 
L 2938 0 
L 2938 2094 
Q 2938 2591 2744 2837 
Q 2550 3084 2163 3084 
Q 1697 3084 1428 2787 
Q 1159 2491 1159 1978 
L 1159 0 
L 581 0 
L 581 3500 
L 1159 3500 
L 1159 2956 
Q 1366 3272 1645 3428 
Q 1925 3584 2291 3584 
Q 2894 3584 3203 3211 
Q 3513 2838 3513 2113 
z
" transform="scale(0.015625)"/>
       <path id="DejaVuSans-Oblique-76" d="M 459 3500 
L 1069 3500 
L 1581 525 
L 3256 3500 
L 3866 3500 
L 1875 0 
L 1100 0 
L 459 3500 
z
" transform="scale(0.015625)"/>
       <path id="DejaVuSans-Oblique-78" d="M 3841 3500 
L 2234 1784 
L 3219 0 
L 2559 0 
L 1819 1388 
L 531 0 
L -166 0 
L 1556 1844 
L 641 3500 
L 1300 3500 
L 1972 2234 
L 3144 3500 
L 3841 3500 
z
" transform="scale(0.015625)"/>
      </defs>
      <use xlink:href="#DejaVuSans-6f" transform="translate(0 0.015625)"/>
      <use xlink:href="#DejaVuSans-72" transform="translate(61.181641 0.015625)"/>
      <use xlink:href="#DejaVuSans-69" transform="translate(102.294922 0.015625)"/>
      <use xlink:href="#DejaVuSans-67" transform="translate(130.078125 0.015625)"/>
      <use xlink:href="#DejaVuSans-69" transform="translate(193.554688 0.015625)"/>
      <use xlink:href="#DejaVuSans-6e" transform="translate(221.337891 0.015625)"/>
      <use xlink:href="#DejaVuSans-61" transform="translate(284.716797 0.015625)"/>
      <use xlink:href="#DejaVuSans-6c" transform="translate(345.996094 0.015625)"/>
      <use xlink:href="#DejaVuSans-20" transform="translate(373.779297 0.015625)"/>
      <use xlink:href="#DejaVuSans-Oblique-76" transform="translate(405.566406 0.015625)"/>
      <use xlink:href="#DejaVuSans-Oblique-78" transform="translate(464.746094 -16.390625) scale(0.7)"/>
     </g>
    </g>
    <g id="line2d_18">
     <path d="M 427.833125 40.56 
L 439.833125 40.56 
L 451.833125 40.56 
" style="fill: none; stroke-dasharray: 1.5,2.475; stroke-dashoffset: 0; stroke: #ff7f0e; stroke-width: 1.5"/>
    </g>
    <g id="text_17">
     <!-- bGPFA predicted $v_x$ -->
     <g transform="translate(461.433125 44.76) scale(0.12 -0.12)">
      <defs>
       <path id="DejaVuSans-62" d="M 3116 1747 
Q 3116 2381 2855 2742 
Q 2594 3103 2138 3103 
Q 1681 3103 1420 2742 
Q 1159 2381 1159 1747 
Q 1159 1113 1420 752 
Q 1681 391 2138 391 
Q 2594 391 2855 752 
Q 3116 1113 3116 1747 
z
M 1159 2969 
Q 1341 3281 1617 3432 
Q 1894 3584 2278 3584 
Q 2916 3584 3314 3078 
Q 3713 2572 3713 1747 
Q 3713 922 3314 415 
Q 2916 -91 2278 -91 
Q 1894 -91 1617 61 
Q 1341 213 1159 525 
L 1159 0 
L 581 0 
L 581 4863 
L 1159 4863 
L 1159 2969 
z
" transform="scale(0.015625)"/>
       <path id="DejaVuSans-47" d="M 3809 666 
L 3809 1919 
L 2778 1919 
L 2778 2438 
L 4434 2438 
L 4434 434 
Q 4069 175 3628 42 
Q 3188 -91 2688 -91 
Q 1594 -91 976 548 
Q 359 1188 359 2328 
Q 359 3472 976 4111 
Q 1594 4750 2688 4750 
Q 3144 4750 3555 4637 
Q 3966 4525 4313 4306 
L 4313 3634 
Q 3963 3931 3569 4081 
Q 3175 4231 2741 4231 
Q 1884 4231 1454 3753 
Q 1025 3275 1025 2328 
Q 1025 1384 1454 906 
Q 1884 428 2741 428 
Q 3075 428 3337 486 
Q 3600 544 3809 666 
z
" transform="scale(0.015625)"/>
       <path id="DejaVuSans-50" d="M 1259 4147 
L 1259 2394 
L 2053 2394 
Q 2494 2394 2734 2622 
Q 2975 2850 2975 3272 
Q 2975 3691 2734 3919 
Q 2494 4147 2053 4147 
L 1259 4147 
z
M 628 4666 
L 2053 4666 
Q 2838 4666 3239 4311 
Q 3641 3956 3641 3272 
Q 3641 2581 3239 2228 
Q 2838 1875 2053 1875 
L 1259 1875 
L 1259 0 
L 628 0 
L 628 4666 
z
" transform="scale(0.015625)"/>
       <path id="DejaVuSans-46" d="M 628 4666 
L 3309 4666 
L 3309 4134 
L 1259 4134 
L 1259 2759 
L 3109 2759 
L 3109 2228 
L 1259 2228 
L 1259 0 
L 628 0 
L 628 4666 
z
" transform="scale(0.015625)"/>
       <path id="DejaVuSans-41" d="M 2188 4044 
L 1331 1722 
L 3047 1722 
L 2188 4044 
z
M 1831 4666 
L 2547 4666 
L 4325 0 
L 3669 0 
L 3244 1197 
L 1141 1197 
L 716 0 
L 50 0 
L 1831 4666 
z
" transform="scale(0.015625)"/>
       <path id="DejaVuSans-70" d="M 1159 525 
L 1159 -1331 
L 581 -1331 
L 581 3500 
L 1159 3500 
L 1159 2969 
Q 1341 3281 1617 3432 
Q 1894 3584 2278 3584 
Q 2916 3584 3314 3078 
Q 3713 2572 3713 1747 
Q 3713 922 3314 415 
Q 2916 -91 2278 -91 
Q 1894 -91 1617 61 
Q 1341 213 1159 525 
z
M 3116 1747 
Q 3116 2381 2855 2742 
Q 2594 3103 2138 3103 
Q 1681 3103 1420 2742 
Q 1159 2381 1159 1747 
Q 1159 1113 1420 752 
Q 1681 391 2138 391 
Q 2594 391 2855 752 
Q 3116 1113 3116 1747 
z
" transform="scale(0.015625)"/>
       <path id="DejaVuSans-64" d="M 2906 2969 
L 2906 4863 
L 3481 4863 
L 3481 0 
L 2906 0 
L 2906 525 
Q 2725 213 2448 61 
Q 2172 -91 1784 -91 
Q 1150 -91 751 415 
Q 353 922 353 1747 
Q 353 2572 751 3078 
Q 1150 3584 1784 3584 
Q 2172 3584 2448 3432 
Q 2725 3281 2906 2969 
z
M 947 1747 
Q 947 1113 1208 752 
Q 1469 391 1925 391 
Q 2381 391 2643 752 
Q 2906 1113 2906 1747 
Q 2906 2381 2643 2742 
Q 2381 3103 1925 3103 
Q 1469 3103 1208 2742 
Q 947 2381 947 1747 
z
" transform="scale(0.015625)"/>
      </defs>
      <use xlink:href="#DejaVuSans-62" transform="translate(0 0.015625)"/>
      <use xlink:href="#DejaVuSans-47" transform="translate(63.476562 0.015625)"/>
      <use xlink:href="#DejaVuSans-50" transform="translate(140.966797 0.015625)"/>
      <use xlink:href="#DejaVuSans-46" transform="translate(201.269531 0.015625)"/>
      <use xlink:href="#DejaVuSans-41" transform="translate(258.789062 0.015625)"/>
      <use xlink:href="#DejaVuSans-20" transform="translate(327.197266 0.015625)"/>
      <use xlink:href="#DejaVuSans-70" transform="translate(358.984375 0.015625)"/>
      <use xlink:href="#DejaVuSans-72" transform="translate(422.460938 0.015625)"/>
      <use xlink:href="#DejaVuSans-65" transform="translate(463.574219 0.015625)"/>
      <use xlink:href="#DejaVuSans-64" transform="translate(525.097656 0.015625)"/>
      <use xlink:href="#DejaVuSans-69" transform="translate(588.574219 0.015625)"/>
      <use xlink:href="#DejaVuSans-63" transform="translate(616.357422 0.015625)"/>
      <use xlink:href="#DejaVuSans-74" transform="translate(671.337891 0.015625)"/>
      <use xlink:href="#DejaVuSans-65" transform="translate(710.546875 0.015625)"/>
      <use xlink:href="#DejaVuSans-64" transform="translate(772.070312 0.015625)"/>
      <use xlink:href="#DejaVuSans-20" transform="translate(835.546875 0.015625)"/>
      <use xlink:href="#DejaVuSans-Oblique-76" transform="translate(867.333984 0.015625)"/>
      <use xlink:href="#DejaVuSans-Oblique-78" transform="translate(926.513672 -16.390625) scale(0.7)"/>
     </g>
    </g>
    <g id="line2d_19">
     <path d="M 427.833125 58.2 
L 439.833125 58.2 
L 451.833125 58.2 
" style="fill: none; stroke: #1f77b4; stroke-width: 1.5; stroke-linecap: square"/>
    </g>
    <g id="text_18">
     <!-- joint model predicted $v_x$ -->
     <g transform="translate(461.433125 62.4) scale(0.12 -0.12)">
      <defs>
       <path id="DejaVuSans-6a" d="M 603 3500 
L 1178 3500 
L 1178 -63 
Q 1178 -731 923 -1031 
Q 669 -1331 103 -1331 
L -116 -1331 
L -116 -844 
L 38 -844 
Q 366 -844 484 -692 
Q 603 -541 603 -63 
L 603 3500 
z
M 603 4863 
L 1178 4863 
L 1178 4134 
L 603 4134 
L 603 4863 
z
" transform="scale(0.015625)"/>
      </defs>
      <use xlink:href="#DejaVuSans-6a" transform="translate(0 0.015625)"/>
      <use xlink:href="#DejaVuSans-6f" transform="translate(27.783203 0.015625)"/>
      <use xlink:href="#DejaVuSans-69" transform="translate(88.964844 0.015625)"/>
      <use xlink:href="#DejaVuSans-6e" transform="translate(116.748047 0.015625)"/>
      <use xlink:href="#DejaVuSans-74" transform="translate(180.126953 0.015625)"/>
      <use xlink:href="#DejaVuSans-20" transform="translate(219.335938 0.015625)"/>
      <use xlink:href="#DejaVuSans-6d" transform="translate(251.123047 0.015625)"/>
      <use xlink:href="#DejaVuSans-6f" transform="translate(348.535156 0.015625)"/>
      <use xlink:href="#DejaVuSans-64" transform="translate(409.716797 0.015625)"/>
      <use xlink:href="#DejaVuSans-65" transform="translate(473.193359 0.015625)"/>
      <use xlink:href="#DejaVuSans-6c" transform="translate(534.716797 0.015625)"/>
      <use xlink:href="#DejaVuSans-20" transform="translate(562.5 0.015625)"/>
      <use xlink:href="#DejaVuSans-70" transform="translate(594.287109 0.015625)"/>
      <use xlink:href="#DejaVuSans-72" transform="translate(657.763672 0.015625)"/>
      <use xlink:href="#DejaVuSans-65" transform="translate(698.876953 0.015625)"/>
      <use xlink:href="#DejaVuSans-64" transform="translate(760.400391 0.015625)"/>
      <use xlink:href="#DejaVuSans-69" transform="translate(823.876953 0.015625)"/>
      <use xlink:href="#DejaVuSans-63" transform="translate(851.660156 0.015625)"/>
      <use xlink:href="#DejaVuSans-74" transform="translate(906.640625 0.015625)"/>
      <use xlink:href="#DejaVuSans-65" transform="translate(945.849609 0.015625)"/>
      <use xlink:href="#DejaVuSans-64" transform="translate(1007.373047 0.015625)"/>
      <use xlink:href="#DejaVuSans-20" transform="translate(1070.849609 0.015625)"/>
      <use xlink:href="#DejaVuSans-Oblique-76" transform="translate(1102.636719 0.015625)"/>
      <use xlink:href="#DejaVuSans-Oblique-78" transform="translate(1161.816406 -16.390625) scale(0.7)"/>
     </g>
    </g>
    <g id="patch_8">
     <path d="M 427.833125 80.038125 
L 451.833125 80.038125 
L 451.833125 71.638125 
L 427.833125 71.638125 
z
" style="fill: #1f77b4; fill-opacity: 0.5"/>
    </g>
    <g id="text_19">
     <!-- $\pm$ 1 std -->
     <g transform="translate(461.433125 80.038125) scale(0.12 -0.12)">
      <defs>
       <path id="DejaVuSans-b1" d="M 2944 4013 
L 2944 2803 
L 4684 2803 
L 4684 2272 
L 2944 2272 
L 2944 1063 
L 2419 1063 
L 2419 2272 
L 678 2272 
L 678 2803 
L 2419 2803 
L 2419 4013 
L 2944 4013 
z
M 678 531 
L 4684 531 
L 4684 0 
L 678 0 
L 678 531 
z
" transform="scale(0.015625)"/>
      </defs>
      <use xlink:href="#DejaVuSans-b1" transform="translate(0 0.015625)"/>
      <use xlink:href="#DejaVuSans-20" transform="translate(83.789062 0.015625)"/>
      <use xlink:href="#DejaVuSans-31" transform="translate(115.576172 0.015625)"/>
      <use xlink:href="#DejaVuSans-20" transform="translate(179.199219 0.015625)"/>
      <use xlink:href="#DejaVuSans-73" transform="translate(210.986328 0.015625)"/>
      <use xlink:href="#DejaVuSans-74" transform="translate(263.085938 0.015625)"/>
      <use xlink:href="#DejaVuSans-64" transform="translate(302.294922 0.015625)"/>
     </g>
    </g>
   </g>
  </g>
 </g>
 <defs>
  <clipPath id="p0b2c1a21db">
   <rect x="58.953125" y="7.2" width="558" height="221.76"/>
  </clipPath>
 </defs>
</svg>
