<?xml version="1.0" encoding="utf-8" standalone="no"?>
<!DOCTYPE svg PUBLIC "-//W3C//DTD SVG 1.1//EN"
  "http://www.w3.org/Graphics/SVG/1.1/DTD/svg11.dtd">
<svg xmlns:xlink="http://www.w3.org/1999/xlink" width="460.8pt" height="345.6pt" viewBox="0 0 460.8 345.6" xmlns="http://www.w3.org/2000/svg" version="1.1">
 <metadata>
  <rdf:RDF xmlns:dc="http://purl.org/dc/elements/1.1/" xmlns:cc="http://creativecommons.org/ns#" xmlns:rdf="http://www.w3.org/1999/02/22-rdf-syntax-ns#">
   <cc:Work>
    <dc:type rdf:resource="http://purl.org/dc/dcmitype/StillImage"/>
    <dc:date>2024-05-20T21:21:22.100391</dc:date>
    <dc:format>image/svg+xml</dc:format>
    <dc:creator>
     <cc:Agent>
      <dc:title>Matplotlib v3.7.2, https://matplotlib.org/</dc:title>
     </cc:Agent>
    </dc:creator>
   </cc:Work>
  </rdf:RDF>
 </metadata>
 <defs>
  <style type="text/css">*{stroke-linejoin: round; stroke-linecap: butt}</style>
 </defs>
 <g id="figure_1">
  <g id="patch_1">
   <path d="M 0 345.6 
L 460.8 345.6 
L 460.8 0 
L 0 0 
z
" style="fill: #ffffff"/>
  </g>
  <g id="axes_1">
   <g id="patch_2">
    <path d="M 57.6 307.584 
L 414.72 307.584 
L 414.72 41.472 
L 57.6 41.472 
z
" style="fill: #ffffff"/>
   </g>
   <g id="matplotlib.axis_1">
    <g id="xtick_1">
     <g id="line2d_1">
      <defs>
       <path id="m541f4ccb64" d="M 0 0 
L 0 3.5 
" style="stroke: #000000; stroke-width: 0.8"/>
      </defs>
      <g>
       <use xlink:href="#m541f4ccb64" x="73.832727" y="307.584" style="stroke: #000000; stroke-width: 0.8"/>
      </g>
     </g>
     <g id="text_1">
      <!-- 0 -->
      <g transform="translate(70.015227 323.702125) scale(0.12 -0.12)">
       <defs>
        <path id="DejaVuSans-30" d="M 2034 4250 
Q 1547 4250 1301 3770 
Q 1056 3291 1056 2328 
Q 1056 1369 1301 889 
Q 1547 409 2034 409 
Q 2525 409 2770 889 
Q 3016 1369 3016 2328 
Q 3016 3291 2770 3770 
Q 2525 4250 2034 4250 
z
M 2034 4750 
Q 2819 4750 3233 4129 
Q 3647 3509 3647 2328 
Q 3647 1150 3233 529 
Q 2819 -91 2034 -91 
Q 1250 -91 836 529 
Q 422 1150 422 2328 
Q 422 3509 836 4129 
Q 1250 4750 2034 4750 
z
" transform="scale(0.015625)"/>
       </defs>
       <use xlink:href="#DejaVuSans-30"/>
      </g>
     </g>
    </g>
    <g id="xtick_2">
     <g id="line2d_2">
      <g>
       <use xlink:href="#m541f4ccb64" x="114.516254" y="307.584" style="stroke: #000000; stroke-width: 0.8"/>
      </g>
     </g>
     <g id="text_2">
      <!-- 50 -->
      <g transform="translate(106.881254 323.702125) scale(0.12 -0.12)">
       <defs>
        <path id="DejaVuSans-35" d="M 691 4666 
L 3169 4666 
L 3169 4134 
L 1269 4134 
L 1269 2991 
Q 1406 3038 1543 3061 
Q 1681 3084 1819 3084 
Q 2600 3084 3056 2656 
Q 3513 2228 3513 1497 
Q 3513 744 3044 326 
Q 2575 -91 1722 -91 
Q 1428 -91 1123 -41 
Q 819 9 494 109 
L 494 744 
Q 775 591 1075 516 
Q 1375 441 1709 441 
Q 2250 441 2565 725 
Q 2881 1009 2881 1497 
Q 2881 1984 2565 2268 
Q 2250 2553 1709 2553 
Q 1456 2553 1204 2497 
Q 953 2441 691 2322 
L 691 4666 
z
" transform="scale(0.015625)"/>
       </defs>
       <use xlink:href="#DejaVuSans-35"/>
       <use xlink:href="#DejaVuSans-30" x="63.623047"/>
      </g>
     </g>
    </g>
    <g id="xtick_3">
     <g id="line2d_3">
      <g>
       <use xlink:href="#m541f4ccb64" x="155.199781" y="307.584" style="stroke: #000000; stroke-width: 0.8"/>
      </g>
     </g>
     <g id="text_3">
      <!-- 100 -->
      <g transform="translate(143.747281 323.702125) scale(0.12 -0.12)">
       <defs>
        <path id="DejaVuSans-31" d="M 794 531 
L 1825 531 
L 1825 4091 
L 703 3866 
L 703 4441 
L 1819 4666 
L 2450 4666 
L 2450 531 
L 3481 531 
L 3481 0 
L 794 0 
L 794 531 
z
" transform="scale(0.015625)"/>
       </defs>
       <use xlink:href="#DejaVuSans-31"/>
       <use xlink:href="#DejaVuSans-30" x="63.623047"/>
       <use xlink:href="#DejaVuSans-30" x="127.246094"/>
      </g>
     </g>
    </g>
    <g id="xtick_4">
     <g id="line2d_4">
      <g>
       <use xlink:href="#m541f4ccb64" x="195.883308" y="307.584" style="stroke: #000000; stroke-width: 0.8"/>
      </g>
     </g>
     <g id="text_4">
      <!-- 150 -->
      <g transform="translate(184.430808 323.702125) scale(0.12 -0.12)">
       <use xlink:href="#DejaVuSans-31"/>
       <use xlink:href="#DejaVuSans-35" x="63.623047"/>
       <use xlink:href="#DejaVuSans-30" x="127.246094"/>
      </g>
     </g>
    </g>
    <g id="xtick_5">
     <g id="line2d_5">
      <g>
       <use xlink:href="#m541f4ccb64" x="236.566835" y="307.584" style="stroke: #000000; stroke-width: 0.8"/>
      </g>
     </g>
     <g id="text_5">
      <!-- 200 -->
      <g transform="translate(225.114335 323.702125) scale(0.12 -0.12)">
       <defs>
        <path id="DejaVuSans-32" d="M 1228 531 
L 3431 531 
L 3431 0 
L 469 0 
L 469 531 
Q 828 903 1448 1529 
Q 2069 2156 2228 2338 
Q 2531 2678 2651 2914 
Q 2772 3150 2772 3378 
Q 2772 3750 2511 3984 
Q 2250 4219 1831 4219 
Q 1534 4219 1204 4116 
Q 875 4013 500 3803 
L 500 4441 
Q 881 4594 1212 4672 
Q 1544 4750 1819 4750 
Q 2544 4750 2975 4387 
Q 3406 4025 3406 3419 
Q 3406 3131 3298 2873 
Q 3191 2616 2906 2266 
Q 2828 2175 2409 1742 
Q 1991 1309 1228 531 
z
" transform="scale(0.015625)"/>
       </defs>
       <use xlink:href="#DejaVuSans-32"/>
       <use xlink:href="#DejaVuSans-30" x="63.623047"/>
       <use xlink:href="#DejaVuSans-30" x="127.246094"/>
      </g>
     </g>
    </g>
    <g id="xtick_6">
     <g id="line2d_6">
      <g>
       <use xlink:href="#m541f4ccb64" x="277.250362" y="307.584" style="stroke: #000000; stroke-width: 0.8"/>
      </g>
     </g>
     <g id="text_6">
      <!-- 250 -->
      <g transform="translate(265.797862 323.702125) scale(0.12 -0.12)">
       <use xlink:href="#DejaVuSans-32"/>
       <use xlink:href="#DejaVuSans-35" x="63.623047"/>
       <use xlink:href="#DejaVuSans-30" x="127.246094"/>
      </g>
     </g>
    </g>
    <g id="xtick_7">
     <g id="line2d_7">
      <g>
       <use xlink:href="#m541f4ccb64" x="317.933889" y="307.584" style="stroke: #000000; stroke-width: 0.8"/>
      </g>
     </g>
     <g id="text_7">
      <!-- 300 -->
      <g transform="translate(306.481389 323.702125) scale(0.12 -0.12)">
       <defs>
        <path id="DejaVuSans-33" d="M 2597 2516 
Q 3050 2419 3304 2112 
Q 3559 1806 3559 1356 
Q 3559 666 3084 287 
Q 2609 -91 1734 -91 
Q 1441 -91 1130 -33 
Q 819 25 488 141 
L 488 750 
Q 750 597 1062 519 
Q 1375 441 1716 441 
Q 2309 441 2620 675 
Q 2931 909 2931 1356 
Q 2931 1769 2642 2001 
Q 2353 2234 1838 2234 
L 1294 2234 
L 1294 2753 
L 1863 2753 
Q 2328 2753 2575 2939 
Q 2822 3125 2822 3475 
Q 2822 3834 2567 4026 
Q 2313 4219 1838 4219 
Q 1578 4219 1281 4162 
Q 984 4106 628 3988 
L 628 4550 
Q 988 4650 1302 4700 
Q 1616 4750 1894 4750 
Q 2613 4750 3031 4423 
Q 3450 4097 3450 3541 
Q 3450 3153 3228 2886 
Q 3006 2619 2597 2516 
z
" transform="scale(0.015625)"/>
       </defs>
       <use xlink:href="#DejaVuSans-33"/>
       <use xlink:href="#DejaVuSans-30" x="63.623047"/>
       <use xlink:href="#DejaVuSans-30" x="127.246094"/>
      </g>
     </g>
    </g>
    <g id="xtick_8">
     <g id="line2d_8">
      <g>
       <use xlink:href="#m541f4ccb64" x="358.617416" y="307.584" style="stroke: #000000; stroke-width: 0.8"/>
      </g>
     </g>
     <g id="text_8">
      <!-- 350 -->
      <g transform="translate(347.164916 323.702125) scale(0.12 -0.12)">
       <use xlink:href="#DejaVuSans-33"/>
       <use xlink:href="#DejaVuSans-35" x="63.623047"/>
       <use xlink:href="#DejaVuSans-30" x="127.246094"/>
      </g>
     </g>
    </g>
    <g id="xtick_9">
     <g id="line2d_9">
      <g>
       <use xlink:href="#m541f4ccb64" x="399.300943" y="307.584" style="stroke: #000000; stroke-width: 0.8"/>
      </g>
     </g>
     <g id="text_9">
      <!-- 400 -->
      <g transform="translate(387.848443 323.702125) scale(0.12 -0.12)">
       <defs>
        <path id="DejaVuSans-34" d="M 2419 4116 
L 825 1625 
L 2419 1625 
L 2419 4116 
z
M 2253 4666 
L 3047 4666 
L 3047 1625 
L 3713 1625 
L 3713 1100 
L 3047 1100 
L 3047 0 
L 2419 0 
L 2419 1100 
L 313 1100 
L 313 1709 
L 2253 4666 
z
" transform="scale(0.015625)"/>
       </defs>
       <use xlink:href="#DejaVuSans-34"/>
       <use xlink:href="#DejaVuSans-30" x="63.623047"/>
       <use xlink:href="#DejaVuSans-30" x="127.246094"/>
      </g>
     </g>
    </g>
    <g id="text_10">
     <!-- Test Time points -->
     <g transform="translate(187.424062 339.315875) scale(0.12 -0.12)">
      <defs>
       <path id="DejaVuSans-54" d="M -19 4666 
L 3928 4666 
L 3928 4134 
L 2272 4134 
L 2272 0 
L 1638 0 
L 1638 4134 
L -19 4134 
L -19 4666 
z
" transform="scale(0.015625)"/>
       <path id="DejaVuSans-65" d="M 3597 1894 
L 3597 1613 
L 953 1613 
Q 991 1019 1311 708 
Q 1631 397 2203 397 
Q 2534 397 2845 478 
Q 3156 559 3463 722 
L 3463 178 
Q 3153 47 2828 -22 
Q 2503 -91 2169 -91 
Q 1331 -91 842 396 
Q 353 884 353 1716 
Q 353 2575 817 3079 
Q 1281 3584 2069 3584 
Q 2775 3584 3186 3129 
Q 3597 2675 3597 1894 
z
M 3022 2063 
Q 3016 2534 2758 2815 
Q 2500 3097 2075 3097 
Q 1594 3097 1305 2825 
Q 1016 2553 972 2059 
L 3022 2063 
z
" transform="scale(0.015625)"/>
       <path id="DejaVuSans-73" d="M 2834 3397 
L 2834 2853 
Q 2591 2978 2328 3040 
Q 2066 3103 1784 3103 
Q 1356 3103 1142 2972 
Q 928 2841 928 2578 
Q 928 2378 1081 2264 
Q 1234 2150 1697 2047 
L 1894 2003 
Q 2506 1872 2764 1633 
Q 3022 1394 3022 966 
Q 3022 478 2636 193 
Q 2250 -91 1575 -91 
Q 1294 -91 989 -36 
Q 684 19 347 128 
L 347 722 
Q 666 556 975 473 
Q 1284 391 1588 391 
Q 1994 391 2212 530 
Q 2431 669 2431 922 
Q 2431 1156 2273 1281 
Q 2116 1406 1581 1522 
L 1381 1569 
Q 847 1681 609 1914 
Q 372 2147 372 2553 
Q 372 3047 722 3315 
Q 1072 3584 1716 3584 
Q 2034 3584 2315 3537 
Q 2597 3491 2834 3397 
z
" transform="scale(0.015625)"/>
       <path id="DejaVuSans-74" d="M 1172 4494 
L 1172 3500 
L 2356 3500 
L 2356 3053 
L 1172 3053 
L 1172 1153 
Q 1172 725 1289 603 
Q 1406 481 1766 481 
L 2356 481 
L 2356 0 
L 1766 0 
Q 1100 0 847 248 
Q 594 497 594 1153 
L 594 3053 
L 172 3053 
L 172 3500 
L 594 3500 
L 594 4494 
L 1172 4494 
z
" transform="scale(0.015625)"/>
       <path id="DejaVuSans-20" transform="scale(0.015625)"/>
       <path id="DejaVuSans-69" d="M 603 3500 
L 1178 3500 
L 1178 0 
L 603 0 
L 603 3500 
z
M 603 4863 
L 1178 4863 
L 1178 4134 
L 603 4134 
L 603 4863 
z
" transform="scale(0.015625)"/>
       <path id="DejaVuSans-6d" d="M 3328 2828 
Q 3544 3216 3844 3400 
Q 4144 3584 4550 3584 
Q 5097 3584 5394 3201 
Q 5691 2819 5691 2113 
L 5691 0 
L 5113 0 
L 5113 2094 
Q 5113 2597 4934 2840 
Q 4756 3084 4391 3084 
Q 3944 3084 3684 2787 
Q 3425 2491 3425 1978 
L 3425 0 
L 2847 0 
L 2847 2094 
Q 2847 2600 2669 2842 
Q 2491 3084 2119 3084 
Q 1678 3084 1418 2786 
Q 1159 2488 1159 1978 
L 1159 0 
L 581 0 
L 581 3500 
L 1159 3500 
L 1159 2956 
Q 1356 3278 1631 3431 
Q 1906 3584 2284 3584 
Q 2666 3584 2933 3390 
Q 3200 3197 3328 2828 
z
" transform="scale(0.015625)"/>
       <path id="DejaVuSans-70" d="M 1159 525 
L 1159 -1331 
L 581 -1331 
L 581 3500 
L 1159 3500 
L 1159 2969 
Q 1341 3281 1617 3432 
Q 1894 3584 2278 3584 
Q 2916 3584 3314 3078 
Q 3713 2572 3713 1747 
Q 3713 922 3314 415 
Q 2916 -91 2278 -91 
Q 1894 -91 1617 61 
Q 1341 213 1159 525 
z
M 3116 1747 
Q 3116 2381 2855 2742 
Q 2594 3103 2138 3103 
Q 1681 3103 1420 2742 
Q 1159 2381 1159 1747 
Q 1159 1113 1420 752 
Q 1681 391 2138 391 
Q 2594 391 2855 752 
Q 3116 1113 3116 1747 
z
" transform="scale(0.015625)"/>
       <path id="DejaVuSans-6f" d="M 1959 3097 
Q 1497 3097 1228 2736 
Q 959 2375 959 1747 
Q 959 1119 1226 758 
Q 1494 397 1959 397 
Q 2419 397 2687 759 
Q 2956 1122 2956 1747 
Q 2956 2369 2687 2733 
Q 2419 3097 1959 3097 
z
M 1959 3584 
Q 2709 3584 3137 3096 
Q 3566 2609 3566 1747 
Q 3566 888 3137 398 
Q 2709 -91 1959 -91 
Q 1206 -91 779 398 
Q 353 888 353 1747 
Q 353 2609 779 3096 
Q 1206 3584 1959 3584 
z
" transform="scale(0.015625)"/>
       <path id="DejaVuSans-6e" d="M 3513 2113 
L 3513 0 
L 2938 0 
L 2938 2094 
Q 2938 2591 2744 2837 
Q 2550 3084 2163 3084 
Q 1697 3084 1428 2787 
Q 1159 2491 1159 1978 
L 1159 0 
L 581 0 
L 581 3500 
L 1159 3500 
L 1159 2956 
Q 1366 3272 1645 3428 
Q 1925 3584 2291 3584 
Q 2894 3584 3203 3211 
Q 3513 2838 3513 2113 
z
" transform="scale(0.015625)"/>
      </defs>
      <use xlink:href="#DejaVuSans-54"/>
      <use xlink:href="#DejaVuSans-65" x="44.083984"/>
      <use xlink:href="#DejaVuSans-73" x="105.607422"/>
      <use xlink:href="#DejaVuSans-74" x="157.707031"/>
      <use xlink:href="#DejaVuSans-20" x="196.916016"/>
      <use xlink:href="#DejaVuSans-54" x="228.703125"/>
      <use xlink:href="#DejaVuSans-69" x="286.662109"/>
      <use xlink:href="#DejaVuSans-6d" x="314.445312"/>
      <use xlink:href="#DejaVuSans-65" x="411.857422"/>
      <use xlink:href="#DejaVuSans-20" x="473.380859"/>
      <use xlink:href="#DejaVuSans-70" x="505.167969"/>
      <use xlink:href="#DejaVuSans-6f" x="568.644531"/>
      <use xlink:href="#DejaVuSans-69" x="629.826172"/>
      <use xlink:href="#DejaVuSans-6e" x="657.609375"/>
      <use xlink:href="#DejaVuSans-74" x="720.988281"/>
      <use xlink:href="#DejaVuSans-73" x="760.197266"/>
     </g>
    </g>
   </g>
   <g id="matplotlib.axis_2">
    <g id="ytick_1">
     <g id="line2d_10">
      <defs>
       <path id="ma4341632fe" d="M 0 0 
L -3.5 0 
" style="stroke: #000000; stroke-width: 0.8"/>
      </defs>
      <g>
       <use xlink:href="#ma4341632fe" x="57.6" y="251.628903" style="stroke: #000000; stroke-width: 0.8"/>
      </g>
     </g>
     <g id="text_11">
      <!-- 15 -->
      <g transform="translate(35.33 256.187965) scale(0.12 -0.12)">
       <use xlink:href="#DejaVuSans-31"/>
       <use xlink:href="#DejaVuSans-35" x="63.623047"/>
      </g>
     </g>
    </g>
    <g id="ytick_2">
     <g id="line2d_11">
      <g>
       <use xlink:href="#ma4341632fe" x="57.6" y="193.903693" style="stroke: #000000; stroke-width: 0.8"/>
      </g>
     </g>
     <g id="text_12">
      <!-- 20 -->
      <g transform="translate(35.33 198.462755) scale(0.12 -0.12)">
       <use xlink:href="#DejaVuSans-32"/>
       <use xlink:href="#DejaVuSans-30" x="63.623047"/>
      </g>
     </g>
    </g>
    <g id="ytick_3">
     <g id="line2d_12">
      <g>
       <use xlink:href="#ma4341632fe" x="57.6" y="136.178483" style="stroke: #000000; stroke-width: 0.8"/>
      </g>
     </g>
     <g id="text_13">
      <!-- 25 -->
      <g transform="translate(35.33 140.737545) scale(0.12 -0.12)">
       <use xlink:href="#DejaVuSans-32"/>
       <use xlink:href="#DejaVuSans-35" x="63.623047"/>
      </g>
     </g>
    </g>
    <g id="ytick_4">
     <g id="line2d_13">
      <g>
       <use xlink:href="#ma4341632fe" x="57.6" y="78.453273" style="stroke: #000000; stroke-width: 0.8"/>
      </g>
     </g>
     <g id="text_14">
      <!-- 30 -->
      <g transform="translate(35.33 83.012335) scale(0.12 -0.12)">
       <use xlink:href="#DejaVuSans-33"/>
       <use xlink:href="#DejaVuSans-30" x="63.623047"/>
      </g>
     </g>
    </g>
    <g id="text_15">
     <!-- Firing rate (Hz) -->
     <g transform="translate(28.834375 219.300187) rotate(-90) scale(0.12 -0.12)">
      <defs>
       <path id="DejaVuSans-46" d="M 628 4666 
L 3309 4666 
L 3309 4134 
L 1259 4134 
L 1259 2759 
L 3109 2759 
L 3109 2228 
L 1259 2228 
L 1259 0 
L 628 0 
L 628 4666 
z
" transform="scale(0.015625)"/>
       <path id="DejaVuSans-72" d="M 2631 2963 
Q 2534 3019 2420 3045 
Q 2306 3072 2169 3072 
Q 1681 3072 1420 2755 
Q 1159 2438 1159 1844 
L 1159 0 
L 581 0 
L 581 3500 
L 1159 3500 
L 1159 2956 
Q 1341 3275 1631 3429 
Q 1922 3584 2338 3584 
Q 2397 3584 2469 3576 
Q 2541 3569 2628 3553 
L 2631 2963 
z
" transform="scale(0.015625)"/>
       <path id="DejaVuSans-67" d="M 2906 1791 
Q 2906 2416 2648 2759 
Q 2391 3103 1925 3103 
Q 1463 3103 1205 2759 
Q 947 2416 947 1791 
Q 947 1169 1205 825 
Q 1463 481 1925 481 
Q 2391 481 2648 825 
Q 2906 1169 2906 1791 
z
M 3481 434 
Q 3481 -459 3084 -895 
Q 2688 -1331 1869 -1331 
Q 1566 -1331 1297 -1286 
Q 1028 -1241 775 -1147 
L 775 -588 
Q 1028 -725 1275 -790 
Q 1522 -856 1778 -856 
Q 2344 -856 2625 -561 
Q 2906 -266 2906 331 
L 2906 616 
Q 2728 306 2450 153 
Q 2172 0 1784 0 
Q 1141 0 747 490 
Q 353 981 353 1791 
Q 353 2603 747 3093 
Q 1141 3584 1784 3584 
Q 2172 3584 2450 3431 
Q 2728 3278 2906 2969 
L 2906 3500 
L 3481 3500 
L 3481 434 
z
" transform="scale(0.015625)"/>
       <path id="DejaVuSans-61" d="M 2194 1759 
Q 1497 1759 1228 1600 
Q 959 1441 959 1056 
Q 959 750 1161 570 
Q 1363 391 1709 391 
Q 2188 391 2477 730 
Q 2766 1069 2766 1631 
L 2766 1759 
L 2194 1759 
z
M 3341 1997 
L 3341 0 
L 2766 0 
L 2766 531 
Q 2569 213 2275 61 
Q 1981 -91 1556 -91 
Q 1019 -91 701 211 
Q 384 513 384 1019 
Q 384 1609 779 1909 
Q 1175 2209 1959 2209 
L 2766 2209 
L 2766 2266 
Q 2766 2663 2505 2880 
Q 2244 3097 1772 3097 
Q 1472 3097 1187 3025 
Q 903 2953 641 2809 
L 641 3341 
Q 956 3463 1253 3523 
Q 1550 3584 1831 3584 
Q 2591 3584 2966 3190 
Q 3341 2797 3341 1997 
z
" transform="scale(0.015625)"/>
       <path id="DejaVuSans-28" d="M 1984 4856 
Q 1566 4138 1362 3434 
Q 1159 2731 1159 2009 
Q 1159 1288 1364 580 
Q 1569 -128 1984 -844 
L 1484 -844 
Q 1016 -109 783 600 
Q 550 1309 550 2009 
Q 550 2706 781 3412 
Q 1013 4119 1484 4856 
L 1984 4856 
z
" transform="scale(0.015625)"/>
       <path id="DejaVuSans-48" d="M 628 4666 
L 1259 4666 
L 1259 2753 
L 3553 2753 
L 3553 4666 
L 4184 4666 
L 4184 0 
L 3553 0 
L 3553 2222 
L 1259 2222 
L 1259 0 
L 628 0 
L 628 4666 
z
" transform="scale(0.015625)"/>
       <path id="DejaVuSans-7a" d="M 353 3500 
L 3084 3500 
L 3084 2975 
L 922 459 
L 3084 459 
L 3084 0 
L 275 0 
L 275 525 
L 2438 3041 
L 353 3041 
L 353 3500 
z
" transform="scale(0.015625)"/>
       <path id="DejaVuSans-29" d="M 513 4856 
L 1013 4856 
Q 1481 4119 1714 3412 
Q 1947 2706 1947 2009 
Q 1947 1309 1714 600 
Q 1481 -109 1013 -844 
L 513 -844 
Q 928 -128 1133 580 
Q 1338 1288 1338 2009 
Q 1338 2731 1133 3434 
Q 928 4138 513 4856 
z
" transform="scale(0.015625)"/>
      </defs>
      <use xlink:href="#DejaVuSans-46"/>
      <use xlink:href="#DejaVuSans-69" x="50.269531"/>
      <use xlink:href="#DejaVuSans-72" x="78.052734"/>
      <use xlink:href="#DejaVuSans-69" x="119.166016"/>
      <use xlink:href="#DejaVuSans-6e" x="146.949219"/>
      <use xlink:href="#DejaVuSans-67" x="210.328125"/>
      <use xlink:href="#DejaVuSans-20" x="273.804688"/>
      <use xlink:href="#DejaVuSans-72" x="305.591797"/>
      <use xlink:href="#DejaVuSans-61" x="346.705078"/>
      <use xlink:href="#DejaVuSans-74" x="407.984375"/>
      <use xlink:href="#DejaVuSans-65" x="447.193359"/>
      <use xlink:href="#DejaVuSans-20" x="508.716797"/>
      <use xlink:href="#DejaVuSans-28" x="540.503906"/>
      <use xlink:href="#DejaVuSans-48" x="579.517578"/>
      <use xlink:href="#DejaVuSans-7a" x="654.712891"/>
      <use xlink:href="#DejaVuSans-29" x="707.203125"/>
     </g>
    </g>
   </g>
   <g id="line2d_14">
    <path d="M 73.832727 220.228195 
L 75.460068 220.987592 
L 76.273739 219.550265 
L 77.087409 219.616801 
L 77.90108 222.167658 
L 78.714751 220.48608 
L 79.528421 220.075057 
L 80.342092 219.257611 
L 81.155762 216.694064 
L 81.969433 218.846056 
L 82.783103 219.312697 
L 83.596774 218.920484 
L 84.410444 220.0032 
L 86.037785 224.468522 
L 86.851456 225.381219 
L 87.665126 223.33805 
L 88.478797 222.699844 
L 89.292468 224.58757 
L 90.106138 224.488604 
L 90.919809 222.074241 
L 91.733479 223.801444 
L 92.54715 223.411809 
L 93.36082 225.079532 
L 94.174491 222.035013 
L 94.988161 223.107559 
L 95.801832 223.627668 
L 96.615502 221.462066 
L 97.429173 223.172673 
L 98.242843 222.500456 
L 99.056514 218.52103 
L 99.870185 220.09504 
L 100.683855 220.533094 
L 101.497526 214.699333 
L 102.311196 213.28701 
L 103.938537 200.459726 
L 104.752208 193.388334 
L 105.565878 190.296955 
L 106.379549 190.803494 
L 107.193219 188.611348 
L 108.00689 184.372898 
L 108.82056 182.976046 
L 109.634231 183.366584 
L 110.447902 185.456369 
L 111.261572 182.915927 
L 112.075243 185.585891 
L 112.888913 184.254435 
L 113.702584 189.186504 
L 114.516254 192.961066 
L 115.329925 195.975754 
L 116.957266 205.592196 
L 117.770936 208.229185 
L 118.584607 211.29282 
L 119.398278 217.364779 
L 120.211948 216.458948 
L 121.025619 217.133098 
L 121.839289 215.299511 
L 122.65296 215.782197 
L 123.46663 220.867328 
L 124.280301 222.953895 
L 125.093971 224.555692 
L 125.907642 227.123127 
L 126.721312 231.033951 
L 127.534983 233.072162 
L 128.348653 231.960157 
L 129.162324 231.458363 
L 129.975995 226.327705 
L 130.789665 229.08783 
L 131.603336 226.574267 
L 132.417006 228.15607 
L 133.230677 224.589384 
L 134.044347 226.451152 
L 134.858018 223.896328 
L 135.671688 222.445324 
L 136.485359 222.79678 
L 137.299029 221.194513 
L 138.1127 227.291189 
L 138.92637 225.65745 
L 139.740041 226.959769 
L 140.553712 232.054279 
L 141.367382 233.499457 
L 142.181053 237.198205 
L 142.994723 233.575915 
L 143.808394 228.302497 
L 144.622064 228.921268 
L 145.435735 226.99048 
L 146.249405 224.048451 
L 147.063076 225.311511 
L 148.690417 227.027484 
L 149.504087 224.233027 
L 150.317758 223.989606 
L 151.131429 223.42712 
L 151.945099 225.306414 
L 152.75877 223.442116 
L 153.57244 225.647506 
L 154.386111 225.232959 
L 155.199781 227.020383 
L 156.013452 227.422892 
L 156.827122 228.370253 
L 157.640793 228.015406 
L 158.454463 224.217369 
L 159.268134 225.274919 
L 160.081805 220.433348 
L 160.895475 220.940971 
L 161.709146 218.220813 
L 162.522816 220.632549 
L 163.336487 221.095272 
L 164.150157 221.927861 
L 164.963828 222.599824 
L 165.777498 223.643774 
L 166.591169 227.015539 
L 167.404839 228.672893 
L 168.21851 236.193069 
L 169.03218 239.454001 
L 169.845851 246.933004 
L 170.659522 249.037415 
L 171.473192 257.589061 
L 172.286863 258.397404 
L 173.100533 261.273532 
L 174.727874 258.888753 
L 175.541545 255.973291 
L 177.168886 247.466064 
L 177.982556 245.622772 
L 178.796227 242.013279 
L 179.609897 239.463237 
L 180.423568 237.292065 
L 181.237239 234.105332 
L 182.050909 232.672188 
L 183.67825 225.302041 
L 184.491921 222.739229 
L 185.305591 217.068916 
L 186.119262 216.636616 
L 186.932932 217.200033 
L 187.746603 214.37981 
L 188.560273 213.701066 
L 189.373944 216.781637 
L 190.187614 217.644824 
L 191.001285 218.296583 
L 191.814956 222.619282 
L 192.628626 226.296958 
L 193.442297 227.742635 
L 194.255967 227.592253 
L 195.069638 225.553614 
L 195.883308 222.37332 
L 196.696979 225.065538 
L 197.510649 223.382802 
L 198.32432 222.595627 
L 199.13799 220.06548 
L 199.951661 224.412064 
L 200.765332 222.668198 
L 201.579002 223.316805 
L 202.392673 222.346525 
L 203.206343 219.065468 
L 204.020014 221.949818 
L 204.833684 222.298453 
L 205.647355 223.589868 
L 206.461025 222.233894 
L 207.274696 222.504508 
L 208.088366 224.023453 
L 209.715707 220.699985 
L 211.343049 221.953919 
L 212.156719 223.211733 
L 212.97039 220.869468 
L 214.597731 221.116063 
L 216.225072 223.666123 
L 217.038742 221.941928 
L 217.852413 222.298464 
L 218.666083 219.360062 
L 219.479754 219.905543 
L 220.293424 219.535881 
L 221.107095 215.467382 
L 222.734436 209.561384 
L 223.548107 200.012646 
L 224.361777 196.518504 
L 225.175448 192.456696 
L 225.989118 194.582386 
L 226.802789 202.046592 
L 227.616459 205.044256 
L 228.43013 212.910997 
L 229.2438 215.27871 
L 230.057471 221.362898 
L 230.871141 222.642781 
L 231.684812 222.04328 
L 232.498483 223.561812 
L 233.312153 224.770946 
L 234.125824 227.420499 
L 234.939494 222.641608 
L 235.753165 224.674569 
L 236.566835 221.971325 
L 237.380506 223.97838 
L 238.194176 223.469313 
L 239.007847 218.209238 
L 239.821517 220.85515 
L 240.635188 225.708451 
L 241.448859 221.961909 
L 242.262529 222.417603 
L 243.0762 221.899857 
L 243.88987 224.468535 
L 244.703541 223.226159 
L 245.517211 222.286077 
L 246.330882 222.39327 
L 247.144552 220.74637 
L 247.958223 221.268499 
L 248.771893 220.086701 
L 249.585564 222.429357 
L 250.399234 223.359444 
L 251.212905 223.95823 
L 252.026576 222.451084 
L 252.840246 222.680952 
L 253.653917 222.756226 
L 254.467587 222.058525 
L 255.281258 222.316422 
L 256.094928 219.839384 
L 256.908599 222.815626 
L 257.722269 221.911812 
L 258.53594 222.234331 
L 259.34961 218.52682 
L 260.163281 213.181654 
L 260.976951 213.254312 
L 263.417963 191.706394 
L 264.231634 187.581815 
L 265.045304 188.59559 
L 266.672645 180.99466 
L 267.486316 181.065022 
L 268.299986 180.522627 
L 269.927327 183.220616 
L 270.740998 188.122917 
L 271.554668 192.155051 
L 272.368339 197.973584 
L 273.18201 201.174987 
L 273.99568 206.213628 
L 274.809351 205.201436 
L 275.623021 204.903393 
L 276.436692 201.866 
L 277.250362 207.439555 
L 279.691374 228.216335 
L 280.505044 230.67032 
L 281.318715 229.788403 
L 282.132386 230.253501 
L 282.946056 228.006647 
L 284.573397 228.824287 
L 285.387068 229.806235 
L 286.200738 228.222961 
L 287.014409 229.04591 
L 287.828079 225.735318 
L 288.64175 225.918387 
L 289.45542 223.102482 
L 290.269091 223.267685 
L 291.082761 222.846296 
L 291.896432 224.157644 
L 292.710103 219.632748 
L 293.523773 222.582868 
L 294.337444 223.24354 
L 295.151114 221.623217 
L 295.964785 222.105069 
L 296.778455 224.450458 
L 297.592126 222.255236 
L 298.405796 222.536763 
L 299.219467 224.794014 
L 300.033137 222.268881 
L 300.846808 224.57618 
L 301.660478 225.325593 
L 302.474149 224.412493 
L 303.28782 222.548915 
L 304.10149 222.71177 
L 304.915161 222.700083 
L 305.728831 223.529088 
L 306.542502 225.68882 
L 308.169843 228.573481 
L 308.983513 232.757359 
L 309.797184 230.40753 
L 310.610854 226.642236 
L 311.424525 217.887062 
L 312.238195 212.644071 
L 313.051866 204.263253 
L 313.865537 197.30419 
L 314.679207 194.193614 
L 315.492878 193.307286 
L 316.306548 196.384023 
L 317.120219 201.450512 
L 317.933889 200.202083 
L 318.74756 206.522796 
L 319.56123 205.984206 
L 320.374901 208.197435 
L 321.188571 212.706508 
L 322.002242 212.632797 
L 322.815913 214.66381 
L 323.629583 212.185247 
L 324.443254 212.153962 
L 325.256924 213.027862 
L 326.070595 212.353368 
L 326.884265 211.92271 
L 327.697936 216.770083 
L 328.511606 218.023822 
L 329.325277 221.271364 
L 330.138947 221.477354 
L 330.952618 226.301606 
L 331.766288 224.970654 
L 332.579959 225.56431 
L 333.39363 224.922927 
L 334.2073 222.317604 
L 335.020971 222.727397 
L 335.834641 223.839125 
L 336.648312 223.958102 
L 337.461982 225.85615 
L 338.275653 223.949008 
L 339.089323 225.762466 
L 339.902994 222.847151 
L 340.716664 223.966957 
L 341.530335 224.139107 
L 342.344005 224.60336 
L 343.157676 223.040298 
L 343.971347 223.816927 
L 344.785017 222.029228 
L 345.598688 221.541283 
L 346.412358 223.819721 
L 347.226029 221.13362 
L 348.85337 225.635439 
L 349.66704 224.790215 
L 350.480711 229.841803 
L 351.294381 230.278116 
L 352.108052 236.940419 
L 352.921722 241.517362 
L 355.362734 269.736061 
L 356.176405 273.349628 
L 356.990075 277.607292 
L 357.803746 280.188682 
L 358.617416 279.982569 
L 359.431087 279.207707 
L 360.244757 276.513412 
L 361.058428 270.658858 
L 361.872098 267.775641 
L 362.685769 262.104403 
L 363.49944 253.959463 
L 364.31311 247.953818 
L 365.126781 238.733623 
L 365.940451 231.990553 
L 366.754122 228.315391 
L 367.567792 226.950126 
L 368.381463 223.182315 
L 369.195133 222.827697 
L 370.008804 222.183127 
L 370.822474 217.074682 
L 371.636145 218.320316 
L 372.449815 216.43419 
L 373.263486 213.820773 
L 374.077157 216.74322 
L 374.890827 220.530106 
L 375.704498 222.585073 
L 376.518168 222.027587 
L 377.331839 223.861405 
L 378.145509 221.700804 
L 378.95918 221.193875 
L 379.77285 222.566169 
L 380.586521 222.534415 
L 381.400191 223.038126 
L 382.213862 222.807458 
L 383.027532 222.401359 
L 384.654874 219.670733 
L 385.468544 220.187658 
L 386.282215 218.306974 
L 387.095885 221.790077 
L 387.909556 220.468676 
L 388.723226 222.488399 
L 389.536897 218.191948 
L 390.350567 222.980677 
L 391.164238 222.973 
L 391.977908 221.443703 
L 392.791579 222.332486 
L 393.605249 220.463508 
L 394.41892 223.664132 
L 395.232591 220.909558 
L 396.046261 222.048178 
L 396.859932 220.102703 
L 397.673602 221.108909 
L 398.487273 221.454784 
L 398.487273 221.454784 
" clip-path="url(#p7dc9f749d2)" style="fill: none; stroke: #1f77b4; stroke-width: 1.5; stroke-linecap: square"/>
   </g>
   <g id="line2d_15">
    <path d="M 73.832727 213.665467 
L 74.646398 200.653818 
L 75.460068 204.720293 
L 76.273739 190.545691 
L 77.087409 182.479885 
L 77.90108 188.159241 
L 78.714751 198.337101 
L 79.528421 195.165565 
L 80.342092 198.647718 
L 81.155762 206.554583 
L 81.969433 206.314166 
L 82.783103 198.008433 
L 83.596774 211.573286 
L 84.410444 214.992184 
L 86.037785 234.529429 
L 86.851456 242.081754 
L 87.665126 246.359878 
L 88.478797 258.709144 
L 89.292468 267.669653 
L 90.106138 270.996941 
L 90.919809 271.856871 
L 91.733479 277.17727 
L 92.54715 279.645598 
L 93.36082 275.074553 
L 94.174491 271.282395 
L 96.615502 255.100836 
L 97.429173 248.830847 
L 98.242843 244.030634 
L 99.056514 234.257924 
L 99.870185 233.778938 
L 100.683855 226.119434 
L 101.497526 208.048667 
L 102.311196 194.041638 
L 103.124867 172.030953 
L 104.752208 143.203743 
L 105.565878 136.420347 
L 106.379549 136.919983 
L 107.193219 113.493065 
L 108.00689 107.60503 
L 108.82056 118.555925 
L 109.634231 108.624035 
L 110.447902 76.264915 
L 111.261572 56.031674 
L 112.075243 53.568 
L 112.888913 57.267963 
L 114.516254 62.269295 
L 115.329925 73.601847 
L 116.143595 94.897936 
L 116.957266 102.463826 
L 118.584607 147.151837 
L 119.398278 152.669977 
L 120.211948 155.624996 
L 121.839289 162.627754 
L 122.65296 171.669737 
L 123.46663 178.817815 
L 124.280301 193.403437 
L 125.093971 210.038159 
L 125.907642 212.632002 
L 126.721312 209.272729 
L 127.534983 208.853144 
L 128.348653 214.332098 
L 129.162324 217.905939 
L 129.975995 223.346207 
L 130.789665 219.376548 
L 131.603336 231.458162 
L 132.417006 241.389796 
L 133.230677 242.528661 
L 134.044347 249.290126 
L 134.858018 252.740668 
L 135.671688 254.263112 
L 136.485359 251.383003 
L 137.299029 251.675904 
L 138.1127 249.837987 
L 138.92637 249.612135 
L 139.740041 245.545028 
L 140.553712 240.380235 
L 141.367382 219.400183 
L 142.181053 211.846271 
L 142.994723 208.158149 
L 144.622064 217.290258 
L 145.435735 231.885418 
L 147.063076 250.729177 
L 147.876746 255.348404 
L 148.690417 264.198022 
L 149.504087 266.897347 
L 151.131429 263.799327 
L 151.945099 264.475707 
L 152.75877 261.619962 
L 153.57244 259.574133 
L 154.386111 248.92195 
L 155.199781 247.576506 
L 156.013452 245.216013 
L 156.827122 243.760198 
L 157.640793 249.657034 
L 159.268134 254.765235 
L 160.895475 245.748838 
L 161.709146 244.048723 
L 162.522816 239.992692 
L 163.336487 244.265475 
L 164.150157 237.112913 
L 164.963828 226.017582 
L 165.777498 210.9085 
L 166.591169 190.836494 
L 167.404839 188.800848 
L 168.21851 196.472521 
L 169.03218 191.344529 
L 169.845851 189.347274 
L 170.659522 202.276739 
L 171.473192 212.78921 
L 172.286863 216.638522 
L 173.100533 226.438997 
L 173.914204 226.659729 
L 174.727874 229.016105 
L 175.541545 222.654762 
L 176.355215 212.1895 
L 177.168886 211.773491 
L 177.982556 220.514028 
L 178.796227 215.777574 
L 180.423568 236.89606 
L 181.237239 237.399527 
L 182.050909 241.605377 
L 183.67825 224.493071 
L 184.491921 220.583091 
L 185.305591 217.481666 
L 186.119262 217.793659 
L 187.746603 227.436866 
L 189.373944 192.396855 
L 190.187614 180.683079 
L 191.001285 170.641348 
L 191.814956 180.602323 
L 192.628626 198.858599 
L 193.442297 224.58813 
L 194.255967 234.916001 
L 195.883308 249.780759 
L 196.696979 263.817088 
L 197.510649 269.060876 
L 198.32432 277.431004 
L 199.13799 282.890445 
L 200.765332 284.298709 
L 201.579002 286.250886 
L 202.392673 287.786396 
L 203.206343 288.889921 
L 204.020014 291.851676 
L 205.647355 289.708012 
L 206.461025 280.253538 
L 207.274696 277.837123 
L 208.088366 278.303496 
L 208.902037 280.382479 
L 209.715707 276.39221 
L 210.529378 268.525517 
L 211.343049 265.896604 
L 212.156719 268.353795 
L 212.97039 261.30374 
L 213.78406 259.705617 
L 214.597731 248.611315 
L 215.411401 240.600846 
L 216.225072 237.867907 
L 217.038742 232.991412 
L 217.852413 231.528186 
L 218.666083 218.30819 
L 219.479754 217.536396 
L 220.293424 211.133308 
L 221.107095 198.83794 
L 221.920766 201.790586 
L 223.548107 170.849523 
L 224.361777 161.061438 
L 225.175448 163.808371 
L 225.989118 161.395007 
L 226.802789 175.773744 
L 227.616459 197.226713 
L 229.2438 227.2206 
L 230.057471 231.249125 
L 230.871141 248.239385 
L 231.684812 252.42024 
L 232.498483 258.11107 
L 233.312153 259.341477 
L 234.125824 268.192152 
L 234.939494 274.576581 
L 235.753165 278.627363 
L 236.566835 278.585659 
L 237.380506 278.408438 
L 238.194176 280.470267 
L 239.007847 283.460786 
L 239.821517 282.560624 
L 240.635188 285.560457 
L 241.448859 285.382657 
L 242.262529 291.411899 
L 243.0762 292.031564 
L 243.88987 294.016208 
L 244.703541 295.488 
L 245.517211 291.303195 
L 246.330882 290.599599 
L 247.144552 295.107209 
L 247.958223 291.535381 
L 248.771893 290.226208 
L 249.585564 285.435175 
L 250.399234 281.608668 
L 251.212905 281.119133 
L 252.026576 283.636348 
L 252.840246 280.079452 
L 253.653917 277.849577 
L 254.467587 268.696508 
L 255.281258 257.771978 
L 256.908599 230.438229 
L 257.722269 213.583367 
L 258.53594 212.627227 
L 259.34961 202.65673 
L 260.163281 199.651681 
L 262.604293 136.276937 
L 263.417963 136.82353 
L 264.231634 146.451105 
L 265.045304 147.99516 
L 265.858975 153.975181 
L 266.672645 163.427116 
L 267.486316 163.911053 
L 268.299986 138.78022 
L 269.113657 142.206778 
L 269.927327 137.160116 
L 270.740998 129.407881 
L 271.554668 140.830882 
L 272.368339 148.453764 
L 273.18201 164.141827 
L 273.99568 162.0603 
L 274.809351 158.072802 
L 275.623021 151.486766 
L 276.436692 156.245333 
L 277.250362 166.337557 
L 278.877703 209.04544 
L 279.691374 215.5188 
L 280.505044 216.485502 
L 281.318715 217.006233 
L 282.132386 230.861121 
L 282.946056 230.284897 
L 283.759727 238.648092 
L 284.573397 249.989867 
L 285.387068 251.640757 
L 286.200738 256.787504 
L 287.014409 259.819874 
L 287.828079 268.569067 
L 288.64175 272.211078 
L 289.45542 272.232997 
L 290.269091 277.568575 
L 291.082761 281.714645 
L 291.896432 284.363102 
L 292.710103 285.994151 
L 293.523773 285.64411 
L 294.337444 291.253086 
L 295.151114 290.782523 
L 295.964785 290.982748 
L 296.778455 293.608416 
L 297.592126 292.184265 
L 298.405796 292.927785 
L 299.219467 291.325413 
L 300.033137 291.598236 
L 300.846808 290.533828 
L 301.660478 289.855038 
L 302.474149 290.737808 
L 303.28782 287.520689 
L 304.10149 281.916975 
L 304.915161 275.186506 
L 305.728831 256.400528 
L 306.542502 246.480181 
L 307.356172 224.903937 
L 308.169843 209.08628 
L 308.983513 206.665492 
L 309.797184 202.868492 
L 310.610854 200.717251 
L 311.424525 190.635515 
L 312.238195 185.532297 
L 313.051866 173.248483 
L 313.865537 158.814223 
L 314.679207 136.664112 
L 315.492878 133.517478 
L 316.306548 144.396577 
L 317.120219 148.9799 
L 317.933889 146.309284 
L 318.74756 144.185725 
L 319.56123 150.165609 
L 320.374901 154.862585 
L 321.188571 167.393588 
L 322.002242 161.271896 
L 323.629583 178.658546 
L 324.443254 177.430282 
L 325.256924 171.422093 
L 326.070595 155.508097 
L 326.884265 153.698849 
L 327.697936 170.018155 
L 328.511606 191.231209 
L 329.325277 220.730064 
L 331.766288 244.041037 
L 332.579959 247.484222 
L 333.39363 258.079979 
L 334.2073 265.377591 
L 335.020971 268.253115 
L 335.834641 272.380795 
L 336.648312 270.490032 
L 337.461982 275.123899 
L 338.275653 277.950216 
L 339.089323 284.486115 
L 339.902994 284.658167 
L 340.716664 283.822683 
L 341.530335 283.871508 
L 342.344005 282.007494 
L 343.971347 279.071908 
L 344.785017 279.557161 
L 345.598688 276.257648 
L 347.226029 272.18557 
L 348.039699 266.519011 
L 348.85337 256.116042 
L 349.66704 248.038433 
L 350.480711 228.203738 
L 351.294381 200.327566 
L 352.108052 193.851307 
L 352.921722 156.04676 
L 353.735393 151.797866 
L 354.549064 170.996312 
L 355.362734 170.969552 
L 356.176405 166.327534 
L 356.990075 191.38409 
L 357.803746 185.130906 
L 358.617416 203.932299 
L 359.431087 212.71661 
L 360.244757 208.551912 
L 361.058428 221.462479 
L 362.685769 229.417794 
L 363.49944 232.122398 
L 364.31311 231.51364 
L 365.126781 221.572449 
L 365.940451 220.369219 
L 366.754122 205.682293 
L 367.567792 204.87489 
L 368.381463 208.810112 
L 369.195133 218.709091 
L 370.822474 232.950359 
L 372.449815 223.097003 
L 373.263486 214.696804 
L 374.077157 194.098799 
L 374.890827 191.133435 
L 375.704498 199.600231 
L 376.518168 203.073988 
L 377.331839 212.313787 
L 378.145509 217.553348 
L 378.95918 225.994802 
L 379.77285 230.499808 
L 380.586521 234.200201 
L 381.400191 244.427405 
L 382.213862 253.214139 
L 383.027532 258.921866 
L 383.841203 270.315646 
L 384.654874 278.438149 
L 385.468544 280.137982 
L 386.282215 279.778229 
L 387.095885 280.849428 
L 387.909556 288.159483 
L 388.723226 287.578308 
L 389.536897 285.779979 
L 390.350567 281.537335 
L 391.164238 279.304664 
L 392.791579 287.295168 
L 393.605249 284.737438 
L 394.41892 284.088646 
L 395.232591 286.379158 
L 396.046261 288.097368 
L 396.859932 287.377315 
L 397.673602 287.045558 
L 398.487273 281.215889 
L 398.487273 281.215889 
" clip-path="url(#p7dc9f749d2)" style="fill: none; stroke: #ff7f0e; stroke-width: 1.5; stroke-linecap: square"/>
   </g>
   <g id="patch_3">
    <path d="M 57.6 307.584 
L 57.6 41.472 
" style="fill: none; stroke: #000000; stroke-width: 0.8; stroke-linejoin: miter; stroke-linecap: square"/>
   </g>
   <g id="patch_4">
    <path d="M 414.72 307.584 
L 414.72 41.472 
" style="fill: none; stroke: #000000; stroke-width: 0.8; stroke-linejoin: miter; stroke-linecap: square"/>
   </g>
   <g id="patch_5">
    <path d="M 57.6 307.584 
L 414.72 307.584 
" style="fill: none; stroke: #000000; stroke-width: 0.8; stroke-linejoin: miter; stroke-linecap: square"/>
   </g>
   <g id="patch_6">
    <path d="M 57.6 41.472 
L 414.72 41.472 
" style="fill: none; stroke: #000000; stroke-width: 0.8; stroke-linejoin: miter; stroke-linecap: square"/>
   </g>
   <g id="text_16">
    <!-- Neuron 170 -->
    <g transform="translate(193.982625 35.472) scale(0.144 -0.144)">
     <defs>
      <path id="DejaVuSans-4e" d="M 628 4666 
L 1478 4666 
L 3547 763 
L 3547 4666 
L 4159 4666 
L 4159 0 
L 3309 0 
L 1241 3903 
L 1241 0 
L 628 0 
L 628 4666 
z
" transform="scale(0.015625)"/>
      <path id="DejaVuSans-75" d="M 544 1381 
L 544 3500 
L 1119 3500 
L 1119 1403 
Q 1119 906 1312 657 
Q 1506 409 1894 409 
Q 2359 409 2629 706 
Q 2900 1003 2900 1516 
L 2900 3500 
L 3475 3500 
L 3475 0 
L 2900 0 
L 2900 538 
Q 2691 219 2414 64 
Q 2138 -91 1772 -91 
Q 1169 -91 856 284 
Q 544 659 544 1381 
z
M 1991 3584 
L 1991 3584 
z
" transform="scale(0.015625)"/>
      <path id="DejaVuSans-37" d="M 525 4666 
L 3525 4666 
L 3525 4397 
L 1831 0 
L 1172 0 
L 2766 4134 
L 525 4134 
L 525 4666 
z
" transform="scale(0.015625)"/>
     </defs>
     <use xlink:href="#DejaVuSans-4e"/>
     <use xlink:href="#DejaVuSans-65" x="74.804688"/>
     <use xlink:href="#DejaVuSans-75" x="136.328125"/>
     <use xlink:href="#DejaVuSans-72" x="199.707031"/>
     <use xlink:href="#DejaVuSans-6f" x="238.570312"/>
     <use xlink:href="#DejaVuSans-6e" x="299.751953"/>
     <use xlink:href="#DejaVuSans-20" x="363.130859"/>
     <use xlink:href="#DejaVuSans-31" x="394.917969"/>
     <use xlink:href="#DejaVuSans-37" x="458.541016"/>
     <use xlink:href="#DejaVuSans-30" x="522.164062"/>
    </g>
   </g>
   <g id="legend_1">
    <g id="patch_7">
     <path d="M 322.56 86.2995 
L 406.32 86.2995 
Q 408.72 86.2995 408.72 83.8995 
L 408.72 49.872 
Q 408.72 47.472 406.32 47.472 
L 322.56 47.472 
Q 320.16 47.472 320.16 49.872 
L 320.16 83.8995 
Q 320.16 86.2995 322.56 86.2995 
z
" style="fill: #ffffff; opacity: 0.8; stroke: #cccccc; stroke-linejoin: miter"/>
    </g>
    <g id="line2d_16">
     <path d="M 324.96 57.190125 
L 336.96 57.190125 
L 348.96 57.190125 
" style="fill: none; stroke: #1f77b4; stroke-width: 1.5; stroke-linecap: square"/>
    </g>
    <g id="text_17">
     <!-- $d_z$ = 2 -->
     <g transform="translate(358.56 61.390125) scale(0.12 -0.12)">
      <defs>
       <path id="DejaVuSans-Oblique-64" d="M 2675 525 
Q 2444 222 2128 65 
Q 1813 -91 1428 -91 
Q 903 -91 598 267 
Q 294 625 294 1247 
Q 294 1766 478 2236 
Q 663 2706 1013 3078 
Q 1244 3325 1534 3454 
Q 1825 3584 2144 3584 
Q 2481 3584 2739 3421 
Q 2997 3259 3138 2956 
L 3513 4863 
L 4091 4863 
L 3144 0 
L 2566 0 
L 2675 525 
z
M 891 1350 
Q 891 897 1095 644 
Q 1300 391 1663 391 
Q 1931 391 2161 520 
Q 2391 650 2566 903 
Q 2750 1166 2856 1509 
Q 2963 1853 2963 2188 
Q 2963 2622 2758 2865 
Q 2553 3109 2194 3109 
Q 1922 3109 1687 2981 
Q 1453 2853 1288 2613 
Q 1106 2353 998 2009 
Q 891 1666 891 1350 
z
" transform="scale(0.015625)"/>
       <path id="DejaVuSans-Oblique-7a" d="M 744 3500 
L 3475 3500 
L 3372 2975 
L 738 459 
L 2913 459 
L 2822 0 
L -19 0 
L 84 525 
L 2719 3041 
L 653 3041 
L 744 3500 
z
" transform="scale(0.015625)"/>
       <path id="DejaVuSans-3d" d="M 678 2906 
L 4684 2906 
L 4684 2381 
L 678 2381 
L 678 2906 
z
M 678 1631 
L 4684 1631 
L 4684 1100 
L 678 1100 
L 678 1631 
z
" transform="scale(0.015625)"/>
      </defs>
      <use xlink:href="#DejaVuSans-Oblique-64" transform="translate(0 0.015625)"/>
      <use xlink:href="#DejaVuSans-Oblique-7a" transform="translate(63.476562 -16.390625) scale(0.7)"/>
      <use xlink:href="#DejaVuSans-20" transform="translate(102.954102 0.015625)"/>
      <use xlink:href="#DejaVuSans-3d" transform="translate(134.741211 0.015625)"/>
      <use xlink:href="#DejaVuSans-20" transform="translate(218.530273 0.015625)"/>
      <use xlink:href="#DejaVuSans-32" transform="translate(250.317383 0.015625)"/>
     </g>
    </g>
    <g id="line2d_17">
     <path d="M 324.96 74.803875 
L 336.96 74.803875 
L 348.96 74.803875 
" style="fill: none; stroke: #ff7f0e; stroke-width: 1.5; stroke-linecap: square"/>
    </g>
    <g id="text_18">
     <!-- $d_z$ = 10 -->
     <g transform="translate(358.56 79.003875) scale(0.12 -0.12)">
      <use xlink:href="#DejaVuSans-Oblique-64" transform="translate(0 0.015625)"/>
      <use xlink:href="#DejaVuSans-Oblique-7a" transform="translate(63.476562 -16.390625) scale(0.7)"/>
      <use xlink:href="#DejaVuSans-20" transform="translate(102.954102 0.015625)"/>
      <use xlink:href="#DejaVuSans-3d" transform="translate(134.741211 0.015625)"/>
      <use xlink:href="#DejaVuSans-20" transform="translate(218.530273 0.015625)"/>
      <use xlink:href="#DejaVuSans-31" transform="translate(250.317383 0.015625)"/>
      <use xlink:href="#DejaVuSans-30" transform="translate(313.94043 0.015625)"/>
     </g>
    </g>
   </g>
  </g>
 </g>
 <defs>
  <clipPath id="p7dc9f749d2">
   <rect x="57.6" y="41.472" width="357.12" height="266.112"/>
  </clipPath>
 </defs>
</svg>
