<?xml version="1.0" encoding="utf-8" standalone="no"?>
<!DOCTYPE svg PUBLIC "-//W3C//DTD SVG 1.1//EN"
  "http://www.w3.org/Graphics/SVG/1.1/DTD/svg11.dtd">
<svg xmlns:xlink="http://www.w3.org/1999/xlink" width="409.40375pt" height="331.68125pt" viewBox="0 0 409.40375 331.68125" xmlns="http://www.w3.org/2000/svg" version="1.1">
 <metadata>
  <rdf:RDF xmlns:dc="http://purl.org/dc/elements/1.1/" xmlns:cc="http://creativecommons.org/ns#" xmlns:rdf="http://www.w3.org/1999/02/22-rdf-syntax-ns#">
   <cc:Work>
    <dc:type rdf:resource="http://purl.org/dc/dcmitype/StillImage"/>
    <dc:date>2024-05-20T23:10:10.896626</dc:date>
    <dc:format>image/svg+xml</dc:format>
    <dc:creator>
     <cc:Agent>
      <dc:title>Matplotlib v3.7.2, https://matplotlib.org/</dc:title>
     </cc:Agent>
    </dc:creator>
   </cc:Work>
  </rdf:RDF>
 </metadata>
 <defs>
  <style type="text/css">*{stroke-linejoin: round; stroke-linecap: butt}</style>
 </defs>
 <g id="figure_1">
  <g id="patch_1">
   <path d="M 0 331.68125 
L 409.40375 331.68125 
L 409.40375 0 
L 0 0 
z
" style="fill: #ffffff"/>
  </g>
  <g id="axes_1">
   <g id="patch_2">
    <path d="M 45.08375 290.25375 
L 402.20375 290.25375 
L 402.20375 24.14175 
L 45.08375 24.14175 
z
" style="fill: #ffffff"/>
   </g>
   <g id="matplotlib.axis_1">
    <g id="xtick_1">
     <g id="line2d_1">
      <defs>
       <path id="m532a71044b" d="M 0 0 
L 0 3.5 
" style="stroke: #000000; stroke-width: 0.8"/>
      </defs>
      <g>
       <use xlink:href="#m532a71044b" x="61.316477" y="290.25375" style="stroke: #000000; stroke-width: 0.8"/>
      </g>
     </g>
     <g id="text_1">
      <!-- 0 -->
      <g transform="translate(57.498977 306.371875) scale(0.12 -0.12)">
       <defs>
        <path id="DejaVuSans-30" d="M 2034 4250 
Q 1547 4250 1301 3770 
Q 1056 3291 1056 2328 
Q 1056 1369 1301 889 
Q 1547 409 2034 409 
Q 2525 409 2770 889 
Q 3016 1369 3016 2328 
Q 3016 3291 2770 3770 
Q 2525 4250 2034 4250 
z
M 2034 4750 
Q 2819 4750 3233 4129 
Q 3647 3509 3647 2328 
Q 3647 1150 3233 529 
Q 2819 -91 2034 -91 
Q 1250 -91 836 529 
Q 422 1150 422 2328 
Q 422 3509 836 4129 
Q 1250 4750 2034 4750 
z
" transform="scale(0.015625)"/>
       </defs>
       <use xlink:href="#DejaVuSans-30"/>
      </g>
     </g>
    </g>
    <g id="xtick_2">
     <g id="line2d_2">
      <g>
       <use xlink:href="#m532a71044b" x="102.000004" y="290.25375" style="stroke: #000000; stroke-width: 0.8"/>
      </g>
     </g>
     <g id="text_2">
      <!-- 50 -->
      <g transform="translate(94.365004 306.371875) scale(0.12 -0.12)">
       <defs>
        <path id="DejaVuSans-35" d="M 691 4666 
L 3169 4666 
L 3169 4134 
L 1269 4134 
L 1269 2991 
Q 1406 3038 1543 3061 
Q 1681 3084 1819 3084 
Q 2600 3084 3056 2656 
Q 3513 2228 3513 1497 
Q 3513 744 3044 326 
Q 2575 -91 1722 -91 
Q 1428 -91 1123 -41 
Q 819 9 494 109 
L 494 744 
Q 775 591 1075 516 
Q 1375 441 1709 441 
Q 2250 441 2565 725 
Q 2881 1009 2881 1497 
Q 2881 1984 2565 2268 
Q 2250 2553 1709 2553 
Q 1456 2553 1204 2497 
Q 953 2441 691 2322 
L 691 4666 
z
" transform="scale(0.015625)"/>
       </defs>
       <use xlink:href="#DejaVuSans-35"/>
       <use xlink:href="#DejaVuSans-30" x="63.623047"/>
      </g>
     </g>
    </g>
    <g id="xtick_3">
     <g id="line2d_3">
      <g>
       <use xlink:href="#m532a71044b" x="142.683531" y="290.25375" style="stroke: #000000; stroke-width: 0.8"/>
      </g>
     </g>
     <g id="text_3">
      <!-- 100 -->
      <g transform="translate(131.231031 306.371875) scale(0.12 -0.12)">
       <defs>
        <path id="DejaVuSans-31" d="M 794 531 
L 1825 531 
L 1825 4091 
L 703 3866 
L 703 4441 
L 1819 4666 
L 2450 4666 
L 2450 531 
L 3481 531 
L 3481 0 
L 794 0 
L 794 531 
z
" transform="scale(0.015625)"/>
       </defs>
       <use xlink:href="#DejaVuSans-31"/>
       <use xlink:href="#DejaVuSans-30" x="63.623047"/>
       <use xlink:href="#DejaVuSans-30" x="127.246094"/>
      </g>
     </g>
    </g>
    <g id="xtick_4">
     <g id="line2d_4">
      <g>
       <use xlink:href="#m532a71044b" x="183.367058" y="290.25375" style="stroke: #000000; stroke-width: 0.8"/>
      </g>
     </g>
     <g id="text_4">
      <!-- 150 -->
      <g transform="translate(171.914558 306.371875) scale(0.12 -0.12)">
       <use xlink:href="#DejaVuSans-31"/>
       <use xlink:href="#DejaVuSans-35" x="63.623047"/>
       <use xlink:href="#DejaVuSans-30" x="127.246094"/>
      </g>
     </g>
    </g>
    <g id="xtick_5">
     <g id="line2d_5">
      <g>
       <use xlink:href="#m532a71044b" x="224.050585" y="290.25375" style="stroke: #000000; stroke-width: 0.8"/>
      </g>
     </g>
     <g id="text_5">
      <!-- 200 -->
      <g transform="translate(212.598085 306.371875) scale(0.12 -0.12)">
       <defs>
        <path id="DejaVuSans-32" d="M 1228 531 
L 3431 531 
L 3431 0 
L 469 0 
L 469 531 
Q 828 903 1448 1529 
Q 2069 2156 2228 2338 
Q 2531 2678 2651 2914 
Q 2772 3150 2772 3378 
Q 2772 3750 2511 3984 
Q 2250 4219 1831 4219 
Q 1534 4219 1204 4116 
Q 875 4013 500 3803 
L 500 4441 
Q 881 4594 1212 4672 
Q 1544 4750 1819 4750 
Q 2544 4750 2975 4387 
Q 3406 4025 3406 3419 
Q 3406 3131 3298 2873 
Q 3191 2616 2906 2266 
Q 2828 2175 2409 1742 
Q 1991 1309 1228 531 
z
" transform="scale(0.015625)"/>
       </defs>
       <use xlink:href="#DejaVuSans-32"/>
       <use xlink:href="#DejaVuSans-30" x="63.623047"/>
       <use xlink:href="#DejaVuSans-30" x="127.246094"/>
      </g>
     </g>
    </g>
    <g id="xtick_6">
     <g id="line2d_6">
      <g>
       <use xlink:href="#m532a71044b" x="264.734112" y="290.25375" style="stroke: #000000; stroke-width: 0.8"/>
      </g>
     </g>
     <g id="text_6">
      <!-- 250 -->
      <g transform="translate(253.281612 306.371875) scale(0.12 -0.12)">
       <use xlink:href="#DejaVuSans-32"/>
       <use xlink:href="#DejaVuSans-35" x="63.623047"/>
       <use xlink:href="#DejaVuSans-30" x="127.246094"/>
      </g>
     </g>
    </g>
    <g id="xtick_7">
     <g id="line2d_7">
      <g>
       <use xlink:href="#m532a71044b" x="305.417639" y="290.25375" style="stroke: #000000; stroke-width: 0.8"/>
      </g>
     </g>
     <g id="text_7">
      <!-- 300 -->
      <g transform="translate(293.965139 306.371875) scale(0.12 -0.12)">
       <defs>
        <path id="DejaVuSans-33" d="M 2597 2516 
Q 3050 2419 3304 2112 
Q 3559 1806 3559 1356 
Q 3559 666 3084 287 
Q 2609 -91 1734 -91 
Q 1441 -91 1130 -33 
Q 819 25 488 141 
L 488 750 
Q 750 597 1062 519 
Q 1375 441 1716 441 
Q 2309 441 2620 675 
Q 2931 909 2931 1356 
Q 2931 1769 2642 2001 
Q 2353 2234 1838 2234 
L 1294 2234 
L 1294 2753 
L 1863 2753 
Q 2328 2753 2575 2939 
Q 2822 3125 2822 3475 
Q 2822 3834 2567 4026 
Q 2313 4219 1838 4219 
Q 1578 4219 1281 4162 
Q 984 4106 628 3988 
L 628 4550 
Q 988 4650 1302 4700 
Q 1616 4750 1894 4750 
Q 2613 4750 3031 4423 
Q 3450 4097 3450 3541 
Q 3450 3153 3228 2886 
Q 3006 2619 2597 2516 
z
" transform="scale(0.015625)"/>
       </defs>
       <use xlink:href="#DejaVuSans-33"/>
       <use xlink:href="#DejaVuSans-30" x="63.623047"/>
       <use xlink:href="#DejaVuSans-30" x="127.246094"/>
      </g>
     </g>
    </g>
    <g id="xtick_8">
     <g id="line2d_8">
      <g>
       <use xlink:href="#m532a71044b" x="346.101166" y="290.25375" style="stroke: #000000; stroke-width: 0.8"/>
      </g>
     </g>
     <g id="text_8">
      <!-- 350 -->
      <g transform="translate(334.648666 306.371875) scale(0.12 -0.12)">
       <use xlink:href="#DejaVuSans-33"/>
       <use xlink:href="#DejaVuSans-35" x="63.623047"/>
       <use xlink:href="#DejaVuSans-30" x="127.246094"/>
      </g>
     </g>
    </g>
    <g id="xtick_9">
     <g id="line2d_9">
      <g>
       <use xlink:href="#m532a71044b" x="386.784693" y="290.25375" style="stroke: #000000; stroke-width: 0.8"/>
      </g>
     </g>
     <g id="text_9">
      <!-- 400 -->
      <g transform="translate(375.332193 306.371875) scale(0.12 -0.12)">
       <defs>
        <path id="DejaVuSans-34" d="M 2419 4116 
L 825 1625 
L 2419 1625 
L 2419 4116 
z
M 2253 4666 
L 3047 4666 
L 3047 1625 
L 3713 1625 
L 3713 1100 
L 3047 1100 
L 3047 0 
L 2419 0 
L 2419 1100 
L 313 1100 
L 313 1709 
L 2253 4666 
z
" transform="scale(0.015625)"/>
       </defs>
       <use xlink:href="#DejaVuSans-34"/>
       <use xlink:href="#DejaVuSans-30" x="63.623047"/>
       <use xlink:href="#DejaVuSans-30" x="127.246094"/>
      </g>
     </g>
    </g>
    <g id="text_10">
     <!-- Test Time points -->
     <g transform="translate(174.907813 321.985625) scale(0.12 -0.12)">
      <defs>
       <path id="DejaVuSans-54" d="M -19 4666 
L 3928 4666 
L 3928 4134 
L 2272 4134 
L 2272 0 
L 1638 0 
L 1638 4134 
L -19 4134 
L -19 4666 
z
" transform="scale(0.015625)"/>
       <path id="DejaVuSans-65" d="M 3597 1894 
L 3597 1613 
L 953 1613 
Q 991 1019 1311 708 
Q 1631 397 2203 397 
Q 2534 397 2845 478 
Q 3156 559 3463 722 
L 3463 178 
Q 3153 47 2828 -22 
Q 2503 -91 2169 -91 
Q 1331 -91 842 396 
Q 353 884 353 1716 
Q 353 2575 817 3079 
Q 1281 3584 2069 3584 
Q 2775 3584 3186 3129 
Q 3597 2675 3597 1894 
z
M 3022 2063 
Q 3016 2534 2758 2815 
Q 2500 3097 2075 3097 
Q 1594 3097 1305 2825 
Q 1016 2553 972 2059 
L 3022 2063 
z
" transform="scale(0.015625)"/>
       <path id="DejaVuSans-73" d="M 2834 3397 
L 2834 2853 
Q 2591 2978 2328 3040 
Q 2066 3103 1784 3103 
Q 1356 3103 1142 2972 
Q 928 2841 928 2578 
Q 928 2378 1081 2264 
Q 1234 2150 1697 2047 
L 1894 2003 
Q 2506 1872 2764 1633 
Q 3022 1394 3022 966 
Q 3022 478 2636 193 
Q 2250 -91 1575 -91 
Q 1294 -91 989 -36 
Q 684 19 347 128 
L 347 722 
Q 666 556 975 473 
Q 1284 391 1588 391 
Q 1994 391 2212 530 
Q 2431 669 2431 922 
Q 2431 1156 2273 1281 
Q 2116 1406 1581 1522 
L 1381 1569 
Q 847 1681 609 1914 
Q 372 2147 372 2553 
Q 372 3047 722 3315 
Q 1072 3584 1716 3584 
Q 2034 3584 2315 3537 
Q 2597 3491 2834 3397 
z
" transform="scale(0.015625)"/>
       <path id="DejaVuSans-74" d="M 1172 4494 
L 1172 3500 
L 2356 3500 
L 2356 3053 
L 1172 3053 
L 1172 1153 
Q 1172 725 1289 603 
Q 1406 481 1766 481 
L 2356 481 
L 2356 0 
L 1766 0 
Q 1100 0 847 248 
Q 594 497 594 1153 
L 594 3053 
L 172 3053 
L 172 3500 
L 594 3500 
L 594 4494 
L 1172 4494 
z
" transform="scale(0.015625)"/>
       <path id="DejaVuSans-20" transform="scale(0.015625)"/>
       <path id="DejaVuSans-69" d="M 603 3500 
L 1178 3500 
L 1178 0 
L 603 0 
L 603 3500 
z
M 603 4863 
L 1178 4863 
L 1178 4134 
L 603 4134 
L 603 4863 
z
" transform="scale(0.015625)"/>
       <path id="DejaVuSans-6d" d="M 3328 2828 
Q 3544 3216 3844 3400 
Q 4144 3584 4550 3584 
Q 5097 3584 5394 3201 
Q 5691 2819 5691 2113 
L 5691 0 
L 5113 0 
L 5113 2094 
Q 5113 2597 4934 2840 
Q 4756 3084 4391 3084 
Q 3944 3084 3684 2787 
Q 3425 2491 3425 1978 
L 3425 0 
L 2847 0 
L 2847 2094 
Q 2847 2600 2669 2842 
Q 2491 3084 2119 3084 
Q 1678 3084 1418 2786 
Q 1159 2488 1159 1978 
L 1159 0 
L 581 0 
L 581 3500 
L 1159 3500 
L 1159 2956 
Q 1356 3278 1631 3431 
Q 1906 3584 2284 3584 
Q 2666 3584 2933 3390 
Q 3200 3197 3328 2828 
z
" transform="scale(0.015625)"/>
       <path id="DejaVuSans-70" d="M 1159 525 
L 1159 -1331 
L 581 -1331 
L 581 3500 
L 1159 3500 
L 1159 2969 
Q 1341 3281 1617 3432 
Q 1894 3584 2278 3584 
Q 2916 3584 3314 3078 
Q 3713 2572 3713 1747 
Q 3713 922 3314 415 
Q 2916 -91 2278 -91 
Q 1894 -91 1617 61 
Q 1341 213 1159 525 
z
M 3116 1747 
Q 3116 2381 2855 2742 
Q 2594 3103 2138 3103 
Q 1681 3103 1420 2742 
Q 1159 2381 1159 1747 
Q 1159 1113 1420 752 
Q 1681 391 2138 391 
Q 2594 391 2855 752 
Q 3116 1113 3116 1747 
z
" transform="scale(0.015625)"/>
       <path id="DejaVuSans-6f" d="M 1959 3097 
Q 1497 3097 1228 2736 
Q 959 2375 959 1747 
Q 959 1119 1226 758 
Q 1494 397 1959 397 
Q 2419 397 2687 759 
Q 2956 1122 2956 1747 
Q 2956 2369 2687 2733 
Q 2419 3097 1959 3097 
z
M 1959 3584 
Q 2709 3584 3137 3096 
Q 3566 2609 3566 1747 
Q 3566 888 3137 398 
Q 2709 -91 1959 -91 
Q 1206 -91 779 398 
Q 353 888 353 1747 
Q 353 2609 779 3096 
Q 1206 3584 1959 3584 
z
" transform="scale(0.015625)"/>
       <path id="DejaVuSans-6e" d="M 3513 2113 
L 3513 0 
L 2938 0 
L 2938 2094 
Q 2938 2591 2744 2837 
Q 2550 3084 2163 3084 
Q 1697 3084 1428 2787 
Q 1159 2491 1159 1978 
L 1159 0 
L 581 0 
L 581 3500 
L 1159 3500 
L 1159 2956 
Q 1366 3272 1645 3428 
Q 1925 3584 2291 3584 
Q 2894 3584 3203 3211 
Q 3513 2838 3513 2113 
z
" transform="scale(0.015625)"/>
      </defs>
      <use xlink:href="#DejaVuSans-54"/>
      <use xlink:href="#DejaVuSans-65" x="44.083984"/>
      <use xlink:href="#DejaVuSans-73" x="105.607422"/>
      <use xlink:href="#DejaVuSans-74" x="157.707031"/>
      <use xlink:href="#DejaVuSans-20" x="196.916016"/>
      <use xlink:href="#DejaVuSans-54" x="228.703125"/>
      <use xlink:href="#DejaVuSans-69" x="286.662109"/>
      <use xlink:href="#DejaVuSans-6d" x="314.445312"/>
      <use xlink:href="#DejaVuSans-65" x="411.857422"/>
      <use xlink:href="#DejaVuSans-20" x="473.380859"/>
      <use xlink:href="#DejaVuSans-70" x="505.167969"/>
      <use xlink:href="#DejaVuSans-6f" x="568.644531"/>
      <use xlink:href="#DejaVuSans-69" x="629.826172"/>
      <use xlink:href="#DejaVuSans-6e" x="657.609375"/>
      <use xlink:href="#DejaVuSans-74" x="720.988281"/>
      <use xlink:href="#DejaVuSans-73" x="760.197266"/>
     </g>
    </g>
   </g>
   <g id="matplotlib.axis_2">
    <g id="ytick_1">
     <g id="line2d_10">
      <defs>
       <path id="mc4ea3952e9" d="M 0 0 
L -3.5 0 
" style="stroke: #000000; stroke-width: 0.8"/>
      </defs>
      <g>
       <use xlink:href="#mc4ea3952e9" x="45.08375" y="268.072345" style="stroke: #000000; stroke-width: 0.8"/>
      </g>
     </g>
     <g id="text_11">
      <!-- 5 -->
      <g transform="translate(30.44875 272.631407) scale(0.12 -0.12)">
       <use xlink:href="#DejaVuSans-35"/>
      </g>
     </g>
    </g>
    <g id="ytick_2">
     <g id="line2d_11">
      <g>
       <use xlink:href="#mc4ea3952e9" x="45.08375" y="237.635016" style="stroke: #000000; stroke-width: 0.8"/>
      </g>
     </g>
     <g id="text_12">
      <!-- 10 -->
      <g transform="translate(22.81375 242.194078) scale(0.12 -0.12)">
       <use xlink:href="#DejaVuSans-31"/>
       <use xlink:href="#DejaVuSans-30" x="63.623047"/>
      </g>
     </g>
    </g>
    <g id="ytick_3">
     <g id="line2d_12">
      <g>
       <use xlink:href="#mc4ea3952e9" x="45.08375" y="207.197687" style="stroke: #000000; stroke-width: 0.8"/>
      </g>
     </g>
     <g id="text_13">
      <!-- 15 -->
      <g transform="translate(22.81375 211.756749) scale(0.12 -0.12)">
       <use xlink:href="#DejaVuSans-31"/>
       <use xlink:href="#DejaVuSans-35" x="63.623047"/>
      </g>
     </g>
    </g>
    <g id="ytick_4">
     <g id="line2d_13">
      <g>
       <use xlink:href="#mc4ea3952e9" x="45.08375" y="176.760358" style="stroke: #000000; stroke-width: 0.8"/>
      </g>
     </g>
     <g id="text_14">
      <!-- 20 -->
      <g transform="translate(22.81375 181.31942) scale(0.12 -0.12)">
       <use xlink:href="#DejaVuSans-32"/>
       <use xlink:href="#DejaVuSans-30" x="63.623047"/>
      </g>
     </g>
    </g>
    <g id="ytick_5">
     <g id="line2d_14">
      <g>
       <use xlink:href="#mc4ea3952e9" x="45.08375" y="146.323029" style="stroke: #000000; stroke-width: 0.8"/>
      </g>
     </g>
     <g id="text_15">
      <!-- 25 -->
      <g transform="translate(22.81375 150.882091) scale(0.12 -0.12)">
       <use xlink:href="#DejaVuSans-32"/>
       <use xlink:href="#DejaVuSans-35" x="63.623047"/>
      </g>
     </g>
    </g>
    <g id="ytick_6">
     <g id="line2d_15">
      <g>
       <use xlink:href="#mc4ea3952e9" x="45.08375" y="115.8857" style="stroke: #000000; stroke-width: 0.8"/>
      </g>
     </g>
     <g id="text_16">
      <!-- 30 -->
      <g transform="translate(22.81375 120.444762) scale(0.12 -0.12)">
       <use xlink:href="#DejaVuSans-33"/>
       <use xlink:href="#DejaVuSans-30" x="63.623047"/>
      </g>
     </g>
    </g>
    <g id="ytick_7">
     <g id="line2d_16">
      <g>
       <use xlink:href="#mc4ea3952e9" x="45.08375" y="85.448371" style="stroke: #000000; stroke-width: 0.8"/>
      </g>
     </g>
     <g id="text_17">
      <!-- 35 -->
      <g transform="translate(22.81375 90.007433) scale(0.12 -0.12)">
       <use xlink:href="#DejaVuSans-33"/>
       <use xlink:href="#DejaVuSans-35" x="63.623047"/>
      </g>
     </g>
    </g>
    <g id="ytick_8">
     <g id="line2d_17">
      <g>
       <use xlink:href="#mc4ea3952e9" x="45.08375" y="55.011042" style="stroke: #000000; stroke-width: 0.8"/>
      </g>
     </g>
     <g id="text_18">
      <!-- 40 -->
      <g transform="translate(22.81375 59.570104) scale(0.12 -0.12)">
       <use xlink:href="#DejaVuSans-34"/>
       <use xlink:href="#DejaVuSans-30" x="63.623047"/>
      </g>
     </g>
    </g>
    <g id="ytick_9">
     <g id="line2d_18">
      <g>
       <use xlink:href="#mc4ea3952e9" x="45.08375" y="24.573713" style="stroke: #000000; stroke-width: 0.8"/>
      </g>
     </g>
     <g id="text_19">
      <!-- 45 -->
      <g transform="translate(22.81375 29.132775) scale(0.12 -0.12)">
       <use xlink:href="#DejaVuSans-34"/>
       <use xlink:href="#DejaVuSans-35" x="63.623047"/>
      </g>
     </g>
    </g>
    <g id="text_20">
     <!-- Firing rate (Hz) -->
     <g transform="translate(16.318125 201.969937) rotate(-90) scale(0.12 -0.12)">
      <defs>
       <path id="DejaVuSans-46" d="M 628 4666 
L 3309 4666 
L 3309 4134 
L 1259 4134 
L 1259 2759 
L 3109 2759 
L 3109 2228 
L 1259 2228 
L 1259 0 
L 628 0 
L 628 4666 
z
" transform="scale(0.015625)"/>
       <path id="DejaVuSans-72" d="M 2631 2963 
Q 2534 3019 2420 3045 
Q 2306 3072 2169 3072 
Q 1681 3072 1420 2755 
Q 1159 2438 1159 1844 
L 1159 0 
L 581 0 
L 581 3500 
L 1159 3500 
L 1159 2956 
Q 1341 3275 1631 3429 
Q 1922 3584 2338 3584 
Q 2397 3584 2469 3576 
Q 2541 3569 2628 3553 
L 2631 2963 
z
" transform="scale(0.015625)"/>
       <path id="DejaVuSans-67" d="M 2906 1791 
Q 2906 2416 2648 2759 
Q 2391 3103 1925 3103 
Q 1463 3103 1205 2759 
Q 947 2416 947 1791 
Q 947 1169 1205 825 
Q 1463 481 1925 481 
Q 2391 481 2648 825 
Q 2906 1169 2906 1791 
z
M 3481 434 
Q 3481 -459 3084 -895 
Q 2688 -1331 1869 -1331 
Q 1566 -1331 1297 -1286 
Q 1028 -1241 775 -1147 
L 775 -588 
Q 1028 -725 1275 -790 
Q 1522 -856 1778 -856 
Q 2344 -856 2625 -561 
Q 2906 -266 2906 331 
L 2906 616 
Q 2728 306 2450 153 
Q 2172 0 1784 0 
Q 1141 0 747 490 
Q 353 981 353 1791 
Q 353 2603 747 3093 
Q 1141 3584 1784 3584 
Q 2172 3584 2450 3431 
Q 2728 3278 2906 2969 
L 2906 3500 
L 3481 3500 
L 3481 434 
z
" transform="scale(0.015625)"/>
       <path id="DejaVuSans-61" d="M 2194 1759 
Q 1497 1759 1228 1600 
Q 959 1441 959 1056 
Q 959 750 1161 570 
Q 1363 391 1709 391 
Q 2188 391 2477 730 
Q 2766 1069 2766 1631 
L 2766 1759 
L 2194 1759 
z
M 3341 1997 
L 3341 0 
L 2766 0 
L 2766 531 
Q 2569 213 2275 61 
Q 1981 -91 1556 -91 
Q 1019 -91 701 211 
Q 384 513 384 1019 
Q 384 1609 779 1909 
Q 1175 2209 1959 2209 
L 2766 2209 
L 2766 2266 
Q 2766 2663 2505 2880 
Q 2244 3097 1772 3097 
Q 1472 3097 1187 3025 
Q 903 2953 641 2809 
L 641 3341 
Q 956 3463 1253 3523 
Q 1550 3584 1831 3584 
Q 2591 3584 2966 3190 
Q 3341 2797 3341 1997 
z
" transform="scale(0.015625)"/>
       <path id="DejaVuSans-28" d="M 1984 4856 
Q 1566 4138 1362 3434 
Q 1159 2731 1159 2009 
Q 1159 1288 1364 580 
Q 1569 -128 1984 -844 
L 1484 -844 
Q 1016 -109 783 600 
Q 550 1309 550 2009 
Q 550 2706 781 3412 
Q 1013 4119 1484 4856 
L 1984 4856 
z
" transform="scale(0.015625)"/>
       <path id="DejaVuSans-48" d="M 628 4666 
L 1259 4666 
L 1259 2753 
L 3553 2753 
L 3553 4666 
L 4184 4666 
L 4184 0 
L 3553 0 
L 3553 2222 
L 1259 2222 
L 1259 0 
L 628 0 
L 628 4666 
z
" transform="scale(0.015625)"/>
       <path id="DejaVuSans-7a" d="M 353 3500 
L 3084 3500 
L 3084 2975 
L 922 459 
L 3084 459 
L 3084 0 
L 275 0 
L 275 525 
L 2438 3041 
L 353 3041 
L 353 3500 
z
" transform="scale(0.015625)"/>
       <path id="DejaVuSans-29" d="M 513 4856 
L 1013 4856 
Q 1481 4119 1714 3412 
Q 1947 2706 1947 2009 
Q 1947 1309 1714 600 
Q 1481 -109 1013 -844 
L 513 -844 
Q 928 -128 1133 580 
Q 1338 1288 1338 2009 
Q 1338 2731 1133 3434 
Q 928 4138 513 4856 
z
" transform="scale(0.015625)"/>
      </defs>
      <use xlink:href="#DejaVuSans-46"/>
      <use xlink:href="#DejaVuSans-69" x="50.269531"/>
      <use xlink:href="#DejaVuSans-72" x="78.052734"/>
      <use xlink:href="#DejaVuSans-69" x="119.166016"/>
      <use xlink:href="#DejaVuSans-6e" x="146.949219"/>
      <use xlink:href="#DejaVuSans-67" x="210.328125"/>
      <use xlink:href="#DejaVuSans-20" x="273.804688"/>
      <use xlink:href="#DejaVuSans-72" x="305.591797"/>
      <use xlink:href="#DejaVuSans-61" x="346.705078"/>
      <use xlink:href="#DejaVuSans-74" x="407.984375"/>
      <use xlink:href="#DejaVuSans-65" x="447.193359"/>
      <use xlink:href="#DejaVuSans-20" x="508.716797"/>
      <use xlink:href="#DejaVuSans-28" x="540.503906"/>
      <use xlink:href="#DejaVuSans-48" x="579.517578"/>
      <use xlink:href="#DejaVuSans-7a" x="654.712891"/>
      <use xlink:href="#DejaVuSans-29" x="707.203125"/>
     </g>
    </g>
   </g>
   <g id="line2d_19">
    <path d="M 61.316477 222.030097 
L 62.130148 225.335621 
L 62.943818 227.034062 
L 63.757489 225.791068 
L 64.571159 224.022759 
L 65.38483 224.737016 
L 66.198501 222.760128 
L 67.012171 221.095571 
L 67.825842 219.797547 
L 68.639512 217.904381 
L 69.453183 218.165949 
L 70.266853 218.695802 
L 71.080524 216.844651 
L 71.894194 218.657221 
L 72.707865 221.593543 
L 73.521535 223.27456 
L 74.335206 223.658312 
L 75.148876 224.285819 
L 75.962547 223.459604 
L 76.776218 225.414175 
L 77.589888 225.313802 
L 78.403559 223.272463 
L 79.217229 223.234833 
L 80.0309 222.889359 
L 80.84457 223.536578 
L 81.658241 221.96957 
L 82.471911 221.592058 
L 83.285582 221.586119 
L 84.099252 218.53 
L 84.912923 218.963372 
L 85.726593 218.958315 
L 86.540264 215.080678 
L 87.353935 216.536068 
L 88.167605 215.439005 
L 88.981276 208.906772 
L 89.794946 206.679353 
L 91.422287 196.044571 
L 92.235958 191.313451 
L 93.049628 190.348082 
L 93.863299 197.012241 
L 94.676969 201.422145 
L 95.49064 205.036035 
L 96.30431 210.815509 
L 97.117981 215.636656 
L 97.931652 221.500861 
L 98.745322 222.101425 
L 99.558993 225.075198 
L 100.372663 223.92191 
L 101.186334 224.862773 
L 102.000004 226.245153 
L 102.813675 226.703091 
L 103.627345 228.579926 
L 105.254686 234.10464 
L 106.068357 236.192774 
L 106.882028 240.420835 
L 107.695698 240.170951 
L 108.509369 240.434665 
L 109.323039 238.351203 
L 110.13671 237.764966 
L 110.95038 238.55359 
L 111.764051 237.852497 
L 112.577721 237.313315 
L 113.391392 236.608583 
L 114.205062 237.627444 
L 115.832403 235.415685 
L 116.646074 234.29518 
L 117.459745 229.966311 
L 118.273415 230.844313 
L 119.087086 228.780889 
L 119.900756 228.85587 
L 120.714427 227.005647 
L 121.528097 227.541587 
L 122.341768 225.180474 
L 123.155438 224.347732 
L 123.969109 224.126512 
L 124.782779 222.234164 
L 125.59645 226.823513 
L 126.41012 225.538757 
L 127.223791 226.259153 
L 128.037462 229.17943 
L 128.851132 230.15015 
L 129.664803 232.47686 
L 130.478473 229.684051 
L 131.292144 226.159875 
L 132.105814 225.754263 
L 132.919485 225.844303 
L 133.733155 224.486772 
L 135.360496 226.102953 
L 136.174167 226.407153 
L 136.987837 225.288794 
L 137.801508 225.60985 
L 138.615179 225.685005 
L 139.428849 226.462731 
L 140.24252 225.761864 
L 141.05619 226.885977 
L 141.869861 226.592604 
L 142.683531 227.535823 
L 143.497202 227.272916 
L 144.310872 226.216357 
L 145.124543 225.389896 
L 145.938213 219.993253 
L 146.751884 218.920169 
L 147.565555 214.757622 
L 148.379225 212.530784 
L 149.192896 208.116782 
L 150.006566 205.977124 
L 150.820237 202.827923 
L 152.447578 200.330585 
L 154.074919 200.79918 
L 154.888589 199.335294 
L 155.70226 201.587869 
L 156.51593 199.952898 
L 157.329601 204.761113 
L 158.143272 205.25713 
L 158.956942 214.129076 
L 159.770613 216.636414 
L 160.584283 221.104302 
L 162.211624 226.50342 
L 163.025295 227.44499 
L 163.838965 228.209448 
L 164.652636 226.818048 
L 165.466306 226.598063 
L 166.279977 223.463884 
L 167.093647 222.664018 
L 167.907318 220.504994 
L 168.720989 219.38852 
L 169.534659 219.214603 
L 170.34833 219.39538 
L 171.162 219.010742 
L 171.975671 219.360886 
L 172.789341 217.726865 
L 173.603012 219.215434 
L 174.416682 220.462096 
L 175.230353 220.749306 
L 176.044023 221.474101 
L 176.857694 227.264225 
L 178.485035 234.585631 
L 179.298706 237.103669 
L 180.112376 238.751317 
L 180.926047 237.736859 
L 181.739717 235.802817 
L 182.553388 231.794137 
L 183.367058 226.433563 
L 184.180729 226.979249 
L 184.994399 225.277083 
L 185.80807 224.007711 
L 186.62174 221.119333 
L 187.435411 224.424795 
L 188.249082 223.003159 
L 189.062752 224.12188 
L 189.876423 223.515342 
L 190.690093 221.547677 
L 191.503764 223.253906 
L 192.317434 222.886044 
L 193.131105 223.573132 
L 193.944775 221.995874 
L 194.758446 222.584351 
L 195.572116 223.365947 
L 196.385787 222.225363 
L 197.199457 221.36825 
L 198.013128 222.102326 
L 198.826799 222.274568 
L 199.640469 222.680268 
L 200.45414 221.397509 
L 201.26781 221.462302 
L 202.081481 221.365207 
L 202.895151 221.143922 
L 203.708822 221.223952 
L 205.336163 220.227625 
L 206.149833 217.575785 
L 206.963504 218.228806 
L 207.777174 218.406417 
L 209.404516 215.599139 
L 210.218186 216.005536 
L 211.031857 209.993067 
L 211.845527 208.231168 
L 212.659198 203.7026 
L 213.472868 204.365632 
L 214.286539 207.768028 
L 215.100209 210.527668 
L 215.91388 215.844574 
L 216.72755 218.713525 
L 217.541221 224.474274 
L 218.354891 225.907571 
L 219.168562 226.52209 
L 219.982233 226.85947 
L 220.795903 228.129835 
L 221.609574 229.768372 
L 222.423244 226.828385 
L 223.236915 227.180633 
L 224.050585 224.992604 
L 224.864256 226.217193 
L 225.677926 224.994424 
L 226.491597 221.806104 
L 227.305267 223.270216 
L 228.118938 226.130969 
L 228.932609 222.8068 
L 230.55995 223.283027 
L 231.37362 224.750761 
L 232.187291 223.491047 
L 233.000961 223.69189 
L 233.814632 223.719883 
L 234.628302 221.849734 
L 235.441973 221.94421 
L 236.255643 220.915842 
L 237.069314 223.622031 
L 237.882984 223.743542 
L 238.696655 224.455077 
L 239.510326 223.846809 
L 240.323996 224.151143 
L 241.137667 223.564926 
L 241.951337 223.402114 
L 242.765008 222.888719 
L 243.578678 218.883868 
L 244.392349 219.46821 
L 245.206019 217.442257 
L 246.01969 216.849834 
L 246.83336 212.106712 
L 247.647031 206.187948 
L 248.460701 202.164578 
L 249.274372 193.520414 
L 250.901713 171.824738 
L 251.715384 163.80225 
L 252.529054 163.028431 
L 254.156395 157.033824 
L 255.783736 159.645319 
L 256.597407 163.71019 
L 257.411077 167.035768 
L 260.66576 205.400137 
L 261.47943 214.138946 
L 262.293101 217.311608 
L 263.106771 219.473519 
L 263.920442 217.788035 
L 264.734112 221.033391 
L 265.547783 225.034704 
L 266.361453 230.518321 
L 267.175124 234.988969 
L 267.988794 236.42502 
L 268.802465 236.059568 
L 269.616136 236.294421 
L 270.429806 234.537948 
L 271.243477 234.482433 
L 272.870818 233.349349 
L 273.684488 231.911461 
L 274.498159 230.91861 
L 275.311829 228.165305 
L 276.1255 227.828936 
L 276.93917 225.120983 
L 277.752841 224.88629 
L 278.566511 224.414778 
L 279.380182 224.77938 
L 280.193853 222.13396 
L 281.007523 223.242532 
L 281.821194 223.937145 
L 282.634864 222.49556 
L 283.448535 223.704473 
L 284.262205 224.226744 
L 285.075876 222.503451 
L 285.889546 222.418722 
L 286.703217 223.386209 
L 287.516887 222.436781 
L 288.330558 224.197241 
L 289.144228 224.855739 
L 289.957899 224.213709 
L 290.77157 222.022708 
L 291.58524 223.303849 
L 292.398911 222.068126 
L 293.212581 223.251638 
L 294.026252 225.234729 
L 294.839922 225.459243 
L 295.653593 225.899714 
L 296.467263 228.478422 
L 297.280934 226.084132 
L 298.094604 221.307197 
L 298.908275 210.492188 
L 299.721945 201.27771 
L 301.349287 168.439141 
L 302.162957 157.841876 
L 302.976628 154.755986 
L 303.790298 157.762103 
L 304.603969 168.874279 
L 305.417639 174.479528 
L 306.23131 188.085933 
L 307.858651 202.576007 
L 308.672321 211.812811 
L 309.485992 215.846826 
L 310.299663 222.186569 
L 311.113333 224.295567 
L 311.927004 229.069875 
L 312.740674 232.259159 
L 313.554345 232.885068 
L 314.368015 232.341285 
L 315.181686 233.187198 
L 315.995356 230.946965 
L 316.809027 230.557891 
L 317.622697 228.014124 
L 318.436368 228.570384 
L 319.250038 227.643752 
L 320.063709 226.997257 
L 320.87738 225.235937 
L 321.69105 223.053013 
L 322.504721 222.890565 
L 323.318391 224.067697 
L 324.132062 224.289355 
L 324.945732 225.288847 
L 325.759403 224.336006 
L 326.573073 225.580708 
L 327.386744 223.854018 
L 328.200414 225.141608 
L 329.014085 225.778735 
L 329.827755 226.259857 
L 330.641426 226.012377 
L 331.455097 225.17649 
L 332.268767 224.558036 
L 333.082438 223.575817 
L 333.896108 225.790393 
L 334.709779 222.999677 
L 335.523449 224.122584 
L 336.33712 224.754461 
L 337.15079 225.217663 
L 337.964461 229.184557 
L 338.778131 229.472717 
L 339.591802 234.342347 
L 340.405472 237.330556 
L 341.219143 242.77251 
L 342.846484 252.344693 
L 344.473825 256.518222 
L 345.287496 257.102948 
L 346.101166 256.528349 
L 346.914837 255.017802 
L 347.728507 253.03662 
L 348.542178 249.557811 
L 349.355848 247.260223 
L 350.169519 244.437098 
L 350.98319 240.094625 
L 351.79686 237.215653 
L 353.424201 226.89989 
L 354.237872 225.091619 
L 355.051542 223.79962 
L 355.865213 223.126582 
L 356.678883 224.371735 
L 357.492554 224.87349 
L 358.306224 223.484904 
L 359.933565 227.400051 
L 360.747236 228.988976 
L 362.374577 237.890972 
L 363.188248 240.323468 
L 364.001918 239.209486 
L 364.815589 239.782306 
L 365.629259 235.358509 
L 366.44293 232.803422 
L 367.2566 231.188242 
L 368.070271 228.403714 
L 368.883941 226.976273 
L 369.697612 224.911806 
L 370.511282 224.4433 
L 371.324953 222.823027 
L 372.138624 221.864542 
L 372.952294 221.666356 
L 373.765965 219.817685 
L 374.579635 222.091059 
L 375.393306 221.630102 
L 376.206976 222.777378 
L 377.020647 219.666506 
L 377.834317 222.140136 
L 378.647988 222.861422 
L 379.461658 221.504975 
L 380.275329 222.621364 
L 381.088999 221.38073 
L 381.90267 224.493411 
L 382.716341 222.636112 
L 383.530011 222.913599 
L 384.343682 222.008061 
L 385.157352 222.598232 
L 385.971023 222.491915 
L 385.971023 222.491915 
" clip-path="url(#pc1ac3eb943)" style="fill: none; stroke: #1f77b4; stroke-width: 1.5; stroke-linecap: square"/>
   </g>
   <g id="line2d_20">
    <path d="M 61.316477 180.334772 
L 62.130148 168.867316 
L 62.943818 184.584007 
L 63.757489 202.571799 
L 64.571159 215.005732 
L 65.38483 202.948416 
L 66.198501 202.750475 
L 67.012171 208.488956 
L 67.825842 210.479918 
L 68.639512 217.029113 
L 69.453183 212.157855 
L 70.266853 211.449763 
L 71.080524 230.538918 
L 71.894194 224.469792 
L 72.707865 233.040847 
L 73.521535 247.686525 
L 74.335206 250.92618 
L 75.148876 252.677596 
L 75.962547 260.263453 
L 76.776218 265.154187 
L 77.589888 265.822435 
L 79.217229 272.11165 
L 80.0309 269.856298 
L 80.84457 266.177208 
L 81.658241 265.693576 
L 82.471911 259.854491 
L 83.285582 256.002916 
L 84.099252 254.763877 
L 84.912923 245.465959 
L 85.726593 245.423717 
L 86.540264 235.222322 
L 87.353935 230.075959 
L 88.167605 218.306112 
L 88.981276 194.672989 
L 89.794946 178.204757 
L 91.422287 117.994394 
L 92.235958 121.823492 
L 93.049628 108.435904 
L 93.863299 110.527651 
L 94.676969 82.481484 
L 95.49064 88.26294 
L 96.30431 105.414439 
L 97.931652 36.23775 
L 98.745322 66.341587 
L 99.558993 57.540218 
L 101.186334 106.311253 
L 102.000004 110.206828 
L 102.813675 110.988605 
L 103.627345 135.479877 
L 104.441016 133.034725 
L 105.254686 165.759414 
L 106.068357 189.976438 
L 106.882028 175.865438 
L 107.695698 179.206042 
L 108.509369 188.982935 
L 109.323039 190.23536 
L 110.13671 196.68597 
L 110.95038 198.495715 
L 111.764051 223.726642 
L 112.577721 234.068098 
L 113.391392 227.118041 
L 114.205062 218.718702 
L 115.018733 215.125512 
L 115.832403 223.889799 
L 116.646074 221.841127 
L 117.459745 227.233069 
L 118.273415 229.432448 
L 119.087086 236.945413 
L 119.900756 248.83139 
L 120.714427 249.443689 
L 121.528097 251.969538 
L 122.341768 253.550635 
L 123.155438 255.884548 
L 123.969109 253.69592 
L 125.59645 253.534058 
L 127.223791 249.327593 
L 128.037462 245.025335 
L 128.851132 221.53909 
L 129.664803 205.403399 
L 130.478473 202.21088 
L 131.292144 215.571356 
L 132.105814 223.36809 
L 132.919485 240.188915 
L 133.733155 246.875271 
L 134.546826 255.745867 
L 135.360496 258.952335 
L 136.174167 264.661248 
L 136.987837 262.685278 
L 137.801508 263.786622 
L 138.615179 263.789822 
L 139.428849 262.210827 
L 140.24252 261.317912 
L 141.05619 259.015642 
L 141.869861 252.830683 
L 142.683531 247.522563 
L 143.497202 244.6977 
L 144.310872 245.497429 
L 145.124543 251.855589 
L 145.938213 254.809903 
L 146.751884 255.44446 
L 147.565555 247.662349 
L 148.379225 247.098376 
L 149.192896 243.736393 
L 150.006566 242.061096 
L 150.820237 248.064944 
L 151.633907 236.028158 
L 152.447578 227.900662 
L 153.261248 214.545581 
L 154.074919 192.640009 
L 154.888589 194.374959 
L 155.70226 187.781312 
L 156.51593 164.507283 
L 157.329601 158.647891 
L 158.143272 157.660517 
L 158.956942 174.925609 
L 159.770613 185.560387 
L 160.584283 188.262591 
L 161.397954 195.428007 
L 163.025295 186.504745 
L 163.838965 189.198583 
L 164.652636 189.939371 
L 165.466306 186.393355 
L 166.279977 196.013866 
L 167.093647 213.32236 
L 167.907318 224.450189 
L 168.720989 223.847212 
L 169.534659 228.721783 
L 170.34833 219.859038 
L 171.162 213.023904 
L 171.975671 214.876217 
L 174.416682 242.651771 
L 175.230353 236.998189 
L 176.044023 225.978312 
L 176.857694 206.167525 
L 177.671364 191.817593 
L 178.485035 193.132317 
L 179.298706 215.399619 
L 180.112376 231.691501 
L 180.926047 242.39644 
L 181.739717 247.308717 
L 182.553388 246.395411 
L 184.180729 261.806236 
L 184.994399 267.287806 
L 185.80807 270.779576 
L 186.62174 273.203478 
L 187.435411 272.614501 
L 188.249082 273.37366 
L 189.062752 273.694678 
L 189.876423 276.249722 
L 190.690093 276.372804 
L 191.503764 276.613911 
L 192.317434 275.97249 
L 193.131105 274.965736 
L 193.944775 270.701895 
L 194.758446 269.889654 
L 195.572116 271.562177 
L 196.385787 271.771846 
L 197.199457 267.032709 
L 198.013128 263.100712 
L 198.826799 262.668059 
L 199.640469 262.435438 
L 201.26781 255.951493 
L 202.081481 249.980046 
L 202.895151 240.431527 
L 203.708822 241.329169 
L 204.522492 241.715453 
L 205.336163 234.769278 
L 206.149833 223.46425 
L 206.963504 219.826573 
L 207.777174 213.032453 
L 208.590845 211.04907 
L 209.404516 205.586312 
L 210.218186 194.521574 
L 211.031857 187.576598 
L 211.845527 186.788225 
L 212.659198 187.584879 
L 213.472868 185.504552 
L 214.286539 205.586012 
L 215.100209 215.250306 
L 215.91388 234.882728 
L 216.72755 231.684859 
L 217.541221 241.206614 
L 218.354891 252.718525 
L 219.168562 256.579948 
L 219.982233 259.327136 
L 221.609574 265.715204 
L 222.423244 270.222952 
L 223.236915 271.593202 
L 224.050585 269.294931 
L 225.677926 272.283554 
L 226.491597 273.273885 
L 227.305267 271.628139 
L 228.932609 275.845923 
L 229.746279 277.555038 
L 230.55995 277.134891 
L 232.187291 278.038405 
L 233.000961 276.297282 
L 233.814632 277.656181 
L 234.628302 277.966676 
L 236.255643 275.974574 
L 237.069314 272.391277 
L 237.882984 269.833654 
L 238.696655 272.100043 
L 239.510326 271.510558 
L 240.323996 270.364982 
L 241.137667 267.300471 
L 241.951337 260.179982 
L 243.578678 242.477558 
L 244.392349 231.873812 
L 245.206019 205.997099 
L 246.01969 199.996266 
L 246.83336 192.413585 
L 247.647031 176.250969 
L 248.460701 122.263913 
L 249.274372 111.432926 
L 250.088043 85.96604 
L 250.901713 113.650147 
L 251.715384 105.03638 
L 252.529054 123.213559 
L 253.342725 124.834347 
L 254.156395 149.577007 
L 254.970066 120.451394 
L 255.783736 124.407793 
L 256.597407 136.998354 
L 257.411077 138.962591 
L 258.224748 141.823856 
L 260.66576 177.366618 
L 261.47943 169.981589 
L 262.293101 181.416617 
L 263.106771 183.637325 
L 264.734112 216.03951 
L 265.547783 230.165229 
L 266.361453 233.582816 
L 267.175124 228.910017 
L 267.988794 220.11223 
L 268.802465 225.8969 
L 269.616136 236.667406 
L 270.429806 234.998323 
L 271.243477 249.349895 
L 272.057147 254.001606 
L 272.870818 257.287849 
L 273.684488 259.510963 
L 274.498159 261.339443 
L 275.311829 266.574294 
L 276.1255 267.366715 
L 276.93917 270.370889 
L 277.752841 270.717029 
L 278.566511 271.296228 
L 279.380182 273.967804 
L 280.193853 275.45835 
L 281.007523 274.781305 
L 281.821194 276.712791 
L 282.634864 277.157573 
L 283.448535 278.15775 
L 284.262205 277.005047 
L 285.075876 277.947924 
L 285.889546 276.977995 
L 286.703217 274.851673 
L 287.516887 276.495466 
L 288.330558 276.768535 
L 289.144228 275.671489 
L 289.957899 276.553176 
L 290.77157 275.283877 
L 292.398911 267.893734 
L 293.212581 254.435591 
L 294.026252 243.705341 
L 295.653593 203.278338 
L 296.467263 194.648102 
L 297.280934 182.413669 
L 298.094604 186.389161 
L 298.908275 166.035869 
L 299.721945 159.795994 
L 300.535616 132.316651 
L 301.349287 111.528267 
L 302.162957 107.871348 
L 302.976628 116.717811 
L 303.790298 134.82152 
L 304.603969 142.967202 
L 305.417639 146.343156 
L 306.23131 131.40337 
L 307.04498 143.473223 
L 307.858651 152.484493 
L 308.672321 174.081307 
L 309.485992 181.22523 
L 310.299663 184.372428 
L 311.113333 206.228402 
L 311.927004 196.721151 
L 312.740674 193.428077 
L 313.554345 181.576326 
L 314.368015 198.328829 
L 315.181686 204.874364 
L 315.995356 228.691993 
L 316.809027 235.644247 
L 317.622697 238.609365 
L 318.436368 247.41269 
L 319.250038 247.521334 
L 321.69105 263.198935 
L 322.504721 267.512057 
L 323.318391 265.623145 
L 324.945732 269.947846 
L 325.759403 271.151889 
L 326.573073 275.388713 
L 327.386744 273.749781 
L 328.200414 273.801151 
L 329.014085 272.647689 
L 329.827755 272.414238 
L 330.641426 269.99029 
L 331.455097 271.011756 
L 332.268767 271.056871 
L 333.082438 268.257874 
L 333.896108 267.626305 
L 334.709779 265.880267 
L 335.523449 261.611248 
L 336.33712 254.838746 
L 337.15079 250.209025 
L 337.964461 233.390624 
L 338.778131 212.835283 
L 339.591802 184.425416 
L 340.405472 126.09416 
L 341.219143 150.706006 
L 342.032814 132.766386 
L 342.846484 120.923784 
L 343.660155 116.560214 
L 344.473825 135.985316 
L 345.287496 134.090718 
L 346.101166 162.229922 
L 346.914837 179.720308 
L 347.728507 177.64219 
L 348.542178 184.240918 
L 349.355848 185.774128 
L 350.169519 203.271635 
L 350.98319 203.214559 
L 351.79686 209.088597 
L 352.610531 206.877304 
L 353.424201 194.656891 
L 354.237872 195.610502 
L 355.051542 206.325904 
L 355.865213 220.160314 
L 357.492554 240.953092 
L 358.306224 247.260734 
L 359.119895 242.534098 
L 359.933565 236.044793 
L 360.747236 224.513123 
L 361.560907 217.071322 
L 362.374577 212.456325 
L 363.188248 222.402151 
L 364.815589 236.761615 
L 366.44293 239.147535 
L 367.2566 239.751987 
L 368.070271 243.115165 
L 368.883941 250.153081 
L 369.697612 256.039728 
L 370.511282 259.747087 
L 371.324953 268.276751 
L 372.138624 272.750666 
L 372.952294 272.331634 
L 374.579635 270.725268 
L 375.393306 275.680551 
L 376.206976 275.739017 
L 377.020647 274.274792 
L 377.834317 271.177576 
L 378.647988 272.178774 
L 379.461658 273.765566 
L 380.275329 274.036697 
L 381.088999 273.548097 
L 381.90267 274.175245 
L 382.716341 274.291903 
L 383.530011 274.990154 
L 384.343682 274.592364 
L 385.157352 272.776943 
L 385.971023 268.681232 
L 385.971023 268.681232 
" clip-path="url(#pc1ac3eb943)" style="fill: none; stroke: #ff7f0e; stroke-width: 1.5; stroke-linecap: square"/>
   </g>
   <g id="patch_3">
    <path d="M 45.08375 290.25375 
L 45.08375 24.14175 
" style="fill: none; stroke: #000000; stroke-width: 0.8; stroke-linejoin: miter; stroke-linecap: square"/>
   </g>
   <g id="patch_4">
    <path d="M 402.20375 290.25375 
L 402.20375 24.14175 
" style="fill: none; stroke: #000000; stroke-width: 0.8; stroke-linejoin: miter; stroke-linecap: square"/>
   </g>
   <g id="patch_5">
    <path d="M 45.08375 290.25375 
L 402.20375 290.25375 
" style="fill: none; stroke: #000000; stroke-width: 0.8; stroke-linejoin: miter; stroke-linecap: square"/>
   </g>
   <g id="patch_6">
    <path d="M 45.08375 24.14175 
L 402.20375 24.14175 
" style="fill: none; stroke: #000000; stroke-width: 0.8; stroke-linejoin: miter; stroke-linecap: square"/>
   </g>
   <g id="text_21">
    <!-- Neuron 7 -->
    <g transform="translate(190.628375 18.14175) scale(0.144 -0.144)">
     <defs>
      <path id="DejaVuSans-4e" d="M 628 4666 
L 1478 4666 
L 3547 763 
L 3547 4666 
L 4159 4666 
L 4159 0 
L 3309 0 
L 1241 3903 
L 1241 0 
L 628 0 
L 628 4666 
z
" transform="scale(0.015625)"/>
      <path id="DejaVuSans-75" d="M 544 1381 
L 544 3500 
L 1119 3500 
L 1119 1403 
Q 1119 906 1312 657 
Q 1506 409 1894 409 
Q 2359 409 2629 706 
Q 2900 1003 2900 1516 
L 2900 3500 
L 3475 3500 
L 3475 0 
L 2900 0 
L 2900 538 
Q 2691 219 2414 64 
Q 2138 -91 1772 -91 
Q 1169 -91 856 284 
Q 544 659 544 1381 
z
M 1991 3584 
L 1991 3584 
z
" transform="scale(0.015625)"/>
      <path id="DejaVuSans-37" d="M 525 4666 
L 3525 4666 
L 3525 4397 
L 1831 0 
L 1172 0 
L 2766 4134 
L 525 4134 
L 525 4666 
z
" transform="scale(0.015625)"/>
     </defs>
     <use xlink:href="#DejaVuSans-4e"/>
     <use xlink:href="#DejaVuSans-65" x="74.804688"/>
     <use xlink:href="#DejaVuSans-75" x="136.328125"/>
     <use xlink:href="#DejaVuSans-72" x="199.707031"/>
     <use xlink:href="#DejaVuSans-6f" x="238.570312"/>
     <use xlink:href="#DejaVuSans-6e" x="299.751953"/>
     <use xlink:href="#DejaVuSans-20" x="363.130859"/>
     <use xlink:href="#DejaVuSans-37" x="394.917969"/>
    </g>
   </g>
   <g id="legend_1">
    <g id="patch_7">
     <path d="M 310.04375 68.96925 
L 393.80375 68.96925 
Q 396.20375 68.96925 396.20375 66.56925 
L 396.20375 32.54175 
Q 396.20375 30.14175 393.80375 30.14175 
L 310.04375 30.14175 
Q 307.64375 30.14175 307.64375 32.54175 
L 307.64375 66.56925 
Q 307.64375 68.96925 310.04375 68.96925 
z
" style="fill: #ffffff; opacity: 0.8; stroke: #cccccc; stroke-linejoin: miter"/>
    </g>
    <g id="line2d_21">
     <path d="M 312.44375 39.859875 
L 324.44375 39.859875 
L 336.44375 39.859875 
" style="fill: none; stroke: #1f77b4; stroke-width: 1.5; stroke-linecap: square"/>
    </g>
    <g id="text_22">
     <!-- $d_z$ = 2 -->
     <g transform="translate(346.04375 44.059875) scale(0.12 -0.12)">
      <defs>
       <path id="DejaVuSans-Oblique-64" d="M 2675 525 
Q 2444 222 2128 65 
Q 1813 -91 1428 -91 
Q 903 -91 598 267 
Q 294 625 294 1247 
Q 294 1766 478 2236 
Q 663 2706 1013 3078 
Q 1244 3325 1534 3454 
Q 1825 3584 2144 3584 
Q 2481 3584 2739 3421 
Q 2997 3259 3138 2956 
L 3513 4863 
L 4091 4863 
L 3144 0 
L 2566 0 
L 2675 525 
z
M 891 1350 
Q 891 897 1095 644 
Q 1300 391 1663 391 
Q 1931 391 2161 520 
Q 2391 650 2566 903 
Q 2750 1166 2856 1509 
Q 2963 1853 2963 2188 
Q 2963 2622 2758 2865 
Q 2553 3109 2194 3109 
Q 1922 3109 1687 2981 
Q 1453 2853 1288 2613 
Q 1106 2353 998 2009 
Q 891 1666 891 1350 
z
" transform="scale(0.015625)"/>
       <path id="DejaVuSans-Oblique-7a" d="M 744 3500 
L 3475 3500 
L 3372 2975 
L 738 459 
L 2913 459 
L 2822 0 
L -19 0 
L 84 525 
L 2719 3041 
L 653 3041 
L 744 3500 
z
" transform="scale(0.015625)"/>
       <path id="DejaVuSans-3d" d="M 678 2906 
L 4684 2906 
L 4684 2381 
L 678 2381 
L 678 2906 
z
M 678 1631 
L 4684 1631 
L 4684 1100 
L 678 1100 
L 678 1631 
z
" transform="scale(0.015625)"/>
      </defs>
      <use xlink:href="#DejaVuSans-Oblique-64" transform="translate(0 0.015625)"/>
      <use xlink:href="#DejaVuSans-Oblique-7a" transform="translate(63.476562 -16.390625) scale(0.7)"/>
      <use xlink:href="#DejaVuSans-20" transform="translate(102.954102 0.015625)"/>
      <use xlink:href="#DejaVuSans-3d" transform="translate(134.741211 0.015625)"/>
      <use xlink:href="#DejaVuSans-20" transform="translate(218.530273 0.015625)"/>
      <use xlink:href="#DejaVuSans-32" transform="translate(250.317383 0.015625)"/>
     </g>
    </g>
    <g id="line2d_22">
     <path d="M 312.44375 57.473625 
L 324.44375 57.473625 
L 336.44375 57.473625 
" style="fill: none; stroke: #ff7f0e; stroke-width: 1.5; stroke-linecap: square"/>
    </g>
    <g id="text_23">
     <!-- $d_z$ = 10 -->
     <g transform="translate(346.04375 61.673625) scale(0.12 -0.12)">
      <use xlink:href="#DejaVuSans-Oblique-64" transform="translate(0 0.015625)"/>
      <use xlink:href="#DejaVuSans-Oblique-7a" transform="translate(63.476562 -16.390625) scale(0.7)"/>
      <use xlink:href="#DejaVuSans-20" transform="translate(102.954102 0.015625)"/>
      <use xlink:href="#DejaVuSans-3d" transform="translate(134.741211 0.015625)"/>
      <use xlink:href="#DejaVuSans-20" transform="translate(218.530273 0.015625)"/>
      <use xlink:href="#DejaVuSans-31" transform="translate(250.317383 0.015625)"/>
      <use xlink:href="#DejaVuSans-30" transform="translate(313.94043 0.015625)"/>
     </g>
    </g>
   </g>
  </g>
 </g>
 <defs>
  <clipPath id="pc1ac3eb943">
   <rect x="45.08375" y="24.14175" width="357.12" height="266.112"/>
  </clipPath>
 </defs>
</svg>
