<?xml version="1.0" encoding="utf-8" standalone="no"?>
<!DOCTYPE svg PUBLIC "-//W3C//DTD SVG 1.1//EN"
  "http://www.w3.org/Graphics/SVG/1.1/DTD/svg11.dtd">
<svg xmlns:xlink="http://www.w3.org/1999/xlink" width="460.8pt" height="345.6pt" viewBox="0 0 460.8 345.6" xmlns="http://www.w3.org/2000/svg" version="1.1">
 <metadata>
  <rdf:RDF xmlns:dc="http://purl.org/dc/elements/1.1/" xmlns:cc="http://creativecommons.org/ns#" xmlns:rdf="http://www.w3.org/1999/02/22-rdf-syntax-ns#">
   <cc:Work>
    <dc:type rdf:resource="http://purl.org/dc/dcmitype/StillImage"/>
    <dc:date>2024-05-20T21:21:23.322435</dc:date>
    <dc:format>image/svg+xml</dc:format>
    <dc:creator>
     <cc:Agent>
      <dc:title>Matplotlib v3.7.2, https://matplotlib.org/</dc:title>
     </cc:Agent>
    </dc:creator>
   </cc:Work>
  </rdf:RDF>
 </metadata>
 <defs>
  <style type="text/css">*{stroke-linejoin: round; stroke-linecap: butt}</style>
 </defs>
 <g id="figure_1">
  <g id="patch_1">
   <path d="M 0 345.6 
L 460.8 345.6 
L 460.8 0 
L 0 0 
z
" style="fill: #ffffff"/>
  </g>
  <g id="axes_1">
   <g id="patch_2">
    <path d="M 57.6 307.584 
L 414.72 307.584 
L 414.72 41.472 
L 57.6 41.472 
z
" style="fill: #ffffff"/>
   </g>
   <g id="matplotlib.axis_1">
    <g id="xtick_1">
     <g id="line2d_1">
      <defs>
       <path id="m374bfd674c" d="M 0 0 
L 0 3.5 
" style="stroke: #000000; stroke-width: 0.8"/>
      </defs>
      <g>
       <use xlink:href="#m374bfd674c" x="73.832727" y="307.584" style="stroke: #000000; stroke-width: 0.8"/>
      </g>
     </g>
     <g id="text_1">
      <!-- 0 -->
      <g transform="translate(70.015227 323.702125) scale(0.12 -0.12)">
       <defs>
        <path id="DejaVuSans-30" d="M 2034 4250 
Q 1547 4250 1301 3770 
Q 1056 3291 1056 2328 
Q 1056 1369 1301 889 
Q 1547 409 2034 409 
Q 2525 409 2770 889 
Q 3016 1369 3016 2328 
Q 3016 3291 2770 3770 
Q 2525 4250 2034 4250 
z
M 2034 4750 
Q 2819 4750 3233 4129 
Q 3647 3509 3647 2328 
Q 3647 1150 3233 529 
Q 2819 -91 2034 -91 
Q 1250 -91 836 529 
Q 422 1150 422 2328 
Q 422 3509 836 4129 
Q 1250 4750 2034 4750 
z
" transform="scale(0.015625)"/>
       </defs>
       <use xlink:href="#DejaVuSans-30"/>
      </g>
     </g>
    </g>
    <g id="xtick_2">
     <g id="line2d_2">
      <g>
       <use xlink:href="#m374bfd674c" x="114.516254" y="307.584" style="stroke: #000000; stroke-width: 0.8"/>
      </g>
     </g>
     <g id="text_2">
      <!-- 50 -->
      <g transform="translate(106.881254 323.702125) scale(0.12 -0.12)">
       <defs>
        <path id="DejaVuSans-35" d="M 691 4666 
L 3169 4666 
L 3169 4134 
L 1269 4134 
L 1269 2991 
Q 1406 3038 1543 3061 
Q 1681 3084 1819 3084 
Q 2600 3084 3056 2656 
Q 3513 2228 3513 1497 
Q 3513 744 3044 326 
Q 2575 -91 1722 -91 
Q 1428 -91 1123 -41 
Q 819 9 494 109 
L 494 744 
Q 775 591 1075 516 
Q 1375 441 1709 441 
Q 2250 441 2565 725 
Q 2881 1009 2881 1497 
Q 2881 1984 2565 2268 
Q 2250 2553 1709 2553 
Q 1456 2553 1204 2497 
Q 953 2441 691 2322 
L 691 4666 
z
" transform="scale(0.015625)"/>
       </defs>
       <use xlink:href="#DejaVuSans-35"/>
       <use xlink:href="#DejaVuSans-30" x="63.623047"/>
      </g>
     </g>
    </g>
    <g id="xtick_3">
     <g id="line2d_3">
      <g>
       <use xlink:href="#m374bfd674c" x="155.199781" y="307.584" style="stroke: #000000; stroke-width: 0.8"/>
      </g>
     </g>
     <g id="text_3">
      <!-- 100 -->
      <g transform="translate(143.747281 323.702125) scale(0.12 -0.12)">
       <defs>
        <path id="DejaVuSans-31" d="M 794 531 
L 1825 531 
L 1825 4091 
L 703 3866 
L 703 4441 
L 1819 4666 
L 2450 4666 
L 2450 531 
L 3481 531 
L 3481 0 
L 794 0 
L 794 531 
z
" transform="scale(0.015625)"/>
       </defs>
       <use xlink:href="#DejaVuSans-31"/>
       <use xlink:href="#DejaVuSans-30" x="63.623047"/>
       <use xlink:href="#DejaVuSans-30" x="127.246094"/>
      </g>
     </g>
    </g>
    <g id="xtick_4">
     <g id="line2d_4">
      <g>
       <use xlink:href="#m374bfd674c" x="195.883308" y="307.584" style="stroke: #000000; stroke-width: 0.8"/>
      </g>
     </g>
     <g id="text_4">
      <!-- 150 -->
      <g transform="translate(184.430808 323.702125) scale(0.12 -0.12)">
       <use xlink:href="#DejaVuSans-31"/>
       <use xlink:href="#DejaVuSans-35" x="63.623047"/>
       <use xlink:href="#DejaVuSans-30" x="127.246094"/>
      </g>
     </g>
    </g>
    <g id="xtick_5">
     <g id="line2d_5">
      <g>
       <use xlink:href="#m374bfd674c" x="236.566835" y="307.584" style="stroke: #000000; stroke-width: 0.8"/>
      </g>
     </g>
     <g id="text_5">
      <!-- 200 -->
      <g transform="translate(225.114335 323.702125) scale(0.12 -0.12)">
       <defs>
        <path id="DejaVuSans-32" d="M 1228 531 
L 3431 531 
L 3431 0 
L 469 0 
L 469 531 
Q 828 903 1448 1529 
Q 2069 2156 2228 2338 
Q 2531 2678 2651 2914 
Q 2772 3150 2772 3378 
Q 2772 3750 2511 3984 
Q 2250 4219 1831 4219 
Q 1534 4219 1204 4116 
Q 875 4013 500 3803 
L 500 4441 
Q 881 4594 1212 4672 
Q 1544 4750 1819 4750 
Q 2544 4750 2975 4387 
Q 3406 4025 3406 3419 
Q 3406 3131 3298 2873 
Q 3191 2616 2906 2266 
Q 2828 2175 2409 1742 
Q 1991 1309 1228 531 
z
" transform="scale(0.015625)"/>
       </defs>
       <use xlink:href="#DejaVuSans-32"/>
       <use xlink:href="#DejaVuSans-30" x="63.623047"/>
       <use xlink:href="#DejaVuSans-30" x="127.246094"/>
      </g>
     </g>
    </g>
    <g id="xtick_6">
     <g id="line2d_6">
      <g>
       <use xlink:href="#m374bfd674c" x="277.250362" y="307.584" style="stroke: #000000; stroke-width: 0.8"/>
      </g>
     </g>
     <g id="text_6">
      <!-- 250 -->
      <g transform="translate(265.797862 323.702125) scale(0.12 -0.12)">
       <use xlink:href="#DejaVuSans-32"/>
       <use xlink:href="#DejaVuSans-35" x="63.623047"/>
       <use xlink:href="#DejaVuSans-30" x="127.246094"/>
      </g>
     </g>
    </g>
    <g id="xtick_7">
     <g id="line2d_7">
      <g>
       <use xlink:href="#m374bfd674c" x="317.933889" y="307.584" style="stroke: #000000; stroke-width: 0.8"/>
      </g>
     </g>
     <g id="text_7">
      <!-- 300 -->
      <g transform="translate(306.481389 323.702125) scale(0.12 -0.12)">
       <defs>
        <path id="DejaVuSans-33" d="M 2597 2516 
Q 3050 2419 3304 2112 
Q 3559 1806 3559 1356 
Q 3559 666 3084 287 
Q 2609 -91 1734 -91 
Q 1441 -91 1130 -33 
Q 819 25 488 141 
L 488 750 
Q 750 597 1062 519 
Q 1375 441 1716 441 
Q 2309 441 2620 675 
Q 2931 909 2931 1356 
Q 2931 1769 2642 2001 
Q 2353 2234 1838 2234 
L 1294 2234 
L 1294 2753 
L 1863 2753 
Q 2328 2753 2575 2939 
Q 2822 3125 2822 3475 
Q 2822 3834 2567 4026 
Q 2313 4219 1838 4219 
Q 1578 4219 1281 4162 
Q 984 4106 628 3988 
L 628 4550 
Q 988 4650 1302 4700 
Q 1616 4750 1894 4750 
Q 2613 4750 3031 4423 
Q 3450 4097 3450 3541 
Q 3450 3153 3228 2886 
Q 3006 2619 2597 2516 
z
" transform="scale(0.015625)"/>
       </defs>
       <use xlink:href="#DejaVuSans-33"/>
       <use xlink:href="#DejaVuSans-30" x="63.623047"/>
       <use xlink:href="#DejaVuSans-30" x="127.246094"/>
      </g>
     </g>
    </g>
    <g id="xtick_8">
     <g id="line2d_8">
      <g>
       <use xlink:href="#m374bfd674c" x="358.617416" y="307.584" style="stroke: #000000; stroke-width: 0.8"/>
      </g>
     </g>
     <g id="text_8">
      <!-- 350 -->
      <g transform="translate(347.164916 323.702125) scale(0.12 -0.12)">
       <use xlink:href="#DejaVuSans-33"/>
       <use xlink:href="#DejaVuSans-35" x="63.623047"/>
       <use xlink:href="#DejaVuSans-30" x="127.246094"/>
      </g>
     </g>
    </g>
    <g id="xtick_9">
     <g id="line2d_9">
      <g>
       <use xlink:href="#m374bfd674c" x="399.300943" y="307.584" style="stroke: #000000; stroke-width: 0.8"/>
      </g>
     </g>
     <g id="text_9">
      <!-- 400 -->
      <g transform="translate(387.848443 323.702125) scale(0.12 -0.12)">
       <defs>
        <path id="DejaVuSans-34" d="M 2419 4116 
L 825 1625 
L 2419 1625 
L 2419 4116 
z
M 2253 4666 
L 3047 4666 
L 3047 1625 
L 3713 1625 
L 3713 1100 
L 3047 1100 
L 3047 0 
L 2419 0 
L 2419 1100 
L 313 1100 
L 313 1709 
L 2253 4666 
z
" transform="scale(0.015625)"/>
       </defs>
       <use xlink:href="#DejaVuSans-34"/>
       <use xlink:href="#DejaVuSans-30" x="63.623047"/>
       <use xlink:href="#DejaVuSans-30" x="127.246094"/>
      </g>
     </g>
    </g>
    <g id="text_10">
     <!-- Test Time points -->
     <g transform="translate(187.424062 339.315875) scale(0.12 -0.12)">
      <defs>
       <path id="DejaVuSans-54" d="M -19 4666 
L 3928 4666 
L 3928 4134 
L 2272 4134 
L 2272 0 
L 1638 0 
L 1638 4134 
L -19 4134 
L -19 4666 
z
" transform="scale(0.015625)"/>
       <path id="DejaVuSans-65" d="M 3597 1894 
L 3597 1613 
L 953 1613 
Q 991 1019 1311 708 
Q 1631 397 2203 397 
Q 2534 397 2845 478 
Q 3156 559 3463 722 
L 3463 178 
Q 3153 47 2828 -22 
Q 2503 -91 2169 -91 
Q 1331 -91 842 396 
Q 353 884 353 1716 
Q 353 2575 817 3079 
Q 1281 3584 2069 3584 
Q 2775 3584 3186 3129 
Q 3597 2675 3597 1894 
z
M 3022 2063 
Q 3016 2534 2758 2815 
Q 2500 3097 2075 3097 
Q 1594 3097 1305 2825 
Q 1016 2553 972 2059 
L 3022 2063 
z
" transform="scale(0.015625)"/>
       <path id="DejaVuSans-73" d="M 2834 3397 
L 2834 2853 
Q 2591 2978 2328 3040 
Q 2066 3103 1784 3103 
Q 1356 3103 1142 2972 
Q 928 2841 928 2578 
Q 928 2378 1081 2264 
Q 1234 2150 1697 2047 
L 1894 2003 
Q 2506 1872 2764 1633 
Q 3022 1394 3022 966 
Q 3022 478 2636 193 
Q 2250 -91 1575 -91 
Q 1294 -91 989 -36 
Q 684 19 347 128 
L 347 722 
Q 666 556 975 473 
Q 1284 391 1588 391 
Q 1994 391 2212 530 
Q 2431 669 2431 922 
Q 2431 1156 2273 1281 
Q 2116 1406 1581 1522 
L 1381 1569 
Q 847 1681 609 1914 
Q 372 2147 372 2553 
Q 372 3047 722 3315 
Q 1072 3584 1716 3584 
Q 2034 3584 2315 3537 
Q 2597 3491 2834 3397 
z
" transform="scale(0.015625)"/>
       <path id="DejaVuSans-74" d="M 1172 4494 
L 1172 3500 
L 2356 3500 
L 2356 3053 
L 1172 3053 
L 1172 1153 
Q 1172 725 1289 603 
Q 1406 481 1766 481 
L 2356 481 
L 2356 0 
L 1766 0 
Q 1100 0 847 248 
Q 594 497 594 1153 
L 594 3053 
L 172 3053 
L 172 3500 
L 594 3500 
L 594 4494 
L 1172 4494 
z
" transform="scale(0.015625)"/>
       <path id="DejaVuSans-20" transform="scale(0.015625)"/>
       <path id="DejaVuSans-69" d="M 603 3500 
L 1178 3500 
L 1178 0 
L 603 0 
L 603 3500 
z
M 603 4863 
L 1178 4863 
L 1178 4134 
L 603 4134 
L 603 4863 
z
" transform="scale(0.015625)"/>
       <path id="DejaVuSans-6d" d="M 3328 2828 
Q 3544 3216 3844 3400 
Q 4144 3584 4550 3584 
Q 5097 3584 5394 3201 
Q 5691 2819 5691 2113 
L 5691 0 
L 5113 0 
L 5113 2094 
Q 5113 2597 4934 2840 
Q 4756 3084 4391 3084 
Q 3944 3084 3684 2787 
Q 3425 2491 3425 1978 
L 3425 0 
L 2847 0 
L 2847 2094 
Q 2847 2600 2669 2842 
Q 2491 3084 2119 3084 
Q 1678 3084 1418 2786 
Q 1159 2488 1159 1978 
L 1159 0 
L 581 0 
L 581 3500 
L 1159 3500 
L 1159 2956 
Q 1356 3278 1631 3431 
Q 1906 3584 2284 3584 
Q 2666 3584 2933 3390 
Q 3200 3197 3328 2828 
z
" transform="scale(0.015625)"/>
       <path id="DejaVuSans-70" d="M 1159 525 
L 1159 -1331 
L 581 -1331 
L 581 3500 
L 1159 3500 
L 1159 2969 
Q 1341 3281 1617 3432 
Q 1894 3584 2278 3584 
Q 2916 3584 3314 3078 
Q 3713 2572 3713 1747 
Q 3713 922 3314 415 
Q 2916 -91 2278 -91 
Q 1894 -91 1617 61 
Q 1341 213 1159 525 
z
M 3116 1747 
Q 3116 2381 2855 2742 
Q 2594 3103 2138 3103 
Q 1681 3103 1420 2742 
Q 1159 2381 1159 1747 
Q 1159 1113 1420 752 
Q 1681 391 2138 391 
Q 2594 391 2855 752 
Q 3116 1113 3116 1747 
z
" transform="scale(0.015625)"/>
       <path id="DejaVuSans-6f" d="M 1959 3097 
Q 1497 3097 1228 2736 
Q 959 2375 959 1747 
Q 959 1119 1226 758 
Q 1494 397 1959 397 
Q 2419 397 2687 759 
Q 2956 1122 2956 1747 
Q 2956 2369 2687 2733 
Q 2419 3097 1959 3097 
z
M 1959 3584 
Q 2709 3584 3137 3096 
Q 3566 2609 3566 1747 
Q 3566 888 3137 398 
Q 2709 -91 1959 -91 
Q 1206 -91 779 398 
Q 353 888 353 1747 
Q 353 2609 779 3096 
Q 1206 3584 1959 3584 
z
" transform="scale(0.015625)"/>
       <path id="DejaVuSans-6e" d="M 3513 2113 
L 3513 0 
L 2938 0 
L 2938 2094 
Q 2938 2591 2744 2837 
Q 2550 3084 2163 3084 
Q 1697 3084 1428 2787 
Q 1159 2491 1159 1978 
L 1159 0 
L 581 0 
L 581 3500 
L 1159 3500 
L 1159 2956 
Q 1366 3272 1645 3428 
Q 1925 3584 2291 3584 
Q 2894 3584 3203 3211 
Q 3513 2838 3513 2113 
z
" transform="scale(0.015625)"/>
      </defs>
      <use xlink:href="#DejaVuSans-54"/>
      <use xlink:href="#DejaVuSans-65" x="44.083984"/>
      <use xlink:href="#DejaVuSans-73" x="105.607422"/>
      <use xlink:href="#DejaVuSans-74" x="157.707031"/>
      <use xlink:href="#DejaVuSans-20" x="196.916016"/>
      <use xlink:href="#DejaVuSans-54" x="228.703125"/>
      <use xlink:href="#DejaVuSans-69" x="286.662109"/>
      <use xlink:href="#DejaVuSans-6d" x="314.445312"/>
      <use xlink:href="#DejaVuSans-65" x="411.857422"/>
      <use xlink:href="#DejaVuSans-20" x="473.380859"/>
      <use xlink:href="#DejaVuSans-70" x="505.167969"/>
      <use xlink:href="#DejaVuSans-6f" x="568.644531"/>
      <use xlink:href="#DejaVuSans-69" x="629.826172"/>
      <use xlink:href="#DejaVuSans-6e" x="657.609375"/>
      <use xlink:href="#DejaVuSans-74" x="720.988281"/>
      <use xlink:href="#DejaVuSans-73" x="760.197266"/>
     </g>
    </g>
   </g>
   <g id="matplotlib.axis_2">
    <g id="ytick_1">
     <g id="line2d_10">
      <defs>
       <path id="m2918827b5b" d="M 0 0 
L -3.5 0 
" style="stroke: #000000; stroke-width: 0.8"/>
      </defs>
      <g>
       <use xlink:href="#m2918827b5b" x="57.6" y="285.402595" style="stroke: #000000; stroke-width: 0.8"/>
      </g>
     </g>
     <g id="text_11">
      <!-- 5 -->
      <g transform="translate(42.965 289.961657) scale(0.12 -0.12)">
       <use xlink:href="#DejaVuSans-35"/>
      </g>
     </g>
    </g>
    <g id="ytick_2">
     <g id="line2d_11">
      <g>
       <use xlink:href="#m2918827b5b" x="57.6" y="254.965266" style="stroke: #000000; stroke-width: 0.8"/>
      </g>
     </g>
     <g id="text_12">
      <!-- 10 -->
      <g transform="translate(35.33 259.524328) scale(0.12 -0.12)">
       <use xlink:href="#DejaVuSans-31"/>
       <use xlink:href="#DejaVuSans-30" x="63.623047"/>
      </g>
     </g>
    </g>
    <g id="ytick_3">
     <g id="line2d_12">
      <g>
       <use xlink:href="#m2918827b5b" x="57.6" y="224.527937" style="stroke: #000000; stroke-width: 0.8"/>
      </g>
     </g>
     <g id="text_13">
      <!-- 15 -->
      <g transform="translate(35.33 229.086999) scale(0.12 -0.12)">
       <use xlink:href="#DejaVuSans-31"/>
       <use xlink:href="#DejaVuSans-35" x="63.623047"/>
      </g>
     </g>
    </g>
    <g id="ytick_4">
     <g id="line2d_13">
      <g>
       <use xlink:href="#m2918827b5b" x="57.6" y="194.090608" style="stroke: #000000; stroke-width: 0.8"/>
      </g>
     </g>
     <g id="text_14">
      <!-- 20 -->
      <g transform="translate(35.33 198.64967) scale(0.12 -0.12)">
       <use xlink:href="#DejaVuSans-32"/>
       <use xlink:href="#DejaVuSans-30" x="63.623047"/>
      </g>
     </g>
    </g>
    <g id="ytick_5">
     <g id="line2d_14">
      <g>
       <use xlink:href="#m2918827b5b" x="57.6" y="163.653279" style="stroke: #000000; stroke-width: 0.8"/>
      </g>
     </g>
     <g id="text_15">
      <!-- 25 -->
      <g transform="translate(35.33 168.212341) scale(0.12 -0.12)">
       <use xlink:href="#DejaVuSans-32"/>
       <use xlink:href="#DejaVuSans-35" x="63.623047"/>
      </g>
     </g>
    </g>
    <g id="ytick_6">
     <g id="line2d_15">
      <g>
       <use xlink:href="#m2918827b5b" x="57.6" y="133.21595" style="stroke: #000000; stroke-width: 0.8"/>
      </g>
     </g>
     <g id="text_16">
      <!-- 30 -->
      <g transform="translate(35.33 137.775012) scale(0.12 -0.12)">
       <use xlink:href="#DejaVuSans-33"/>
       <use xlink:href="#DejaVuSans-30" x="63.623047"/>
      </g>
     </g>
    </g>
    <g id="ytick_7">
     <g id="line2d_16">
      <g>
       <use xlink:href="#m2918827b5b" x="57.6" y="102.778621" style="stroke: #000000; stroke-width: 0.8"/>
      </g>
     </g>
     <g id="text_17">
      <!-- 35 -->
      <g transform="translate(35.33 107.337683) scale(0.12 -0.12)">
       <use xlink:href="#DejaVuSans-33"/>
       <use xlink:href="#DejaVuSans-35" x="63.623047"/>
      </g>
     </g>
    </g>
    <g id="ytick_8">
     <g id="line2d_17">
      <g>
       <use xlink:href="#m2918827b5b" x="57.6" y="72.341292" style="stroke: #000000; stroke-width: 0.8"/>
      </g>
     </g>
     <g id="text_18">
      <!-- 40 -->
      <g transform="translate(35.33 76.900354) scale(0.12 -0.12)">
       <use xlink:href="#DejaVuSans-34"/>
       <use xlink:href="#DejaVuSans-30" x="63.623047"/>
      </g>
     </g>
    </g>
    <g id="ytick_9">
     <g id="line2d_18">
      <g>
       <use xlink:href="#m2918827b5b" x="57.6" y="41.903963" style="stroke: #000000; stroke-width: 0.8"/>
      </g>
     </g>
     <g id="text_19">
      <!-- 45 -->
      <g transform="translate(35.33 46.463025) scale(0.12 -0.12)">
       <use xlink:href="#DejaVuSans-34"/>
       <use xlink:href="#DejaVuSans-35" x="63.623047"/>
      </g>
     </g>
    </g>
    <g id="text_20">
     <!-- Firing rate (Hz) -->
     <g transform="translate(28.834375 219.300187) rotate(-90) scale(0.12 -0.12)">
      <defs>
       <path id="DejaVuSans-46" d="M 628 4666 
L 3309 4666 
L 3309 4134 
L 1259 4134 
L 1259 2759 
L 3109 2759 
L 3109 2228 
L 1259 2228 
L 1259 0 
L 628 0 
L 628 4666 
z
" transform="scale(0.015625)"/>
       <path id="DejaVuSans-72" d="M 2631 2963 
Q 2534 3019 2420 3045 
Q 2306 3072 2169 3072 
Q 1681 3072 1420 2755 
Q 1159 2438 1159 1844 
L 1159 0 
L 581 0 
L 581 3500 
L 1159 3500 
L 1159 2956 
Q 1341 3275 1631 3429 
Q 1922 3584 2338 3584 
Q 2397 3584 2469 3576 
Q 2541 3569 2628 3553 
L 2631 2963 
z
" transform="scale(0.015625)"/>
       <path id="DejaVuSans-67" d="M 2906 1791 
Q 2906 2416 2648 2759 
Q 2391 3103 1925 3103 
Q 1463 3103 1205 2759 
Q 947 2416 947 1791 
Q 947 1169 1205 825 
Q 1463 481 1925 481 
Q 2391 481 2648 825 
Q 2906 1169 2906 1791 
z
M 3481 434 
Q 3481 -459 3084 -895 
Q 2688 -1331 1869 -1331 
Q 1566 -1331 1297 -1286 
Q 1028 -1241 775 -1147 
L 775 -588 
Q 1028 -725 1275 -790 
Q 1522 -856 1778 -856 
Q 2344 -856 2625 -561 
Q 2906 -266 2906 331 
L 2906 616 
Q 2728 306 2450 153 
Q 2172 0 1784 0 
Q 1141 0 747 490 
Q 353 981 353 1791 
Q 353 2603 747 3093 
Q 1141 3584 1784 3584 
Q 2172 3584 2450 3431 
Q 2728 3278 2906 2969 
L 2906 3500 
L 3481 3500 
L 3481 434 
z
" transform="scale(0.015625)"/>
       <path id="DejaVuSans-61" d="M 2194 1759 
Q 1497 1759 1228 1600 
Q 959 1441 959 1056 
Q 959 750 1161 570 
Q 1363 391 1709 391 
Q 2188 391 2477 730 
Q 2766 1069 2766 1631 
L 2766 1759 
L 2194 1759 
z
M 3341 1997 
L 3341 0 
L 2766 0 
L 2766 531 
Q 2569 213 2275 61 
Q 1981 -91 1556 -91 
Q 1019 -91 701 211 
Q 384 513 384 1019 
Q 384 1609 779 1909 
Q 1175 2209 1959 2209 
L 2766 2209 
L 2766 2266 
Q 2766 2663 2505 2880 
Q 2244 3097 1772 3097 
Q 1472 3097 1187 3025 
Q 903 2953 641 2809 
L 641 3341 
Q 956 3463 1253 3523 
Q 1550 3584 1831 3584 
Q 2591 3584 2966 3190 
Q 3341 2797 3341 1997 
z
" transform="scale(0.015625)"/>
       <path id="DejaVuSans-28" d="M 1984 4856 
Q 1566 4138 1362 3434 
Q 1159 2731 1159 2009 
Q 1159 1288 1364 580 
Q 1569 -128 1984 -844 
L 1484 -844 
Q 1016 -109 783 600 
Q 550 1309 550 2009 
Q 550 2706 781 3412 
Q 1013 4119 1484 4856 
L 1984 4856 
z
" transform="scale(0.015625)"/>
       <path id="DejaVuSans-48" d="M 628 4666 
L 1259 4666 
L 1259 2753 
L 3553 2753 
L 3553 4666 
L 4184 4666 
L 4184 0 
L 3553 0 
L 3553 2222 
L 1259 2222 
L 1259 0 
L 628 0 
L 628 4666 
z
" transform="scale(0.015625)"/>
       <path id="DejaVuSans-7a" d="M 353 3500 
L 3084 3500 
L 3084 2975 
L 922 459 
L 3084 459 
L 3084 0 
L 275 0 
L 275 525 
L 2438 3041 
L 353 3041 
L 353 3500 
z
" transform="scale(0.015625)"/>
       <path id="DejaVuSans-29" d="M 513 4856 
L 1013 4856 
Q 1481 4119 1714 3412 
Q 1947 2706 1947 2009 
Q 1947 1309 1714 600 
Q 1481 -109 1013 -844 
L 513 -844 
Q 928 -128 1133 580 
Q 1338 1288 1338 2009 
Q 1338 2731 1133 3434 
Q 928 4138 513 4856 
z
" transform="scale(0.015625)"/>
      </defs>
      <use xlink:href="#DejaVuSans-46"/>
      <use xlink:href="#DejaVuSans-69" x="50.269531"/>
      <use xlink:href="#DejaVuSans-72" x="78.052734"/>
      <use xlink:href="#DejaVuSans-69" x="119.166016"/>
      <use xlink:href="#DejaVuSans-6e" x="146.949219"/>
      <use xlink:href="#DejaVuSans-67" x="210.328125"/>
      <use xlink:href="#DejaVuSans-20" x="273.804688"/>
      <use xlink:href="#DejaVuSans-72" x="305.591797"/>
      <use xlink:href="#DejaVuSans-61" x="346.705078"/>
      <use xlink:href="#DejaVuSans-74" x="407.984375"/>
      <use xlink:href="#DejaVuSans-65" x="447.193359"/>
      <use xlink:href="#DejaVuSans-20" x="508.716797"/>
      <use xlink:href="#DejaVuSans-28" x="540.503906"/>
      <use xlink:href="#DejaVuSans-48" x="579.517578"/>
      <use xlink:href="#DejaVuSans-7a" x="654.712891"/>
      <use xlink:href="#DejaVuSans-29" x="707.203125"/>
     </g>
    </g>
   </g>
   <g id="line2d_19">
    <path d="M 73.832727 239.360347 
L 74.646398 242.665871 
L 75.460068 244.364312 
L 76.273739 243.121318 
L 77.087409 241.353009 
L 77.90108 242.067266 
L 78.714751 240.090378 
L 79.528421 238.425821 
L 80.342092 237.127797 
L 81.155762 235.234631 
L 81.969433 235.496199 
L 82.783103 236.026052 
L 83.596774 234.174901 
L 84.410444 235.987471 
L 85.224115 238.923793 
L 86.037785 240.60481 
L 86.851456 240.988562 
L 87.665126 241.616069 
L 88.478797 240.789854 
L 89.292468 242.744425 
L 90.106138 242.644052 
L 90.919809 240.602713 
L 91.733479 240.565083 
L 92.54715 240.219609 
L 93.36082 240.866828 
L 94.174491 239.29982 
L 94.988161 238.922308 
L 95.801832 238.916369 
L 96.615502 235.86025 
L 97.429173 236.293622 
L 98.242843 236.288565 
L 99.056514 232.410928 
L 99.870185 233.866318 
L 100.683855 232.769255 
L 101.497526 226.237022 
L 102.311196 224.009603 
L 103.938537 213.374821 
L 104.752208 208.643701 
L 105.565878 207.678332 
L 106.379549 214.342491 
L 107.193219 218.752395 
L 108.00689 222.366285 
L 108.82056 228.145759 
L 109.634231 232.966906 
L 110.447902 238.831111 
L 111.261572 239.431675 
L 112.075243 242.405448 
L 112.888913 241.25216 
L 113.702584 242.193023 
L 114.516254 243.575403 
L 115.329925 244.033341 
L 116.143595 245.910176 
L 117.770936 251.43489 
L 118.584607 253.523024 
L 119.398278 257.751085 
L 120.211948 257.501201 
L 121.025619 257.764915 
L 121.839289 255.681453 
L 122.65296 255.095216 
L 123.46663 255.88384 
L 124.280301 255.182747 
L 125.093971 254.643565 
L 125.907642 253.938833 
L 126.721312 254.957694 
L 128.348653 252.745935 
L 129.162324 251.62543 
L 129.975995 247.296561 
L 130.789665 248.174563 
L 131.603336 246.111139 
L 132.417006 246.18612 
L 133.230677 244.335897 
L 134.044347 244.871837 
L 134.858018 242.510724 
L 135.671688 241.677982 
L 136.485359 241.456762 
L 137.299029 239.564414 
L 138.1127 244.153763 
L 138.92637 242.869007 
L 139.740041 243.589403 
L 140.553712 246.50968 
L 141.367382 247.4804 
L 142.181053 249.80711 
L 142.994723 247.014301 
L 143.808394 243.490125 
L 144.622064 243.084513 
L 145.435735 243.174553 
L 146.249405 241.817022 
L 147.876746 243.433203 
L 148.690417 243.737403 
L 149.504087 242.619044 
L 150.317758 242.9401 
L 151.131429 243.015255 
L 151.945099 243.792981 
L 152.75877 243.092114 
L 153.57244 244.216227 
L 154.386111 243.922854 
L 155.199781 244.866073 
L 156.013452 244.603166 
L 156.827122 243.546607 
L 157.640793 242.720146 
L 158.454463 237.323503 
L 159.268134 236.250419 
L 160.081805 232.087872 
L 160.895475 229.861034 
L 161.709146 225.447032 
L 162.522816 223.307374 
L 163.336487 220.158173 
L 164.963828 217.660835 
L 166.591169 218.12943 
L 167.404839 216.665544 
L 168.21851 218.918119 
L 169.03218 217.283148 
L 169.845851 222.091363 
L 170.659522 222.58738 
L 171.473192 231.459326 
L 172.286863 233.966664 
L 173.100533 238.434552 
L 174.727874 243.83367 
L 175.541545 244.77524 
L 176.355215 245.539698 
L 177.168886 244.148298 
L 177.982556 243.928313 
L 178.796227 240.794134 
L 179.609897 239.994268 
L 180.423568 237.835244 
L 181.237239 236.71877 
L 182.050909 236.544853 
L 182.86458 236.72563 
L 183.67825 236.340992 
L 184.491921 236.691136 
L 185.305591 235.057115 
L 186.119262 236.545684 
L 186.932932 237.792346 
L 187.746603 238.079556 
L 188.560273 238.804351 
L 189.373944 244.594475 
L 191.001285 251.915881 
L 191.814956 254.433919 
L 192.628626 256.081567 
L 193.442297 255.067109 
L 194.255967 253.133067 
L 195.069638 249.124387 
L 195.883308 243.763813 
L 196.696979 244.309499 
L 197.510649 242.607333 
L 198.32432 241.337961 
L 199.13799 238.449583 
L 199.951661 241.755045 
L 200.765332 240.333409 
L 201.579002 241.45213 
L 202.392673 240.845592 
L 203.206343 238.877927 
L 204.020014 240.584156 
L 204.833684 240.216294 
L 205.647355 240.903382 
L 206.461025 239.326124 
L 207.274696 239.914601 
L 208.088366 240.696197 
L 208.902037 239.555613 
L 209.715707 238.6985 
L 210.529378 239.432576 
L 211.343049 239.604818 
L 212.156719 240.010518 
L 212.97039 238.727759 
L 213.78406 238.792552 
L 214.597731 238.695457 
L 215.411401 238.474172 
L 216.225072 238.554202 
L 217.852413 237.557875 
L 218.666083 234.906035 
L 219.479754 235.559056 
L 220.293424 235.736667 
L 221.920766 232.929389 
L 222.734436 233.335786 
L 223.548107 227.323317 
L 224.361777 225.561418 
L 225.175448 221.03285 
L 225.989118 221.695882 
L 226.802789 225.098278 
L 227.616459 227.857918 
L 228.43013 233.174824 
L 229.2438 236.043775 
L 230.057471 241.804524 
L 230.871141 243.237821 
L 231.684812 243.85234 
L 232.498483 244.18972 
L 233.312153 245.460085 
L 234.125824 247.098622 
L 234.939494 244.158635 
L 235.753165 244.510883 
L 236.566835 242.322854 
L 237.380506 243.547443 
L 238.194176 242.324674 
L 239.007847 239.136354 
L 239.821517 240.600466 
L 240.635188 243.461219 
L 241.448859 240.13705 
L 243.0762 240.613277 
L 243.88987 242.081011 
L 244.703541 240.821297 
L 245.517211 241.02214 
L 246.330882 241.050133 
L 247.144552 239.179984 
L 247.958223 239.27446 
L 248.771893 238.246092 
L 249.585564 240.952281 
L 250.399234 241.073792 
L 251.212905 241.785327 
L 252.026576 241.177059 
L 252.840246 241.481393 
L 253.653917 240.895176 
L 254.467587 240.732364 
L 255.281258 240.218969 
L 256.094928 236.214118 
L 256.908599 236.79846 
L 257.722269 234.772507 
L 258.53594 234.180084 
L 259.34961 229.436962 
L 260.163281 223.518198 
L 260.976951 219.494828 
L 261.790622 210.850664 
L 263.417963 189.154988 
L 264.231634 181.1325 
L 265.045304 180.358681 
L 266.672645 174.364074 
L 268.299986 176.975569 
L 269.113657 181.04044 
L 269.927327 184.366018 
L 273.18201 222.730387 
L 273.99568 231.469196 
L 274.809351 234.641858 
L 275.623021 236.803769 
L 276.436692 235.118285 
L 277.250362 238.363641 
L 278.064033 242.364954 
L 278.877703 247.848571 
L 279.691374 252.319219 
L 280.505044 253.75527 
L 281.318715 253.389818 
L 282.132386 253.624671 
L 282.946056 251.868198 
L 283.759727 251.812683 
L 285.387068 250.679599 
L 286.200738 249.241711 
L 287.014409 248.24886 
L 287.828079 245.495555 
L 288.64175 245.159186 
L 289.45542 242.451233 
L 290.269091 242.21654 
L 291.082761 241.745028 
L 291.896432 242.10963 
L 292.710103 239.46421 
L 293.523773 240.572782 
L 294.337444 241.267395 
L 295.151114 239.82581 
L 295.964785 241.034723 
L 296.778455 241.556994 
L 297.592126 239.833701 
L 298.405796 239.748972 
L 299.219467 240.716459 
L 300.033137 239.767031 
L 300.846808 241.527491 
L 301.660478 242.185989 
L 302.474149 241.543959 
L 303.28782 239.352958 
L 304.10149 240.634099 
L 304.915161 239.398376 
L 305.728831 240.581888 
L 306.542502 242.564979 
L 307.356172 242.789493 
L 308.169843 243.229964 
L 308.983513 245.808672 
L 309.797184 243.414382 
L 310.610854 238.637447 
L 311.424525 227.822438 
L 312.238195 218.60796 
L 313.865537 185.769391 
L 314.679207 175.172126 
L 315.492878 172.086236 
L 316.306548 175.092353 
L 317.120219 186.204529 
L 317.933889 191.809778 
L 318.74756 205.416183 
L 320.374901 219.906257 
L 321.188571 229.143061 
L 322.002242 233.177076 
L 322.815913 239.516819 
L 323.629583 241.625817 
L 324.443254 246.400125 
L 325.256924 249.589409 
L 326.070595 250.215318 
L 326.884265 249.671535 
L 327.697936 250.517448 
L 328.511606 248.277215 
L 329.325277 247.888141 
L 330.138947 245.344374 
L 330.952618 245.900634 
L 331.766288 244.974002 
L 332.579959 244.327507 
L 333.39363 242.566187 
L 334.2073 240.383263 
L 335.020971 240.220815 
L 335.834641 241.397947 
L 336.648312 241.619605 
L 337.461982 242.619097 
L 338.275653 241.666256 
L 339.089323 242.910958 
L 339.902994 241.184268 
L 340.716664 242.471858 
L 341.530335 243.108985 
L 342.344005 243.590107 
L 343.157676 243.342627 
L 343.971347 242.50674 
L 344.785017 241.888286 
L 345.598688 240.906067 
L 346.412358 243.120643 
L 347.226029 240.329927 
L 348.039699 241.452834 
L 348.85337 242.084711 
L 349.66704 242.547913 
L 350.480711 246.514807 
L 351.294381 246.802967 
L 352.108052 251.672597 
L 352.921722 254.660806 
L 353.735393 260.10276 
L 355.362734 269.674943 
L 356.990075 273.848472 
L 357.803746 274.433198 
L 358.617416 273.858599 
L 359.431087 272.348052 
L 360.244757 270.36687 
L 361.058428 266.888061 
L 361.872098 264.590473 
L 362.685769 261.767348 
L 363.49944 257.424875 
L 364.31311 254.545903 
L 365.940451 244.23014 
L 366.754122 242.421869 
L 367.567792 241.12987 
L 368.381463 240.456832 
L 369.195133 241.701985 
L 370.008804 242.20374 
L 370.822474 240.815154 
L 372.449815 244.730301 
L 373.263486 246.319226 
L 374.890827 255.221222 
L 375.704498 257.653718 
L 376.518168 256.539736 
L 377.331839 257.112556 
L 378.145509 252.688759 
L 378.95918 250.133672 
L 379.77285 248.518492 
L 380.586521 245.733964 
L 381.400191 244.306523 
L 382.213862 242.242056 
L 383.027532 241.77355 
L 383.841203 240.153277 
L 384.654874 239.194792 
L 385.468544 238.996606 
L 386.282215 237.147935 
L 387.095885 239.421309 
L 387.909556 238.960352 
L 388.723226 240.107628 
L 389.536897 236.996756 
L 390.350567 239.470386 
L 391.164238 240.191672 
L 391.977908 238.835225 
L 392.791579 239.951614 
L 393.605249 238.71098 
L 394.41892 241.823661 
L 395.232591 239.966362 
L 396.046261 240.243849 
L 396.859932 239.338311 
L 397.673602 239.928482 
L 398.487273 239.822165 
L 398.487273 239.822165 
" clip-path="url(#pbd7938c86d)" style="fill: none; stroke: #1f77b4; stroke-width: 1.5; stroke-linecap: square"/>
   </g>
   <g id="line2d_20">
    <path d="M 73.832727 197.665022 
L 74.646398 186.197566 
L 75.460068 201.914257 
L 76.273739 219.902049 
L 77.087409 232.335982 
L 77.90108 220.278666 
L 78.714751 220.080725 
L 79.528421 225.819206 
L 80.342092 227.810168 
L 81.155762 234.359363 
L 81.969433 229.488105 
L 82.783103 228.780013 
L 83.596774 247.869168 
L 84.410444 241.800042 
L 85.224115 250.371097 
L 86.037785 265.016775 
L 86.851456 268.25643 
L 87.665126 270.007846 
L 88.478797 277.593703 
L 89.292468 282.484437 
L 90.106138 283.152685 
L 91.733479 289.4419 
L 92.54715 287.186548 
L 93.36082 283.507458 
L 94.174491 283.023826 
L 94.988161 277.184741 
L 95.801832 273.333166 
L 96.615502 272.094127 
L 97.429173 262.796209 
L 98.242843 262.753967 
L 99.056514 252.552572 
L 99.870185 247.406209 
L 100.683855 235.636362 
L 101.497526 212.003239 
L 102.311196 195.535007 
L 103.938537 135.324644 
L 104.752208 139.153742 
L 105.565878 125.766154 
L 106.379549 127.857901 
L 107.193219 99.811734 
L 108.00689 105.59319 
L 108.82056 122.744689 
L 110.447902 53.568 
L 111.261572 83.671837 
L 112.075243 74.870468 
L 113.702584 123.641503 
L 114.516254 127.537078 
L 115.329925 128.318855 
L 116.143595 152.810127 
L 116.957266 150.364975 
L 117.770936 183.089664 
L 118.584607 207.306688 
L 119.398278 193.195688 
L 120.211948 196.536292 
L 121.025619 206.313185 
L 121.839289 207.56561 
L 122.65296 214.01622 
L 123.46663 215.825965 
L 124.280301 241.056892 
L 125.093971 251.398348 
L 125.907642 244.448291 
L 126.721312 236.048952 
L 127.534983 232.455762 
L 128.348653 241.220049 
L 129.162324 239.171377 
L 129.975995 244.563319 
L 130.789665 246.762698 
L 131.603336 254.275663 
L 132.417006 266.16164 
L 133.230677 266.773939 
L 134.044347 269.299788 
L 134.858018 270.880885 
L 135.671688 273.214798 
L 136.485359 271.02617 
L 138.1127 270.864308 
L 139.740041 266.657843 
L 140.553712 262.355585 
L 141.367382 238.86934 
L 142.181053 222.733649 
L 142.994723 219.54113 
L 143.808394 232.901606 
L 144.622064 240.69834 
L 145.435735 257.519165 
L 146.249405 264.205521 
L 147.063076 273.076117 
L 147.876746 276.282585 
L 148.690417 281.991498 
L 149.504087 280.015528 
L 150.317758 281.116872 
L 151.131429 281.120072 
L 151.945099 279.541077 
L 152.75877 278.648162 
L 153.57244 276.345892 
L 154.386111 270.160933 
L 155.199781 264.852813 
L 156.013452 262.02795 
L 156.827122 262.827679 
L 157.640793 269.185839 
L 158.454463 272.140153 
L 159.268134 272.77471 
L 160.081805 264.992599 
L 160.895475 264.428626 
L 161.709146 261.066643 
L 162.522816 259.391346 
L 163.336487 265.395194 
L 164.150157 253.358408 
L 164.963828 245.230912 
L 165.777498 231.875831 
L 166.591169 209.970259 
L 167.404839 211.705209 
L 168.21851 205.111562 
L 169.03218 181.837533 
L 169.845851 175.978141 
L 170.659522 174.990767 
L 171.473192 192.255859 
L 172.286863 202.890637 
L 173.100533 205.592841 
L 173.914204 212.758257 
L 175.541545 203.834995 
L 176.355215 206.528833 
L 177.168886 207.269621 
L 177.982556 203.723605 
L 178.796227 213.344116 
L 179.609897 230.65261 
L 180.423568 241.780439 
L 181.237239 241.177462 
L 182.050909 246.052033 
L 182.86458 237.189288 
L 183.67825 230.354154 
L 184.491921 232.206467 
L 186.932932 259.982021 
L 187.746603 254.328439 
L 188.560273 243.308562 
L 189.373944 223.497775 
L 190.187614 209.147843 
L 191.001285 210.462567 
L 191.814956 232.729869 
L 192.628626 249.021751 
L 193.442297 259.72669 
L 194.255967 264.638967 
L 195.069638 263.725661 
L 196.696979 279.136486 
L 197.510649 284.618056 
L 198.32432 288.109826 
L 199.13799 290.533728 
L 199.951661 289.944751 
L 200.765332 290.70391 
L 201.579002 291.024928 
L 202.392673 293.579972 
L 203.206343 293.703054 
L 204.020014 293.944161 
L 204.833684 293.30274 
L 205.647355 292.295986 
L 206.461025 288.032145 
L 207.274696 287.219904 
L 208.088366 288.892427 
L 208.902037 289.102096 
L 209.715707 284.362959 
L 210.529378 280.430962 
L 211.343049 279.998309 
L 212.156719 279.765688 
L 213.78406 273.281743 
L 214.597731 267.310296 
L 215.411401 257.761777 
L 216.225072 258.659419 
L 217.038742 259.045703 
L 217.852413 252.099528 
L 218.666083 240.7945 
L 219.479754 237.156823 
L 220.293424 230.362703 
L 221.107095 228.37932 
L 221.920766 222.916562 
L 222.734436 211.851824 
L 223.548107 204.906848 
L 224.361777 204.118475 
L 225.175448 204.915129 
L 225.989118 202.834802 
L 226.802789 222.916262 
L 227.616459 232.580556 
L 228.43013 252.212978 
L 229.2438 249.015109 
L 230.057471 258.536864 
L 230.871141 270.048775 
L 231.684812 273.910198 
L 232.498483 276.657386 
L 234.125824 283.045454 
L 234.939494 287.553202 
L 235.753165 288.923452 
L 236.566835 286.625181 
L 238.194176 289.613804 
L 239.007847 290.604135 
L 239.821517 288.958389 
L 241.448859 293.176173 
L 242.262529 294.885288 
L 243.0762 294.465141 
L 244.703541 295.368655 
L 245.517211 293.627532 
L 246.330882 294.986431 
L 247.144552 295.296926 
L 248.771893 293.304824 
L 249.585564 289.721527 
L 250.399234 287.163904 
L 251.212905 289.430293 
L 252.026576 288.840808 
L 252.840246 287.695232 
L 253.653917 284.630721 
L 254.467587 277.510232 
L 256.094928 259.807808 
L 256.908599 249.204062 
L 257.722269 223.327349 
L 258.53594 217.326516 
L 259.34961 209.743835 
L 260.163281 193.581219 
L 260.976951 139.594163 
L 261.790622 128.763176 
L 262.604293 103.29629 
L 263.417963 130.980397 
L 264.231634 122.36663 
L 265.045304 140.543809 
L 265.858975 142.164597 
L 266.672645 166.907257 
L 267.486316 137.781644 
L 268.299986 141.738043 
L 269.113657 154.328604 
L 269.927327 156.292841 
L 270.740998 159.154106 
L 273.18201 194.696868 
L 273.99568 187.311839 
L 274.809351 198.746867 
L 275.623021 200.967575 
L 277.250362 233.36976 
L 278.064033 247.495479 
L 278.877703 250.913066 
L 279.691374 246.240267 
L 280.505044 237.44248 
L 281.318715 243.22715 
L 282.132386 253.997656 
L 282.946056 252.328573 
L 283.759727 266.680145 
L 284.573397 271.331856 
L 285.387068 274.618099 
L 286.200738 276.841213 
L 287.014409 278.669693 
L 287.828079 283.904544 
L 288.64175 284.696965 
L 289.45542 287.701139 
L 290.269091 288.047279 
L 291.082761 288.626478 
L 291.896432 291.298054 
L 292.710103 292.7886 
L 293.523773 292.111555 
L 294.337444 294.043041 
L 295.151114 294.487823 
L 295.964785 295.488 
L 296.778455 294.335297 
L 297.592126 295.278174 
L 298.405796 294.308245 
L 299.219467 292.181923 
L 300.033137 293.825716 
L 300.846808 294.098785 
L 301.660478 293.001739 
L 302.474149 293.883426 
L 303.28782 292.614127 
L 304.915161 285.223984 
L 305.728831 271.765841 
L 306.542502 261.035591 
L 308.169843 220.608588 
L 308.983513 211.978352 
L 309.797184 199.743919 
L 310.610854 203.719411 
L 311.424525 183.366119 
L 312.238195 177.126244 
L 313.051866 149.646901 
L 313.865537 128.858517 
L 314.679207 125.201598 
L 315.492878 134.048061 
L 316.306548 152.15177 
L 317.120219 160.297452 
L 317.933889 163.673406 
L 318.74756 148.73362 
L 319.56123 160.803473 
L 320.374901 169.814743 
L 321.188571 191.411557 
L 322.002242 198.55548 
L 322.815913 201.702678 
L 323.629583 223.558652 
L 324.443254 214.051401 
L 325.256924 210.758327 
L 326.070595 198.906576 
L 326.884265 215.659079 
L 327.697936 222.204614 
L 328.511606 246.022243 
L 329.325277 252.974497 
L 330.138947 255.939615 
L 330.952618 264.74294 
L 331.766288 264.851584 
L 334.2073 280.529185 
L 335.020971 284.842307 
L 335.834641 282.953395 
L 337.461982 287.278096 
L 338.275653 288.482139 
L 339.089323 292.718963 
L 339.902994 291.080031 
L 340.716664 291.131401 
L 341.530335 289.977939 
L 342.344005 289.744488 
L 343.157676 287.32054 
L 343.971347 288.342006 
L 344.785017 288.387121 
L 345.598688 285.588124 
L 346.412358 284.956555 
L 347.226029 283.210517 
L 348.039699 278.941498 
L 348.85337 272.168996 
L 349.66704 267.539275 
L 350.480711 250.720874 
L 351.294381 230.165533 
L 352.108052 201.755666 
L 352.921722 143.42441 
L 353.735393 168.036256 
L 354.549064 150.096636 
L 355.362734 138.254034 
L 356.176405 133.890464 
L 356.990075 153.315566 
L 357.803746 151.420968 
L 358.617416 179.560172 
L 359.431087 197.050558 
L 360.244757 194.97244 
L 361.058428 201.571168 
L 361.872098 203.104378 
L 362.685769 220.601885 
L 363.49944 220.544809 
L 364.31311 226.418847 
L 365.126781 224.207554 
L 365.940451 211.987141 
L 366.754122 212.940752 
L 367.567792 223.656154 
L 368.381463 237.490564 
L 370.008804 258.283342 
L 370.822474 264.590984 
L 371.636145 259.864348 
L 372.449815 253.375043 
L 373.263486 241.843373 
L 374.077157 234.401572 
L 374.890827 229.786575 
L 375.704498 239.732401 
L 377.331839 254.091865 
L 378.95918 256.477785 
L 379.77285 257.082237 
L 380.586521 260.445415 
L 381.400191 267.483331 
L 382.213862 273.369978 
L 383.027532 277.077337 
L 383.841203 285.607001 
L 384.654874 290.080916 
L 385.468544 289.661884 
L 387.095885 288.055518 
L 387.909556 293.010801 
L 388.723226 293.069267 
L 389.536897 291.605042 
L 390.350567 288.507826 
L 391.164238 289.509024 
L 391.977908 291.095816 
L 392.791579 291.366947 
L 393.605249 290.878347 
L 394.41892 291.505495 
L 395.232591 291.622153 
L 396.046261 292.320404 
L 396.859932 291.922614 
L 397.673602 290.107193 
L 398.487273 286.011482 
L 398.487273 286.011482 
" clip-path="url(#pbd7938c86d)" style="fill: none; stroke: #ff7f0e; stroke-width: 1.5; stroke-linecap: square"/>
   </g>
   <g id="patch_3">
    <path d="M 57.6 307.584 
L 57.6 41.472 
" style="fill: none; stroke: #000000; stroke-width: 0.8; stroke-linejoin: miter; stroke-linecap: square"/>
   </g>
   <g id="patch_4">
    <path d="M 414.72 307.584 
L 414.72 41.472 
" style="fill: none; stroke: #000000; stroke-width: 0.8; stroke-linejoin: miter; stroke-linecap: square"/>
   </g>
   <g id="patch_5">
    <path d="M 57.6 307.584 
L 414.72 307.584 
" style="fill: none; stroke: #000000; stroke-width: 0.8; stroke-linejoin: miter; stroke-linecap: square"/>
   </g>
   <g id="patch_6">
    <path d="M 57.6 41.472 
L 414.72 41.472 
" style="fill: none; stroke: #000000; stroke-width: 0.8; stroke-linejoin: miter; stroke-linecap: square"/>
   </g>
   <g id="text_21">
    <!-- Neuron 7 -->
    <g transform="translate(203.144625 35.472) scale(0.144 -0.144)">
     <defs>
      <path id="DejaVuSans-4e" d="M 628 4666 
L 1478 4666 
L 3547 763 
L 3547 4666 
L 4159 4666 
L 4159 0 
L 3309 0 
L 1241 3903 
L 1241 0 
L 628 0 
L 628 4666 
z
" transform="scale(0.015625)"/>
      <path id="DejaVuSans-75" d="M 544 1381 
L 544 3500 
L 1119 3500 
L 1119 1403 
Q 1119 906 1312 657 
Q 1506 409 1894 409 
Q 2359 409 2629 706 
Q 2900 1003 2900 1516 
L 2900 3500 
L 3475 3500 
L 3475 0 
L 2900 0 
L 2900 538 
Q 2691 219 2414 64 
Q 2138 -91 1772 -91 
Q 1169 -91 856 284 
Q 544 659 544 1381 
z
M 1991 3584 
L 1991 3584 
z
" transform="scale(0.015625)"/>
      <path id="DejaVuSans-37" d="M 525 4666 
L 3525 4666 
L 3525 4397 
L 1831 0 
L 1172 0 
L 2766 4134 
L 525 4134 
L 525 4666 
z
" transform="scale(0.015625)"/>
     </defs>
     <use xlink:href="#DejaVuSans-4e"/>
     <use xlink:href="#DejaVuSans-65" x="74.804688"/>
     <use xlink:href="#DejaVuSans-75" x="136.328125"/>
     <use xlink:href="#DejaVuSans-72" x="199.707031"/>
     <use xlink:href="#DejaVuSans-6f" x="238.570312"/>
     <use xlink:href="#DejaVuSans-6e" x="299.751953"/>
     <use xlink:href="#DejaVuSans-20" x="363.130859"/>
     <use xlink:href="#DejaVuSans-37" x="394.917969"/>
    </g>
   </g>
   <g id="legend_1">
    <g id="patch_7">
     <path d="M 322.56 86.2995 
L 406.32 86.2995 
Q 408.72 86.2995 408.72 83.8995 
L 408.72 49.872 
Q 408.72 47.472 406.32 47.472 
L 322.56 47.472 
Q 320.16 47.472 320.16 49.872 
L 320.16 83.8995 
Q 320.16 86.2995 322.56 86.2995 
z
" style="fill: #ffffff; opacity: 0.8; stroke: #cccccc; stroke-linejoin: miter"/>
    </g>
    <g id="line2d_21">
     <path d="M 324.96 57.190125 
L 336.96 57.190125 
L 348.96 57.190125 
" style="fill: none; stroke: #1f77b4; stroke-width: 1.5; stroke-linecap: square"/>
    </g>
    <g id="text_22">
     <!-- $d_z$ = 2 -->
     <g transform="translate(358.56 61.390125) scale(0.12 -0.12)">
      <defs>
       <path id="DejaVuSans-Oblique-64" d="M 2675 525 
Q 2444 222 2128 65 
Q 1813 -91 1428 -91 
Q 903 -91 598 267 
Q 294 625 294 1247 
Q 294 1766 478 2236 
Q 663 2706 1013 3078 
Q 1244 3325 1534 3454 
Q 1825 3584 2144 3584 
Q 2481 3584 2739 3421 
Q 2997 3259 3138 2956 
L 3513 4863 
L 4091 4863 
L 3144 0 
L 2566 0 
L 2675 525 
z
M 891 1350 
Q 891 897 1095 644 
Q 1300 391 1663 391 
Q 1931 391 2161 520 
Q 2391 650 2566 903 
Q 2750 1166 2856 1509 
Q 2963 1853 2963 2188 
Q 2963 2622 2758 2865 
Q 2553 3109 2194 3109 
Q 1922 3109 1687 2981 
Q 1453 2853 1288 2613 
Q 1106 2353 998 2009 
Q 891 1666 891 1350 
z
" transform="scale(0.015625)"/>
       <path id="DejaVuSans-Oblique-7a" d="M 744 3500 
L 3475 3500 
L 3372 2975 
L 738 459 
L 2913 459 
L 2822 0 
L -19 0 
L 84 525 
L 2719 3041 
L 653 3041 
L 744 3500 
z
" transform="scale(0.015625)"/>
       <path id="DejaVuSans-3d" d="M 678 2906 
L 4684 2906 
L 4684 2381 
L 678 2381 
L 678 2906 
z
M 678 1631 
L 4684 1631 
L 4684 1100 
L 678 1100 
L 678 1631 
z
" transform="scale(0.015625)"/>
      </defs>
      <use xlink:href="#DejaVuSans-Oblique-64" transform="translate(0 0.015625)"/>
      <use xlink:href="#DejaVuSans-Oblique-7a" transform="translate(63.476562 -16.390625) scale(0.7)"/>
      <use xlink:href="#DejaVuSans-20" transform="translate(102.954102 0.015625)"/>
      <use xlink:href="#DejaVuSans-3d" transform="translate(134.741211 0.015625)"/>
      <use xlink:href="#DejaVuSans-20" transform="translate(218.530273 0.015625)"/>
      <use xlink:href="#DejaVuSans-32" transform="translate(250.317383 0.015625)"/>
     </g>
    </g>
    <g id="line2d_22">
     <path d="M 324.96 74.803875 
L 336.96 74.803875 
L 348.96 74.803875 
" style="fill: none; stroke: #ff7f0e; stroke-width: 1.5; stroke-linecap: square"/>
    </g>
    <g id="text_23">
     <!-- $d_z$ = 10 -->
     <g transform="translate(358.56 79.003875) scale(0.12 -0.12)">
      <use xlink:href="#DejaVuSans-Oblique-64" transform="translate(0 0.015625)"/>
      <use xlink:href="#DejaVuSans-Oblique-7a" transform="translate(63.476562 -16.390625) scale(0.7)"/>
      <use xlink:href="#DejaVuSans-20" transform="translate(102.954102 0.015625)"/>
      <use xlink:href="#DejaVuSans-3d" transform="translate(134.741211 0.015625)"/>
      <use xlink:href="#DejaVuSans-20" transform="translate(218.530273 0.015625)"/>
      <use xlink:href="#DejaVuSans-31" transform="translate(250.317383 0.015625)"/>
      <use xlink:href="#DejaVuSans-30" transform="translate(313.94043 0.015625)"/>
     </g>
    </g>
   </g>
  </g>
 </g>
 <defs>
  <clipPath id="pbd7938c86d">
   <rect x="57.6" y="41.472" width="357.12" height="266.112"/>
  </clipPath>
 </defs>
</svg>
