<?xml version="1.0" encoding="utf-8" standalone="no"?>
<!DOCTYPE svg PUBLIC "-//W3C//DTD SVG 1.1//EN"
  "http://www.w3.org/Graphics/SVG/1.1/DTD/svg11.dtd">
<svg xmlns:xlink="http://www.w3.org/1999/xlink" width="409.40375pt" height="331.68125pt" viewBox="0 0 409.40375 331.68125" xmlns="http://www.w3.org/2000/svg" version="1.1">
 <metadata>
  <rdf:RDF xmlns:dc="http://purl.org/dc/elements/1.1/" xmlns:cc="http://creativecommons.org/ns#" xmlns:rdf="http://www.w3.org/1999/02/22-rdf-syntax-ns#">
   <cc:Work>
    <dc:type rdf:resource="http://purl.org/dc/dcmitype/StillImage"/>
    <dc:date>2024-05-20T23:10:09.684005</dc:date>
    <dc:format>image/svg+xml</dc:format>
    <dc:creator>
     <cc:Agent>
      <dc:title>Matplotlib v3.7.2, https://matplotlib.org/</dc:title>
     </cc:Agent>
    </dc:creator>
   </cc:Work>
  </rdf:RDF>
 </metadata>
 <defs>
  <style type="text/css">*{stroke-linejoin: round; stroke-linecap: butt}</style>
 </defs>
 <g id="figure_1">
  <g id="patch_1">
   <path d="M 0 331.68125 
L 409.40375 331.68125 
L 409.40375 0 
L 0 0 
z
" style="fill: #ffffff"/>
  </g>
  <g id="axes_1">
   <g id="patch_2">
    <path d="M 45.08375 290.25375 
L 402.20375 290.25375 
L 402.20375 24.14175 
L 45.08375 24.14175 
z
" style="fill: #ffffff"/>
   </g>
   <g id="matplotlib.axis_1">
    <g id="xtick_1">
     <g id="line2d_1">
      <defs>
       <path id="m9aacf8f8b6" d="M 0 0 
L 0 3.5 
" style="stroke: #000000; stroke-width: 0.8"/>
      </defs>
      <g>
       <use xlink:href="#m9aacf8f8b6" x="61.316477" y="290.25375" style="stroke: #000000; stroke-width: 0.8"/>
      </g>
     </g>
     <g id="text_1">
      <!-- 0 -->
      <g transform="translate(57.498977 306.371875) scale(0.12 -0.12)">
       <defs>
        <path id="DejaVuSans-30" d="M 2034 4250 
Q 1547 4250 1301 3770 
Q 1056 3291 1056 2328 
Q 1056 1369 1301 889 
Q 1547 409 2034 409 
Q 2525 409 2770 889 
Q 3016 1369 3016 2328 
Q 3016 3291 2770 3770 
Q 2525 4250 2034 4250 
z
M 2034 4750 
Q 2819 4750 3233 4129 
Q 3647 3509 3647 2328 
Q 3647 1150 3233 529 
Q 2819 -91 2034 -91 
Q 1250 -91 836 529 
Q 422 1150 422 2328 
Q 422 3509 836 4129 
Q 1250 4750 2034 4750 
z
" transform="scale(0.015625)"/>
       </defs>
       <use xlink:href="#DejaVuSans-30"/>
      </g>
     </g>
    </g>
    <g id="xtick_2">
     <g id="line2d_2">
      <g>
       <use xlink:href="#m9aacf8f8b6" x="102.000004" y="290.25375" style="stroke: #000000; stroke-width: 0.8"/>
      </g>
     </g>
     <g id="text_2">
      <!-- 50 -->
      <g transform="translate(94.365004 306.371875) scale(0.12 -0.12)">
       <defs>
        <path id="DejaVuSans-35" d="M 691 4666 
L 3169 4666 
L 3169 4134 
L 1269 4134 
L 1269 2991 
Q 1406 3038 1543 3061 
Q 1681 3084 1819 3084 
Q 2600 3084 3056 2656 
Q 3513 2228 3513 1497 
Q 3513 744 3044 326 
Q 2575 -91 1722 -91 
Q 1428 -91 1123 -41 
Q 819 9 494 109 
L 494 744 
Q 775 591 1075 516 
Q 1375 441 1709 441 
Q 2250 441 2565 725 
Q 2881 1009 2881 1497 
Q 2881 1984 2565 2268 
Q 2250 2553 1709 2553 
Q 1456 2553 1204 2497 
Q 953 2441 691 2322 
L 691 4666 
z
" transform="scale(0.015625)"/>
       </defs>
       <use xlink:href="#DejaVuSans-35"/>
       <use xlink:href="#DejaVuSans-30" x="63.623047"/>
      </g>
     </g>
    </g>
    <g id="xtick_3">
     <g id="line2d_3">
      <g>
       <use xlink:href="#m9aacf8f8b6" x="142.683531" y="290.25375" style="stroke: #000000; stroke-width: 0.8"/>
      </g>
     </g>
     <g id="text_3">
      <!-- 100 -->
      <g transform="translate(131.231031 306.371875) scale(0.12 -0.12)">
       <defs>
        <path id="DejaVuSans-31" d="M 794 531 
L 1825 531 
L 1825 4091 
L 703 3866 
L 703 4441 
L 1819 4666 
L 2450 4666 
L 2450 531 
L 3481 531 
L 3481 0 
L 794 0 
L 794 531 
z
" transform="scale(0.015625)"/>
       </defs>
       <use xlink:href="#DejaVuSans-31"/>
       <use xlink:href="#DejaVuSans-30" x="63.623047"/>
       <use xlink:href="#DejaVuSans-30" x="127.246094"/>
      </g>
     </g>
    </g>
    <g id="xtick_4">
     <g id="line2d_4">
      <g>
       <use xlink:href="#m9aacf8f8b6" x="183.367058" y="290.25375" style="stroke: #000000; stroke-width: 0.8"/>
      </g>
     </g>
     <g id="text_4">
      <!-- 150 -->
      <g transform="translate(171.914558 306.371875) scale(0.12 -0.12)">
       <use xlink:href="#DejaVuSans-31"/>
       <use xlink:href="#DejaVuSans-35" x="63.623047"/>
       <use xlink:href="#DejaVuSans-30" x="127.246094"/>
      </g>
     </g>
    </g>
    <g id="xtick_5">
     <g id="line2d_5">
      <g>
       <use xlink:href="#m9aacf8f8b6" x="224.050585" y="290.25375" style="stroke: #000000; stroke-width: 0.8"/>
      </g>
     </g>
     <g id="text_5">
      <!-- 200 -->
      <g transform="translate(212.598085 306.371875) scale(0.12 -0.12)">
       <defs>
        <path id="DejaVuSans-32" d="M 1228 531 
L 3431 531 
L 3431 0 
L 469 0 
L 469 531 
Q 828 903 1448 1529 
Q 2069 2156 2228 2338 
Q 2531 2678 2651 2914 
Q 2772 3150 2772 3378 
Q 2772 3750 2511 3984 
Q 2250 4219 1831 4219 
Q 1534 4219 1204 4116 
Q 875 4013 500 3803 
L 500 4441 
Q 881 4594 1212 4672 
Q 1544 4750 1819 4750 
Q 2544 4750 2975 4387 
Q 3406 4025 3406 3419 
Q 3406 3131 3298 2873 
Q 3191 2616 2906 2266 
Q 2828 2175 2409 1742 
Q 1991 1309 1228 531 
z
" transform="scale(0.015625)"/>
       </defs>
       <use xlink:href="#DejaVuSans-32"/>
       <use xlink:href="#DejaVuSans-30" x="63.623047"/>
       <use xlink:href="#DejaVuSans-30" x="127.246094"/>
      </g>
     </g>
    </g>
    <g id="xtick_6">
     <g id="line2d_6">
      <g>
       <use xlink:href="#m9aacf8f8b6" x="264.734112" y="290.25375" style="stroke: #000000; stroke-width: 0.8"/>
      </g>
     </g>
     <g id="text_6">
      <!-- 250 -->
      <g transform="translate(253.281612 306.371875) scale(0.12 -0.12)">
       <use xlink:href="#DejaVuSans-32"/>
       <use xlink:href="#DejaVuSans-35" x="63.623047"/>
       <use xlink:href="#DejaVuSans-30" x="127.246094"/>
      </g>
     </g>
    </g>
    <g id="xtick_7">
     <g id="line2d_7">
      <g>
       <use xlink:href="#m9aacf8f8b6" x="305.417639" y="290.25375" style="stroke: #000000; stroke-width: 0.8"/>
      </g>
     </g>
     <g id="text_7">
      <!-- 300 -->
      <g transform="translate(293.965139 306.371875) scale(0.12 -0.12)">
       <defs>
        <path id="DejaVuSans-33" d="M 2597 2516 
Q 3050 2419 3304 2112 
Q 3559 1806 3559 1356 
Q 3559 666 3084 287 
Q 2609 -91 1734 -91 
Q 1441 -91 1130 -33 
Q 819 25 488 141 
L 488 750 
Q 750 597 1062 519 
Q 1375 441 1716 441 
Q 2309 441 2620 675 
Q 2931 909 2931 1356 
Q 2931 1769 2642 2001 
Q 2353 2234 1838 2234 
L 1294 2234 
L 1294 2753 
L 1863 2753 
Q 2328 2753 2575 2939 
Q 2822 3125 2822 3475 
Q 2822 3834 2567 4026 
Q 2313 4219 1838 4219 
Q 1578 4219 1281 4162 
Q 984 4106 628 3988 
L 628 4550 
Q 988 4650 1302 4700 
Q 1616 4750 1894 4750 
Q 2613 4750 3031 4423 
Q 3450 4097 3450 3541 
Q 3450 3153 3228 2886 
Q 3006 2619 2597 2516 
z
" transform="scale(0.015625)"/>
       </defs>
       <use xlink:href="#DejaVuSans-33"/>
       <use xlink:href="#DejaVuSans-30" x="63.623047"/>
       <use xlink:href="#DejaVuSans-30" x="127.246094"/>
      </g>
     </g>
    </g>
    <g id="xtick_8">
     <g id="line2d_8">
      <g>
       <use xlink:href="#m9aacf8f8b6" x="346.101166" y="290.25375" style="stroke: #000000; stroke-width: 0.8"/>
      </g>
     </g>
     <g id="text_8">
      <!-- 350 -->
      <g transform="translate(334.648666 306.371875) scale(0.12 -0.12)">
       <use xlink:href="#DejaVuSans-33"/>
       <use xlink:href="#DejaVuSans-35" x="63.623047"/>
       <use xlink:href="#DejaVuSans-30" x="127.246094"/>
      </g>
     </g>
    </g>
    <g id="xtick_9">
     <g id="line2d_9">
      <g>
       <use xlink:href="#m9aacf8f8b6" x="386.784693" y="290.25375" style="stroke: #000000; stroke-width: 0.8"/>
      </g>
     </g>
     <g id="text_9">
      <!-- 400 -->
      <g transform="translate(375.332193 306.371875) scale(0.12 -0.12)">
       <defs>
        <path id="DejaVuSans-34" d="M 2419 4116 
L 825 1625 
L 2419 1625 
L 2419 4116 
z
M 2253 4666 
L 3047 4666 
L 3047 1625 
L 3713 1625 
L 3713 1100 
L 3047 1100 
L 3047 0 
L 2419 0 
L 2419 1100 
L 313 1100 
L 313 1709 
L 2253 4666 
z
" transform="scale(0.015625)"/>
       </defs>
       <use xlink:href="#DejaVuSans-34"/>
       <use xlink:href="#DejaVuSans-30" x="63.623047"/>
       <use xlink:href="#DejaVuSans-30" x="127.246094"/>
      </g>
     </g>
    </g>
    <g id="text_10">
     <!-- Test Time points -->
     <g transform="translate(174.907813 321.985625) scale(0.12 -0.12)">
      <defs>
       <path id="DejaVuSans-54" d="M -19 4666 
L 3928 4666 
L 3928 4134 
L 2272 4134 
L 2272 0 
L 1638 0 
L 1638 4134 
L -19 4134 
L -19 4666 
z
" transform="scale(0.015625)"/>
       <path id="DejaVuSans-65" d="M 3597 1894 
L 3597 1613 
L 953 1613 
Q 991 1019 1311 708 
Q 1631 397 2203 397 
Q 2534 397 2845 478 
Q 3156 559 3463 722 
L 3463 178 
Q 3153 47 2828 -22 
Q 2503 -91 2169 -91 
Q 1331 -91 842 396 
Q 353 884 353 1716 
Q 353 2575 817 3079 
Q 1281 3584 2069 3584 
Q 2775 3584 3186 3129 
Q 3597 2675 3597 1894 
z
M 3022 2063 
Q 3016 2534 2758 2815 
Q 2500 3097 2075 3097 
Q 1594 3097 1305 2825 
Q 1016 2553 972 2059 
L 3022 2063 
z
" transform="scale(0.015625)"/>
       <path id="DejaVuSans-73" d="M 2834 3397 
L 2834 2853 
Q 2591 2978 2328 3040 
Q 2066 3103 1784 3103 
Q 1356 3103 1142 2972 
Q 928 2841 928 2578 
Q 928 2378 1081 2264 
Q 1234 2150 1697 2047 
L 1894 2003 
Q 2506 1872 2764 1633 
Q 3022 1394 3022 966 
Q 3022 478 2636 193 
Q 2250 -91 1575 -91 
Q 1294 -91 989 -36 
Q 684 19 347 128 
L 347 722 
Q 666 556 975 473 
Q 1284 391 1588 391 
Q 1994 391 2212 530 
Q 2431 669 2431 922 
Q 2431 1156 2273 1281 
Q 2116 1406 1581 1522 
L 1381 1569 
Q 847 1681 609 1914 
Q 372 2147 372 2553 
Q 372 3047 722 3315 
Q 1072 3584 1716 3584 
Q 2034 3584 2315 3537 
Q 2597 3491 2834 3397 
z
" transform="scale(0.015625)"/>
       <path id="DejaVuSans-74" d="M 1172 4494 
L 1172 3500 
L 2356 3500 
L 2356 3053 
L 1172 3053 
L 1172 1153 
Q 1172 725 1289 603 
Q 1406 481 1766 481 
L 2356 481 
L 2356 0 
L 1766 0 
Q 1100 0 847 248 
Q 594 497 594 1153 
L 594 3053 
L 172 3053 
L 172 3500 
L 594 3500 
L 594 4494 
L 1172 4494 
z
" transform="scale(0.015625)"/>
       <path id="DejaVuSans-20" transform="scale(0.015625)"/>
       <path id="DejaVuSans-69" d="M 603 3500 
L 1178 3500 
L 1178 0 
L 603 0 
L 603 3500 
z
M 603 4863 
L 1178 4863 
L 1178 4134 
L 603 4134 
L 603 4863 
z
" transform="scale(0.015625)"/>
       <path id="DejaVuSans-6d" d="M 3328 2828 
Q 3544 3216 3844 3400 
Q 4144 3584 4550 3584 
Q 5097 3584 5394 3201 
Q 5691 2819 5691 2113 
L 5691 0 
L 5113 0 
L 5113 2094 
Q 5113 2597 4934 2840 
Q 4756 3084 4391 3084 
Q 3944 3084 3684 2787 
Q 3425 2491 3425 1978 
L 3425 0 
L 2847 0 
L 2847 2094 
Q 2847 2600 2669 2842 
Q 2491 3084 2119 3084 
Q 1678 3084 1418 2786 
Q 1159 2488 1159 1978 
L 1159 0 
L 581 0 
L 581 3500 
L 1159 3500 
L 1159 2956 
Q 1356 3278 1631 3431 
Q 1906 3584 2284 3584 
Q 2666 3584 2933 3390 
Q 3200 3197 3328 2828 
z
" transform="scale(0.015625)"/>
       <path id="DejaVuSans-70" d="M 1159 525 
L 1159 -1331 
L 581 -1331 
L 581 3500 
L 1159 3500 
L 1159 2969 
Q 1341 3281 1617 3432 
Q 1894 3584 2278 3584 
Q 2916 3584 3314 3078 
Q 3713 2572 3713 1747 
Q 3713 922 3314 415 
Q 2916 -91 2278 -91 
Q 1894 -91 1617 61 
Q 1341 213 1159 525 
z
M 3116 1747 
Q 3116 2381 2855 2742 
Q 2594 3103 2138 3103 
Q 1681 3103 1420 2742 
Q 1159 2381 1159 1747 
Q 1159 1113 1420 752 
Q 1681 391 2138 391 
Q 2594 391 2855 752 
Q 3116 1113 3116 1747 
z
" transform="scale(0.015625)"/>
       <path id="DejaVuSans-6f" d="M 1959 3097 
Q 1497 3097 1228 2736 
Q 959 2375 959 1747 
Q 959 1119 1226 758 
Q 1494 397 1959 397 
Q 2419 397 2687 759 
Q 2956 1122 2956 1747 
Q 2956 2369 2687 2733 
Q 2419 3097 1959 3097 
z
M 1959 3584 
Q 2709 3584 3137 3096 
Q 3566 2609 3566 1747 
Q 3566 888 3137 398 
Q 2709 -91 1959 -91 
Q 1206 -91 779 398 
Q 353 888 353 1747 
Q 353 2609 779 3096 
Q 1206 3584 1959 3584 
z
" transform="scale(0.015625)"/>
       <path id="DejaVuSans-6e" d="M 3513 2113 
L 3513 0 
L 2938 0 
L 2938 2094 
Q 2938 2591 2744 2837 
Q 2550 3084 2163 3084 
Q 1697 3084 1428 2787 
Q 1159 2491 1159 1978 
L 1159 0 
L 581 0 
L 581 3500 
L 1159 3500 
L 1159 2956 
Q 1366 3272 1645 3428 
Q 1925 3584 2291 3584 
Q 2894 3584 3203 3211 
Q 3513 2838 3513 2113 
z
" transform="scale(0.015625)"/>
      </defs>
      <use xlink:href="#DejaVuSans-54"/>
      <use xlink:href="#DejaVuSans-65" x="44.083984"/>
      <use xlink:href="#DejaVuSans-73" x="105.607422"/>
      <use xlink:href="#DejaVuSans-74" x="157.707031"/>
      <use xlink:href="#DejaVuSans-20" x="196.916016"/>
      <use xlink:href="#DejaVuSans-54" x="228.703125"/>
      <use xlink:href="#DejaVuSans-69" x="286.662109"/>
      <use xlink:href="#DejaVuSans-6d" x="314.445312"/>
      <use xlink:href="#DejaVuSans-65" x="411.857422"/>
      <use xlink:href="#DejaVuSans-20" x="473.380859"/>
      <use xlink:href="#DejaVuSans-70" x="505.167969"/>
      <use xlink:href="#DejaVuSans-6f" x="568.644531"/>
      <use xlink:href="#DejaVuSans-69" x="629.826172"/>
      <use xlink:href="#DejaVuSans-6e" x="657.609375"/>
      <use xlink:href="#DejaVuSans-74" x="720.988281"/>
      <use xlink:href="#DejaVuSans-73" x="760.197266"/>
     </g>
    </g>
   </g>
   <g id="matplotlib.axis_2">
    <g id="ytick_1">
     <g id="line2d_10">
      <defs>
       <path id="m2d3a40ab35" d="M 0 0 
L -3.5 0 
" style="stroke: #000000; stroke-width: 0.8"/>
      </defs>
      <g>
       <use xlink:href="#m2d3a40ab35" x="45.08375" y="234.298653" style="stroke: #000000; stroke-width: 0.8"/>
      </g>
     </g>
     <g id="text_11">
      <!-- 15 -->
      <g transform="translate(22.81375 238.857715) scale(0.12 -0.12)">
       <use xlink:href="#DejaVuSans-31"/>
       <use xlink:href="#DejaVuSans-35" x="63.623047"/>
      </g>
     </g>
    </g>
    <g id="ytick_2">
     <g id="line2d_11">
      <g>
       <use xlink:href="#m2d3a40ab35" x="45.08375" y="176.573443" style="stroke: #000000; stroke-width: 0.8"/>
      </g>
     </g>
     <g id="text_12">
      <!-- 20 -->
      <g transform="translate(22.81375 181.132505) scale(0.12 -0.12)">
       <use xlink:href="#DejaVuSans-32"/>
       <use xlink:href="#DejaVuSans-30" x="63.623047"/>
      </g>
     </g>
    </g>
    <g id="ytick_3">
     <g id="line2d_12">
      <g>
       <use xlink:href="#m2d3a40ab35" x="45.08375" y="118.848233" style="stroke: #000000; stroke-width: 0.8"/>
      </g>
     </g>
     <g id="text_13">
      <!-- 25 -->
      <g transform="translate(22.81375 123.407295) scale(0.12 -0.12)">
       <use xlink:href="#DejaVuSans-32"/>
       <use xlink:href="#DejaVuSans-35" x="63.623047"/>
      </g>
     </g>
    </g>
    <g id="ytick_4">
     <g id="line2d_13">
      <g>
       <use xlink:href="#m2d3a40ab35" x="45.08375" y="61.123023" style="stroke: #000000; stroke-width: 0.8"/>
      </g>
     </g>
     <g id="text_14">
      <!-- 30 -->
      <g transform="translate(22.81375 65.682085) scale(0.12 -0.12)">
       <use xlink:href="#DejaVuSans-33"/>
       <use xlink:href="#DejaVuSans-30" x="63.623047"/>
      </g>
     </g>
    </g>
    <g id="text_15">
     <!-- Firing rate (Hz) -->
     <g transform="translate(16.318125 201.969937) rotate(-90) scale(0.12 -0.12)">
      <defs>
       <path id="DejaVuSans-46" d="M 628 4666 
L 3309 4666 
L 3309 4134 
L 1259 4134 
L 1259 2759 
L 3109 2759 
L 3109 2228 
L 1259 2228 
L 1259 0 
L 628 0 
L 628 4666 
z
" transform="scale(0.015625)"/>
       <path id="DejaVuSans-72" d="M 2631 2963 
Q 2534 3019 2420 3045 
Q 2306 3072 2169 3072 
Q 1681 3072 1420 2755 
Q 1159 2438 1159 1844 
L 1159 0 
L 581 0 
L 581 3500 
L 1159 3500 
L 1159 2956 
Q 1341 3275 1631 3429 
Q 1922 3584 2338 3584 
Q 2397 3584 2469 3576 
Q 2541 3569 2628 3553 
L 2631 2963 
z
" transform="scale(0.015625)"/>
       <path id="DejaVuSans-67" d="M 2906 1791 
Q 2906 2416 2648 2759 
Q 2391 3103 1925 3103 
Q 1463 3103 1205 2759 
Q 947 2416 947 1791 
Q 947 1169 1205 825 
Q 1463 481 1925 481 
Q 2391 481 2648 825 
Q 2906 1169 2906 1791 
z
M 3481 434 
Q 3481 -459 3084 -895 
Q 2688 -1331 1869 -1331 
Q 1566 -1331 1297 -1286 
Q 1028 -1241 775 -1147 
L 775 -588 
Q 1028 -725 1275 -790 
Q 1522 -856 1778 -856 
Q 2344 -856 2625 -561 
Q 2906 -266 2906 331 
L 2906 616 
Q 2728 306 2450 153 
Q 2172 0 1784 0 
Q 1141 0 747 490 
Q 353 981 353 1791 
Q 353 2603 747 3093 
Q 1141 3584 1784 3584 
Q 2172 3584 2450 3431 
Q 2728 3278 2906 2969 
L 2906 3500 
L 3481 3500 
L 3481 434 
z
" transform="scale(0.015625)"/>
       <path id="DejaVuSans-61" d="M 2194 1759 
Q 1497 1759 1228 1600 
Q 959 1441 959 1056 
Q 959 750 1161 570 
Q 1363 391 1709 391 
Q 2188 391 2477 730 
Q 2766 1069 2766 1631 
L 2766 1759 
L 2194 1759 
z
M 3341 1997 
L 3341 0 
L 2766 0 
L 2766 531 
Q 2569 213 2275 61 
Q 1981 -91 1556 -91 
Q 1019 -91 701 211 
Q 384 513 384 1019 
Q 384 1609 779 1909 
Q 1175 2209 1959 2209 
L 2766 2209 
L 2766 2266 
Q 2766 2663 2505 2880 
Q 2244 3097 1772 3097 
Q 1472 3097 1187 3025 
Q 903 2953 641 2809 
L 641 3341 
Q 956 3463 1253 3523 
Q 1550 3584 1831 3584 
Q 2591 3584 2966 3190 
Q 3341 2797 3341 1997 
z
" transform="scale(0.015625)"/>
       <path id="DejaVuSans-28" d="M 1984 4856 
Q 1566 4138 1362 3434 
Q 1159 2731 1159 2009 
Q 1159 1288 1364 580 
Q 1569 -128 1984 -844 
L 1484 -844 
Q 1016 -109 783 600 
Q 550 1309 550 2009 
Q 550 2706 781 3412 
Q 1013 4119 1484 4856 
L 1984 4856 
z
" transform="scale(0.015625)"/>
       <path id="DejaVuSans-48" d="M 628 4666 
L 1259 4666 
L 1259 2753 
L 3553 2753 
L 3553 4666 
L 4184 4666 
L 4184 0 
L 3553 0 
L 3553 2222 
L 1259 2222 
L 1259 0 
L 628 0 
L 628 4666 
z
" transform="scale(0.015625)"/>
       <path id="DejaVuSans-7a" d="M 353 3500 
L 3084 3500 
L 3084 2975 
L 922 459 
L 3084 459 
L 3084 0 
L 275 0 
L 275 525 
L 2438 3041 
L 353 3041 
L 353 3500 
z
" transform="scale(0.015625)"/>
       <path id="DejaVuSans-29" d="M 513 4856 
L 1013 4856 
Q 1481 4119 1714 3412 
Q 1947 2706 1947 2009 
Q 1947 1309 1714 600 
Q 1481 -109 1013 -844 
L 513 -844 
Q 928 -128 1133 580 
Q 1338 1288 1338 2009 
Q 1338 2731 1133 3434 
Q 928 4138 513 4856 
z
" transform="scale(0.015625)"/>
      </defs>
      <use xlink:href="#DejaVuSans-46"/>
      <use xlink:href="#DejaVuSans-69" x="50.269531"/>
      <use xlink:href="#DejaVuSans-72" x="78.052734"/>
      <use xlink:href="#DejaVuSans-69" x="119.166016"/>
      <use xlink:href="#DejaVuSans-6e" x="146.949219"/>
      <use xlink:href="#DejaVuSans-67" x="210.328125"/>
      <use xlink:href="#DejaVuSans-20" x="273.804688"/>
      <use xlink:href="#DejaVuSans-72" x="305.591797"/>
      <use xlink:href="#DejaVuSans-61" x="346.705078"/>
      <use xlink:href="#DejaVuSans-74" x="407.984375"/>
      <use xlink:href="#DejaVuSans-65" x="447.193359"/>
      <use xlink:href="#DejaVuSans-20" x="508.716797"/>
      <use xlink:href="#DejaVuSans-28" x="540.503906"/>
      <use xlink:href="#DejaVuSans-48" x="579.517578"/>
      <use xlink:href="#DejaVuSans-7a" x="654.712891"/>
      <use xlink:href="#DejaVuSans-29" x="707.203125"/>
     </g>
    </g>
   </g>
   <g id="line2d_14">
    <path d="M 61.316477 202.897945 
L 62.943818 203.657342 
L 63.757489 202.220015 
L 64.571159 202.286551 
L 65.38483 204.837408 
L 66.198501 203.15583 
L 67.012171 202.744807 
L 67.825842 201.927361 
L 68.639512 199.363814 
L 69.453183 201.515806 
L 70.266853 201.982447 
L 71.080524 201.590234 
L 71.894194 202.67295 
L 73.521535 207.138272 
L 74.335206 208.050969 
L 75.148876 206.0078 
L 75.962547 205.369594 
L 76.776218 207.25732 
L 77.589888 207.158354 
L 78.403559 204.743991 
L 79.217229 206.471194 
L 80.0309 206.081559 
L 80.84457 207.749282 
L 81.658241 204.704763 
L 82.471911 205.777309 
L 83.285582 206.297418 
L 84.099252 204.131816 
L 84.912923 205.842423 
L 85.726593 205.170206 
L 86.540264 201.19078 
L 87.353935 202.76479 
L 88.167605 203.202844 
L 88.981276 197.369083 
L 89.794946 195.95676 
L 91.422287 183.129476 
L 92.235958 176.058084 
L 93.049628 172.966705 
L 93.863299 173.473244 
L 94.676969 171.281098 
L 95.49064 167.042648 
L 96.30431 165.645796 
L 97.117981 166.036334 
L 97.931652 168.126119 
L 98.745322 165.585677 
L 99.558993 168.255641 
L 100.372663 166.924185 
L 101.186334 171.856254 
L 102.000004 175.630816 
L 102.813675 178.645504 
L 104.441016 188.261946 
L 105.254686 190.898935 
L 106.068357 193.96257 
L 106.882028 200.034529 
L 107.695698 199.128698 
L 108.509369 199.802848 
L 109.323039 197.969261 
L 110.13671 198.451947 
L 110.95038 203.537078 
L 111.764051 205.623645 
L 112.577721 207.225442 
L 113.391392 209.792877 
L 114.205062 213.703701 
L 115.018733 215.741912 
L 115.832403 214.629907 
L 116.646074 214.128113 
L 117.459745 208.997455 
L 118.273415 211.75758 
L 119.087086 209.244017 
L 119.900756 210.82582 
L 120.714427 207.259134 
L 121.528097 209.120902 
L 122.341768 206.566078 
L 123.155438 205.115074 
L 123.969109 205.46653 
L 124.782779 203.864263 
L 125.59645 209.960939 
L 126.41012 208.3272 
L 127.223791 209.629519 
L 128.037462 214.724029 
L 128.851132 216.169207 
L 129.664803 219.867955 
L 130.478473 216.245665 
L 131.292144 210.972247 
L 132.105814 211.591018 
L 132.919485 209.66023 
L 133.733155 206.718201 
L 134.546826 207.981261 
L 136.174167 209.697234 
L 136.987837 206.902777 
L 137.801508 206.659356 
L 138.615179 206.09687 
L 139.428849 207.976164 
L 140.24252 206.111866 
L 141.05619 208.317256 
L 141.869861 207.902709 
L 142.683531 209.690133 
L 143.497202 210.092642 
L 144.310872 211.040003 
L 145.124543 210.685156 
L 145.938213 206.887119 
L 146.751884 207.944669 
L 147.565555 203.103098 
L 148.379225 203.610721 
L 149.192896 200.890563 
L 150.006566 203.302299 
L 150.820237 203.765022 
L 151.633907 204.597611 
L 152.447578 205.269574 
L 153.261248 206.313524 
L 154.074919 209.685289 
L 154.888589 211.342643 
L 155.70226 218.862819 
L 156.51593 222.123751 
L 157.329601 229.602754 
L 158.143272 231.707165 
L 158.956942 240.258811 
L 159.770613 241.067154 
L 160.584283 243.943282 
L 162.211624 241.558503 
L 163.025295 238.643041 
L 164.652636 230.135814 
L 165.466306 228.292522 
L 166.279977 224.683029 
L 167.093647 222.132987 
L 167.907318 219.961815 
L 168.720989 216.775082 
L 169.534659 215.341938 
L 171.162 207.971791 
L 171.975671 205.408979 
L 172.789341 199.738666 
L 173.603012 199.306366 
L 174.416682 199.869783 
L 175.230353 197.04956 
L 176.044023 196.370816 
L 176.857694 199.451387 
L 177.671364 200.314574 
L 178.485035 200.966333 
L 179.298706 205.289032 
L 180.112376 208.966708 
L 180.926047 210.412385 
L 181.739717 210.262003 
L 182.553388 208.223364 
L 183.367058 205.04307 
L 184.180729 207.735288 
L 184.994399 206.052552 
L 185.80807 205.265377 
L 186.62174 202.73523 
L 187.435411 207.081814 
L 188.249082 205.337948 
L 189.062752 205.986555 
L 189.876423 205.016275 
L 190.690093 201.735218 
L 191.503764 204.619568 
L 192.317434 204.968203 
L 193.131105 206.259618 
L 193.944775 204.903644 
L 194.758446 205.174258 
L 195.572116 206.693203 
L 197.199457 203.369735 
L 198.826799 204.623669 
L 199.640469 205.881483 
L 200.45414 203.539218 
L 202.081481 203.785813 
L 203.708822 206.335873 
L 204.522492 204.611678 
L 205.336163 204.968214 
L 206.149833 202.029812 
L 206.963504 202.575293 
L 207.777174 202.205631 
L 208.590845 198.137132 
L 210.218186 192.231134 
L 211.031857 182.682396 
L 211.845527 179.188254 
L 212.659198 175.126446 
L 213.472868 177.252136 
L 214.286539 184.716342 
L 215.100209 187.714006 
L 215.91388 195.580747 
L 216.72755 197.94846 
L 217.541221 204.032648 
L 218.354891 205.312531 
L 219.168562 204.71303 
L 219.982233 206.231562 
L 220.795903 207.440696 
L 221.609574 210.090249 
L 222.423244 205.311358 
L 223.236915 207.344319 
L 224.050585 204.641075 
L 224.864256 206.64813 
L 225.677926 206.139063 
L 226.491597 200.878988 
L 227.305267 203.5249 
L 228.118938 208.378201 
L 228.932609 204.631659 
L 229.746279 205.087353 
L 230.55995 204.569607 
L 231.37362 207.138285 
L 232.187291 205.895909 
L 233.000961 204.955827 
L 233.814632 205.06302 
L 234.628302 203.41612 
L 235.441973 203.938249 
L 236.255643 202.756451 
L 237.069314 205.099107 
L 237.882984 206.029194 
L 238.696655 206.62798 
L 239.510326 205.120834 
L 240.323996 205.350702 
L 241.137667 205.425976 
L 241.951337 204.728275 
L 242.765008 204.986172 
L 243.578678 202.509134 
L 244.392349 205.485376 
L 245.206019 204.581562 
L 246.01969 204.904081 
L 246.83336 201.19657 
L 247.647031 195.851404 
L 248.460701 195.924062 
L 250.901713 174.376144 
L 251.715384 170.251565 
L 252.529054 171.26534 
L 254.156395 163.66441 
L 254.970066 163.734772 
L 255.783736 163.192377 
L 257.411077 165.890366 
L 258.224748 170.792667 
L 259.038418 174.824801 
L 259.852089 180.643334 
L 260.66576 183.844737 
L 261.47943 188.883378 
L 262.293101 187.871186 
L 263.106771 187.573143 
L 263.920442 184.53575 
L 264.734112 190.109305 
L 267.175124 210.886085 
L 267.988794 213.34007 
L 268.802465 212.458153 
L 269.616136 212.923251 
L 270.429806 210.676397 
L 272.057147 211.494037 
L 272.870818 212.475985 
L 273.684488 210.892711 
L 274.498159 211.71566 
L 275.311829 208.405068 
L 276.1255 208.588137 
L 276.93917 205.772232 
L 277.752841 205.937435 
L 278.566511 205.516046 
L 279.380182 206.827394 
L 280.193853 202.302498 
L 281.007523 205.252618 
L 281.821194 205.91329 
L 282.634864 204.292967 
L 283.448535 204.774819 
L 284.262205 207.120208 
L 285.075876 204.924986 
L 285.889546 205.206513 
L 286.703217 207.463764 
L 287.516887 204.938631 
L 288.330558 207.24593 
L 289.144228 207.995343 
L 289.957899 207.082243 
L 290.77157 205.218665 
L 291.58524 205.38152 
L 292.398911 205.369833 
L 293.212581 206.198838 
L 294.026252 208.35857 
L 295.653593 211.243231 
L 296.467263 215.427109 
L 297.280934 213.07728 
L 298.094604 209.311986 
L 298.908275 200.556812 
L 299.721945 195.313821 
L 300.535616 186.933003 
L 301.349287 179.97394 
L 302.162957 176.863364 
L 302.976628 175.977036 
L 303.790298 179.053773 
L 304.603969 184.120262 
L 305.417639 182.871833 
L 306.23131 189.192546 
L 307.04498 188.653956 
L 307.858651 190.867185 
L 308.672321 195.376258 
L 309.485992 195.302547 
L 310.299663 197.33356 
L 311.113333 194.854997 
L 311.927004 194.823712 
L 312.740674 195.697612 
L 313.554345 195.023118 
L 314.368015 194.59246 
L 315.181686 199.439833 
L 315.995356 200.693572 
L 316.809027 203.941114 
L 317.622697 204.147104 
L 318.436368 208.971356 
L 319.250038 207.640404 
L 320.063709 208.23406 
L 320.87738 207.592677 
L 321.69105 204.987354 
L 322.504721 205.397147 
L 323.318391 206.508875 
L 324.132062 206.627852 
L 324.945732 208.5259 
L 325.759403 206.618758 
L 326.573073 208.432216 
L 327.386744 205.516901 
L 328.200414 206.636707 
L 329.014085 206.808857 
L 329.827755 207.27311 
L 330.641426 205.710048 
L 331.455097 206.486677 
L 332.268767 204.698978 
L 333.082438 204.211033 
L 333.896108 206.489471 
L 334.709779 203.80337 
L 336.33712 208.305189 
L 337.15079 207.459965 
L 337.964461 212.511553 
L 338.778131 212.947866 
L 339.591802 219.610169 
L 340.405472 224.187112 
L 342.846484 252.405811 
L 343.660155 256.019378 
L 344.473825 260.277042 
L 345.287496 262.858432 
L 346.101166 262.652319 
L 346.914837 261.877457 
L 347.728507 259.183162 
L 348.542178 253.328608 
L 349.355848 250.445391 
L 350.169519 244.774153 
L 350.98319 236.629213 
L 351.79686 230.623568 
L 352.610531 221.403373 
L 353.424201 214.660303 
L 354.237872 210.985141 
L 355.051542 209.619876 
L 355.865213 205.852065 
L 356.678883 205.497447 
L 357.492554 204.852877 
L 358.306224 199.744432 
L 359.119895 200.990066 
L 359.933565 199.10394 
L 360.747236 196.490523 
L 361.560907 199.41297 
L 362.374577 203.199856 
L 363.188248 205.254823 
L 364.001918 204.697337 
L 364.815589 206.531155 
L 365.629259 204.370554 
L 366.44293 203.863625 
L 367.2566 205.235919 
L 368.070271 205.204165 
L 368.883941 205.707876 
L 369.697612 205.477208 
L 370.511282 205.071109 
L 372.138624 202.340483 
L 372.952294 202.857408 
L 373.765965 200.976724 
L 374.579635 204.459827 
L 375.393306 203.138426 
L 376.206976 205.158149 
L 377.020647 200.861698 
L 377.834317 205.650427 
L 378.647988 205.64275 
L 379.461658 204.113453 
L 380.275329 205.002236 
L 381.088999 203.133258 
L 381.90267 206.333882 
L 382.716341 203.579308 
L 383.530011 204.717928 
L 384.343682 202.772453 
L 385.157352 203.778659 
L 385.971023 204.124534 
L 385.971023 204.124534 
" clip-path="url(#p56690362a2)" style="fill: none; stroke: #1f77b4; stroke-width: 1.5; stroke-linecap: square"/>
   </g>
   <g id="line2d_15">
    <path d="M 61.316477 196.335217 
L 62.130148 183.323568 
L 62.943818 187.390043 
L 63.757489 173.215441 
L 64.571159 165.149635 
L 65.38483 170.828991 
L 66.198501 181.006851 
L 67.012171 177.835315 
L 67.825842 181.317468 
L 68.639512 189.224333 
L 69.453183 188.983916 
L 70.266853 180.678183 
L 71.080524 194.243036 
L 71.894194 197.661934 
L 73.521535 217.199179 
L 74.335206 224.751504 
L 75.148876 229.029628 
L 75.962547 241.378894 
L 76.776218 250.339403 
L 77.589888 253.666691 
L 78.403559 254.526621 
L 79.217229 259.84702 
L 80.0309 262.315348 
L 80.84457 257.744303 
L 81.658241 253.952145 
L 84.099252 237.770586 
L 84.912923 231.500597 
L 85.726593 226.700384 
L 86.540264 216.927674 
L 87.353935 216.448688 
L 88.167605 208.789184 
L 88.981276 190.718417 
L 89.794946 176.711388 
L 90.608617 154.700703 
L 92.235958 125.873493 
L 93.049628 119.090097 
L 93.863299 119.589733 
L 94.676969 96.162815 
L 95.49064 90.27478 
L 96.30431 101.225675 
L 97.117981 91.293785 
L 97.931652 58.934665 
L 98.745322 38.701424 
L 99.558993 36.23775 
L 100.372663 39.937713 
L 102.000004 44.939045 
L 102.813675 56.271597 
L 103.627345 77.567686 
L 104.441016 85.133576 
L 106.068357 129.821587 
L 106.882028 135.339727 
L 107.695698 138.294746 
L 109.323039 145.297504 
L 110.13671 154.339487 
L 110.95038 161.487565 
L 111.764051 176.073187 
L 112.577721 192.707909 
L 113.391392 195.301752 
L 114.205062 191.942479 
L 115.018733 191.522894 
L 115.832403 197.001848 
L 116.646074 200.575689 
L 117.459745 206.015957 
L 118.273415 202.046298 
L 119.087086 214.127912 
L 119.900756 224.059546 
L 120.714427 225.198411 
L 121.528097 231.959876 
L 122.341768 235.410418 
L 123.155438 236.932862 
L 123.969109 234.052753 
L 124.782779 234.345654 
L 125.59645 232.507737 
L 126.41012 232.281885 
L 127.223791 228.214778 
L 128.037462 223.049985 
L 128.851132 202.069933 
L 129.664803 194.516021 
L 130.478473 190.827899 
L 132.105814 199.960008 
L 132.919485 214.555168 
L 134.546826 233.398927 
L 135.360496 238.018154 
L 136.174167 246.867772 
L 136.987837 249.567097 
L 138.615179 246.469077 
L 139.428849 247.145457 
L 140.24252 244.289712 
L 141.05619 242.243883 
L 141.869861 231.5917 
L 142.683531 230.246256 
L 143.497202 227.885763 
L 144.310872 226.429948 
L 145.124543 232.326784 
L 146.751884 237.434985 
L 148.379225 228.418588 
L 149.192896 226.718473 
L 150.006566 222.662442 
L 150.820237 226.935225 
L 151.633907 219.782663 
L 152.447578 208.687332 
L 153.261248 193.57825 
L 154.074919 173.506244 
L 154.888589 171.470598 
L 155.70226 179.142271 
L 156.51593 174.014279 
L 157.329601 172.017024 
L 158.143272 184.946489 
L 158.956942 195.45896 
L 159.770613 199.308272 
L 160.584283 209.108747 
L 161.397954 209.329479 
L 162.211624 211.685855 
L 163.025295 205.324512 
L 163.838965 194.85925 
L 164.652636 194.443241 
L 165.466306 203.183778 
L 166.279977 198.447324 
L 167.907318 219.56581 
L 168.720989 220.069277 
L 169.534659 224.275127 
L 171.162 207.162821 
L 171.975671 203.252841 
L 172.789341 200.151416 
L 173.603012 200.463409 
L 175.230353 210.106616 
L 176.857694 175.066605 
L 177.671364 163.352829 
L 178.485035 153.311098 
L 179.298706 163.272073 
L 180.112376 181.528349 
L 180.926047 207.25788 
L 181.739717 217.585751 
L 183.367058 232.450509 
L 184.180729 246.486838 
L 184.994399 251.730626 
L 185.80807 260.100754 
L 186.62174 265.560195 
L 188.249082 266.968459 
L 189.062752 268.920636 
L 189.876423 270.456146 
L 190.690093 271.559671 
L 191.503764 274.521426 
L 193.131105 272.377762 
L 193.944775 262.923288 
L 194.758446 260.506873 
L 195.572116 260.973246 
L 196.385787 263.052229 
L 197.199457 259.06196 
L 198.013128 251.195267 
L 198.826799 248.566354 
L 199.640469 251.023545 
L 200.45414 243.97349 
L 201.26781 242.375367 
L 202.081481 231.281065 
L 202.895151 223.270596 
L 203.708822 220.537657 
L 204.522492 215.661162 
L 205.336163 214.197936 
L 206.149833 200.97794 
L 206.963504 200.206146 
L 207.777174 193.803058 
L 208.590845 181.50769 
L 209.404516 184.460336 
L 211.031857 153.519273 
L 211.845527 143.731188 
L 212.659198 146.478121 
L 213.472868 144.064757 
L 214.286539 158.443494 
L 215.100209 179.896463 
L 216.72755 209.89035 
L 217.541221 213.918875 
L 218.354891 230.909135 
L 219.168562 235.08999 
L 219.982233 240.78082 
L 220.795903 242.011227 
L 221.609574 250.861902 
L 222.423244 257.246331 
L 223.236915 261.297113 
L 224.050585 261.255409 
L 224.864256 261.078188 
L 225.677926 263.140017 
L 226.491597 266.130536 
L 227.305267 265.230374 
L 228.118938 268.230207 
L 228.932609 268.052407 
L 229.746279 274.081649 
L 230.55995 274.701314 
L 231.37362 276.685958 
L 232.187291 278.15775 
L 233.000961 273.972945 
L 233.814632 273.269349 
L 234.628302 277.776959 
L 235.441973 274.205131 
L 236.255643 272.895958 
L 237.069314 268.104925 
L 237.882984 264.278418 
L 238.696655 263.788883 
L 239.510326 266.306098 
L 240.323996 262.749202 
L 241.137667 260.519327 
L 241.951337 251.366258 
L 242.765008 240.441728 
L 244.392349 213.107979 
L 245.206019 196.253117 
L 246.01969 195.296977 
L 246.83336 185.32648 
L 247.647031 182.321431 
L 250.088043 118.946687 
L 250.901713 119.49328 
L 251.715384 129.120855 
L 252.529054 130.66491 
L 253.342725 136.644931 
L 254.156395 146.096866 
L 254.970066 146.580803 
L 255.783736 121.44997 
L 256.597407 124.876528 
L 257.411077 119.829866 
L 258.224748 112.077631 
L 259.038418 123.500632 
L 259.852089 131.123514 
L 260.66576 146.811577 
L 261.47943 144.73005 
L 262.293101 140.742552 
L 263.106771 134.156516 
L 263.920442 138.915083 
L 264.734112 149.007307 
L 266.361453 191.71519 
L 267.175124 198.18855 
L 267.988794 199.155252 
L 268.802465 199.675983 
L 269.616136 213.530871 
L 270.429806 212.954647 
L 271.243477 221.317842 
L 272.057147 232.659617 
L 272.870818 234.310507 
L 273.684488 239.457254 
L 274.498159 242.489624 
L 275.311829 251.238817 
L 276.1255 254.880828 
L 276.93917 254.902747 
L 277.752841 260.238325 
L 278.566511 264.384395 
L 279.380182 267.032852 
L 280.193853 268.663901 
L 281.007523 268.31386 
L 281.821194 273.922836 
L 282.634864 273.452273 
L 283.448535 273.652498 
L 284.262205 276.278166 
L 285.075876 274.854015 
L 285.889546 275.597535 
L 286.703217 273.995163 
L 287.516887 274.267986 
L 288.330558 273.203578 
L 289.144228 272.524788 
L 289.957899 273.407558 
L 290.77157 270.190439 
L 291.58524 264.586725 
L 292.398911 257.856256 
L 293.212581 239.070278 
L 294.026252 229.149931 
L 294.839922 207.573687 
L 295.653593 191.75603 
L 296.467263 189.335242 
L 297.280934 185.538242 
L 298.094604 183.387001 
L 298.908275 173.305265 
L 299.721945 168.202047 
L 300.535616 155.918233 
L 301.349287 141.483973 
L 302.162957 119.333862 
L 302.976628 116.187228 
L 303.790298 127.066327 
L 304.603969 131.64965 
L 305.417639 128.979034 
L 306.23131 126.855475 
L 307.04498 132.835359 
L 307.858651 137.532335 
L 308.672321 150.063338 
L 309.485992 143.941646 
L 311.113333 161.328296 
L 311.927004 160.100032 
L 312.740674 154.091843 
L 313.554345 138.177847 
L 314.368015 136.368599 
L 315.181686 152.687905 
L 315.995356 173.900959 
L 316.809027 203.399814 
L 319.250038 226.710787 
L 320.063709 230.153972 
L 320.87738 240.749729 
L 321.69105 248.047341 
L 322.504721 250.922865 
L 323.318391 255.050545 
L 324.132062 253.159782 
L 324.945732 257.793649 
L 325.759403 260.619966 
L 326.573073 267.155865 
L 327.386744 267.327917 
L 328.200414 266.492433 
L 329.014085 266.541258 
L 329.827755 264.677244 
L 331.455097 261.741658 
L 332.268767 262.226911 
L 333.082438 258.927398 
L 334.709779 254.85532 
L 335.523449 249.188761 
L 336.33712 238.785792 
L 337.15079 230.708183 
L 337.964461 210.873488 
L 338.778131 182.997316 
L 339.591802 176.521057 
L 340.405472 138.71651 
L 341.219143 134.467616 
L 342.032814 153.666062 
L 342.846484 153.639302 
L 343.660155 148.997284 
L 344.473825 174.05384 
L 345.287496 167.800656 
L 346.101166 186.602049 
L 346.914837 195.38636 
L 347.728507 191.221662 
L 348.542178 204.132229 
L 350.169519 212.087544 
L 350.98319 214.792148 
L 351.79686 214.18339 
L 352.610531 204.242199 
L 353.424201 203.038969 
L 354.237872 188.352043 
L 355.051542 187.54464 
L 355.865213 191.479862 
L 356.678883 201.378841 
L 358.306224 215.620109 
L 359.933565 205.766753 
L 360.747236 197.366554 
L 361.560907 176.768549 
L 362.374577 173.803185 
L 363.188248 182.269981 
L 364.001918 185.743738 
L 364.815589 194.983537 
L 365.629259 200.223098 
L 366.44293 208.664552 
L 367.2566 213.169558 
L 368.070271 216.869951 
L 368.883941 227.097155 
L 369.697612 235.883889 
L 370.511282 241.591616 
L 371.324953 252.985396 
L 372.138624 261.107899 
L 372.952294 262.807732 
L 373.765965 262.447979 
L 374.579635 263.519178 
L 375.393306 270.829233 
L 376.206976 270.248058 
L 377.020647 268.449729 
L 377.834317 264.207085 
L 378.647988 261.974414 
L 380.275329 269.964918 
L 381.088999 267.407188 
L 381.90267 266.758396 
L 382.716341 269.048908 
L 383.530011 270.767118 
L 384.343682 270.047065 
L 385.157352 269.715308 
L 385.971023 263.885639 
L 385.971023 263.885639 
" clip-path="url(#p56690362a2)" style="fill: none; stroke: #ff7f0e; stroke-width: 1.5; stroke-linecap: square"/>
   </g>
   <g id="patch_3">
    <path d="M 45.08375 290.25375 
L 45.08375 24.14175 
" style="fill: none; stroke: #000000; stroke-width: 0.8; stroke-linejoin: miter; stroke-linecap: square"/>
   </g>
   <g id="patch_4">
    <path d="M 402.20375 290.25375 
L 402.20375 24.14175 
" style="fill: none; stroke: #000000; stroke-width: 0.8; stroke-linejoin: miter; stroke-linecap: square"/>
   </g>
   <g id="patch_5">
    <path d="M 45.08375 290.25375 
L 402.20375 290.25375 
" style="fill: none; stroke: #000000; stroke-width: 0.8; stroke-linejoin: miter; stroke-linecap: square"/>
   </g>
   <g id="patch_6">
    <path d="M 45.08375 24.14175 
L 402.20375 24.14175 
" style="fill: none; stroke: #000000; stroke-width: 0.8; stroke-linejoin: miter; stroke-linecap: square"/>
   </g>
   <g id="text_16">
    <!-- Neuron 170 -->
    <g transform="translate(181.466375 18.14175) scale(0.144 -0.144)">
     <defs>
      <path id="DejaVuSans-4e" d="M 628 4666 
L 1478 4666 
L 3547 763 
L 3547 4666 
L 4159 4666 
L 4159 0 
L 3309 0 
L 1241 3903 
L 1241 0 
L 628 0 
L 628 4666 
z
" transform="scale(0.015625)"/>
      <path id="DejaVuSans-75" d="M 544 1381 
L 544 3500 
L 1119 3500 
L 1119 1403 
Q 1119 906 1312 657 
Q 1506 409 1894 409 
Q 2359 409 2629 706 
Q 2900 1003 2900 1516 
L 2900 3500 
L 3475 3500 
L 3475 0 
L 2900 0 
L 2900 538 
Q 2691 219 2414 64 
Q 2138 -91 1772 -91 
Q 1169 -91 856 284 
Q 544 659 544 1381 
z
M 1991 3584 
L 1991 3584 
z
" transform="scale(0.015625)"/>
      <path id="DejaVuSans-37" d="M 525 4666 
L 3525 4666 
L 3525 4397 
L 1831 0 
L 1172 0 
L 2766 4134 
L 525 4134 
L 525 4666 
z
" transform="scale(0.015625)"/>
     </defs>
     <use xlink:href="#DejaVuSans-4e"/>
     <use xlink:href="#DejaVuSans-65" x="74.804688"/>
     <use xlink:href="#DejaVuSans-75" x="136.328125"/>
     <use xlink:href="#DejaVuSans-72" x="199.707031"/>
     <use xlink:href="#DejaVuSans-6f" x="238.570312"/>
     <use xlink:href="#DejaVuSans-6e" x="299.751953"/>
     <use xlink:href="#DejaVuSans-20" x="363.130859"/>
     <use xlink:href="#DejaVuSans-31" x="394.917969"/>
     <use xlink:href="#DejaVuSans-37" x="458.541016"/>
     <use xlink:href="#DejaVuSans-30" x="522.164062"/>
    </g>
   </g>
   <g id="legend_1">
    <g id="patch_7">
     <path d="M 310.04375 68.96925 
L 393.80375 68.96925 
Q 396.20375 68.96925 396.20375 66.56925 
L 396.20375 32.54175 
Q 396.20375 30.14175 393.80375 30.14175 
L 310.04375 30.14175 
Q 307.64375 30.14175 307.64375 32.54175 
L 307.64375 66.56925 
Q 307.64375 68.96925 310.04375 68.96925 
z
" style="fill: #ffffff; opacity: 0.8; stroke: #cccccc; stroke-linejoin: miter"/>
    </g>
    <g id="line2d_16">
     <path d="M 312.44375 39.859875 
L 324.44375 39.859875 
L 336.44375 39.859875 
" style="fill: none; stroke: #1f77b4; stroke-width: 1.5; stroke-linecap: square"/>
    </g>
    <g id="text_17">
     <!-- $d_z$ = 2 -->
     <g transform="translate(346.04375 44.059875) scale(0.12 -0.12)">
      <defs>
       <path id="DejaVuSans-Oblique-64" d="M 2675 525 
Q 2444 222 2128 65 
Q 1813 -91 1428 -91 
Q 903 -91 598 267 
Q 294 625 294 1247 
Q 294 1766 478 2236 
Q 663 2706 1013 3078 
Q 1244 3325 1534 3454 
Q 1825 3584 2144 3584 
Q 2481 3584 2739 3421 
Q 2997 3259 3138 2956 
L 3513 4863 
L 4091 4863 
L 3144 0 
L 2566 0 
L 2675 525 
z
M 891 1350 
Q 891 897 1095 644 
Q 1300 391 1663 391 
Q 1931 391 2161 520 
Q 2391 650 2566 903 
Q 2750 1166 2856 1509 
Q 2963 1853 2963 2188 
Q 2963 2622 2758 2865 
Q 2553 3109 2194 3109 
Q 1922 3109 1687 2981 
Q 1453 2853 1288 2613 
Q 1106 2353 998 2009 
Q 891 1666 891 1350 
z
" transform="scale(0.015625)"/>
       <path id="DejaVuSans-Oblique-7a" d="M 744 3500 
L 3475 3500 
L 3372 2975 
L 738 459 
L 2913 459 
L 2822 0 
L -19 0 
L 84 525 
L 2719 3041 
L 653 3041 
L 744 3500 
z
" transform="scale(0.015625)"/>
       <path id="DejaVuSans-3d" d="M 678 2906 
L 4684 2906 
L 4684 2381 
L 678 2381 
L 678 2906 
z
M 678 1631 
L 4684 1631 
L 4684 1100 
L 678 1100 
L 678 1631 
z
" transform="scale(0.015625)"/>
      </defs>
      <use xlink:href="#DejaVuSans-Oblique-64" transform="translate(0 0.015625)"/>
      <use xlink:href="#DejaVuSans-Oblique-7a" transform="translate(63.476562 -16.390625) scale(0.7)"/>
      <use xlink:href="#DejaVuSans-20" transform="translate(102.954102 0.015625)"/>
      <use xlink:href="#DejaVuSans-3d" transform="translate(134.741211 0.015625)"/>
      <use xlink:href="#DejaVuSans-20" transform="translate(218.530273 0.015625)"/>
      <use xlink:href="#DejaVuSans-32" transform="translate(250.317383 0.015625)"/>
     </g>
    </g>
    <g id="line2d_17">
     <path d="M 312.44375 57.473625 
L 324.44375 57.473625 
L 336.44375 57.473625 
" style="fill: none; stroke: #ff7f0e; stroke-width: 1.5; stroke-linecap: square"/>
    </g>
    <g id="text_18">
     <!-- $d_z$ = 10 -->
     <g transform="translate(346.04375 61.673625) scale(0.12 -0.12)">
      <use xlink:href="#DejaVuSans-Oblique-64" transform="translate(0 0.015625)"/>
      <use xlink:href="#DejaVuSans-Oblique-7a" transform="translate(63.476562 -16.390625) scale(0.7)"/>
      <use xlink:href="#DejaVuSans-20" transform="translate(102.954102 0.015625)"/>
      <use xlink:href="#DejaVuSans-3d" transform="translate(134.741211 0.015625)"/>
      <use xlink:href="#DejaVuSans-20" transform="translate(218.530273 0.015625)"/>
      <use xlink:href="#DejaVuSans-31" transform="translate(250.317383 0.015625)"/>
      <use xlink:href="#DejaVuSans-30" transform="translate(313.94043 0.015625)"/>
     </g>
    </g>
   </g>
  </g>
 </g>
 <defs>
  <clipPath id="p56690362a2">
   <rect x="45.08375" y="24.14175" width="357.12" height="266.112"/>
  </clipPath>
 </defs>
</svg>
