<?xml version="1.0" encoding="utf-8" standalone="no"?>
<!DOCTYPE svg PUBLIC "-//W3C//DTD SVG 1.1//EN"
  "http://www.w3.org/Graphics/SVG/1.1/DTD/svg11.dtd">
<svg xmlns:xlink="http://www.w3.org/1999/xlink" width="413.2175pt" height="314.7395pt" viewBox="0 0 413.2175 314.7395" xmlns="http://www.w3.org/2000/svg" version="1.1">
 <metadata>
  <rdf:RDF xmlns:dc="http://purl.org/dc/elements/1.1/" xmlns:cc="http://creativecommons.org/ns#" xmlns:rdf="http://www.w3.org/1999/02/22-rdf-syntax-ns#">
   <cc:Work>
    <dc:type rdf:resource="http://purl.org/dc/dcmitype/StillImage"/>
    <dc:date>2024-05-29T16:24:34.977100</dc:date>
    <dc:format>image/svg+xml</dc:format>
    <dc:creator>
     <cc:Agent>
      <dc:title>Matplotlib v3.7.2, https://matplotlib.org/</dc:title>
     </cc:Agent>
    </dc:creator>
   </cc:Work>
  </rdf:RDF>
 </metadata>
 <defs>
  <style type="text/css">*{stroke-linejoin: round; stroke-linecap: butt}</style>
 </defs>
 <g id="figure_1">
  <g id="patch_1">
   <path d="M 0 314.7395 
L 413.2175 314.7395 
L 413.2175 0 
L 0 0 
z
" style="fill: #ffffff"/>
  </g>
  <g id="axes_1">
   <g id="patch_2">
    <path d="M 48.8975 273.312 
L 406.0175 273.312 
L 406.0175 7.2 
L 48.8975 7.2 
z
" style="fill: #ffffff"/>
   </g>
   <g id="PathCollection_1">
    <defs>
     <path id="mb98bd3ac71" d="M 0 3 
C 0.795609 3 1.55874 2.683901 2.12132 2.12132 
C 2.683901 1.55874 3 0.795609 3 0 
C 3 -0.795609 2.683901 -1.55874 2.12132 -2.12132 
C 1.55874 -2.683901 0.795609 -3 0 -3 
C -0.795609 -3 -1.55874 -2.683901 -2.12132 -2.12132 
C -2.683901 -1.55874 -3 -0.795609 -3 0 
C -3 0.795609 -2.683901 1.55874 -2.12132 2.12132 
C -1.55874 2.683901 -0.795609 3 0 3 
z
" style="stroke: #1f77b4"/>
    </defs>
    <g clip-path="url(#pe57e9bd831)">
     <use xlink:href="#mb98bd3ac71" x="105.170955" y="53.25526" style="fill: #1f77b4; stroke: #1f77b4"/>
    </g>
   </g>
   <g id="PathCollection_2">
    <defs>
     <path id="m142ad29818" d="M 0 3 
C 0.795609 3 1.55874 2.683901 2.12132 2.12132 
C 2.683901 1.55874 3 0.795609 3 0 
C 3 -0.795609 2.683901 -1.55874 2.12132 -2.12132 
C 1.55874 -2.683901 0.795609 -3 0 -3 
C -0.795609 -3 -1.55874 -2.683901 -2.12132 -2.12132 
C -2.683901 -1.55874 -3 -0.795609 -3 0 
C -3 0.795609 -2.683901 1.55874 -2.12132 2.12132 
C -1.55874 2.683901 -0.795609 3 0 3 
z
" style="stroke: #ff7f0e"/>
    </defs>
    <g clip-path="url(#pe57e9bd831)">
     <use xlink:href="#m142ad29818" x="135.472045" y="19.296" style="fill: #ff7f0e; stroke: #ff7f0e"/>
    </g>
   </g>
   <g id="PathCollection_3">
    <defs>
     <path id="m133b0bfd71" d="M 0 3 
C 0.795609 3 1.55874 2.683901 2.12132 2.12132 
C 2.683901 1.55874 3 0.795609 3 0 
C 3 -0.795609 2.683901 -1.55874 2.12132 -2.12132 
C 1.55874 -2.683901 0.795609 -3 0 -3 
C -0.795609 -3 -1.55874 -2.683901 -2.12132 -2.12132 
C -2.683901 -1.55874 -3 -0.795609 -3 0 
C -3 0.795609 -2.683901 1.55874 -2.12132 2.12132 
C -1.55874 2.683901 -0.795609 3 0 3 
z
" style="stroke: #2ca02c"/>
    </defs>
    <g clip-path="url(#pe57e9bd831)">
     <use xlink:href="#m133b0bfd71" x="389.784773" y="62.700287" style="fill: #2ca02c; stroke: #2ca02c"/>
    </g>
   </g>
   <g id="PathCollection_4">
    <defs>
     <path id="mcd8a8195b3" d="M 0 3 
C 0.795609 3 1.55874 2.683901 2.12132 2.12132 
C 2.683901 1.55874 3 0.795609 3 0 
C 3 -0.795609 2.683901 -1.55874 2.12132 -2.12132 
C 1.55874 -2.683901 0.795609 -3 0 -3 
C -0.795609 -3 -1.55874 -2.683901 -2.12132 -2.12132 
C -2.683901 -1.55874 -3 -0.795609 -3 0 
C -3 0.795609 -2.683901 1.55874 -2.12132 2.12132 
C -1.55874 2.683901 -0.795609 3 0 3 
z
" style="stroke: #d62728"/>
    </defs>
    <g clip-path="url(#pe57e9bd831)">
     <use xlink:href="#mcd8a8195b3" x="389.784773" y="35.547829" style="fill: #d62728; stroke: #d62728"/>
    </g>
   </g>
   <g id="matplotlib.axis_1">
    <g id="xtick_1">
     <g id="line2d_1">
      <defs>
       <path id="m63decc082a" d="M 0 0 
L 0 3.5 
" style="stroke: #000000; stroke-width: 0.8"/>
      </defs>
      <g>
       <use xlink:href="#m63decc082a" x="65.130227" y="273.312" style="stroke: #000000; stroke-width: 0.8"/>
      </g>
     </g>
     <g id="text_1">
      <!-- 0 -->
      <g transform="translate(61.312727 289.430125) scale(0.12 -0.12)">
       <defs>
        <path id="DejaVuSans-30" d="M 2034 4250 
Q 1547 4250 1301 3770 
Q 1056 3291 1056 2328 
Q 1056 1369 1301 889 
Q 1547 409 2034 409 
Q 2525 409 2770 889 
Q 3016 1369 3016 2328 
Q 3016 3291 2770 3770 
Q 2525 4250 2034 4250 
z
M 2034 4750 
Q 2819 4750 3233 4129 
Q 3647 3509 3647 2328 
Q 3647 1150 3233 529 
Q 2819 -91 2034 -91 
Q 1250 -91 836 529 
Q 422 1150 422 2328 
Q 422 3509 836 4129 
Q 1250 4750 2034 4750 
z
" transform="scale(0.015625)"/>
       </defs>
       <use xlink:href="#DejaVuSans-30"/>
      </g>
     </g>
    </g>
    <g id="xtick_2">
     <g id="line2d_2">
      <g>
       <use xlink:href="#m63decc082a" x="119.239318" y="273.312" style="stroke: #000000; stroke-width: 0.8"/>
      </g>
     </g>
     <g id="text_2">
      <!-- 50 -->
      <g transform="translate(111.604318 289.430125) scale(0.12 -0.12)">
       <defs>
        <path id="DejaVuSans-35" d="M 691 4666 
L 3169 4666 
L 3169 4134 
L 1269 4134 
L 1269 2991 
Q 1406 3038 1543 3061 
Q 1681 3084 1819 3084 
Q 2600 3084 3056 2656 
Q 3513 2228 3513 1497 
Q 3513 744 3044 326 
Q 2575 -91 1722 -91 
Q 1428 -91 1123 -41 
Q 819 9 494 109 
L 494 744 
Q 775 591 1075 516 
Q 1375 441 1709 441 
Q 2250 441 2565 725 
Q 2881 1009 2881 1497 
Q 2881 1984 2565 2268 
Q 2250 2553 1709 2553 
Q 1456 2553 1204 2497 
Q 953 2441 691 2322 
L 691 4666 
z
" transform="scale(0.015625)"/>
       </defs>
       <use xlink:href="#DejaVuSans-35"/>
       <use xlink:href="#DejaVuSans-30" x="63.623047"/>
      </g>
     </g>
    </g>
    <g id="xtick_3">
     <g id="line2d_3">
      <g>
       <use xlink:href="#m63decc082a" x="173.348409" y="273.312" style="stroke: #000000; stroke-width: 0.8"/>
      </g>
     </g>
     <g id="text_3">
      <!-- 100 -->
      <g transform="translate(161.895909 289.430125) scale(0.12 -0.12)">
       <defs>
        <path id="DejaVuSans-31" d="M 794 531 
L 1825 531 
L 1825 4091 
L 703 3866 
L 703 4441 
L 1819 4666 
L 2450 4666 
L 2450 531 
L 3481 531 
L 3481 0 
L 794 0 
L 794 531 
z
" transform="scale(0.015625)"/>
       </defs>
       <use xlink:href="#DejaVuSans-31"/>
       <use xlink:href="#DejaVuSans-30" x="63.623047"/>
       <use xlink:href="#DejaVuSans-30" x="127.246094"/>
      </g>
     </g>
    </g>
    <g id="xtick_4">
     <g id="line2d_4">
      <g>
       <use xlink:href="#m63decc082a" x="227.4575" y="273.312" style="stroke: #000000; stroke-width: 0.8"/>
      </g>
     </g>
     <g id="text_4">
      <!-- 150 -->
      <g transform="translate(216.005 289.430125) scale(0.12 -0.12)">
       <use xlink:href="#DejaVuSans-31"/>
       <use xlink:href="#DejaVuSans-35" x="63.623047"/>
       <use xlink:href="#DejaVuSans-30" x="127.246094"/>
      </g>
     </g>
    </g>
    <g id="xtick_5">
     <g id="line2d_5">
      <g>
       <use xlink:href="#m63decc082a" x="281.566591" y="273.312" style="stroke: #000000; stroke-width: 0.8"/>
      </g>
     </g>
     <g id="text_5">
      <!-- 200 -->
      <g transform="translate(270.114091 289.430125) scale(0.12 -0.12)">
       <defs>
        <path id="DejaVuSans-32" d="M 1228 531 
L 3431 531 
L 3431 0 
L 469 0 
L 469 531 
Q 828 903 1448 1529 
Q 2069 2156 2228 2338 
Q 2531 2678 2651 2914 
Q 2772 3150 2772 3378 
Q 2772 3750 2511 3984 
Q 2250 4219 1831 4219 
Q 1534 4219 1204 4116 
Q 875 4013 500 3803 
L 500 4441 
Q 881 4594 1212 4672 
Q 1544 4750 1819 4750 
Q 2544 4750 2975 4387 
Q 3406 4025 3406 3419 
Q 3406 3131 3298 2873 
Q 3191 2616 2906 2266 
Q 2828 2175 2409 1742 
Q 1991 1309 1228 531 
z
" transform="scale(0.015625)"/>
       </defs>
       <use xlink:href="#DejaVuSans-32"/>
       <use xlink:href="#DejaVuSans-30" x="63.623047"/>
       <use xlink:href="#DejaVuSans-30" x="127.246094"/>
      </g>
     </g>
    </g>
    <g id="xtick_6">
     <g id="line2d_6">
      <g>
       <use xlink:href="#m63decc082a" x="335.675682" y="273.312" style="stroke: #000000; stroke-width: 0.8"/>
      </g>
     </g>
     <g id="text_6">
      <!-- 250 -->
      <g transform="translate(324.223182 289.430125) scale(0.12 -0.12)">
       <use xlink:href="#DejaVuSans-32"/>
       <use xlink:href="#DejaVuSans-35" x="63.623047"/>
       <use xlink:href="#DejaVuSans-30" x="127.246094"/>
      </g>
     </g>
    </g>
    <g id="xtick_7">
     <g id="line2d_7">
      <g>
       <use xlink:href="#m63decc082a" x="389.784773" y="273.312" style="stroke: #000000; stroke-width: 0.8"/>
      </g>
     </g>
     <g id="text_7">
      <!-- 300 -->
      <g transform="translate(378.332273 289.430125) scale(0.12 -0.12)">
       <defs>
        <path id="DejaVuSans-33" d="M 2597 2516 
Q 3050 2419 3304 2112 
Q 3559 1806 3559 1356 
Q 3559 666 3084 287 
Q 2609 -91 1734 -91 
Q 1441 -91 1130 -33 
Q 819 25 488 141 
L 488 750 
Q 750 597 1062 519 
Q 1375 441 1716 441 
Q 2309 441 2620 675 
Q 2931 909 2931 1356 
Q 2931 1769 2642 2001 
Q 2353 2234 1838 2234 
L 1294 2234 
L 1294 2753 
L 1863 2753 
Q 2328 2753 2575 2939 
Q 2822 3125 2822 3475 
Q 2822 3834 2567 4026 
Q 2313 4219 1838 4219 
Q 1578 4219 1281 4162 
Q 984 4106 628 3988 
L 628 4550 
Q 988 4650 1302 4700 
Q 1616 4750 1894 4750 
Q 2613 4750 3031 4423 
Q 3450 4097 3450 3541 
Q 3450 3153 3228 2886 
Q 3006 2619 2597 2516 
z
" transform="scale(0.015625)"/>
       </defs>
       <use xlink:href="#DejaVuSans-33"/>
       <use xlink:href="#DejaVuSans-30" x="63.623047"/>
       <use xlink:href="#DejaVuSans-30" x="127.246094"/>
      </g>
     </g>
    </g>
    <g id="text_8">
     <!-- Training Iteration -->
     <g transform="translate(176.429375 305.043875) scale(0.12 -0.12)">
      <defs>
       <path id="DejaVuSans-54" d="M -19 4666 
L 3928 4666 
L 3928 4134 
L 2272 4134 
L 2272 0 
L 1638 0 
L 1638 4134 
L -19 4134 
L -19 4666 
z
" transform="scale(0.015625)"/>
       <path id="DejaVuSans-72" d="M 2631 2963 
Q 2534 3019 2420 3045 
Q 2306 3072 2169 3072 
Q 1681 3072 1420 2755 
Q 1159 2438 1159 1844 
L 1159 0 
L 581 0 
L 581 3500 
L 1159 3500 
L 1159 2956 
Q 1341 3275 1631 3429 
Q 1922 3584 2338 3584 
Q 2397 3584 2469 3576 
Q 2541 3569 2628 3553 
L 2631 2963 
z
" transform="scale(0.015625)"/>
       <path id="DejaVuSans-61" d="M 2194 1759 
Q 1497 1759 1228 1600 
Q 959 1441 959 1056 
Q 959 750 1161 570 
Q 1363 391 1709 391 
Q 2188 391 2477 730 
Q 2766 1069 2766 1631 
L 2766 1759 
L 2194 1759 
z
M 3341 1997 
L 3341 0 
L 2766 0 
L 2766 531 
Q 2569 213 2275 61 
Q 1981 -91 1556 -91 
Q 1019 -91 701 211 
Q 384 513 384 1019 
Q 384 1609 779 1909 
Q 1175 2209 1959 2209 
L 2766 2209 
L 2766 2266 
Q 2766 2663 2505 2880 
Q 2244 3097 1772 3097 
Q 1472 3097 1187 3025 
Q 903 2953 641 2809 
L 641 3341 
Q 956 3463 1253 3523 
Q 1550 3584 1831 3584 
Q 2591 3584 2966 3190 
Q 3341 2797 3341 1997 
z
" transform="scale(0.015625)"/>
       <path id="DejaVuSans-69" d="M 603 3500 
L 1178 3500 
L 1178 0 
L 603 0 
L 603 3500 
z
M 603 4863 
L 1178 4863 
L 1178 4134 
L 603 4134 
L 603 4863 
z
" transform="scale(0.015625)"/>
       <path id="DejaVuSans-6e" d="M 3513 2113 
L 3513 0 
L 2938 0 
L 2938 2094 
Q 2938 2591 2744 2837 
Q 2550 3084 2163 3084 
Q 1697 3084 1428 2787 
Q 1159 2491 1159 1978 
L 1159 0 
L 581 0 
L 581 3500 
L 1159 3500 
L 1159 2956 
Q 1366 3272 1645 3428 
Q 1925 3584 2291 3584 
Q 2894 3584 3203 3211 
Q 3513 2838 3513 2113 
z
" transform="scale(0.015625)"/>
       <path id="DejaVuSans-67" d="M 2906 1791 
Q 2906 2416 2648 2759 
Q 2391 3103 1925 3103 
Q 1463 3103 1205 2759 
Q 947 2416 947 1791 
Q 947 1169 1205 825 
Q 1463 481 1925 481 
Q 2391 481 2648 825 
Q 2906 1169 2906 1791 
z
M 3481 434 
Q 3481 -459 3084 -895 
Q 2688 -1331 1869 -1331 
Q 1566 -1331 1297 -1286 
Q 1028 -1241 775 -1147 
L 775 -588 
Q 1028 -725 1275 -790 
Q 1522 -856 1778 -856 
Q 2344 -856 2625 -561 
Q 2906 -266 2906 331 
L 2906 616 
Q 2728 306 2450 153 
Q 2172 0 1784 0 
Q 1141 0 747 490 
Q 353 981 353 1791 
Q 353 2603 747 3093 
Q 1141 3584 1784 3584 
Q 2172 3584 2450 3431 
Q 2728 3278 2906 2969 
L 2906 3500 
L 3481 3500 
L 3481 434 
z
" transform="scale(0.015625)"/>
       <path id="DejaVuSans-20" transform="scale(0.015625)"/>
       <path id="DejaVuSans-49" d="M 628 4666 
L 1259 4666 
L 1259 0 
L 628 0 
L 628 4666 
z
" transform="scale(0.015625)"/>
       <path id="DejaVuSans-74" d="M 1172 4494 
L 1172 3500 
L 2356 3500 
L 2356 3053 
L 1172 3053 
L 1172 1153 
Q 1172 725 1289 603 
Q 1406 481 1766 481 
L 2356 481 
L 2356 0 
L 1766 0 
Q 1100 0 847 248 
Q 594 497 594 1153 
L 594 3053 
L 172 3053 
L 172 3500 
L 594 3500 
L 594 4494 
L 1172 4494 
z
" transform="scale(0.015625)"/>
       <path id="DejaVuSans-65" d="M 3597 1894 
L 3597 1613 
L 953 1613 
Q 991 1019 1311 708 
Q 1631 397 2203 397 
Q 2534 397 2845 478 
Q 3156 559 3463 722 
L 3463 178 
Q 3153 47 2828 -22 
Q 2503 -91 2169 -91 
Q 1331 -91 842 396 
Q 353 884 353 1716 
Q 353 2575 817 3079 
Q 1281 3584 2069 3584 
Q 2775 3584 3186 3129 
Q 3597 2675 3597 1894 
z
M 3022 2063 
Q 3016 2534 2758 2815 
Q 2500 3097 2075 3097 
Q 1594 3097 1305 2825 
Q 1016 2553 972 2059 
L 3022 2063 
z
" transform="scale(0.015625)"/>
       <path id="DejaVuSans-6f" d="M 1959 3097 
Q 1497 3097 1228 2736 
Q 959 2375 959 1747 
Q 959 1119 1226 758 
Q 1494 397 1959 397 
Q 2419 397 2687 759 
Q 2956 1122 2956 1747 
Q 2956 2369 2687 2733 
Q 2419 3097 1959 3097 
z
M 1959 3584 
Q 2709 3584 3137 3096 
Q 3566 2609 3566 1747 
Q 3566 888 3137 398 
Q 2709 -91 1959 -91 
Q 1206 -91 779 398 
Q 353 888 353 1747 
Q 353 2609 779 3096 
Q 1206 3584 1959 3584 
z
" transform="scale(0.015625)"/>
      </defs>
      <use xlink:href="#DejaVuSans-54"/>
      <use xlink:href="#DejaVuSans-72" x="46.333984"/>
      <use xlink:href="#DejaVuSans-61" x="87.447266"/>
      <use xlink:href="#DejaVuSans-69" x="148.726562"/>
      <use xlink:href="#DejaVuSans-6e" x="176.509766"/>
      <use xlink:href="#DejaVuSans-69" x="239.888672"/>
      <use xlink:href="#DejaVuSans-6e" x="267.671875"/>
      <use xlink:href="#DejaVuSans-67" x="331.050781"/>
      <use xlink:href="#DejaVuSans-20" x="394.527344"/>
      <use xlink:href="#DejaVuSans-49" x="426.314453"/>
      <use xlink:href="#DejaVuSans-74" x="455.806641"/>
      <use xlink:href="#DejaVuSans-65" x="495.015625"/>
      <use xlink:href="#DejaVuSans-72" x="556.539062"/>
      <use xlink:href="#DejaVuSans-61" x="597.652344"/>
      <use xlink:href="#DejaVuSans-74" x="658.931641"/>
      <use xlink:href="#DejaVuSans-69" x="698.140625"/>
      <use xlink:href="#DejaVuSans-6f" x="725.923828"/>
      <use xlink:href="#DejaVuSans-6e" x="787.105469"/>
     </g>
    </g>
   </g>
   <g id="matplotlib.axis_2">
    <g id="ytick_1">
     <g id="line2d_8">
      <defs>
       <path id="m8beb296d18" d="M 0 0 
L -3.5 0 
" style="stroke: #000000; stroke-width: 0.8"/>
      </defs>
      <g>
       <use xlink:href="#m8beb296d18" x="48.8975" y="241.164219" style="stroke: #000000; stroke-width: 0.8"/>
      </g>
     </g>
     <g id="text_9">
      <!-- 0.2 -->
      <g transform="translate(22.81375 245.723281) scale(0.12 -0.12)">
       <defs>
        <path id="DejaVuSans-2e" d="M 684 794 
L 1344 794 
L 1344 0 
L 684 0 
L 684 794 
z
" transform="scale(0.015625)"/>
       </defs>
       <use xlink:href="#DejaVuSans-30"/>
       <use xlink:href="#DejaVuSans-2e" x="63.623047"/>
       <use xlink:href="#DejaVuSans-32" x="95.410156"/>
      </g>
     </g>
    </g>
    <g id="ytick_2">
     <g id="line2d_9">
      <g>
       <use xlink:href="#m8beb296d18" x="48.8975" y="203.946378" style="stroke: #000000; stroke-width: 0.8"/>
      </g>
     </g>
     <g id="text_10">
      <!-- 0.3 -->
      <g transform="translate(22.81375 208.50544) scale(0.12 -0.12)">
       <use xlink:href="#DejaVuSans-30"/>
       <use xlink:href="#DejaVuSans-2e" x="63.623047"/>
       <use xlink:href="#DejaVuSans-33" x="95.410156"/>
      </g>
     </g>
    </g>
    <g id="ytick_3">
     <g id="line2d_10">
      <g>
       <use xlink:href="#m8beb296d18" x="48.8975" y="166.728537" style="stroke: #000000; stroke-width: 0.8"/>
      </g>
     </g>
     <g id="text_11">
      <!-- 0.4 -->
      <g transform="translate(22.81375 171.287599) scale(0.12 -0.12)">
       <defs>
        <path id="DejaVuSans-34" d="M 2419 4116 
L 825 1625 
L 2419 1625 
L 2419 4116 
z
M 2253 4666 
L 3047 4666 
L 3047 1625 
L 3713 1625 
L 3713 1100 
L 3047 1100 
L 3047 0 
L 2419 0 
L 2419 1100 
L 313 1100 
L 313 1709 
L 2253 4666 
z
" transform="scale(0.015625)"/>
       </defs>
       <use xlink:href="#DejaVuSans-30"/>
       <use xlink:href="#DejaVuSans-2e" x="63.623047"/>
       <use xlink:href="#DejaVuSans-34" x="95.410156"/>
      </g>
     </g>
    </g>
    <g id="ytick_4">
     <g id="line2d_11">
      <g>
       <use xlink:href="#m8beb296d18" x="48.8975" y="129.510696" style="stroke: #000000; stroke-width: 0.8"/>
      </g>
     </g>
     <g id="text_12">
      <!-- 0.5 -->
      <g transform="translate(22.81375 134.069758) scale(0.12 -0.12)">
       <use xlink:href="#DejaVuSans-30"/>
       <use xlink:href="#DejaVuSans-2e" x="63.623047"/>
       <use xlink:href="#DejaVuSans-35" x="95.410156"/>
      </g>
     </g>
    </g>
    <g id="ytick_5">
     <g id="line2d_12">
      <g>
       <use xlink:href="#m8beb296d18" x="48.8975" y="92.292855" style="stroke: #000000; stroke-width: 0.8"/>
      </g>
     </g>
     <g id="text_13">
      <!-- 0.6 -->
      <g transform="translate(22.81375 96.851917) scale(0.12 -0.12)">
       <defs>
        <path id="DejaVuSans-36" d="M 2113 2584 
Q 1688 2584 1439 2293 
Q 1191 2003 1191 1497 
Q 1191 994 1439 701 
Q 1688 409 2113 409 
Q 2538 409 2786 701 
Q 3034 994 3034 1497 
Q 3034 2003 2786 2293 
Q 2538 2584 2113 2584 
z
M 3366 4563 
L 3366 3988 
Q 3128 4100 2886 4159 
Q 2644 4219 2406 4219 
Q 1781 4219 1451 3797 
Q 1122 3375 1075 2522 
Q 1259 2794 1537 2939 
Q 1816 3084 2150 3084 
Q 2853 3084 3261 2657 
Q 3669 2231 3669 1497 
Q 3669 778 3244 343 
Q 2819 -91 2113 -91 
Q 1303 -91 875 529 
Q 447 1150 447 2328 
Q 447 3434 972 4092 
Q 1497 4750 2381 4750 
Q 2619 4750 2861 4703 
Q 3103 4656 3366 4563 
z
" transform="scale(0.015625)"/>
       </defs>
       <use xlink:href="#DejaVuSans-30"/>
       <use xlink:href="#DejaVuSans-2e" x="63.623047"/>
       <use xlink:href="#DejaVuSans-36" x="95.410156"/>
      </g>
     </g>
    </g>
    <g id="ytick_6">
     <g id="line2d_13">
      <g>
       <use xlink:href="#m8beb296d18" x="48.8975" y="55.075013" style="stroke: #000000; stroke-width: 0.8"/>
      </g>
     </g>
     <g id="text_14">
      <!-- 0.7 -->
      <g transform="translate(22.81375 59.634076) scale(0.12 -0.12)">
       <defs>
        <path id="DejaVuSans-37" d="M 525 4666 
L 3525 4666 
L 3525 4397 
L 1831 0 
L 1172 0 
L 2766 4134 
L 525 4134 
L 525 4666 
z
" transform="scale(0.015625)"/>
       </defs>
       <use xlink:href="#DejaVuSans-30"/>
       <use xlink:href="#DejaVuSans-2e" x="63.623047"/>
       <use xlink:href="#DejaVuSans-37" x="95.410156"/>
      </g>
     </g>
    </g>
    <g id="ytick_7">
     <g id="line2d_14">
      <g>
       <use xlink:href="#m8beb296d18" x="48.8975" y="17.857172" style="stroke: #000000; stroke-width: 0.8"/>
      </g>
     </g>
     <g id="text_15">
      <!-- 0.8 -->
      <g transform="translate(22.81375 22.416235) scale(0.12 -0.12)">
       <defs>
        <path id="DejaVuSans-38" d="M 2034 2216 
Q 1584 2216 1326 1975 
Q 1069 1734 1069 1313 
Q 1069 891 1326 650 
Q 1584 409 2034 409 
Q 2484 409 2743 651 
Q 3003 894 3003 1313 
Q 3003 1734 2745 1975 
Q 2488 2216 2034 2216 
z
M 1403 2484 
Q 997 2584 770 2862 
Q 544 3141 544 3541 
Q 544 4100 942 4425 
Q 1341 4750 2034 4750 
Q 2731 4750 3128 4425 
Q 3525 4100 3525 3541 
Q 3525 3141 3298 2862 
Q 3072 2584 2669 2484 
Q 3125 2378 3379 2068 
Q 3634 1759 3634 1313 
Q 3634 634 3220 271 
Q 2806 -91 2034 -91 
Q 1263 -91 848 271 
Q 434 634 434 1313 
Q 434 1759 690 2068 
Q 947 2378 1403 2484 
z
M 1172 3481 
Q 1172 3119 1398 2916 
Q 1625 2713 2034 2713 
Q 2441 2713 2670 2916 
Q 2900 3119 2900 3481 
Q 2900 3844 2670 4047 
Q 2441 4250 2034 4250 
Q 1625 4250 1398 4047 
Q 1172 3844 1172 3481 
z
" transform="scale(0.015625)"/>
       </defs>
       <use xlink:href="#DejaVuSans-30"/>
       <use xlink:href="#DejaVuSans-2e" x="63.623047"/>
       <use xlink:href="#DejaVuSans-38" x="95.410156"/>
      </g>
     </g>
    </g>
    <g id="text_16">
     <!-- $R^2$ -->
     <g transform="translate(16.318125 147.696) rotate(-90) scale(0.12 -0.12)">
      <defs>
       <path id="DejaVuSans-Oblique-52" d="M 1613 4147 
L 1294 2491 
L 2106 2491 
Q 2584 2491 2879 2755 
Q 3175 3019 3175 3444 
Q 3175 3784 2976 3965 
Q 2778 4147 2406 4147 
L 1613 4147 
z
M 2772 2241 
Q 2972 2194 3105 2009 
Q 3238 1825 3413 1275 
L 3809 0 
L 3144 0 
L 2778 1197 
Q 2638 1659 2453 1815 
Q 2269 1972 1888 1972 
L 1191 1972 
L 806 0 
L 172 0 
L 1081 4666 
L 2503 4666 
Q 3150 4666 3495 4373 
Q 3841 4081 3841 3531 
Q 3841 3044 3547 2687 
Q 3253 2331 2772 2241 
z
" transform="scale(0.015625)"/>
      </defs>
      <use xlink:href="#DejaVuSans-Oblique-52" transform="translate(0 0.765625)"/>
      <use xlink:href="#DejaVuSans-32" transform="translate(76.499193 39.046875) scale(0.7)"/>
     </g>
    </g>
   </g>
   <g id="line2d_15">
    <path d="M 65.130227 259.598251 
L 66.212409 212.427251 
L 67.294591 204.707734 
L 68.376773 185.864719 
L 69.458955 182.059641 
L 70.541136 142.651107 
L 71.623318 121.70788 
L 72.7055 105.815688 
L 73.787682 98.343235 
L 74.869864 77.464503 
L 75.952045 72.654786 
L 77.034227 84.547265 
L 78.116409 81.992424 
L 79.198591 60.596634 
L 80.280773 73.611342 
L 81.362955 57.502252 
L 82.445136 64.653011 
L 83.527318 53.548889 
L 84.6095 63.366821 
L 85.691682 71.205724 
L 86.773864 55.684651 
L 87.856045 56.537565 
L 88.938227 62.04831 
L 90.020409 59.546484 
L 91.102591 58.814735 
L 92.184773 57.217992 
L 93.266955 62.390752 
L 94.349136 56.978353 
L 95.431318 59.962671 
L 96.5135 56.626758 
L 97.595682 60.126447 
L 98.677864 54.436588 
L 99.760045 72.662061 
L 100.842227 54.321545 
L 101.924409 55.919248 
L 103.006591 73.482666 
L 104.088773 60.337195 
L 105.170955 53.25526 
L 106.253136 77.126881 
L 107.335318 58.032579 
L 108.4175 60.399313 
L 109.499682 71.238461 
L 110.581864 61.067428 
L 112.746227 74.769039 
L 113.828409 66.565952 
L 114.910591 72.721761 
L 115.992773 64.257705 
L 117.074955 70.777221 
L 118.157136 67.038342 
L 119.239318 68.810204 
L 120.3215 61.749705 
L 121.403682 67.817974 
L 122.485864 63.243288 
L 123.568045 70.783854 
L 124.650227 63.401041 
L 125.732409 68.940355 
L 126.814591 66.584836 
L 127.896773 80.116057 
L 128.978955 66.35186 
L 130.061136 69.850423 
L 131.143318 70.07722 
L 132.2255 69.749124 
L 133.307682 68.912041 
L 134.389864 80.98302 
L 135.472045 72.563468 
L 136.554227 78.340504 
L 137.636409 78.156732 
L 138.718591 69.344613 
L 139.800773 81.10646 
L 140.882955 75.707995 
L 141.965136 79.43462 
L 143.047318 76.588811 
L 144.1295 81.957324 
L 145.211682 74.676266 
L 147.376045 64.163466 
L 148.458227 77.151022 
L 149.540409 67.941314 
L 150.622591 76.123893 
L 151.704773 75.879733 
L 152.786955 70.919639 
L 153.869136 68.466334 
L 154.951318 72.062593 
L 156.0335 73.761933 
L 157.115682 73.380377 
L 158.197864 81.413871 
L 159.280045 75.528927 
L 160.362227 83.521314 
L 161.444409 74.974879 
L 162.526591 65.518039 
L 163.608773 65.878961 
L 164.690955 71.636344 
L 166.855318 77.235479 
L 167.9375 77.37091 
L 169.019682 68.782361 
L 170.101864 75.27151 
L 171.184045 73.374139 
L 172.266227 74.886093 
L 173.348409 70.442462 
L 174.430591 72.748154 
L 175.512773 71.768199 
L 176.594955 78.670694 
L 177.677136 77.687101 
L 178.759318 67.616854 
L 179.8415 73.175528 
L 180.923682 71.12362 
L 182.005864 69.372947 
L 183.088045 76.501551 
L 184.170227 74.750634 
L 185.252409 87.053424 
L 186.334591 72.621183 
L 187.416773 71.034755 
L 188.498955 73.557889 
L 189.581136 69.945487 
L 190.663318 77.435405 
L 191.7455 66.812919 
L 192.827682 79.977797 
L 193.909864 73.420173 
L 194.992045 76.965397 
L 196.074227 66.985355 
L 197.156409 69.376744 
L 198.238591 74.1807 
L 199.320773 77.928833 
L 200.402955 68.308516 
L 201.485136 68.649335 
L 202.567318 65.620841 
L 203.6495 73.034273 
L 204.731682 74.70858 
L 205.813864 82.371848 
L 206.896045 71.631164 
L 207.978227 67.785687 
L 209.060409 69.100813 
L 210.142591 73.419819 
L 211.224773 71.624523 
L 212.306955 67.973356 
L 213.389136 73.093467 
L 214.471318 71.937864 
L 215.5535 64.253778 
L 216.635682 69.497396 
L 217.717864 65.263941 
L 218.800045 67.742477 
L 219.882227 72.894565 
L 220.964409 74.448697 
L 222.046591 71.470969 
L 223.128773 73.829216 
L 224.210955 62.571921 
L 225.293136 76.29246 
L 226.375318 73.34225 
L 227.4575 69.961753 
L 228.539682 72.814414 
L 229.621864 69.362125 
L 230.704045 71.3336 
L 231.786227 63.293734 
L 232.868409 77.907565 
L 233.950591 71.080857 
L 235.032773 69.294112 
L 236.114955 68.328388 
L 237.197136 74.552555 
L 238.279318 75.569815 
L 239.3615 73.798235 
L 240.443682 69.61007 
L 241.525864 67.820092 
L 242.608045 78.222673 
L 243.690227 78.067672 
L 244.772409 66.888501 
L 245.854591 68.189461 
L 246.936773 71.898753 
L 248.018955 71.952284 
L 249.101136 64.230324 
L 250.183318 64.113974 
L 251.2655 68.151653 
L 252.347682 67.996464 
L 253.429864 68.300314 
L 254.512045 65.712554 
L 255.594227 71.035096 
L 256.676409 65.377431 
L 257.758591 65.753383 
L 258.840773 71.526209 
L 259.922955 61.806279 
L 261.005136 68.206392 
L 262.087318 68.043624 
L 263.1695 75.511294 
L 264.251682 70.108043 
L 265.333864 70.083602 
L 266.416045 70.648113 
L 267.498227 62.767709 
L 268.580409 64.770536 
L 269.662591 65.929472 
L 270.744773 61.607068 
L 271.826955 70.080191 
L 272.909136 60.841993 
L 273.991318 61.853916 
L 275.0735 67.413433 
L 276.155682 61.218405 
L 277.237864 68.790493 
L 278.320045 72.769119 
L 279.402227 82.218265 
L 280.484409 68.337046 
L 281.566591 79.628182 
L 282.648773 60.563526 
L 283.730955 71.926618 
L 284.813136 71.517753 
L 285.895318 67.79229 
L 286.9775 64.863305 
L 288.059682 74.758875 
L 289.141864 65.206618 
L 290.224045 72.934536 
L 291.306227 64.975394 
L 292.388409 68.525853 
L 293.470591 63.848528 
L 294.552773 65.809419 
L 295.634955 65.292949 
L 296.717136 68.647798 
L 297.799318 63.469089 
L 298.8815 67.155206 
L 299.963682 64.364942 
L 301.045864 67.785233 
L 302.128045 64.589672 
L 303.210227 69.605944 
L 304.292409 63.586228 
L 305.374591 72.209657 
L 306.456773 64.508979 
L 307.538955 68.174813 
L 308.621136 65.833769 
L 309.703318 65.04816 
L 310.7855 64.783189 
L 311.867682 67.166817 
L 312.949864 70.034001 
L 314.032045 61.117176 
L 315.114227 70.847946 
L 316.196409 66.528153 
L 317.278591 65.810584 
L 318.360773 62.068983 
L 319.442955 65.360489 
L 320.525136 70.648388 
L 322.6895 64.673945 
L 323.771682 73.070517 
L 324.853864 63.967433 
L 325.936045 68.576174 
L 327.018227 63.314094 
L 328.100409 57.248512 
L 329.182591 69.936098 
L 330.264773 70.046589 
L 331.346955 62.365194 
L 332.429136 72.07164 
L 333.511318 68.102186 
L 334.5935 65.913395 
L 335.675682 64.653199 
L 336.757864 78.998761 
L 337.840045 64.685794 
L 338.922227 59.734661 
L 340.004409 72.987047 
L 341.086591 66.952182 
L 342.168773 62.363556 
L 343.250955 64.759425 
L 344.333136 64.856718 
L 345.415318 67.570313 
L 346.4975 69.102989 
L 347.579682 68.320012 
L 348.661864 64.504036 
L 349.744045 72.875518 
L 350.826227 62.503392 
L 351.908409 64.066006 
L 352.990591 72.759054 
L 354.072773 62.760585 
L 355.154955 66.158552 
L 356.237136 64.771945 
L 357.319318 71.657296 
L 358.4015 70.890925 
L 359.483682 67.167048 
L 360.565864 69.249611 
L 361.648045 73.285177 
L 362.730227 66.027233 
L 363.812409 77.033485 
L 364.894591 73.130535 
L 365.976773 63.429117 
L 367.058955 64.223045 
L 368.141136 61.69973 
L 369.223318 68.143339 
L 370.3055 64.418365 
L 371.387682 63.900345 
L 372.469864 67.681398 
L 373.552045 68.306371 
L 374.634227 65.046066 
L 375.716409 66.095744 
L 376.798591 62.634257 
L 377.880773 68.552804 
L 378.962955 69.415833 
L 380.045136 61.165217 
L 381.127318 67.631603 
L 382.2095 68.026 
L 383.291682 64.884571 
L 384.373864 73.046711 
L 385.456045 64.168762 
L 386.538227 68.165309 
L 389.784773 62.700287 
L 389.784773 62.700287 
" clip-path="url(#pe57e9bd831)" style="fill: none; stroke: #1f77b4; stroke-width: 1.5; stroke-linecap: square"/>
   </g>
   <g id="line2d_16">
    <path d="M 65.130227 261.216 
L 66.212409 217.624122 
L 67.294591 195.690724 
L 68.376773 181.954465 
L 69.458955 171.614296 
L 70.541136 130.048929 
L 71.623318 103.444056 
L 72.7055 82.30581 
L 73.787682 74.318527 
L 74.869864 57.831322 
L 75.952045 50.02786 
L 77.034227 68.196874 
L 78.116409 62.035359 
L 79.198591 46.458051 
L 80.280773 50.779661 
L 81.362955 39.076693 
L 82.445136 45.235129 
L 83.527318 36.872304 
L 84.6095 43.541198 
L 85.691682 49.184452 
L 86.773864 39.656064 
L 87.856045 41.888582 
L 88.938227 34.619489 
L 90.020409 41.882088 
L 91.102591 32.335506 
L 92.184773 33.883512 
L 93.266955 36.316205 
L 94.349136 31.820036 
L 95.431318 40.258519 
L 96.5135 38.162372 
L 98.677864 31.63885 
L 99.760045 44.12881 
L 100.842227 34.328209 
L 101.924409 31.16631 
L 103.006591 38.707918 
L 104.088773 26.56234 
L 105.170955 27.899386 
L 106.253136 40.363821 
L 107.335318 29.409137 
L 108.4175 29.328592 
L 109.499682 30.343103 
L 110.581864 29.811575 
L 111.664045 31.811862 
L 112.746227 39.193196 
L 113.828409 31.148501 
L 114.910591 40.45408 
L 115.992773 28.824526 
L 117.074955 27.149773 
L 118.157136 23.832411 
L 119.239318 28.715808 
L 120.3215 24.405446 
L 121.403682 26.119405 
L 122.485864 26.678324 
L 123.568045 37.427597 
L 124.650227 33.452966 
L 125.732409 35.865384 
L 126.814591 33.771363 
L 127.896773 34.963335 
L 128.978955 28.324316 
L 130.061136 29.656195 
L 131.143318 23.056008 
L 132.2255 31.994019 
L 133.307682 26.406072 
L 134.389864 31.08555 
L 135.472045 19.296 
L 136.554227 27.588338 
L 137.636409 25.460963 
L 138.718591 30.370129 
L 139.800773 32.543222 
L 140.882955 24.317695 
L 141.965136 28.950532 
L 143.047318 25.201364 
L 144.1295 27.411692 
L 145.211682 27.325384 
L 146.293864 26.922311 
L 147.376045 23.152185 
L 148.458227 24.434043 
L 149.540409 23.676124 
L 150.622591 28.417087 
L 151.704773 27.089217 
L 152.786955 29.279885 
L 153.869136 24.459701 
L 154.951318 21.952318 
L 157.115682 28.609458 
L 158.197864 25.733737 
L 159.280045 30.414809 
L 160.362227 39.479427 
L 161.444409 29.48444 
L 162.526591 26.268709 
L 163.608773 28.991539 
L 164.690955 24.800867 
L 165.773136 28.080746 
L 166.855318 25.374163 
L 167.9375 25.655835 
L 169.019682 23.368014 
L 170.101864 22.47019 
L 171.184045 23.472579 
L 172.266227 25.927649 
L 173.348409 34.544358 
L 174.430591 29.366767 
L 175.512773 27.632293 
L 176.594955 27.537699 
L 177.677136 28.215736 
L 178.759318 26.232366 
L 179.8415 25.410161 
L 180.923682 28.727615 
L 182.005864 25.455643 
L 184.170227 35.627466 
L 185.252409 33.12815 
L 187.416773 33.12656 
L 188.498955 31.235653 
L 189.581136 31.659948 
L 190.663318 31.720977 
L 191.7455 25.220454 
L 192.827682 22.509422 
L 193.909864 28.202366 
L 194.992045 26.126612 
L 197.156409 26.358787 
L 198.238591 24.124091 
L 199.320773 31.241746 
L 200.402955 25.08412 
L 201.485136 28.427829 
L 202.567318 26.056702 
L 203.6495 26.318663 
L 204.731682 34.684554 
L 205.813864 31.717277 
L 206.896045 28.271915 
L 207.978227 26.868004 
L 209.060409 29.115965 
L 210.142591 29.875861 
L 211.224773 31.216409 
L 212.306955 29.837316 
L 213.389136 27.090587 
L 214.471318 25.038548 
L 215.5535 31.853134 
L 216.635682 30.596187 
L 217.717864 23.996786 
L 219.882227 35.309768 
L 220.964409 33.001888 
L 222.046591 33.025567 
L 224.210955 29.052957 
L 226.375318 35.601407 
L 227.4575 34.56151 
L 228.539682 36.53001 
L 229.621864 33.574655 
L 230.704045 31.156103 
L 231.786227 22.451645 
L 232.868409 28.930875 
L 233.950591 30.118465 
L 235.032773 30.049465 
L 236.114955 27.14644 
L 237.197136 31.078292 
L 238.279318 29.901486 
L 239.3615 29.039851 
L 240.443682 28.883036 
L 241.525864 28.598417 
L 242.608045 30.768441 
L 243.690227 31.24337 
L 244.772409 32.78337 
L 245.854591 29.23191 
L 246.936773 32.218283 
L 248.018955 32.846895 
L 249.101136 31.007056 
L 250.183318 27.288501 
L 251.2655 29.849673 
L 252.347682 31.234702 
L 253.429864 27.020562 
L 254.512045 27.167723 
L 255.594227 28.486093 
L 256.676409 29.51539 
L 257.758591 29.947657 
L 258.840773 38.193404 
L 259.922955 32.800046 
L 261.005136 37.615882 
L 262.087318 33.412974 
L 263.1695 39.741981 
L 264.251682 31.215887 
L 265.333864 34.166443 
L 266.416045 29.747455 
L 267.498227 31.421693 
L 268.580409 30.818552 
L 269.662591 27.124496 
L 271.826955 32.95657 
L 272.909136 32.980665 
L 273.991318 36.913803 
L 275.0735 34.112793 
L 276.155682 27.277111 
L 277.237864 31.792303 
L 278.320045 34.846525 
L 279.402227 41.404194 
L 280.484409 32.946215 
L 281.566591 37.48312 
L 282.648773 25.166959 
L 283.730955 29.532857 
L 284.813136 31.120831 
L 285.895318 34.119283 
L 286.9775 35.527062 
L 288.059682 30.073387 
L 290.224045 28.174046 
L 291.306227 34.963459 
L 292.388409 29.490451 
L 293.470591 28.856621 
L 294.552773 29.9814 
L 295.634955 31.956268 
L 296.717136 30.918119 
L 297.799318 29.359516 
L 298.8815 30.423624 
L 301.045864 31.403519 
L 302.128045 35.444092 
L 303.210227 37.519573 
L 304.292409 30.69066 
L 305.374591 38.169049 
L 306.456773 28.904325 
L 307.538955 33.808094 
L 308.621136 34.182935 
L 309.703318 30.944108 
L 310.7855 30.672661 
L 311.867682 35.562359 
L 312.949864 32.028181 
L 314.032045 27.873585 
L 315.114227 37.272274 
L 316.196409 34.529621 
L 317.278591 33.764866 
L 318.360773 30.958489 
L 319.442955 28.982419 
L 320.525136 38.806567 
L 321.607318 34.007167 
L 322.6895 28.492395 
L 323.771682 32.902722 
L 324.853864 32.100904 
L 325.936045 37.03131 
L 327.018227 36.975726 
L 328.100409 32.512078 
L 329.182591 32.418268 
L 330.264773 33.171245 
L 331.346955 36.20719 
L 332.429136 38.384705 
L 333.511318 39.266143 
L 334.5935 35.898158 
L 335.675682 35.706162 
L 336.757864 45.138515 
L 337.840045 37.940333 
L 338.922227 34.288737 
L 340.004409 36.422994 
L 341.086591 36.63699 
L 342.168773 30.979203 
L 343.250955 33.021821 
L 344.333136 33.934953 
L 345.415318 35.468573 
L 346.4975 35.830073 
L 347.579682 35.127547 
L 349.744045 32.899301 
L 350.826227 31.472702 
L 351.908409 32.93742 
L 352.990591 34.668578 
L 354.072773 32.411803 
L 355.154955 32.609263 
L 356.237136 35.821389 
L 357.319318 32.113869 
L 358.4015 35.159082 
L 359.483682 34.136292 
L 360.565864 35.376855 
L 361.648045 35.536433 
L 362.730227 38.908091 
L 363.812409 43.574563 
L 364.894591 40.211368 
L 365.976773 35.535909 
L 367.058955 36.249373 
L 368.141136 33.589055 
L 369.223318 36.168596 
L 370.3055 31.614876 
L 371.387682 34.288318 
L 372.469864 38.90751 
L 373.552045 37.388765 
L 374.634227 35.570726 
L 375.716409 38.400224 
L 376.798591 34.36101 
L 377.880773 35.532225 
L 378.962955 35.352818 
L 380.045136 37.946136 
L 381.127318 36.213851 
L 382.2095 32.794755 
L 383.291682 35.071512 
L 384.373864 36.824972 
L 385.456045 36.44283 
L 386.538227 35.095309 
L 387.620409 37.104988 
L 388.702591 35.648605 
L 389.784773 35.547829 
L 389.784773 35.547829 
" clip-path="url(#pe57e9bd831)" style="fill: none; stroke: #ff7f0e; stroke-width: 1.5; stroke-linecap: square"/>
   </g>
   <g id="patch_3">
    <path d="M 48.8975 273.312 
L 48.8975 7.2 
" style="fill: none; stroke: #000000; stroke-width: 0.8; stroke-linejoin: miter; stroke-linecap: square"/>
   </g>
   <g id="patch_4">
    <path d="M 406.0175 273.312 
L 406.0175 7.2 
" style="fill: none; stroke: #000000; stroke-width: 0.8; stroke-linejoin: miter; stroke-linecap: square"/>
   </g>
   <g id="patch_5">
    <path d="M 48.8975 273.312 
L 406.0175 273.312 
" style="fill: none; stroke: #000000; stroke-width: 0.8; stroke-linejoin: miter; stroke-linecap: square"/>
   </g>
   <g id="patch_6">
    <path d="M 48.8975 7.2 
L 406.0175 7.2 
" style="fill: none; stroke: #000000; stroke-width: 0.8; stroke-linejoin: miter; stroke-linecap: square"/>
   </g>
   <g id="legend_1">
    <g id="patch_7">
     <path d="M 200.2175 267.312 
L 397.6175 267.312 
Q 400.0175 267.312 400.0175 264.912 
L 400.0175 156.777 
Q 400.0175 154.377 397.6175 154.377 
L 200.2175 154.377 
Q 197.8175 154.377 197.8175 156.777 
L 197.8175 264.912 
Q 197.8175 267.312 200.2175 267.312 
z
" style="fill: #ffffff; opacity: 0.8; stroke: #cccccc; stroke-linejoin: miter"/>
    </g>
    <g id="line2d_17">
     <path d="M 202.6175 164.095125 
L 214.6175 164.095125 
L 226.6175 164.095125 
" style="fill: none; stroke: #1f77b4; stroke-width: 1.5; stroke-linecap: square"/>
    </g>
    <g id="text_17">
     <!-- Smoothing -->
     <g transform="translate(236.2175 168.295125) scale(0.12 -0.12)">
      <defs>
       <path id="DejaVuSans-53" d="M 3425 4513 
L 3425 3897 
Q 3066 4069 2747 4153 
Q 2428 4238 2131 4238 
Q 1616 4238 1336 4038 
Q 1056 3838 1056 3469 
Q 1056 3159 1242 3001 
Q 1428 2844 1947 2747 
L 2328 2669 
Q 3034 2534 3370 2195 
Q 3706 1856 3706 1288 
Q 3706 609 3251 259 
Q 2797 -91 1919 -91 
Q 1588 -91 1214 -16 
Q 841 59 441 206 
L 441 856 
Q 825 641 1194 531 
Q 1563 422 1919 422 
Q 2459 422 2753 634 
Q 3047 847 3047 1241 
Q 3047 1584 2836 1778 
Q 2625 1972 2144 2069 
L 1759 2144 
Q 1053 2284 737 2584 
Q 422 2884 422 3419 
Q 422 4038 858 4394 
Q 1294 4750 2059 4750 
Q 2388 4750 2728 4690 
Q 3069 4631 3425 4513 
z
" transform="scale(0.015625)"/>
       <path id="DejaVuSans-6d" d="M 3328 2828 
Q 3544 3216 3844 3400 
Q 4144 3584 4550 3584 
Q 5097 3584 5394 3201 
Q 5691 2819 5691 2113 
L 5691 0 
L 5113 0 
L 5113 2094 
Q 5113 2597 4934 2840 
Q 4756 3084 4391 3084 
Q 3944 3084 3684 2787 
Q 3425 2491 3425 1978 
L 3425 0 
L 2847 0 
L 2847 2094 
Q 2847 2600 2669 2842 
Q 2491 3084 2119 3084 
Q 1678 3084 1418 2786 
Q 1159 2488 1159 1978 
L 1159 0 
L 581 0 
L 581 3500 
L 1159 3500 
L 1159 2956 
Q 1356 3278 1631 3431 
Q 1906 3584 2284 3584 
Q 2666 3584 2933 3390 
Q 3200 3197 3328 2828 
z
" transform="scale(0.015625)"/>
       <path id="DejaVuSans-68" d="M 3513 2113 
L 3513 0 
L 2938 0 
L 2938 2094 
Q 2938 2591 2744 2837 
Q 2550 3084 2163 3084 
Q 1697 3084 1428 2787 
Q 1159 2491 1159 1978 
L 1159 0 
L 581 0 
L 581 4863 
L 1159 4863 
L 1159 2956 
Q 1366 3272 1645 3428 
Q 1925 3584 2291 3584 
Q 2894 3584 3203 3211 
Q 3513 2838 3513 2113 
z
" transform="scale(0.015625)"/>
      </defs>
      <use xlink:href="#DejaVuSans-53"/>
      <use xlink:href="#DejaVuSans-6d" x="63.476562"/>
      <use xlink:href="#DejaVuSans-6f" x="160.888672"/>
      <use xlink:href="#DejaVuSans-6f" x="222.070312"/>
      <use xlink:href="#DejaVuSans-74" x="283.251953"/>
      <use xlink:href="#DejaVuSans-68" x="322.460938"/>
      <use xlink:href="#DejaVuSans-69" x="385.839844"/>
      <use xlink:href="#DejaVuSans-6e" x="413.623047"/>
      <use xlink:href="#DejaVuSans-67" x="477.001953"/>
     </g>
    </g>
    <g id="line2d_18">
     <path d="M 202.6175 181.708875 
L 214.6175 181.708875 
L 226.6175 181.708875 
" style="fill: none; stroke: #ff7f0e; stroke-width: 1.5; stroke-linecap: square"/>
    </g>
    <g id="text_18">
     <!-- Filtering -->
     <g transform="translate(236.2175 185.908875) scale(0.12 -0.12)">
      <defs>
       <path id="DejaVuSans-46" d="M 628 4666 
L 3309 4666 
L 3309 4134 
L 1259 4134 
L 1259 2759 
L 3109 2759 
L 3109 2228 
L 1259 2228 
L 1259 0 
L 628 0 
L 628 4666 
z
" transform="scale(0.015625)"/>
       <path id="DejaVuSans-6c" d="M 603 4863 
L 1178 4863 
L 1178 0 
L 603 0 
L 603 4863 
z
" transform="scale(0.015625)"/>
      </defs>
      <use xlink:href="#DejaVuSans-46"/>
      <use xlink:href="#DejaVuSans-69" x="50.269531"/>
      <use xlink:href="#DejaVuSans-6c" x="78.052734"/>
      <use xlink:href="#DejaVuSans-74" x="105.835938"/>
      <use xlink:href="#DejaVuSans-65" x="145.044922"/>
      <use xlink:href="#DejaVuSans-72" x="206.568359"/>
      <use xlink:href="#DejaVuSans-69" x="247.681641"/>
      <use xlink:href="#DejaVuSans-6e" x="275.464844"/>
      <use xlink:href="#DejaVuSans-67" x="338.84375"/>
     </g>
    </g>
    <g id="PathCollection_5">
     <g>
      <use xlink:href="#mb98bd3ac71" x="214.6175" y="202.1745" style="fill: #1f77b4; stroke: #1f77b4"/>
     </g>
    </g>
    <g id="text_19">
     <!-- Max smoothing $R^2$ = 0.70 -->
     <g transform="translate(236.2175 205.3245) scale(0.12 -0.12)">
      <defs>
       <path id="DejaVuSans-4d" d="M 628 4666 
L 1569 4666 
L 2759 1491 
L 3956 4666 
L 4897 4666 
L 4897 0 
L 4281 0 
L 4281 4097 
L 3078 897 
L 2444 897 
L 1241 4097 
L 1241 0 
L 628 0 
L 628 4666 
z
" transform="scale(0.015625)"/>
       <path id="DejaVuSans-78" d="M 3513 3500 
L 2247 1797 
L 3578 0 
L 2900 0 
L 1881 1375 
L 863 0 
L 184 0 
L 1544 1831 
L 300 3500 
L 978 3500 
L 1906 2253 
L 2834 3500 
L 3513 3500 
z
" transform="scale(0.015625)"/>
       <path id="DejaVuSans-73" d="M 2834 3397 
L 2834 2853 
Q 2591 2978 2328 3040 
Q 2066 3103 1784 3103 
Q 1356 3103 1142 2972 
Q 928 2841 928 2578 
Q 928 2378 1081 2264 
Q 1234 2150 1697 2047 
L 1894 2003 
Q 2506 1872 2764 1633 
Q 3022 1394 3022 966 
Q 3022 478 2636 193 
Q 2250 -91 1575 -91 
Q 1294 -91 989 -36 
Q 684 19 347 128 
L 347 722 
Q 666 556 975 473 
Q 1284 391 1588 391 
Q 1994 391 2212 530 
Q 2431 669 2431 922 
Q 2431 1156 2273 1281 
Q 2116 1406 1581 1522 
L 1381 1569 
Q 847 1681 609 1914 
Q 372 2147 372 2553 
Q 372 3047 722 3315 
Q 1072 3584 1716 3584 
Q 2034 3584 2315 3537 
Q 2597 3491 2834 3397 
z
" transform="scale(0.015625)"/>
       <path id="DejaVuSans-3d" d="M 678 2906 
L 4684 2906 
L 4684 2381 
L 678 2381 
L 678 2906 
z
M 678 1631 
L 4684 1631 
L 4684 1100 
L 678 1100 
L 678 1631 
z
" transform="scale(0.015625)"/>
      </defs>
      <use xlink:href="#DejaVuSans-4d" transform="translate(0 0.765625)"/>
      <use xlink:href="#DejaVuSans-61" transform="translate(86.279297 0.765625)"/>
      <use xlink:href="#DejaVuSans-78" transform="translate(147.558594 0.765625)"/>
      <use xlink:href="#DejaVuSans-20" transform="translate(206.738281 0.765625)"/>
      <use xlink:href="#DejaVuSans-73" transform="translate(238.525391 0.765625)"/>
      <use xlink:href="#DejaVuSans-6d" transform="translate(290.625 0.765625)"/>
      <use xlink:href="#DejaVuSans-6f" transform="translate(388.037109 0.765625)"/>
      <use xlink:href="#DejaVuSans-6f" transform="translate(449.21875 0.765625)"/>
      <use xlink:href="#DejaVuSans-74" transform="translate(510.400391 0.765625)"/>
      <use xlink:href="#DejaVuSans-68" transform="translate(549.609375 0.765625)"/>
      <use xlink:href="#DejaVuSans-69" transform="translate(612.988281 0.765625)"/>
      <use xlink:href="#DejaVuSans-6e" transform="translate(640.771484 0.765625)"/>
      <use xlink:href="#DejaVuSans-67" transform="translate(704.150391 0.765625)"/>
      <use xlink:href="#DejaVuSans-20" transform="translate(767.626953 0.765625)"/>
      <use xlink:href="#DejaVuSans-Oblique-52" transform="translate(799.414062 0.765625)"/>
      <use xlink:href="#DejaVuSans-32" transform="translate(875.913255 39.046875) scale(0.7)"/>
      <use xlink:href="#DejaVuSans-20" transform="translate(923.183763 0.765625)"/>
      <use xlink:href="#DejaVuSans-3d" transform="translate(954.970872 0.765625)"/>
      <use xlink:href="#DejaVuSans-20" transform="translate(1038.759935 0.765625)"/>
      <use xlink:href="#DejaVuSans-30" transform="translate(1070.547044 0.765625)"/>
      <use xlink:href="#DejaVuSans-2e" transform="translate(1134.170091 0.765625)"/>
      <use xlink:href="#DejaVuSans-37" transform="translate(1158.207201 0.765625)"/>
      <use xlink:href="#DejaVuSans-30" transform="translate(1221.830247 0.765625)"/>
     </g>
    </g>
    <g id="PathCollection_6">
     <g>
      <use xlink:href="#m142ad29818" x="214.6175" y="219.812625" style="fill: #ff7f0e; stroke: #ff7f0e"/>
     </g>
    </g>
    <g id="text_20">
     <!-- Max filter $R^2$ = 0.80 -->
     <g transform="translate(236.2175 222.962625) scale(0.12 -0.12)">
      <defs>
       <path id="DejaVuSans-66" d="M 2375 4863 
L 2375 4384 
L 1825 4384 
Q 1516 4384 1395 4259 
Q 1275 4134 1275 3809 
L 1275 3500 
L 2222 3500 
L 2222 3053 
L 1275 3053 
L 1275 0 
L 697 0 
L 697 3053 
L 147 3053 
L 147 3500 
L 697 3500 
L 697 3744 
Q 697 4328 969 4595 
Q 1241 4863 1831 4863 
L 2375 4863 
z
" transform="scale(0.015625)"/>
      </defs>
      <use xlink:href="#DejaVuSans-4d" transform="translate(0 0.765625)"/>
      <use xlink:href="#DejaVuSans-61" transform="translate(86.279297 0.765625)"/>
      <use xlink:href="#DejaVuSans-78" transform="translate(147.558594 0.765625)"/>
      <use xlink:href="#DejaVuSans-20" transform="translate(206.738281 0.765625)"/>
      <use xlink:href="#DejaVuSans-66" transform="translate(238.525391 0.765625)"/>
      <use xlink:href="#DejaVuSans-69" transform="translate(273.730469 0.765625)"/>
      <use xlink:href="#DejaVuSans-6c" transform="translate(301.513672 0.765625)"/>
      <use xlink:href="#DejaVuSans-74" transform="translate(329.296875 0.765625)"/>
      <use xlink:href="#DejaVuSans-65" transform="translate(368.505859 0.765625)"/>
      <use xlink:href="#DejaVuSans-72" transform="translate(430.029297 0.765625)"/>
      <use xlink:href="#DejaVuSans-20" transform="translate(471.142578 0.765625)"/>
      <use xlink:href="#DejaVuSans-Oblique-52" transform="translate(502.929688 0.765625)"/>
      <use xlink:href="#DejaVuSans-32" transform="translate(579.42888 39.046875) scale(0.7)"/>
      <use xlink:href="#DejaVuSans-20" transform="translate(626.699388 0.765625)"/>
      <use xlink:href="#DejaVuSans-3d" transform="translate(658.486497 0.765625)"/>
      <use xlink:href="#DejaVuSans-20" transform="translate(742.27556 0.765625)"/>
      <use xlink:href="#DejaVuSans-30" transform="translate(774.062669 0.765625)"/>
      <use xlink:href="#DejaVuSans-2e" transform="translate(837.685716 0.765625)"/>
      <use xlink:href="#DejaVuSans-38" transform="translate(866.847826 0.765625)"/>
      <use xlink:href="#DejaVuSans-30" transform="translate(930.470872 0.765625)"/>
     </g>
    </g>
    <g id="PathCollection_7">
     <g>
      <use xlink:href="#m133b0bfd71" x="214.6175" y="239.22825" style="fill: #2ca02c; stroke: #2ca02c"/>
     </g>
    </g>
    <g id="text_21">
     <!-- Final smoothing $R^2$ = 0.68 -->
     <g transform="translate(236.2175 242.37825) scale(0.12 -0.12)">
      <use xlink:href="#DejaVuSans-46" transform="translate(0 0.765625)"/>
      <use xlink:href="#DejaVuSans-69" transform="translate(57.519531 0.765625)"/>
      <use xlink:href="#DejaVuSans-6e" transform="translate(85.302734 0.765625)"/>
      <use xlink:href="#DejaVuSans-61" transform="translate(148.681641 0.765625)"/>
      <use xlink:href="#DejaVuSans-6c" transform="translate(209.960938 0.765625)"/>
      <use xlink:href="#DejaVuSans-20" transform="translate(237.744141 0.765625)"/>
      <use xlink:href="#DejaVuSans-73" transform="translate(269.53125 0.765625)"/>
      <use xlink:href="#DejaVuSans-6d" transform="translate(321.630859 0.765625)"/>
      <use xlink:href="#DejaVuSans-6f" transform="translate(419.042969 0.765625)"/>
      <use xlink:href="#DejaVuSans-6f" transform="translate(480.224609 0.765625)"/>
      <use xlink:href="#DejaVuSans-74" transform="translate(541.40625 0.765625)"/>
      <use xlink:href="#DejaVuSans-68" transform="translate(580.615234 0.765625)"/>
      <use xlink:href="#DejaVuSans-69" transform="translate(643.994141 0.765625)"/>
      <use xlink:href="#DejaVuSans-6e" transform="translate(671.777344 0.765625)"/>
      <use xlink:href="#DejaVuSans-67" transform="translate(735.15625 0.765625)"/>
      <use xlink:href="#DejaVuSans-20" transform="translate(798.632812 0.765625)"/>
      <use xlink:href="#DejaVuSans-Oblique-52" transform="translate(830.419922 0.765625)"/>
      <use xlink:href="#DejaVuSans-32" transform="translate(906.919115 39.046875) scale(0.7)"/>
      <use xlink:href="#DejaVuSans-20" transform="translate(954.189622 0.765625)"/>
      <use xlink:href="#DejaVuSans-3d" transform="translate(985.976732 0.765625)"/>
      <use xlink:href="#DejaVuSans-20" transform="translate(1069.765794 0.765625)"/>
      <use xlink:href="#DejaVuSans-30" transform="translate(1101.552904 0.765625)"/>
      <use xlink:href="#DejaVuSans-2e" transform="translate(1165.175951 0.765625)"/>
      <use xlink:href="#DejaVuSans-36" transform="translate(1196.96306 0.765625)"/>
      <use xlink:href="#DejaVuSans-38" transform="translate(1260.586107 0.765625)"/>
     </g>
    </g>
    <g id="PathCollection_8">
     <g>
      <use xlink:href="#mcd8a8195b3" x="214.6175" y="256.866375" style="fill: #d62728; stroke: #d62728"/>
     </g>
    </g>
    <g id="text_22">
     <!-- Final filter $R^2$ = 0.75 -->
     <g transform="translate(236.2175 260.016375) scale(0.12 -0.12)">
      <use xlink:href="#DejaVuSans-46" transform="translate(0 0.765625)"/>
      <use xlink:href="#DejaVuSans-69" transform="translate(57.519531 0.765625)"/>
      <use xlink:href="#DejaVuSans-6e" transform="translate(85.302734 0.765625)"/>
      <use xlink:href="#DejaVuSans-61" transform="translate(148.681641 0.765625)"/>
      <use xlink:href="#DejaVuSans-6c" transform="translate(209.960938 0.765625)"/>
      <use xlink:href="#DejaVuSans-20" transform="translate(237.744141 0.765625)"/>
      <use xlink:href="#DejaVuSans-66" transform="translate(269.53125 0.765625)"/>
      <use xlink:href="#DejaVuSans-69" transform="translate(304.736328 0.765625)"/>
      <use xlink:href="#DejaVuSans-6c" transform="translate(332.519531 0.765625)"/>
      <use xlink:href="#DejaVuSans-74" transform="translate(360.302734 0.765625)"/>
      <use xlink:href="#DejaVuSans-65" transform="translate(399.511719 0.765625)"/>
      <use xlink:href="#DejaVuSans-72" transform="translate(461.035156 0.765625)"/>
      <use xlink:href="#DejaVuSans-20" transform="translate(502.148438 0.765625)"/>
      <use xlink:href="#DejaVuSans-Oblique-52" transform="translate(533.935547 0.765625)"/>
      <use xlink:href="#DejaVuSans-32" transform="translate(610.43474 39.046875) scale(0.7)"/>
      <use xlink:href="#DejaVuSans-20" transform="translate(657.705247 0.765625)"/>
      <use xlink:href="#DejaVuSans-3d" transform="translate(689.492357 0.765625)"/>
      <use xlink:href="#DejaVuSans-20" transform="translate(773.281419 0.765625)"/>
      <use xlink:href="#DejaVuSans-30" transform="translate(805.068529 0.765625)"/>
      <use xlink:href="#DejaVuSans-2e" transform="translate(868.691576 0.765625)"/>
      <use xlink:href="#DejaVuSans-37" transform="translate(892.728685 0.765625)"/>
      <use xlink:href="#DejaVuSans-35" transform="translate(956.351732 0.765625)"/>
     </g>
    </g>
   </g>
  </g>
 </g>
 <defs>
  <clipPath id="pe57e9bd831">
   <rect x="48.8975" y="7.2" width="357.12" height="266.112"/>
  </clipPath>
 </defs>
</svg>
