<?xml version="1.0" encoding="utf-8" standalone="no"?>
<!DOCTYPE svg PUBLIC "-//W3C//DTD SVG 1.1//EN"
  "http://www.w3.org/Graphics/SVG/1.1/DTD/svg11.dtd">
<svg xmlns:xlink="http://www.w3.org/1999/xlink" width="413.2175pt" height="314.7395pt" viewBox="0 0 413.2175 314.7395" xmlns="http://www.w3.org/2000/svg" version="1.1">
 <metadata>
  <rdf:RDF xmlns:dc="http://purl.org/dc/elements/1.1/" xmlns:cc="http://creativecommons.org/ns#" xmlns:rdf="http://www.w3.org/1999/02/22-rdf-syntax-ns#">
   <cc:Work>
    <dc:type rdf:resource="http://purl.org/dc/dcmitype/StillImage"/>
    <dc:date>2024-05-27T21:57:50.456384</dc:date>
    <dc:format>image/svg+xml</dc:format>
    <dc:creator>
     <cc:Agent>
      <dc:title>Matplotlib v3.7.2, https://matplotlib.org/</dc:title>
     </cc:Agent>
    </dc:creator>
   </cc:Work>
  </rdf:RDF>
 </metadata>
 <defs>
  <style type="text/css">*{stroke-linejoin: round; stroke-linecap: butt}</style>
 </defs>
 <g id="figure_1">
  <g id="patch_1">
   <path d="M 0 314.7395 
L 413.2175 314.7395 
L 413.2175 0 
L 0 0 
z
" style="fill: #ffffff"/>
  </g>
  <g id="axes_1">
   <g id="patch_2">
    <path d="M 48.8975 273.312 
L 406.0175 273.312 
L 406.0175 7.2 
L 48.8975 7.2 
z
" style="fill: #ffffff"/>
   </g>
   <g id="PathCollection_1">
    <defs>
     <path id="mec5e0b9933" d="M 0 3 
C 0.795609 3 1.55874 2.683901 2.12132 2.12132 
C 2.683901 1.55874 3 0.795609 3 0 
C 3 -0.795609 2.683901 -1.55874 2.12132 -2.12132 
C 1.55874 -2.683901 0.795609 -3 0 -3 
C -0.795609 -3 -1.55874 -2.683901 -2.12132 -2.12132 
C -2.683901 -1.55874 -3 -0.795609 -3 0 
C -3 0.795609 -2.683901 1.55874 -2.12132 2.12132 
C -1.55874 2.683901 -0.795609 3 0 3 
z
" style="stroke: #1f77b4"/>
    </defs>
    <g clip-path="url(#p5702f6da5c)">
     <use xlink:href="#mec5e0b9933" x="133.307682" y="29.618991" style="fill: #1f77b4; stroke: #1f77b4"/>
    </g>
   </g>
   <g id="PathCollection_2">
    <defs>
     <path id="m3abb05d556" d="M 0 3 
C 0.795609 3 1.55874 2.683901 2.12132 2.12132 
C 2.683901 1.55874 3 0.795609 3 0 
C 3 -0.795609 2.683901 -1.55874 2.12132 -2.12132 
C 1.55874 -2.683901 0.795609 -3 0 -3 
C -0.795609 -3 -1.55874 -2.683901 -2.12132 -2.12132 
C -2.683901 -1.55874 -3 -0.795609 -3 0 
C -3 0.795609 -2.683901 1.55874 -2.12132 2.12132 
C -1.55874 2.683901 -0.795609 3 0 3 
z
" style="stroke: #ff7f0e"/>
    </defs>
    <g clip-path="url(#p5702f6da5c)">
     <use xlink:href="#m3abb05d556" x="190.663318" y="19.296" style="fill: #ff7f0e; stroke: #ff7f0e"/>
    </g>
   </g>
   <g id="PathCollection_3">
    <defs>
     <path id="m04d924d2c3" d="M 0 3 
C 0.795609 3 1.55874 2.683901 2.12132 2.12132 
C 2.683901 1.55874 3 0.795609 3 0 
C 3 -0.795609 2.683901 -1.55874 2.12132 -2.12132 
C 1.55874 -2.683901 0.795609 -3 0 -3 
C -0.795609 -3 -1.55874 -2.683901 -2.12132 -2.12132 
C -2.683901 -1.55874 -3 -0.795609 -3 0 
C -3 0.795609 -2.683901 1.55874 -2.12132 2.12132 
C -1.55874 2.683901 -0.795609 3 0 3 
z
" style="stroke: #2ca02c"/>
    </defs>
    <g clip-path="url(#p5702f6da5c)">
     <use xlink:href="#m04d924d2c3" x="389.784773" y="42.510435" style="fill: #2ca02c; stroke: #2ca02c"/>
    </g>
   </g>
   <g id="PathCollection_4">
    <defs>
     <path id="m6465ded0ba" d="M 0 3 
C 0.795609 3 1.55874 2.683901 2.12132 2.12132 
C 2.683901 1.55874 3 0.795609 3 0 
C 3 -0.795609 2.683901 -1.55874 2.12132 -2.12132 
C 1.55874 -2.683901 0.795609 -3 0 -3 
C -0.795609 -3 -1.55874 -2.683901 -2.12132 -2.12132 
C -2.683901 -1.55874 -3 -0.795609 -3 0 
C -3 0.795609 -2.683901 1.55874 -2.12132 2.12132 
C -1.55874 2.683901 -0.795609 3 0 3 
z
" style="stroke: #d62728"/>
    </defs>
    <g clip-path="url(#p5702f6da5c)">
     <use xlink:href="#m6465ded0ba" x="389.784773" y="28.652262" style="fill: #d62728; stroke: #d62728"/>
    </g>
   </g>
   <g id="matplotlib.axis_1">
    <g id="xtick_1">
     <g id="line2d_1">
      <defs>
       <path id="mc44c9a973b" d="M 0 0 
L 0 3.5 
" style="stroke: #000000; stroke-width: 0.8"/>
      </defs>
      <g>
       <use xlink:href="#mc44c9a973b" x="65.130227" y="273.312" style="stroke: #000000; stroke-width: 0.8"/>
      </g>
     </g>
     <g id="text_1">
      <!-- 0 -->
      <g transform="translate(61.312727 289.430125) scale(0.12 -0.12)">
       <defs>
        <path id="DejaVuSans-30" d="M 2034 4250 
Q 1547 4250 1301 3770 
Q 1056 3291 1056 2328 
Q 1056 1369 1301 889 
Q 1547 409 2034 409 
Q 2525 409 2770 889 
Q 3016 1369 3016 2328 
Q 3016 3291 2770 3770 
Q 2525 4250 2034 4250 
z
M 2034 4750 
Q 2819 4750 3233 4129 
Q 3647 3509 3647 2328 
Q 3647 1150 3233 529 
Q 2819 -91 2034 -91 
Q 1250 -91 836 529 
Q 422 1150 422 2328 
Q 422 3509 836 4129 
Q 1250 4750 2034 4750 
z
" transform="scale(0.015625)"/>
       </defs>
       <use xlink:href="#DejaVuSans-30"/>
      </g>
     </g>
    </g>
    <g id="xtick_2">
     <g id="line2d_2">
      <g>
       <use xlink:href="#mc44c9a973b" x="119.239318" y="273.312" style="stroke: #000000; stroke-width: 0.8"/>
      </g>
     </g>
     <g id="text_2">
      <!-- 50 -->
      <g transform="translate(111.604318 289.430125) scale(0.12 -0.12)">
       <defs>
        <path id="DejaVuSans-35" d="M 691 4666 
L 3169 4666 
L 3169 4134 
L 1269 4134 
L 1269 2991 
Q 1406 3038 1543 3061 
Q 1681 3084 1819 3084 
Q 2600 3084 3056 2656 
Q 3513 2228 3513 1497 
Q 3513 744 3044 326 
Q 2575 -91 1722 -91 
Q 1428 -91 1123 -41 
Q 819 9 494 109 
L 494 744 
Q 775 591 1075 516 
Q 1375 441 1709 441 
Q 2250 441 2565 725 
Q 2881 1009 2881 1497 
Q 2881 1984 2565 2268 
Q 2250 2553 1709 2553 
Q 1456 2553 1204 2497 
Q 953 2441 691 2322 
L 691 4666 
z
" transform="scale(0.015625)"/>
       </defs>
       <use xlink:href="#DejaVuSans-35"/>
       <use xlink:href="#DejaVuSans-30" x="63.623047"/>
      </g>
     </g>
    </g>
    <g id="xtick_3">
     <g id="line2d_3">
      <g>
       <use xlink:href="#mc44c9a973b" x="173.348409" y="273.312" style="stroke: #000000; stroke-width: 0.8"/>
      </g>
     </g>
     <g id="text_3">
      <!-- 100 -->
      <g transform="translate(161.895909 289.430125) scale(0.12 -0.12)">
       <defs>
        <path id="DejaVuSans-31" d="M 794 531 
L 1825 531 
L 1825 4091 
L 703 3866 
L 703 4441 
L 1819 4666 
L 2450 4666 
L 2450 531 
L 3481 531 
L 3481 0 
L 794 0 
L 794 531 
z
" transform="scale(0.015625)"/>
       </defs>
       <use xlink:href="#DejaVuSans-31"/>
       <use xlink:href="#DejaVuSans-30" x="63.623047"/>
       <use xlink:href="#DejaVuSans-30" x="127.246094"/>
      </g>
     </g>
    </g>
    <g id="xtick_4">
     <g id="line2d_4">
      <g>
       <use xlink:href="#mc44c9a973b" x="227.4575" y="273.312" style="stroke: #000000; stroke-width: 0.8"/>
      </g>
     </g>
     <g id="text_4">
      <!-- 150 -->
      <g transform="translate(216.005 289.430125) scale(0.12 -0.12)">
       <use xlink:href="#DejaVuSans-31"/>
       <use xlink:href="#DejaVuSans-35" x="63.623047"/>
       <use xlink:href="#DejaVuSans-30" x="127.246094"/>
      </g>
     </g>
    </g>
    <g id="xtick_5">
     <g id="line2d_5">
      <g>
       <use xlink:href="#mc44c9a973b" x="281.566591" y="273.312" style="stroke: #000000; stroke-width: 0.8"/>
      </g>
     </g>
     <g id="text_5">
      <!-- 200 -->
      <g transform="translate(270.114091 289.430125) scale(0.12 -0.12)">
       <defs>
        <path id="DejaVuSans-32" d="M 1228 531 
L 3431 531 
L 3431 0 
L 469 0 
L 469 531 
Q 828 903 1448 1529 
Q 2069 2156 2228 2338 
Q 2531 2678 2651 2914 
Q 2772 3150 2772 3378 
Q 2772 3750 2511 3984 
Q 2250 4219 1831 4219 
Q 1534 4219 1204 4116 
Q 875 4013 500 3803 
L 500 4441 
Q 881 4594 1212 4672 
Q 1544 4750 1819 4750 
Q 2544 4750 2975 4387 
Q 3406 4025 3406 3419 
Q 3406 3131 3298 2873 
Q 3191 2616 2906 2266 
Q 2828 2175 2409 1742 
Q 1991 1309 1228 531 
z
" transform="scale(0.015625)"/>
       </defs>
       <use xlink:href="#DejaVuSans-32"/>
       <use xlink:href="#DejaVuSans-30" x="63.623047"/>
       <use xlink:href="#DejaVuSans-30" x="127.246094"/>
      </g>
     </g>
    </g>
    <g id="xtick_6">
     <g id="line2d_6">
      <g>
       <use xlink:href="#mc44c9a973b" x="335.675682" y="273.312" style="stroke: #000000; stroke-width: 0.8"/>
      </g>
     </g>
     <g id="text_6">
      <!-- 250 -->
      <g transform="translate(324.223182 289.430125) scale(0.12 -0.12)">
       <use xlink:href="#DejaVuSans-32"/>
       <use xlink:href="#DejaVuSans-35" x="63.623047"/>
       <use xlink:href="#DejaVuSans-30" x="127.246094"/>
      </g>
     </g>
    </g>
    <g id="xtick_7">
     <g id="line2d_7">
      <g>
       <use xlink:href="#mc44c9a973b" x="389.784773" y="273.312" style="stroke: #000000; stroke-width: 0.8"/>
      </g>
     </g>
     <g id="text_7">
      <!-- 300 -->
      <g transform="translate(378.332273 289.430125) scale(0.12 -0.12)">
       <defs>
        <path id="DejaVuSans-33" d="M 2597 2516 
Q 3050 2419 3304 2112 
Q 3559 1806 3559 1356 
Q 3559 666 3084 287 
Q 2609 -91 1734 -91 
Q 1441 -91 1130 -33 
Q 819 25 488 141 
L 488 750 
Q 750 597 1062 519 
Q 1375 441 1716 441 
Q 2309 441 2620 675 
Q 2931 909 2931 1356 
Q 2931 1769 2642 2001 
Q 2353 2234 1838 2234 
L 1294 2234 
L 1294 2753 
L 1863 2753 
Q 2328 2753 2575 2939 
Q 2822 3125 2822 3475 
Q 2822 3834 2567 4026 
Q 2313 4219 1838 4219 
Q 1578 4219 1281 4162 
Q 984 4106 628 3988 
L 628 4550 
Q 988 4650 1302 4700 
Q 1616 4750 1894 4750 
Q 2613 4750 3031 4423 
Q 3450 4097 3450 3541 
Q 3450 3153 3228 2886 
Q 3006 2619 2597 2516 
z
" transform="scale(0.015625)"/>
       </defs>
       <use xlink:href="#DejaVuSans-33"/>
       <use xlink:href="#DejaVuSans-30" x="63.623047"/>
       <use xlink:href="#DejaVuSans-30" x="127.246094"/>
      </g>
     </g>
    </g>
    <g id="text_8">
     <!-- Training Iteration -->
     <g transform="translate(176.429375 305.043875) scale(0.12 -0.12)">
      <defs>
       <path id="DejaVuSans-54" d="M -19 4666 
L 3928 4666 
L 3928 4134 
L 2272 4134 
L 2272 0 
L 1638 0 
L 1638 4134 
L -19 4134 
L -19 4666 
z
" transform="scale(0.015625)"/>
       <path id="DejaVuSans-72" d="M 2631 2963 
Q 2534 3019 2420 3045 
Q 2306 3072 2169 3072 
Q 1681 3072 1420 2755 
Q 1159 2438 1159 1844 
L 1159 0 
L 581 0 
L 581 3500 
L 1159 3500 
L 1159 2956 
Q 1341 3275 1631 3429 
Q 1922 3584 2338 3584 
Q 2397 3584 2469 3576 
Q 2541 3569 2628 3553 
L 2631 2963 
z
" transform="scale(0.015625)"/>
       <path id="DejaVuSans-61" d="M 2194 1759 
Q 1497 1759 1228 1600 
Q 959 1441 959 1056 
Q 959 750 1161 570 
Q 1363 391 1709 391 
Q 2188 391 2477 730 
Q 2766 1069 2766 1631 
L 2766 1759 
L 2194 1759 
z
M 3341 1997 
L 3341 0 
L 2766 0 
L 2766 531 
Q 2569 213 2275 61 
Q 1981 -91 1556 -91 
Q 1019 -91 701 211 
Q 384 513 384 1019 
Q 384 1609 779 1909 
Q 1175 2209 1959 2209 
L 2766 2209 
L 2766 2266 
Q 2766 2663 2505 2880 
Q 2244 3097 1772 3097 
Q 1472 3097 1187 3025 
Q 903 2953 641 2809 
L 641 3341 
Q 956 3463 1253 3523 
Q 1550 3584 1831 3584 
Q 2591 3584 2966 3190 
Q 3341 2797 3341 1997 
z
" transform="scale(0.015625)"/>
       <path id="DejaVuSans-69" d="M 603 3500 
L 1178 3500 
L 1178 0 
L 603 0 
L 603 3500 
z
M 603 4863 
L 1178 4863 
L 1178 4134 
L 603 4134 
L 603 4863 
z
" transform="scale(0.015625)"/>
       <path id="DejaVuSans-6e" d="M 3513 2113 
L 3513 0 
L 2938 0 
L 2938 2094 
Q 2938 2591 2744 2837 
Q 2550 3084 2163 3084 
Q 1697 3084 1428 2787 
Q 1159 2491 1159 1978 
L 1159 0 
L 581 0 
L 581 3500 
L 1159 3500 
L 1159 2956 
Q 1366 3272 1645 3428 
Q 1925 3584 2291 3584 
Q 2894 3584 3203 3211 
Q 3513 2838 3513 2113 
z
" transform="scale(0.015625)"/>
       <path id="DejaVuSans-67" d="M 2906 1791 
Q 2906 2416 2648 2759 
Q 2391 3103 1925 3103 
Q 1463 3103 1205 2759 
Q 947 2416 947 1791 
Q 947 1169 1205 825 
Q 1463 481 1925 481 
Q 2391 481 2648 825 
Q 2906 1169 2906 1791 
z
M 3481 434 
Q 3481 -459 3084 -895 
Q 2688 -1331 1869 -1331 
Q 1566 -1331 1297 -1286 
Q 1028 -1241 775 -1147 
L 775 -588 
Q 1028 -725 1275 -790 
Q 1522 -856 1778 -856 
Q 2344 -856 2625 -561 
Q 2906 -266 2906 331 
L 2906 616 
Q 2728 306 2450 153 
Q 2172 0 1784 0 
Q 1141 0 747 490 
Q 353 981 353 1791 
Q 353 2603 747 3093 
Q 1141 3584 1784 3584 
Q 2172 3584 2450 3431 
Q 2728 3278 2906 2969 
L 2906 3500 
L 3481 3500 
L 3481 434 
z
" transform="scale(0.015625)"/>
       <path id="DejaVuSans-20" transform="scale(0.015625)"/>
       <path id="DejaVuSans-49" d="M 628 4666 
L 1259 4666 
L 1259 0 
L 628 0 
L 628 4666 
z
" transform="scale(0.015625)"/>
       <path id="DejaVuSans-74" d="M 1172 4494 
L 1172 3500 
L 2356 3500 
L 2356 3053 
L 1172 3053 
L 1172 1153 
Q 1172 725 1289 603 
Q 1406 481 1766 481 
L 2356 481 
L 2356 0 
L 1766 0 
Q 1100 0 847 248 
Q 594 497 594 1153 
L 594 3053 
L 172 3053 
L 172 3500 
L 594 3500 
L 594 4494 
L 1172 4494 
z
" transform="scale(0.015625)"/>
       <path id="DejaVuSans-65" d="M 3597 1894 
L 3597 1613 
L 953 1613 
Q 991 1019 1311 708 
Q 1631 397 2203 397 
Q 2534 397 2845 478 
Q 3156 559 3463 722 
L 3463 178 
Q 3153 47 2828 -22 
Q 2503 -91 2169 -91 
Q 1331 -91 842 396 
Q 353 884 353 1716 
Q 353 2575 817 3079 
Q 1281 3584 2069 3584 
Q 2775 3584 3186 3129 
Q 3597 2675 3597 1894 
z
M 3022 2063 
Q 3016 2534 2758 2815 
Q 2500 3097 2075 3097 
Q 1594 3097 1305 2825 
Q 1016 2553 972 2059 
L 3022 2063 
z
" transform="scale(0.015625)"/>
       <path id="DejaVuSans-6f" d="M 1959 3097 
Q 1497 3097 1228 2736 
Q 959 2375 959 1747 
Q 959 1119 1226 758 
Q 1494 397 1959 397 
Q 2419 397 2687 759 
Q 2956 1122 2956 1747 
Q 2956 2369 2687 2733 
Q 2419 3097 1959 3097 
z
M 1959 3584 
Q 2709 3584 3137 3096 
Q 3566 2609 3566 1747 
Q 3566 888 3137 398 
Q 2709 -91 1959 -91 
Q 1206 -91 779 398 
Q 353 888 353 1747 
Q 353 2609 779 3096 
Q 1206 3584 1959 3584 
z
" transform="scale(0.015625)"/>
      </defs>
      <use xlink:href="#DejaVuSans-54"/>
      <use xlink:href="#DejaVuSans-72" x="46.333984"/>
      <use xlink:href="#DejaVuSans-61" x="87.447266"/>
      <use xlink:href="#DejaVuSans-69" x="148.726562"/>
      <use xlink:href="#DejaVuSans-6e" x="176.509766"/>
      <use xlink:href="#DejaVuSans-69" x="239.888672"/>
      <use xlink:href="#DejaVuSans-6e" x="267.671875"/>
      <use xlink:href="#DejaVuSans-67" x="331.050781"/>
      <use xlink:href="#DejaVuSans-20" x="394.527344"/>
      <use xlink:href="#DejaVuSans-49" x="426.314453"/>
      <use xlink:href="#DejaVuSans-74" x="455.806641"/>
      <use xlink:href="#DejaVuSans-65" x="495.015625"/>
      <use xlink:href="#DejaVuSans-72" x="556.539062"/>
      <use xlink:href="#DejaVuSans-61" x="597.652344"/>
      <use xlink:href="#DejaVuSans-74" x="658.931641"/>
      <use xlink:href="#DejaVuSans-69" x="698.140625"/>
      <use xlink:href="#DejaVuSans-6f" x="725.923828"/>
      <use xlink:href="#DejaVuSans-6e" x="787.105469"/>
     </g>
    </g>
   </g>
   <g id="matplotlib.axis_2">
    <g id="ytick_1">
     <g id="line2d_8">
      <defs>
       <path id="mea40188949" d="M 0 0 
L -3.5 0 
" style="stroke: #000000; stroke-width: 0.8"/>
      </defs>
      <g>
       <use xlink:href="#mea40188949" x="48.8975" y="241.101697" style="stroke: #000000; stroke-width: 0.8"/>
      </g>
     </g>
     <g id="text_9">
      <!-- 0.1 -->
      <g transform="translate(22.81375 245.660759) scale(0.12 -0.12)">
       <defs>
        <path id="DejaVuSans-2e" d="M 684 794 
L 1344 794 
L 1344 0 
L 684 0 
L 684 794 
z
" transform="scale(0.015625)"/>
       </defs>
       <use xlink:href="#DejaVuSans-30"/>
       <use xlink:href="#DejaVuSans-2e" x="63.623047"/>
       <use xlink:href="#DejaVuSans-31" x="95.410156"/>
      </g>
     </g>
    </g>
    <g id="ytick_2">
     <g id="line2d_9">
      <g>
       <use xlink:href="#mea40188949" x="48.8975" y="208.665035" style="stroke: #000000; stroke-width: 0.8"/>
      </g>
     </g>
     <g id="text_10">
      <!-- 0.2 -->
      <g transform="translate(22.81375 213.224097) scale(0.12 -0.12)">
       <use xlink:href="#DejaVuSans-30"/>
       <use xlink:href="#DejaVuSans-2e" x="63.623047"/>
       <use xlink:href="#DejaVuSans-32" x="95.410156"/>
      </g>
     </g>
    </g>
    <g id="ytick_3">
     <g id="line2d_10">
      <g>
       <use xlink:href="#mea40188949" x="48.8975" y="176.228373" style="stroke: #000000; stroke-width: 0.8"/>
      </g>
     </g>
     <g id="text_11">
      <!-- 0.3 -->
      <g transform="translate(22.81375 180.787435) scale(0.12 -0.12)">
       <use xlink:href="#DejaVuSans-30"/>
       <use xlink:href="#DejaVuSans-2e" x="63.623047"/>
       <use xlink:href="#DejaVuSans-33" x="95.410156"/>
      </g>
     </g>
    </g>
    <g id="ytick_4">
     <g id="line2d_11">
      <g>
       <use xlink:href="#mea40188949" x="48.8975" y="143.791711" style="stroke: #000000; stroke-width: 0.8"/>
      </g>
     </g>
     <g id="text_12">
      <!-- 0.4 -->
      <g transform="translate(22.81375 148.350773) scale(0.12 -0.12)">
       <defs>
        <path id="DejaVuSans-34" d="M 2419 4116 
L 825 1625 
L 2419 1625 
L 2419 4116 
z
M 2253 4666 
L 3047 4666 
L 3047 1625 
L 3713 1625 
L 3713 1100 
L 3047 1100 
L 3047 0 
L 2419 0 
L 2419 1100 
L 313 1100 
L 313 1709 
L 2253 4666 
z
" transform="scale(0.015625)"/>
       </defs>
       <use xlink:href="#DejaVuSans-30"/>
       <use xlink:href="#DejaVuSans-2e" x="63.623047"/>
       <use xlink:href="#DejaVuSans-34" x="95.410156"/>
      </g>
     </g>
    </g>
    <g id="ytick_5">
     <g id="line2d_12">
      <g>
       <use xlink:href="#mea40188949" x="48.8975" y="111.355049" style="stroke: #000000; stroke-width: 0.8"/>
      </g>
     </g>
     <g id="text_13">
      <!-- 0.5 -->
      <g transform="translate(22.81375 115.914111) scale(0.12 -0.12)">
       <use xlink:href="#DejaVuSans-30"/>
       <use xlink:href="#DejaVuSans-2e" x="63.623047"/>
       <use xlink:href="#DejaVuSans-35" x="95.410156"/>
      </g>
     </g>
    </g>
    <g id="ytick_6">
     <g id="line2d_13">
      <g>
       <use xlink:href="#mea40188949" x="48.8975" y="78.918387" style="stroke: #000000; stroke-width: 0.8"/>
      </g>
     </g>
     <g id="text_14">
      <!-- 0.6 -->
      <g transform="translate(22.81375 83.477449) scale(0.12 -0.12)">
       <defs>
        <path id="DejaVuSans-36" d="M 2113 2584 
Q 1688 2584 1439 2293 
Q 1191 2003 1191 1497 
Q 1191 994 1439 701 
Q 1688 409 2113 409 
Q 2538 409 2786 701 
Q 3034 994 3034 1497 
Q 3034 2003 2786 2293 
Q 2538 2584 2113 2584 
z
M 3366 4563 
L 3366 3988 
Q 3128 4100 2886 4159 
Q 2644 4219 2406 4219 
Q 1781 4219 1451 3797 
Q 1122 3375 1075 2522 
Q 1259 2794 1537 2939 
Q 1816 3084 2150 3084 
Q 2853 3084 3261 2657 
Q 3669 2231 3669 1497 
Q 3669 778 3244 343 
Q 2819 -91 2113 -91 
Q 1303 -91 875 529 
Q 447 1150 447 2328 
Q 447 3434 972 4092 
Q 1497 4750 2381 4750 
Q 2619 4750 2861 4703 
Q 3103 4656 3366 4563 
z
" transform="scale(0.015625)"/>
       </defs>
       <use xlink:href="#DejaVuSans-30"/>
       <use xlink:href="#DejaVuSans-2e" x="63.623047"/>
       <use xlink:href="#DejaVuSans-36" x="95.410156"/>
      </g>
     </g>
    </g>
    <g id="ytick_7">
     <g id="line2d_14">
      <g>
       <use xlink:href="#mea40188949" x="48.8975" y="46.481725" style="stroke: #000000; stroke-width: 0.8"/>
      </g>
     </g>
     <g id="text_15">
      <!-- 0.7 -->
      <g transform="translate(22.81375 51.040787) scale(0.12 -0.12)">
       <defs>
        <path id="DejaVuSans-37" d="M 525 4666 
L 3525 4666 
L 3525 4397 
L 1831 0 
L 1172 0 
L 2766 4134 
L 525 4134 
L 525 4666 
z
" transform="scale(0.015625)"/>
       </defs>
       <use xlink:href="#DejaVuSans-30"/>
       <use xlink:href="#DejaVuSans-2e" x="63.623047"/>
       <use xlink:href="#DejaVuSans-37" x="95.410156"/>
      </g>
     </g>
    </g>
    <g id="ytick_8">
     <g id="line2d_15">
      <g>
       <use xlink:href="#mea40188949" x="48.8975" y="14.045063" style="stroke: #000000; stroke-width: 0.8"/>
      </g>
     </g>
     <g id="text_16">
      <!-- 0.8 -->
      <g transform="translate(22.81375 18.604126) scale(0.12 -0.12)">
       <defs>
        <path id="DejaVuSans-38" d="M 2034 2216 
Q 1584 2216 1326 1975 
Q 1069 1734 1069 1313 
Q 1069 891 1326 650 
Q 1584 409 2034 409 
Q 2484 409 2743 651 
Q 3003 894 3003 1313 
Q 3003 1734 2745 1975 
Q 2488 2216 2034 2216 
z
M 1403 2484 
Q 997 2584 770 2862 
Q 544 3141 544 3541 
Q 544 4100 942 4425 
Q 1341 4750 2034 4750 
Q 2731 4750 3128 4425 
Q 3525 4100 3525 3541 
Q 3525 3141 3298 2862 
Q 3072 2584 2669 2484 
Q 3125 2378 3379 2068 
Q 3634 1759 3634 1313 
Q 3634 634 3220 271 
Q 2806 -91 2034 -91 
Q 1263 -91 848 271 
Q 434 634 434 1313 
Q 434 1759 690 2068 
Q 947 2378 1403 2484 
z
M 1172 3481 
Q 1172 3119 1398 2916 
Q 1625 2713 2034 2713 
Q 2441 2713 2670 2916 
Q 2900 3119 2900 3481 
Q 2900 3844 2670 4047 
Q 2441 4250 2034 4250 
Q 1625 4250 1398 4047 
Q 1172 3844 1172 3481 
z
" transform="scale(0.015625)"/>
       </defs>
       <use xlink:href="#DejaVuSans-30"/>
       <use xlink:href="#DejaVuSans-2e" x="63.623047"/>
       <use xlink:href="#DejaVuSans-38" x="95.410156"/>
      </g>
     </g>
    </g>
    <g id="text_17">
     <!-- $R^2$ -->
     <g transform="translate(16.318125 147.696) rotate(-90) scale(0.12 -0.12)">
      <defs>
       <path id="DejaVuSans-Oblique-52" d="M 1613 4147 
L 1294 2491 
L 2106 2491 
Q 2584 2491 2879 2755 
Q 3175 3019 3175 3444 
Q 3175 3784 2976 3965 
Q 2778 4147 2406 4147 
L 1613 4147 
z
M 2772 2241 
Q 2972 2194 3105 2009 
Q 3238 1825 3413 1275 
L 3809 0 
L 3144 0 
L 2778 1197 
Q 2638 1659 2453 1815 
Q 2269 1972 1888 1972 
L 1191 1972 
L 806 0 
L 172 0 
L 1081 4666 
L 2503 4666 
Q 3150 4666 3495 4373 
Q 3841 4081 3841 3531 
Q 3841 3044 3547 2687 
Q 3253 2331 2772 2241 
z
" transform="scale(0.015625)"/>
      </defs>
      <use xlink:href="#DejaVuSans-Oblique-52" transform="translate(0 0.765625)"/>
      <use xlink:href="#DejaVuSans-32" transform="translate(76.499193 39.046875) scale(0.7)"/>
     </g>
    </g>
   </g>
   <g id="line2d_16">
    <path d="M 65.130227 261.216 
L 66.212409 244.296429 
L 67.294591 224.099312 
L 68.376773 207.243054 
L 69.458955 198.724671 
L 70.541136 183.905232 
L 71.623318 182.575611 
L 72.7055 176.704862 
L 73.787682 178.929135 
L 74.869864 172.767704 
L 75.952045 170.956417 
L 77.034227 166.560302 
L 78.116409 158.741 
L 79.198591 170.996398 
L 80.280773 173.512932 
L 81.362955 153.579868 
L 82.445136 166.98195 
L 83.527318 150.78354 
L 84.6095 140.603395 
L 85.691682 140.094059 
L 86.773864 126.975114 
L 87.856045 121.779327 
L 88.938227 110.166953 
L 90.020409 88.103051 
L 91.102591 82.535048 
L 92.184773 62.158382 
L 93.266955 50.004515 
L 94.349136 53.797384 
L 95.431318 49.932584 
L 96.5135 41.265365 
L 97.595682 49.861871 
L 98.677864 35.715372 
L 99.760045 48.585652 
L 100.842227 37.326526 
L 101.924409 48.721987 
L 103.006591 34.788553 
L 104.088773 34.999008 
L 105.170955 32.898302 
L 106.253136 43.006554 
L 107.335318 43.306048 
L 108.4175 34.329808 
L 109.499682 30.379083 
L 110.581864 35.726423 
L 111.664045 40.363072 
L 112.746227 31.036979 
L 113.828409 36.559947 
L 114.910591 43.757053 
L 115.992773 34.742442 
L 117.074955 46.345874 
L 118.157136 32.137957 
L 119.239318 35.406453 
L 120.3215 39.670455 
L 121.403682 40.801077 
L 122.485864 41.168475 
L 123.568045 41.727926 
L 124.650227 44.518015 
L 125.732409 43.004603 
L 126.814591 36.540792 
L 127.896773 38.703901 
L 128.978955 35.708689 
L 130.061136 38.404432 
L 131.143318 32.95083 
L 132.2255 44.988417 
L 133.307682 29.618991 
L 134.389864 35.743743 
L 135.472045 33.107515 
L 136.554227 44.060192 
L 137.636409 37.585387 
L 138.718591 34.530925 
L 139.800773 40.222883 
L 140.882955 35.197641 
L 141.965136 32.384787 
L 143.047318 41.274996 
L 144.1295 34.820058 
L 145.211682 36.909353 
L 146.293864 34.413151 
L 147.376045 37.028148 
L 148.458227 35.016215 
L 149.540409 34.70225 
L 150.622591 35.846392 
L 151.704773 43.130639 
L 152.786955 41.914557 
L 153.869136 34.583289 
L 154.951318 34.643906 
L 156.0335 38.864496 
L 157.115682 35.317041 
L 158.197864 36.369995 
L 159.280045 38.244805 
L 160.362227 34.117602 
L 161.444409 44.332834 
L 162.526591 42.073216 
L 163.608773 36.073487 
L 164.690955 33.517989 
L 165.773136 36.67144 
L 166.855318 38.785673 
L 167.9375 35.23109 
L 169.019682 57.531138 
L 170.101864 40.935142 
L 171.184045 46.47492 
L 172.266227 36.69119 
L 173.348409 40.549993 
L 174.430591 35.402536 
L 175.512773 35.985153 
L 176.594955 32.83217 
L 177.677136 33.544515 
L 178.759318 34.885418 
L 179.8415 35.440179 
L 180.923682 31.593418 
L 182.005864 33.875649 
L 183.088045 30.719879 
L 185.252409 37.308101 
L 186.334591 34.444058 
L 187.416773 36.637627 
L 189.581136 36.303107 
L 190.663318 31.50478 
L 191.7455 33.197247 
L 192.827682 34.579993 
L 193.909864 37.240834 
L 194.992045 33.121309 
L 196.074227 33.328012 
L 197.156409 36.444121 
L 198.238591 33.835246 
L 199.320773 33.152637 
L 200.402955 35.236456 
L 201.485136 35.936083 
L 202.567318 31.409874 
L 203.6495 40.512561 
L 204.731682 34.647001 
L 205.813864 37.560798 
L 206.896045 33.506288 
L 207.978227 36.297701 
L 209.060409 37.628727 
L 210.142591 37.498633 
L 211.224773 35.551223 
L 212.306955 37.952844 
L 213.389136 37.462887 
L 214.471318 37.196828 
L 215.5535 33.941008 
L 216.635682 38.58033 
L 217.717864 35.639675 
L 218.800045 40.138484 
L 219.882227 37.643555 
L 220.964409 38.05208 
L 222.046591 39.156391 
L 223.128773 36.285259 
L 224.210955 39.115786 
L 225.293136 39.39156 
L 226.375318 35.244645 
L 228.539682 42.803456 
L 229.621864 37.907855 
L 230.704045 37.276004 
L 231.786227 38.868753 
L 232.868409 43.550027 
L 233.950591 35.93057 
L 235.032773 35.808919 
L 236.114955 35.131742 
L 237.197136 38.720235 
L 238.279318 39.739894 
L 239.3615 38.198557 
L 240.443682 44.752422 
L 241.525864 42.03104 
L 242.608045 38.8484 
L 243.690227 38.821846 
L 244.772409 37.497897 
L 245.854591 42.402669 
L 246.936773 37.98697 
L 248.018955 38.183967 
L 249.101136 39.930993 
L 250.183318 39.534527 
L 251.2655 40.806248 
L 252.347682 37.827695 
L 253.429864 36.284276 
L 254.512045 36.535497 
L 255.594227 39.196307 
L 256.676409 38.273802 
L 257.758591 38.745287 
L 258.840773 39.928864 
L 259.922955 54.766248 
L 261.005136 43.185283 
L 262.087318 43.362074 
L 263.1695 41.546237 
L 264.251682 40.472117 
L 265.333864 41.772356 
L 266.416045 41.238392 
L 267.498227 44.061604 
L 268.580409 45.618008 
L 269.662591 39.59126 
L 270.744773 46.572166 
L 271.826955 41.777307 
L 272.909136 37.942352 
L 273.991318 42.811441 
L 275.0735 44.101251 
L 276.155682 40.249805 
L 277.237864 42.965025 
L 278.320045 43.41463 
L 279.402227 40.699899 
L 280.484409 41.36849 
L 281.566591 41.821614 
L 282.648773 41.803263 
L 283.730955 52.025658 
L 284.813136 44.276243 
L 285.895318 43.817126 
L 286.9775 41.312676 
L 288.059682 46.825754 
L 289.141864 44.239895 
L 290.224045 49.607744 
L 291.306227 39.176713 
L 292.388409 44.206483 
L 293.470591 38.41385 
L 294.552773 46.567694 
L 295.634955 41.631012 
L 296.717136 43.818686 
L 297.799318 41.831723 
L 298.8815 40.980431 
L 299.963682 42.455919 
L 301.045864 42.531383 
L 302.128045 42.432611 
L 303.210227 38.801645 
L 304.292409 41.76469 
L 305.374591 43.417441 
L 306.456773 38.091697 
L 307.538955 41.018625 
L 308.621136 39.114991 
L 309.703318 41.073488 
L 310.7855 36.350058 
L 311.867682 41.671085 
L 312.949864 40.771944 
L 314.032045 39.65542 
L 315.114227 43.866982 
L 316.196409 37.365208 
L 317.278591 38.636049 
L 318.360773 41.391057 
L 319.442955 42.696112 
L 320.525136 42.078986 
L 321.607318 37.521437 
L 322.6895 38.548606 
L 323.771682 40.207803 
L 324.853864 43.294755 
L 325.936045 40.23668 
L 327.018227 44.390277 
L 328.100409 41.500887 
L 329.182591 44.457769 
L 330.264773 42.651453 
L 331.346955 44.610739 
L 332.429136 48.555786 
L 333.511318 42.026576 
L 334.5935 43.471637 
L 335.675682 44.427622 
L 336.757864 40.556221 
L 337.840045 45.395669 
L 338.922227 41.766729 
L 340.004409 45.6754 
L 341.086591 39.223536 
L 342.168773 41.910106 
L 343.250955 40.137839 
L 344.333136 43.723642 
L 345.415318 42.932051 
L 346.4975 43.979994 
L 347.579682 42.394046 
L 348.661864 45.194153 
L 349.744045 44.915899 
L 350.826227 45.409935 
L 351.908409 41.334118 
L 352.990591 42.220334 
L 354.072773 43.352641 
L 355.154955 49.424012 
L 356.237136 45.956365 
L 357.319318 44.273409 
L 358.4015 47.407956 
L 359.483682 64.407458 
L 360.565864 47.614664 
L 361.648045 41.250783 
L 362.730227 40.987357 
L 363.812409 39.076794 
L 364.894591 41.200029 
L 365.976773 39.270556 
L 367.058955 40.192304 
L 368.141136 39.702213 
L 369.223318 41.322626 
L 370.3055 43.313485 
L 371.387682 41.514825 
L 372.469864 42.09344 
L 373.552045 43.376224 
L 374.634227 43.619435 
L 375.716409 42.750337 
L 376.798591 40.604449 
L 377.880773 44.228186 
L 378.962955 37.542612 
L 380.045136 43.747284 
L 381.127318 39.625901 
L 382.2095 39.057423 
L 383.291682 43.190641 
L 384.373864 41.513074 
L 385.456045 41.192124 
L 386.538227 42.778495 
L 387.620409 42.065458 
L 388.702591 42.439263 
L 389.784773 42.510435 
L 389.784773 42.510435 
" clip-path="url(#p5702f6da5c)" style="fill: none; stroke: #1f77b4; stroke-width: 1.5; stroke-linecap: square"/>
   </g>
   <g id="line2d_17">
    <path d="M 65.130227 261.214004 
L 66.212409 244.398741 
L 67.294591 224.199233 
L 68.376773 207.293775 
L 69.458955 198.420993 
L 70.541136 183.443151 
L 71.623318 181.369053 
L 72.7055 175.389128 
L 73.787682 177.237941 
L 74.869864 172.069389 
L 75.952045 169.012342 
L 77.034227 165.608717 
L 78.116409 157.582713 
L 79.198591 169.514433 
L 80.280773 169.425626 
L 81.362955 151.324591 
L 82.445136 164.533258 
L 83.527318 148.316955 
L 84.6095 138.382123 
L 85.691682 135.789919 
L 86.773864 122.073279 
L 87.856045 117.903355 
L 88.938227 102.809547 
L 90.020409 79.202328 
L 91.102591 75.968608 
L 92.184773 54.136235 
L 93.266955 46.400309 
L 94.349136 49.885233 
L 95.431318 46.308063 
L 96.5135 37.226796 
L 97.595682 43.732206 
L 98.677864 31.706537 
L 99.760045 42.804302 
L 100.842227 30.988405 
L 101.924409 40.794295 
L 103.006591 28.702037 
L 104.088773 29.651378 
L 105.170955 26.75415 
L 106.253136 37.730251 
L 107.335318 34.845572 
L 108.4175 24.963809 
L 109.499682 22.36154 
L 110.581864 28.371696 
L 111.664045 33.206144 
L 112.746227 22.850579 
L 113.828409 28.728967 
L 114.910591 35.725915 
L 115.992773 26.400004 
L 117.074955 36.784387 
L 118.157136 24.476627 
L 119.239318 29.059006 
L 120.3215 28.099794 
L 121.403682 29.506467 
L 122.485864 30.304316 
L 123.568045 32.102826 
L 124.650227 29.997427 
L 125.732409 30.898378 
L 126.814591 25.572151 
L 127.896773 27.632627 
L 128.978955 24.895116 
L 130.061136 26.797689 
L 131.143318 25.946865 
L 132.2255 33.665832 
L 133.307682 20.377327 
L 134.389864 22.829504 
L 135.472045 20.858077 
L 136.554227 31.528554 
L 137.636409 25.280104 
L 138.718591 24.016797 
L 139.800773 28.592985 
L 141.965136 21.379193 
L 143.047318 26.406503 
L 144.1295 25.16232 
L 145.211682 28.410757 
L 146.293864 22.681436 
L 147.376045 23.673208 
L 148.458227 21.633465 
L 149.540409 21.911973 
L 150.622591 23.736243 
L 151.704773 28.647635 
L 152.786955 32.606833 
L 153.869136 21.801363 
L 154.951318 22.509614 
L 156.0335 23.838101 
L 157.115682 23.926599 
L 158.197864 21.98213 
L 159.280045 25.765517 
L 160.362227 23.104832 
L 161.444409 30.718156 
L 162.526591 31.820062 
L 163.608773 24.143816 
L 164.690955 22.368606 
L 165.773136 26.521516 
L 166.855318 25.054386 
L 167.9375 23.892023 
L 169.019682 37.160847 
L 170.101864 29.705486 
L 171.184045 31.080181 
L 172.266227 22.071604 
L 173.348409 21.917811 
L 174.430591 22.528747 
L 175.512773 26.592998 
L 176.594955 26.143095 
L 177.677136 26.792366 
L 178.759318 22.2534 
L 179.8415 25.478276 
L 180.923682 26.454984 
L 182.005864 26.157468 
L 183.088045 23.227689 
L 184.170227 27.084477 
L 185.252409 25.885035 
L 186.334591 25.113355 
L 187.416773 22.771327 
L 188.498955 21.925033 
L 189.581136 22.061354 
L 190.663318 19.296 
L 191.7455 21.445006 
L 192.827682 24.182195 
L 193.909864 25.412759 
L 194.992045 20.880711 
L 196.074227 22.05598 
L 197.156409 25.335143 
L 198.238591 24.07294 
L 199.320773 21.349841 
L 200.402955 21.299125 
L 201.485136 23.953214 
L 202.567318 20.052229 
L 203.6495 27.252816 
L 204.731682 23.434273 
L 205.813864 26.27053 
L 206.896045 23.112022 
L 207.978227 26.154142 
L 209.060409 27.36581 
L 210.142591 26.397728 
L 211.224773 24.032091 
L 212.306955 26.861551 
L 213.389136 26.501117 
L 214.471318 27.183397 
L 215.5535 21.895689 
L 216.635682 25.558245 
L 217.717864 24.700835 
L 218.800045 27.325991 
L 219.882227 26.152975 
L 222.046591 27.127947 
L 223.128773 25.991654 
L 224.210955 27.905398 
L 225.293136 29.185796 
L 226.375318 25.629312 
L 227.4575 27.360245 
L 228.539682 27.515293 
L 229.621864 24.419925 
L 230.704045 25.235472 
L 231.786227 24.777855 
L 232.868409 29.687861 
L 233.950591 25.836939 
L 235.032773 25.954273 
L 236.114955 24.28765 
L 237.197136 27.804239 
L 238.279318 27.491777 
L 239.3615 26.16697 
L 240.443682 29.085475 
L 241.525864 27.233526 
L 242.608045 24.829869 
L 243.690227 24.681864 
L 244.772409 24.929705 
L 245.854591 28.432235 
L 246.936773 28.710351 
L 248.018955 25.463216 
L 249.101136 25.270636 
L 250.183318 26.649922 
L 251.2655 25.062827 
L 252.347682 24.541439 
L 253.429864 23.559372 
L 254.512045 24.474669 
L 255.594227 26.247673 
L 256.676409 26.933054 
L 257.758591 23.493768 
L 258.840773 26.525184 
L 259.922955 37.931791 
L 261.005136 30.62642 
L 262.087318 31.935941 
L 263.1695 28.02975 
L 264.251682 26.939939 
L 265.333864 29.165211 
L 266.416045 27.676727 
L 267.498227 29.867423 
L 268.580409 31.404349 
L 269.662591 25.516825 
L 270.744773 30.600565 
L 271.826955 28.20205 
L 272.909136 25.35548 
L 273.991318 29.311868 
L 275.0735 30.127402 
L 276.155682 25.777649 
L 277.237864 29.536867 
L 278.320045 31.891318 
L 279.402227 27.299995 
L 280.484409 28.923668 
L 281.566591 27.936547 
L 282.648773 29.253454 
L 283.730955 36.964632 
L 284.813136 30.056757 
L 285.895318 32.29433 
L 286.9775 26.837608 
L 288.059682 29.124541 
L 289.141864 27.345388 
L 290.224045 30.374715 
L 291.306227 25.870243 
L 292.388409 27.710976 
L 293.470591 25.388921 
L 294.552773 32.470321 
L 295.634955 29.602485 
L 296.717136 30.890379 
L 297.799318 27.464122 
L 298.8815 24.97572 
L 299.963682 28.273538 
L 301.045864 26.674534 
L 302.128045 26.634746 
L 303.210227 25.33448 
L 305.374591 30.986417 
L 306.456773 25.538121 
L 307.538955 27.320576 
L 308.621136 28.119801 
L 309.703318 30.744648 
L 310.7855 23.317939 
L 311.867682 31.000307 
L 312.949864 28.889727 
L 314.032045 26.304579 
L 315.114227 29.740231 
L 316.196409 24.635807 
L 317.278591 25.003279 
L 318.360773 28.034885 
L 319.442955 27.622902 
L 320.525136 26.946813 
L 321.607318 24.115252 
L 322.6895 24.146265 
L 323.771682 25.415537 
L 324.853864 28.573721 
L 325.936045 25.715762 
L 327.018227 27.199582 
L 328.100409 24.892295 
L 329.182591 28.353541 
L 330.264773 29.150109 
L 331.346955 32.010099 
L 332.429136 33.520943 
L 333.511318 28.368794 
L 334.5935 29.010833 
L 335.675682 28.728751 
L 336.757864 26.606482 
L 337.840045 30.296976 
L 338.922227 27.489593 
L 340.004409 30.817094 
L 341.086591 25.779316 
L 342.168773 27.289191 
L 343.250955 26.968852 
L 344.333136 30.977465 
L 345.415318 30.126744 
L 346.4975 29.062924 
L 347.579682 27.795123 
L 348.661864 31.086529 
L 349.744045 28.358986 
L 350.826227 26.123114 
L 351.908409 25.93985 
L 352.990591 27.378505 
L 354.072773 29.727001 
L 355.154955 32.629812 
L 357.319318 27.735191 
L 358.4015 31.631455 
L 359.483682 59.4057 
L 360.565864 36.611265 
L 361.648045 27.39924 
L 362.730227 30.031282 
L 363.812409 27.208235 
L 364.894591 27.836458 
L 367.058955 27.152329 
L 368.141136 26.569439 
L 369.223318 27.748199 
L 370.3055 30.305378 
L 372.469864 28.497667 
L 374.634227 29.534379 
L 375.716409 29.343138 
L 376.798591 26.199251 
L 377.880773 30.460424 
L 378.962955 29.646214 
L 380.045136 32.089089 
L 381.127318 26.75728 
L 382.2095 26.525303 
L 383.291682 31.023634 
L 384.373864 28.86727 
L 385.456045 27.506501 
L 386.538227 28.795846 
L 388.702591 28.388715 
L 389.784773 28.652262 
L 389.784773 28.652262 
" clip-path="url(#p5702f6da5c)" style="fill: none; stroke: #ff7f0e; stroke-width: 1.5; stroke-linecap: square"/>
   </g>
   <g id="patch_3">
    <path d="M 48.8975 273.312 
L 48.8975 7.2 
" style="fill: none; stroke: #000000; stroke-width: 0.8; stroke-linejoin: miter; stroke-linecap: square"/>
   </g>
   <g id="patch_4">
    <path d="M 406.0175 273.312 
L 406.0175 7.2 
" style="fill: none; stroke: #000000; stroke-width: 0.8; stroke-linejoin: miter; stroke-linecap: square"/>
   </g>
   <g id="patch_5">
    <path d="M 48.8975 273.312 
L 406.0175 273.312 
" style="fill: none; stroke: #000000; stroke-width: 0.8; stroke-linejoin: miter; stroke-linecap: square"/>
   </g>
   <g id="patch_6">
    <path d="M 48.8975 7.2 
L 406.0175 7.2 
" style="fill: none; stroke: #000000; stroke-width: 0.8; stroke-linejoin: miter; stroke-linecap: square"/>
   </g>
   <g id="legend_1">
    <g id="patch_7">
     <path d="M 201.1775 267.312 
L 397.6175 267.312 
Q 400.0175 267.312 400.0175 264.912 
L 400.0175 156.777 
Q 400.0175 154.377 397.6175 154.377 
L 201.1775 154.377 
Q 198.7775 154.377 198.7775 156.777 
L 198.7775 264.912 
Q 198.7775 267.312 201.1775 267.312 
z
" style="fill: #ffffff; opacity: 0.8; stroke: #cccccc; stroke-linejoin: miter"/>
    </g>
    <g id="line2d_18">
     <path d="M 203.5775 164.095125 
L 215.5775 164.095125 
L 227.5775 164.095125 
" style="fill: none; stroke: #1f77b4; stroke-width: 1.5; stroke-linecap: square"/>
    </g>
    <g id="text_18">
     <!-- Smoothing -->
     <g transform="translate(237.1775 168.295125) scale(0.12 -0.12)">
      <defs>
       <path id="DejaVuSans-53" d="M 3425 4513 
L 3425 3897 
Q 3066 4069 2747 4153 
Q 2428 4238 2131 4238 
Q 1616 4238 1336 4038 
Q 1056 3838 1056 3469 
Q 1056 3159 1242 3001 
Q 1428 2844 1947 2747 
L 2328 2669 
Q 3034 2534 3370 2195 
Q 3706 1856 3706 1288 
Q 3706 609 3251 259 
Q 2797 -91 1919 -91 
Q 1588 -91 1214 -16 
Q 841 59 441 206 
L 441 856 
Q 825 641 1194 531 
Q 1563 422 1919 422 
Q 2459 422 2753 634 
Q 3047 847 3047 1241 
Q 3047 1584 2836 1778 
Q 2625 1972 2144 2069 
L 1759 2144 
Q 1053 2284 737 2584 
Q 422 2884 422 3419 
Q 422 4038 858 4394 
Q 1294 4750 2059 4750 
Q 2388 4750 2728 4690 
Q 3069 4631 3425 4513 
z
" transform="scale(0.015625)"/>
       <path id="DejaVuSans-6d" d="M 3328 2828 
Q 3544 3216 3844 3400 
Q 4144 3584 4550 3584 
Q 5097 3584 5394 3201 
Q 5691 2819 5691 2113 
L 5691 0 
L 5113 0 
L 5113 2094 
Q 5113 2597 4934 2840 
Q 4756 3084 4391 3084 
Q 3944 3084 3684 2787 
Q 3425 2491 3425 1978 
L 3425 0 
L 2847 0 
L 2847 2094 
Q 2847 2600 2669 2842 
Q 2491 3084 2119 3084 
Q 1678 3084 1418 2786 
Q 1159 2488 1159 1978 
L 1159 0 
L 581 0 
L 581 3500 
L 1159 3500 
L 1159 2956 
Q 1356 3278 1631 3431 
Q 1906 3584 2284 3584 
Q 2666 3584 2933 3390 
Q 3200 3197 3328 2828 
z
" transform="scale(0.015625)"/>
       <path id="DejaVuSans-68" d="M 3513 2113 
L 3513 0 
L 2938 0 
L 2938 2094 
Q 2938 2591 2744 2837 
Q 2550 3084 2163 3084 
Q 1697 3084 1428 2787 
Q 1159 2491 1159 1978 
L 1159 0 
L 581 0 
L 581 4863 
L 1159 4863 
L 1159 2956 
Q 1366 3272 1645 3428 
Q 1925 3584 2291 3584 
Q 2894 3584 3203 3211 
Q 3513 2838 3513 2113 
z
" transform="scale(0.015625)"/>
      </defs>
      <use xlink:href="#DejaVuSans-53"/>
      <use xlink:href="#DejaVuSans-6d" x="63.476562"/>
      <use xlink:href="#DejaVuSans-6f" x="160.888672"/>
      <use xlink:href="#DejaVuSans-6f" x="222.070312"/>
      <use xlink:href="#DejaVuSans-74" x="283.251953"/>
      <use xlink:href="#DejaVuSans-68" x="322.460938"/>
      <use xlink:href="#DejaVuSans-69" x="385.839844"/>
      <use xlink:href="#DejaVuSans-6e" x="413.623047"/>
      <use xlink:href="#DejaVuSans-67" x="477.001953"/>
     </g>
    </g>
    <g id="line2d_19">
     <path d="M 203.5775 181.708875 
L 215.5775 181.708875 
L 227.5775 181.708875 
" style="fill: none; stroke: #ff7f0e; stroke-width: 1.5; stroke-linecap: square"/>
    </g>
    <g id="text_19">
     <!-- Filtering -->
     <g transform="translate(237.1775 185.908875) scale(0.12 -0.12)">
      <defs>
       <path id="DejaVuSans-46" d="M 628 4666 
L 3309 4666 
L 3309 4134 
L 1259 4134 
L 1259 2759 
L 3109 2759 
L 3109 2228 
L 1259 2228 
L 1259 0 
L 628 0 
L 628 4666 
z
" transform="scale(0.015625)"/>
       <path id="DejaVuSans-6c" d="M 603 4863 
L 1178 4863 
L 1178 0 
L 603 0 
L 603 4863 
z
" transform="scale(0.015625)"/>
      </defs>
      <use xlink:href="#DejaVuSans-46"/>
      <use xlink:href="#DejaVuSans-69" x="50.269531"/>
      <use xlink:href="#DejaVuSans-6c" x="78.052734"/>
      <use xlink:href="#DejaVuSans-74" x="105.835938"/>
      <use xlink:href="#DejaVuSans-65" x="145.044922"/>
      <use xlink:href="#DejaVuSans-72" x="206.568359"/>
      <use xlink:href="#DejaVuSans-69" x="247.681641"/>
      <use xlink:href="#DejaVuSans-6e" x="275.464844"/>
      <use xlink:href="#DejaVuSans-67" x="338.84375"/>
     </g>
    </g>
    <g id="PathCollection_5">
     <g>
      <use xlink:href="#mec5e0b9933" x="215.5775" y="202.1745" style="fill: #1f77b4; stroke: #1f77b4"/>
     </g>
    </g>
    <g id="text_20">
     <!-- Max smoothing $R^2$ = 0.75 -->
     <g transform="translate(237.1775 205.3245) scale(0.12 -0.12)">
      <defs>
       <path id="DejaVuSans-4d" d="M 628 4666 
L 1569 4666 
L 2759 1491 
L 3956 4666 
L 4897 4666 
L 4897 0 
L 4281 0 
L 4281 4097 
L 3078 897 
L 2444 897 
L 1241 4097 
L 1241 0 
L 628 0 
L 628 4666 
z
" transform="scale(0.015625)"/>
       <path id="DejaVuSans-78" d="M 3513 3500 
L 2247 1797 
L 3578 0 
L 2900 0 
L 1881 1375 
L 863 0 
L 184 0 
L 1544 1831 
L 300 3500 
L 978 3500 
L 1906 2253 
L 2834 3500 
L 3513 3500 
z
" transform="scale(0.015625)"/>
       <path id="DejaVuSans-73" d="M 2834 3397 
L 2834 2853 
Q 2591 2978 2328 3040 
Q 2066 3103 1784 3103 
Q 1356 3103 1142 2972 
Q 928 2841 928 2578 
Q 928 2378 1081 2264 
Q 1234 2150 1697 2047 
L 1894 2003 
Q 2506 1872 2764 1633 
Q 3022 1394 3022 966 
Q 3022 478 2636 193 
Q 2250 -91 1575 -91 
Q 1294 -91 989 -36 
Q 684 19 347 128 
L 347 722 
Q 666 556 975 473 
Q 1284 391 1588 391 
Q 1994 391 2212 530 
Q 2431 669 2431 922 
Q 2431 1156 2273 1281 
Q 2116 1406 1581 1522 
L 1381 1569 
Q 847 1681 609 1914 
Q 372 2147 372 2553 
Q 372 3047 722 3315 
Q 1072 3584 1716 3584 
Q 2034 3584 2315 3537 
Q 2597 3491 2834 3397 
z
" transform="scale(0.015625)"/>
       <path id="DejaVuSans-3d" d="M 678 2906 
L 4684 2906 
L 4684 2381 
L 678 2381 
L 678 2906 
z
M 678 1631 
L 4684 1631 
L 4684 1100 
L 678 1100 
L 678 1631 
z
" transform="scale(0.015625)"/>
      </defs>
      <use xlink:href="#DejaVuSans-4d" transform="translate(0 0.765625)"/>
      <use xlink:href="#DejaVuSans-61" transform="translate(86.279297 0.765625)"/>
      <use xlink:href="#DejaVuSans-78" transform="translate(147.558594 0.765625)"/>
      <use xlink:href="#DejaVuSans-20" transform="translate(206.738281 0.765625)"/>
      <use xlink:href="#DejaVuSans-73" transform="translate(238.525391 0.765625)"/>
      <use xlink:href="#DejaVuSans-6d" transform="translate(290.625 0.765625)"/>
      <use xlink:href="#DejaVuSans-6f" transform="translate(388.037109 0.765625)"/>
      <use xlink:href="#DejaVuSans-6f" transform="translate(449.21875 0.765625)"/>
      <use xlink:href="#DejaVuSans-74" transform="translate(510.400391 0.765625)"/>
      <use xlink:href="#DejaVuSans-68" transform="translate(549.609375 0.765625)"/>
      <use xlink:href="#DejaVuSans-69" transform="translate(612.988281 0.765625)"/>
      <use xlink:href="#DejaVuSans-6e" transform="translate(640.771484 0.765625)"/>
      <use xlink:href="#DejaVuSans-67" transform="translate(704.150391 0.765625)"/>
      <use xlink:href="#DejaVuSans-20" transform="translate(767.626953 0.765625)"/>
      <use xlink:href="#DejaVuSans-Oblique-52" transform="translate(799.414062 0.765625)"/>
      <use xlink:href="#DejaVuSans-32" transform="translate(875.913255 39.046875) scale(0.7)"/>
      <use xlink:href="#DejaVuSans-20" transform="translate(923.183763 0.765625)"/>
      <use xlink:href="#DejaVuSans-3d" transform="translate(954.970872 0.765625)"/>
      <use xlink:href="#DejaVuSans-20" transform="translate(1038.759935 0.765625)"/>
      <use xlink:href="#DejaVuSans-30" transform="translate(1070.547044 0.765625)"/>
      <use xlink:href="#DejaVuSans-2e" transform="translate(1134.170091 0.765625)"/>
      <use xlink:href="#DejaVuSans-37" transform="translate(1158.207201 0.765625)"/>
      <use xlink:href="#DejaVuSans-35" transform="translate(1221.830247 0.765625)"/>
     </g>
    </g>
    <g id="PathCollection_6">
     <g>
      <use xlink:href="#m3abb05d556" x="215.5775" y="219.812625" style="fill: #ff7f0e; stroke: #ff7f0e"/>
     </g>
    </g>
    <g id="text_21">
     <!-- Max filter $R^2$ = 0.78 -->
     <g transform="translate(237.1775 222.962625) scale(0.12 -0.12)">
      <defs>
       <path id="DejaVuSans-66" d="M 2375 4863 
L 2375 4384 
L 1825 4384 
Q 1516 4384 1395 4259 
Q 1275 4134 1275 3809 
L 1275 3500 
L 2222 3500 
L 2222 3053 
L 1275 3053 
L 1275 0 
L 697 0 
L 697 3053 
L 147 3053 
L 147 3500 
L 697 3500 
L 697 3744 
Q 697 4328 969 4595 
Q 1241 4863 1831 4863 
L 2375 4863 
z
" transform="scale(0.015625)"/>
      </defs>
      <use xlink:href="#DejaVuSans-4d" transform="translate(0 0.765625)"/>
      <use xlink:href="#DejaVuSans-61" transform="translate(86.279297 0.765625)"/>
      <use xlink:href="#DejaVuSans-78" transform="translate(147.558594 0.765625)"/>
      <use xlink:href="#DejaVuSans-20" transform="translate(206.738281 0.765625)"/>
      <use xlink:href="#DejaVuSans-66" transform="translate(238.525391 0.765625)"/>
      <use xlink:href="#DejaVuSans-69" transform="translate(273.730469 0.765625)"/>
      <use xlink:href="#DejaVuSans-6c" transform="translate(301.513672 0.765625)"/>
      <use xlink:href="#DejaVuSans-74" transform="translate(329.296875 0.765625)"/>
      <use xlink:href="#DejaVuSans-65" transform="translate(368.505859 0.765625)"/>
      <use xlink:href="#DejaVuSans-72" transform="translate(430.029297 0.765625)"/>
      <use xlink:href="#DejaVuSans-20" transform="translate(471.142578 0.765625)"/>
      <use xlink:href="#DejaVuSans-Oblique-52" transform="translate(502.929688 0.765625)"/>
      <use xlink:href="#DejaVuSans-32" transform="translate(579.42888 39.046875) scale(0.7)"/>
      <use xlink:href="#DejaVuSans-20" transform="translate(626.699388 0.765625)"/>
      <use xlink:href="#DejaVuSans-3d" transform="translate(658.486497 0.765625)"/>
      <use xlink:href="#DejaVuSans-20" transform="translate(742.27556 0.765625)"/>
      <use xlink:href="#DejaVuSans-30" transform="translate(774.062669 0.765625)"/>
      <use xlink:href="#DejaVuSans-2e" transform="translate(837.685716 0.765625)"/>
      <use xlink:href="#DejaVuSans-37" transform="translate(861.722826 0.765625)"/>
      <use xlink:href="#DejaVuSans-38" transform="translate(925.345872 0.765625)"/>
     </g>
    </g>
    <g id="PathCollection_7">
     <g>
      <use xlink:href="#m04d924d2c3" x="215.5775" y="239.22825" style="fill: #2ca02c; stroke: #2ca02c"/>
     </g>
    </g>
    <g id="text_22">
     <!-- Final smoothing $R^2$ = 0.71 -->
     <g transform="translate(237.1775 242.37825) scale(0.12 -0.12)">
      <use xlink:href="#DejaVuSans-46" transform="translate(0 0.765625)"/>
      <use xlink:href="#DejaVuSans-69" transform="translate(57.519531 0.765625)"/>
      <use xlink:href="#DejaVuSans-6e" transform="translate(85.302734 0.765625)"/>
      <use xlink:href="#DejaVuSans-61" transform="translate(148.681641 0.765625)"/>
      <use xlink:href="#DejaVuSans-6c" transform="translate(209.960938 0.765625)"/>
      <use xlink:href="#DejaVuSans-20" transform="translate(237.744141 0.765625)"/>
      <use xlink:href="#DejaVuSans-73" transform="translate(269.53125 0.765625)"/>
      <use xlink:href="#DejaVuSans-6d" transform="translate(321.630859 0.765625)"/>
      <use xlink:href="#DejaVuSans-6f" transform="translate(419.042969 0.765625)"/>
      <use xlink:href="#DejaVuSans-6f" transform="translate(480.224609 0.765625)"/>
      <use xlink:href="#DejaVuSans-74" transform="translate(541.40625 0.765625)"/>
      <use xlink:href="#DejaVuSans-68" transform="translate(580.615234 0.765625)"/>
      <use xlink:href="#DejaVuSans-69" transform="translate(643.994141 0.765625)"/>
      <use xlink:href="#DejaVuSans-6e" transform="translate(671.777344 0.765625)"/>
      <use xlink:href="#DejaVuSans-67" transform="translate(735.15625 0.765625)"/>
      <use xlink:href="#DejaVuSans-20" transform="translate(798.632812 0.765625)"/>
      <use xlink:href="#DejaVuSans-Oblique-52" transform="translate(830.419922 0.765625)"/>
      <use xlink:href="#DejaVuSans-32" transform="translate(906.919115 39.046875) scale(0.7)"/>
      <use xlink:href="#DejaVuSans-20" transform="translate(954.189622 0.765625)"/>
      <use xlink:href="#DejaVuSans-3d" transform="translate(985.976732 0.765625)"/>
      <use xlink:href="#DejaVuSans-20" transform="translate(1069.765794 0.765625)"/>
      <use xlink:href="#DejaVuSans-30" transform="translate(1101.552904 0.765625)"/>
      <use xlink:href="#DejaVuSans-2e" transform="translate(1165.175951 0.765625)"/>
      <use xlink:href="#DejaVuSans-37" transform="translate(1189.21306 0.765625)"/>
      <use xlink:href="#DejaVuSans-31" transform="translate(1252.836107 0.765625)"/>
     </g>
    </g>
    <g id="PathCollection_8">
     <g>
      <use xlink:href="#m6465ded0ba" x="215.5775" y="256.866375" style="fill: #d62728; stroke: #d62728"/>
     </g>
    </g>
    <g id="text_23">
     <!-- Final filter $R^2$ = 0.75 -->
     <g transform="translate(237.1775 260.016375) scale(0.12 -0.12)">
      <use xlink:href="#DejaVuSans-46" transform="translate(0 0.765625)"/>
      <use xlink:href="#DejaVuSans-69" transform="translate(57.519531 0.765625)"/>
      <use xlink:href="#DejaVuSans-6e" transform="translate(85.302734 0.765625)"/>
      <use xlink:href="#DejaVuSans-61" transform="translate(148.681641 0.765625)"/>
      <use xlink:href="#DejaVuSans-6c" transform="translate(209.960938 0.765625)"/>
      <use xlink:href="#DejaVuSans-20" transform="translate(237.744141 0.765625)"/>
      <use xlink:href="#DejaVuSans-66" transform="translate(269.53125 0.765625)"/>
      <use xlink:href="#DejaVuSans-69" transform="translate(304.736328 0.765625)"/>
      <use xlink:href="#DejaVuSans-6c" transform="translate(332.519531 0.765625)"/>
      <use xlink:href="#DejaVuSans-74" transform="translate(360.302734 0.765625)"/>
      <use xlink:href="#DejaVuSans-65" transform="translate(399.511719 0.765625)"/>
      <use xlink:href="#DejaVuSans-72" transform="translate(461.035156 0.765625)"/>
      <use xlink:href="#DejaVuSans-20" transform="translate(502.148438 0.765625)"/>
      <use xlink:href="#DejaVuSans-Oblique-52" transform="translate(533.935547 0.765625)"/>
      <use xlink:href="#DejaVuSans-32" transform="translate(610.43474 39.046875) scale(0.7)"/>
      <use xlink:href="#DejaVuSans-20" transform="translate(657.705247 0.765625)"/>
      <use xlink:href="#DejaVuSans-3d" transform="translate(689.492357 0.765625)"/>
      <use xlink:href="#DejaVuSans-20" transform="translate(773.281419 0.765625)"/>
      <use xlink:href="#DejaVuSans-30" transform="translate(805.068529 0.765625)"/>
      <use xlink:href="#DejaVuSans-2e" transform="translate(868.691576 0.765625)"/>
      <use xlink:href="#DejaVuSans-37" transform="translate(892.728685 0.765625)"/>
      <use xlink:href="#DejaVuSans-35" transform="translate(956.351732 0.765625)"/>
     </g>
    </g>
   </g>
  </g>
 </g>
 <defs>
  <clipPath id="p5702f6da5c">
   <rect x="48.8975" y="7.2" width="357.12" height="266.112"/>
  </clipPath>
 </defs>
</svg>
