<?xml version="1.0" encoding="utf-8" standalone="no"?>
<!DOCTYPE svg PUBLIC "-//W3C//DTD SVG 1.1//EN"
  "http://www.w3.org/Graphics/SVG/1.1/DTD/svg11.dtd">
<svg xmlns:xlink="http://www.w3.org/1999/xlink" width="406.467126pt" height="297.190125pt" viewBox="0 0 406.467126 297.190125" xmlns="http://www.w3.org/2000/svg" version="1.1">
 <metadata>
  <rdf:RDF xmlns:dc="http://purl.org/dc/elements/1.1/" xmlns:cc="http://creativecommons.org/ns#" xmlns:rdf="http://www.w3.org/1999/02/22-rdf-syntax-ns#">
   <cc:Work>
    <dc:type rdf:resource="http://purl.org/dc/dcmitype/StillImage"/>
    <dc:date>2024-05-19T16:17:14.085557</dc:date>
    <dc:format>image/svg+xml</dc:format>
    <dc:creator>
     <cc:Agent>
      <dc:title>Matplotlib v3.7.2, https://matplotlib.org/</dc:title>
     </cc:Agent>
    </dc:creator>
   </cc:Work>
  </rdf:RDF>
 </metadata>
 <defs>
  <style type="text/css">*{stroke-linejoin: round; stroke-linecap: butt}</style>
 </defs>
 <g id="figure_1">
  <g id="patch_1">
   <path d="M 0 297.190125 
L 406.467126 297.190125 
L 406.467126 0 
L 0 0 
z
" style="fill: #ffffff"/>
  </g>
  <g id="axes_1">
   <g id="patch_2">
    <path d="M 38.482813 273.312 
L 395.602813 273.312 
L 395.602813 7.2 
L 38.482813 7.2 
z
" style="fill: #ffffff"/>
   </g>
   <g id="matplotlib.axis_1">
    <g id="xtick_1">
     <g id="line2d_1">
      <defs>
       <path id="m44c79857d6" d="M 0 0 
L 0 3.5 
" style="stroke: #000000; stroke-width: 0.8"/>
      </defs>
      <g>
       <use xlink:href="#m44c79857d6" x="80.520911" y="273.312" style="stroke: #000000; stroke-width: 0.8"/>
      </g>
     </g>
     <g id="text_1">
      <!-- −1.5 -->
      <g transform="translate(68.379505 287.910437) scale(0.1 -0.1)">
       <defs>
        <path id="DejaVuSans-2212" d="M 678 2272 
L 4684 2272 
L 4684 1741 
L 678 1741 
L 678 2272 
z
" transform="scale(0.015625)"/>
        <path id="DejaVuSans-31" d="M 794 531 
L 1825 531 
L 1825 4091 
L 703 3866 
L 703 4441 
L 1819 4666 
L 2450 4666 
L 2450 531 
L 3481 531 
L 3481 0 
L 794 0 
L 794 531 
z
" transform="scale(0.015625)"/>
        <path id="DejaVuSans-2e" d="M 684 794 
L 1344 794 
L 1344 0 
L 684 0 
L 684 794 
z
" transform="scale(0.015625)"/>
        <path id="DejaVuSans-35" d="M 691 4666 
L 3169 4666 
L 3169 4134 
L 1269 4134 
L 1269 2991 
Q 1406 3038 1543 3061 
Q 1681 3084 1819 3084 
Q 2600 3084 3056 2656 
Q 3513 2228 3513 1497 
Q 3513 744 3044 326 
Q 2575 -91 1722 -91 
Q 1428 -91 1123 -41 
Q 819 9 494 109 
L 494 744 
Q 775 591 1075 516 
Q 1375 441 1709 441 
Q 2250 441 2565 725 
Q 2881 1009 2881 1497 
Q 2881 1984 2565 2268 
Q 2250 2553 1709 2553 
Q 1456 2553 1204 2497 
Q 953 2441 691 2322 
L 691 4666 
z
" transform="scale(0.015625)"/>
       </defs>
       <use xlink:href="#DejaVuSans-2212"/>
       <use xlink:href="#DejaVuSans-31" x="83.789062"/>
       <use xlink:href="#DejaVuSans-2e" x="147.412109"/>
       <use xlink:href="#DejaVuSans-35" x="179.199219"/>
      </g>
     </g>
    </g>
    <g id="xtick_2">
     <g id="line2d_2">
      <g>
       <use xlink:href="#m44c79857d6" x="124.920147" y="273.312" style="stroke: #000000; stroke-width: 0.8"/>
      </g>
     </g>
     <g id="text_2">
      <!-- −1.0 -->
      <g transform="translate(112.778741 287.910437) scale(0.1 -0.1)">
       <defs>
        <path id="DejaVuSans-30" d="M 2034 4250 
Q 1547 4250 1301 3770 
Q 1056 3291 1056 2328 
Q 1056 1369 1301 889 
Q 1547 409 2034 409 
Q 2525 409 2770 889 
Q 3016 1369 3016 2328 
Q 3016 3291 2770 3770 
Q 2525 4250 2034 4250 
z
M 2034 4750 
Q 2819 4750 3233 4129 
Q 3647 3509 3647 2328 
Q 3647 1150 3233 529 
Q 2819 -91 2034 -91 
Q 1250 -91 836 529 
Q 422 1150 422 2328 
Q 422 3509 836 4129 
Q 1250 4750 2034 4750 
z
" transform="scale(0.015625)"/>
       </defs>
       <use xlink:href="#DejaVuSans-2212"/>
       <use xlink:href="#DejaVuSans-31" x="83.789062"/>
       <use xlink:href="#DejaVuSans-2e" x="147.412109"/>
       <use xlink:href="#DejaVuSans-30" x="179.199219"/>
      </g>
     </g>
    </g>
    <g id="xtick_3">
     <g id="line2d_3">
      <g>
       <use xlink:href="#m44c79857d6" x="169.319383" y="273.312" style="stroke: #000000; stroke-width: 0.8"/>
      </g>
     </g>
     <g id="text_3">
      <!-- −0.5 -->
      <g transform="translate(157.177977 287.910437) scale(0.1 -0.1)">
       <use xlink:href="#DejaVuSans-2212"/>
       <use xlink:href="#DejaVuSans-30" x="83.789062"/>
       <use xlink:href="#DejaVuSans-2e" x="147.412109"/>
       <use xlink:href="#DejaVuSans-35" x="179.199219"/>
      </g>
     </g>
    </g>
    <g id="xtick_4">
     <g id="line2d_4">
      <g>
       <use xlink:href="#m44c79857d6" x="213.71862" y="273.312" style="stroke: #000000; stroke-width: 0.8"/>
      </g>
     </g>
     <g id="text_4">
      <!-- 0.0 -->
      <g transform="translate(205.767057 287.910437) scale(0.1 -0.1)">
       <use xlink:href="#DejaVuSans-30"/>
       <use xlink:href="#DejaVuSans-2e" x="63.623047"/>
       <use xlink:href="#DejaVuSans-30" x="95.410156"/>
      </g>
     </g>
    </g>
    <g id="xtick_5">
     <g id="line2d_5">
      <g>
       <use xlink:href="#m44c79857d6" x="258.117856" y="273.312" style="stroke: #000000; stroke-width: 0.8"/>
      </g>
     </g>
     <g id="text_5">
      <!-- 0.5 -->
      <g transform="translate(250.166293 287.910437) scale(0.1 -0.1)">
       <use xlink:href="#DejaVuSans-30"/>
       <use xlink:href="#DejaVuSans-2e" x="63.623047"/>
       <use xlink:href="#DejaVuSans-35" x="95.410156"/>
      </g>
     </g>
    </g>
    <g id="xtick_6">
     <g id="line2d_6">
      <g>
       <use xlink:href="#m44c79857d6" x="302.517092" y="273.312" style="stroke: #000000; stroke-width: 0.8"/>
      </g>
     </g>
     <g id="text_6">
      <!-- 1.0 -->
      <g transform="translate(294.565529 287.910437) scale(0.1 -0.1)">
       <use xlink:href="#DejaVuSans-31"/>
       <use xlink:href="#DejaVuSans-2e" x="63.623047"/>
       <use xlink:href="#DejaVuSans-30" x="95.410156"/>
      </g>
     </g>
    </g>
    <g id="xtick_7">
     <g id="line2d_7">
      <g>
       <use xlink:href="#m44c79857d6" x="346.916328" y="273.312" style="stroke: #000000; stroke-width: 0.8"/>
      </g>
     </g>
     <g id="text_7">
      <!-- 1.5 -->
      <g transform="translate(338.964765 287.910437) scale(0.1 -0.1)">
       <use xlink:href="#DejaVuSans-31"/>
       <use xlink:href="#DejaVuSans-2e" x="63.623047"/>
       <use xlink:href="#DejaVuSans-35" x="95.410156"/>
      </g>
     </g>
    </g>
    <g id="xtick_8">
     <g id="line2d_8">
      <g>
       <use xlink:href="#m44c79857d6" x="391.315564" y="273.312" style="stroke: #000000; stroke-width: 0.8"/>
      </g>
     </g>
     <g id="text_8">
      <!-- 2.0 -->
      <g transform="translate(383.364001 287.910437) scale(0.1 -0.1)">
       <defs>
        <path id="DejaVuSans-32" d="M 1228 531 
L 3431 531 
L 3431 0 
L 469 0 
L 469 531 
Q 828 903 1448 1529 
Q 2069 2156 2228 2338 
Q 2531 2678 2651 2914 
Q 2772 3150 2772 3378 
Q 2772 3750 2511 3984 
Q 2250 4219 1831 4219 
Q 1534 4219 1204 4116 
Q 875 4013 500 3803 
L 500 4441 
Q 881 4594 1212 4672 
Q 1544 4750 1819 4750 
Q 2544 4750 2975 4387 
Q 3406 4025 3406 3419 
Q 3406 3131 3298 2873 
Q 3191 2616 2906 2266 
Q 2828 2175 2409 1742 
Q 1991 1309 1228 531 
z
" transform="scale(0.015625)"/>
       </defs>
       <use xlink:href="#DejaVuSans-32"/>
       <use xlink:href="#DejaVuSans-2e" x="63.623047"/>
       <use xlink:href="#DejaVuSans-30" x="95.410156"/>
      </g>
     </g>
    </g>
   </g>
   <g id="matplotlib.axis_2">
    <g id="ytick_1">
     <g id="line2d_9">
      <defs>
       <path id="m7c9a37d0db" d="M 0 0 
L -3.5 0 
" style="stroke: #000000; stroke-width: 0.8"/>
      </defs>
      <g>
       <use xlink:href="#m7c9a37d0db" x="38.482813" y="248.115512" style="stroke: #000000; stroke-width: 0.8"/>
      </g>
     </g>
     <g id="text_9">
      <!-- −1.5 -->
      <g transform="translate(7.2 251.914731) scale(0.1 -0.1)">
       <use xlink:href="#DejaVuSans-2212"/>
       <use xlink:href="#DejaVuSans-31" x="83.789062"/>
       <use xlink:href="#DejaVuSans-2e" x="147.412109"/>
       <use xlink:href="#DejaVuSans-35" x="179.199219"/>
      </g>
     </g>
    </g>
    <g id="ytick_2">
     <g id="line2d_10">
      <g>
       <use xlink:href="#m7c9a37d0db" x="38.482813" y="216.048668" style="stroke: #000000; stroke-width: 0.8"/>
      </g>
     </g>
     <g id="text_10">
      <!-- −1.0 -->
      <g transform="translate(7.2 219.847886) scale(0.1 -0.1)">
       <use xlink:href="#DejaVuSans-2212"/>
       <use xlink:href="#DejaVuSans-31" x="83.789062"/>
       <use xlink:href="#DejaVuSans-2e" x="147.412109"/>
       <use xlink:href="#DejaVuSans-30" x="179.199219"/>
      </g>
     </g>
    </g>
    <g id="ytick_3">
     <g id="line2d_11">
      <g>
       <use xlink:href="#m7c9a37d0db" x="38.482813" y="183.981823" style="stroke: #000000; stroke-width: 0.8"/>
      </g>
     </g>
     <g id="text_11">
      <!-- −0.5 -->
      <g transform="translate(7.2 187.781042) scale(0.1 -0.1)">
       <use xlink:href="#DejaVuSans-2212"/>
       <use xlink:href="#DejaVuSans-30" x="83.789062"/>
       <use xlink:href="#DejaVuSans-2e" x="147.412109"/>
       <use xlink:href="#DejaVuSans-35" x="179.199219"/>
      </g>
     </g>
    </g>
    <g id="ytick_4">
     <g id="line2d_12">
      <g>
       <use xlink:href="#m7c9a37d0db" x="38.482813" y="151.914979" style="stroke: #000000; stroke-width: 0.8"/>
      </g>
     </g>
     <g id="text_12">
      <!-- 0.0 -->
      <g transform="translate(15.579688 155.714198) scale(0.1 -0.1)">
       <use xlink:href="#DejaVuSans-30"/>
       <use xlink:href="#DejaVuSans-2e" x="63.623047"/>
       <use xlink:href="#DejaVuSans-30" x="95.410156"/>
      </g>
     </g>
    </g>
    <g id="ytick_5">
     <g id="line2d_13">
      <g>
       <use xlink:href="#m7c9a37d0db" x="38.482813" y="119.848135" style="stroke: #000000; stroke-width: 0.8"/>
      </g>
     </g>
     <g id="text_13">
      <!-- 0.5 -->
      <g transform="translate(15.579688 123.647353) scale(0.1 -0.1)">
       <use xlink:href="#DejaVuSans-30"/>
       <use xlink:href="#DejaVuSans-2e" x="63.623047"/>
       <use xlink:href="#DejaVuSans-35" x="95.410156"/>
      </g>
     </g>
    </g>
    <g id="ytick_6">
     <g id="line2d_14">
      <g>
       <use xlink:href="#m7c9a37d0db" x="38.482813" y="87.78129" style="stroke: #000000; stroke-width: 0.8"/>
      </g>
     </g>
     <g id="text_14">
      <!-- 1.0 -->
      <g transform="translate(15.579688 91.580509) scale(0.1 -0.1)">
       <use xlink:href="#DejaVuSans-31"/>
       <use xlink:href="#DejaVuSans-2e" x="63.623047"/>
       <use xlink:href="#DejaVuSans-30" x="95.410156"/>
      </g>
     </g>
    </g>
    <g id="ytick_7">
     <g id="line2d_15">
      <g>
       <use xlink:href="#m7c9a37d0db" x="38.482813" y="55.714446" style="stroke: #000000; stroke-width: 0.8"/>
      </g>
     </g>
     <g id="text_15">
      <!-- 1.5 -->
      <g transform="translate(15.579688 59.513665) scale(0.1 -0.1)">
       <use xlink:href="#DejaVuSans-31"/>
       <use xlink:href="#DejaVuSans-2e" x="63.623047"/>
       <use xlink:href="#DejaVuSans-35" x="95.410156"/>
      </g>
     </g>
    </g>
    <g id="ytick_8">
     <g id="line2d_16">
      <g>
       <use xlink:href="#m7c9a37d0db" x="38.482813" y="23.647602" style="stroke: #000000; stroke-width: 0.8"/>
      </g>
     </g>
     <g id="text_16">
      <!-- 2.0 -->
      <g transform="translate(15.579688 27.44682) scale(0.1 -0.1)">
       <use xlink:href="#DejaVuSans-32"/>
       <use xlink:href="#DejaVuSans-2e" x="63.623047"/>
       <use xlink:href="#DejaVuSans-30" x="95.410156"/>
      </g>
     </g>
    </g>
   </g>
   <g id="line2d_17">
    <path d="M 215.252142 235.354524 
L 166.958726 258.743469 
L 175.781811 251.272952 
L 184.696734 227.084463 
L 236.217268 174.494326 
L 213.263516 169.586167 
L 197.044635 189.615441 
L 196.388744 179.236608 
L 222.575963 204.615512 
L 271.405733 162.116574 
L 301.09036 152.257135 
L 268.751251 122.97209 
L 244.002605 107.079748 
L 259.514858 108.577058 
L 243.602949 135.569898 
L 228.897075 135.837214 
L 242.772636 157.647551 
L 246.467496 103.08277 
L 267.395341 111.214309 
L 276.297502 77.038739 
L 335.417083 78.067579 
L 263.270974 81.663107 
L 264.361339 133.617542 
L 250.557855 134.389983 
L 249.68602 130.29743 
L 259.28814 159.588461 
L 253.419946 134.014946 
L 242.568207 152.098644 
L 240.717243 153.735422 
L 217.449681 138.127664 
L 250.540887 187.191624 
L 169.330016 213.851291 
L 238.670105 190.070313 
L 251.277064 261.216 
L 212.144879 243.317036 
L 219.402097 232.147519 
L 257.369134 195.685936 
L 248.559317 124.745398 
L 311.627702 97.7752 
L 244.51651 39.280161 
L 234.598248 19.296 
L 235.741471 85.531982 
L 150.456842 108.236901 
L 181.359427 71.667271 
L 193.525314 55.763738 
L 129.970453 74.101984 
L 108.722836 56.996167 
L 121.329621 39.718289 
L 74.663932 60.493534 
L 137.516948 46.819354 
L 138.801945 73.328649 
L 131.066646 111.614887 
L 179.652059 96.931155 
L 200.70521 87.518 
L 214.408906 85.241688 
L 208.513961 111.780703 
L 239.495437 127.156972 
L 220.67914 140.872463 
L 263.157139 156.034043 
L 229.025115 142.110887 
L 196.180592 137.657167 
L 209.873673 117.687199 
L 262.51977 85.159873 
L 245.397613 144.529112 
L 265.301815 119.266665 
L 244.015379 122.608541 
L 293.291436 124.530007 
L 327.343894 149.373094 
L 379.370085 198.071511 
L 344.677967 232.638775 
L 343.517266 235.558053 
L 299.444609 225.131888 
L 295.676372 232.454015 
L 281.725431 186.403219 
L 350.038148 148.730684 
L 280.842308 137.97754 
L 226.696003 131.871125 
L 182.016051 176.194039 
L 162.516659 170.00661 
L 228.41057 164.746385 
L 216.378349 124.658931 
L 153.824077 139.792241 
L 161.123755 110.673694 
L 94.311402 75.726798 
L 70.840431 131.944597 
L 54.71554 90.507518 
L 86.297687 58.021217 
L 129.640999 64.471464 
L 151.741742 104.787335 
L 171.548577 119.809314 
L 191.885411 134.078115 
L 223.661797 133.406912 
L 220.899443 129.000914 
L 142.825681 120.858474 
L 160.276208 54.833892 
L 213.063843 95.915936 
L 220.92858 118.410135 
L 201.224364 107.750101 
L 214.09998 100.01832 
L 268.909294 105.0015 
" clip-path="url(#p2c1444c516)" style="fill: none; stroke: #000000; stroke-width: 1.5; stroke-linecap: square"/>
   </g>
   <g id="line2d_18">
    <path d="M 187.044995 231.79693 
L 184.771712 251.6822 
L 185.420122 247.474578 
L 185.350481 219.450243 
L 180.52871 183.75808 
L 172.41482 160.33187 
L 169.747894 156.891346 
L 182.480142 164.279714 
L 212.373473 167.211458 
L 249.429792 157.47927 
L 277.879322 137.70983 
L 286.262994 118.099234 
L 273.895747 111.343698 
L 250.781696 123.970626 
L 232.158781 147.312546 
L 230.264674 160.78668 
L 247.584463 149.278474 
L 276.152492 116.856946 
L 303.357378 82.188377 
L 319.554469 62.876418 
L 322.294837 64.950316 
L 315.604156 82.571054 
L 305.838491 104.049259 
L 296.998128 120.60842 
L 288.899631 131.651387 
L 279.378141 140.756083 
L 267.39573 148.867634 
L 253.706361 154.799241 
L 239.969857 159.552206 
L 228.456376 166.030919 
L 221.607083 176.585741 
L 220.486698 193.320332 
L 224.148378 217.100193 
L 231.479776 242.21384 
L 242.831981 254.298766 
L 258.107943 238.292088 
L 273.074702 190.64202 
L 279.140714 125.040437 
L 268.512272 67.142566 
L 240.675733 40.338901 
L 204.320398 49.943218 
L 172.422366 78.536213 
L 153.765707 100.045442 
L 147.438032 100.799834 
L 144.720248 85.881491 
L 136.334374 67.14541 
L 118.697199 51.308988 
L 95.296711 40.638913 
L 74.436202 37.839013 
L 65.801073 44.4259 
L 76.402748 56.926441 
L 106.576251 69.612488 
L 148.734498 80.438331 
L 190.667382 91.200953 
L 221.046387 103.270283 
L 233.287139 116.379154 
L 226.915479 129.794756 
L 207.595751 141.522578 
L 185.52139 148.372258 
L 171.378728 149.598227 
L 171.546765 148.590121 
L 185.786349 148.411506 
L 208.914819 146.778978 
L 234.761615 138.45594 
L 259.25919 124.163848 
L 281.106761 115.210054 
L 300.865433 125.314117 
L 319.678434 156.52243 
L 337.746454 195.469597 
L 352.841843 224.615929 
L 360.248151 235.077763 
L 355.042773 227.924885 
L 335.344892 207.704984 
L 303.916675 180.250506 
L 267.148265 155.56687 
L 232.755836 145.371534 
L 207.454087 152.96897 
L 194.431023 168.158015 
L 191.037515 175.968996 
L 189.110212 169.313558 
L 179.388004 151.716946 
L 157.481579 131.426568 
L 127.194082 115.413463 
L 99.320236 105.176805 
L 86.500305 95.701459 
L 96.208308 81.584916 
L 125.911215 65.134078 
L 164.144252 55.50507 
L 196.818312 60.003186 
L 214.260167 77.646782 
L 215.059792 99.000589 
L 205.39376 111.398748 
L 194.706838 108.318941 
L 190.477602 95.949049 
L 195.203303 88.094593 
L 206.745014 93.007392 
L 220.686893 106.5742 
L 232.623305 118.922168 
L 239.206637 126.181772 
L 238.260259 134.574796 
" clip-path="url(#p2c1444c516)" style="fill: none; stroke: #1f77b4; stroke-width: 1.5; stroke-linecap: square"/>
   </g>
   <g id="line2d_19">
    <path d="M 181.277287 231.731138 
L 175.009813 240.101329 
L 166.16228 251.077474 
L 177.098179 219.940206 
L 195.746336 186.281314 
L 178.092918 166.068151 
L 166.637865 162.692905 
L 165.152886 173.115104 
L 219.812846 173.107435 
L 264.667348 151.124262 
L 261.036877 144.657645 
L 279.677161 133.924612 
L 283.705152 113.721255 
L 248.75999 117.429489 
L 222.287898 154.999649 
L 231.592239 154.745206 
L 255.263889 149.360809 
L 272.426807 116.062836 
L 291.802504 75.964333 
L 305.367842 85.839292 
L 326.348083 71.20727 
L 305.724079 73.961145 
L 284.460807 116.581926 
L 296.44668 121.917601 
L 304.575508 116.908725 
L 275.003741 140.307736 
L 249.992313 152.717173 
L 265.426248 152.783771 
L 246.049434 157.958851 
L 227.331869 169.97837 
L 220.222211 185.49969 
L 207.431923 195.828162 
L 227.626836 203.559534 
L 249.630455 239.402706 
L 227.392818 240.432827 
L 231.106371 224.747951 
L 269.815689 182.573657 
L 276.273317 123.762798 
L 264.075995 84.442268 
L 225.712448 42.456706 
L 192.982053 52.637615 
L 167.140498 82.418103 
L 144.998637 104.025111 
L 139.854929 88.434042 
L 142.826866 71.941652 
L 128.309059 67.72677 
L 102.691584 56.426518 
L 95.945447 42.628062 
L 82.965059 40.803535 
L 66.930465 43.525639 
L 73.873296 58.841831 
L 105.791822 76.555485 
L 151.030946 70.707258 
L 184.562518 84.021067 
L 200.973384 114.982819 
L 219.451021 107.409504 
L 217.790373 121.899069 
L 206.557393 142.006176 
L 184.801406 148.059266 
L 171.090137 143.14689 
L 170.519844 147.732361 
L 191.189492 149.538063 
L 221.411056 140.414939 
L 234.320534 148.551888 
L 261.540035 133.448438 
L 277.751555 121.491669 
L 292.053656 130.281679 
L 313.63294 160.285799 
L 336.095085 197.380587 
L 344.909877 221.561564 
L 347.150489 218.954412 
L 356.883472 217.994217 
L 333.216514 205.932919 
L 303.417783 183.09348 
L 276.440757 161.848673 
L 238.632346 136.075906 
L 213.981998 147.537073 
L 190.897304 165.606574 
L 185.390667 167.288102 
L 182.650076 155.556026 
L 179.253783 139.005317 
L 154.701585 141.083948 
L 128.684591 103.48357 
L 107.937777 94.197701 
L 100.216158 109.420367 
L 104.191081 81.169179 
L 124.314265 55.061434 
L 177.149744 63.619099 
L 197.867802 60.396145 
L 208.580244 73.815296 
L 207.754835 83.185301 
L 211.491772 109.143308 
L 200.264525 103.882795 
L 189.925923 86.798957 
L 197.53291 88.396859 
L 208.086038 92.433682 
L 225.552664 107.736258 
L 224.414804 118.105171 
L 228.970134 124.347631 
L 231.760469 133.701382 
" clip-path="url(#p2c1444c516)" style="fill: none; stroke: #ff7f0e; stroke-width: 1.5; stroke-linecap: square"/>
   </g>
   <g id="patch_3">
    <path d="M 38.482813 273.312 
L 38.482813 7.2 
" style="fill: none; stroke: #000000; stroke-width: 0.8; stroke-linejoin: miter; stroke-linecap: square"/>
   </g>
   <g id="patch_4">
    <path d="M 38.482813 273.312 
L 395.602813 273.312 
" style="fill: none; stroke: #000000; stroke-width: 0.8; stroke-linejoin: miter; stroke-linecap: square"/>
   </g>
   <g id="legend_1">
    <g id="patch_5">
     <path d="M 336.080938 59.234375 
L 388.602813 59.234375 
Q 390.602813 59.234375 390.602813 57.234375 
L 390.602813 14.2 
Q 390.602813 12.2 388.602813 12.2 
L 336.080938 12.2 
Q 334.080938 12.2 334.080938 14.2 
L 334.080938 57.234375 
Q 334.080938 59.234375 336.080938 59.234375 
z
" style="fill: #ffffff; opacity: 0.8; stroke: #cccccc; stroke-linejoin: miter"/>
    </g>
    <g id="line2d_20">
     <path d="M 338.080938 20.298437 
L 348.080938 20.298437 
L 358.080938 20.298437 
" style="fill: none; stroke: #000000; stroke-width: 1.5; stroke-linecap: square"/>
    </g>
    <g id="text_17">
     <!-- true -->
     <g transform="translate(366.080938 23.798437) scale(0.1 -0.1)">
      <defs>
       <path id="DejaVuSans-74" d="M 1172 4494 
L 1172 3500 
L 2356 3500 
L 2356 3053 
L 1172 3053 
L 1172 1153 
Q 1172 725 1289 603 
Q 1406 481 1766 481 
L 2356 481 
L 2356 0 
L 1766 0 
Q 1100 0 847 248 
Q 594 497 594 1153 
L 594 3053 
L 172 3053 
L 172 3500 
L 594 3500 
L 594 4494 
L 1172 4494 
z
" transform="scale(0.015625)"/>
       <path id="DejaVuSans-72" d="M 2631 2963 
Q 2534 3019 2420 3045 
Q 2306 3072 2169 3072 
Q 1681 3072 1420 2755 
Q 1159 2438 1159 1844 
L 1159 0 
L 581 0 
L 581 3500 
L 1159 3500 
L 1159 2956 
Q 1341 3275 1631 3429 
Q 1922 3584 2338 3584 
Q 2397 3584 2469 3576 
Q 2541 3569 2628 3553 
L 2631 2963 
z
" transform="scale(0.015625)"/>
       <path id="DejaVuSans-75" d="M 544 1381 
L 544 3500 
L 1119 3500 
L 1119 1403 
Q 1119 906 1312 657 
Q 1506 409 1894 409 
Q 2359 409 2629 706 
Q 2900 1003 2900 1516 
L 2900 3500 
L 3475 3500 
L 3475 0 
L 2900 0 
L 2900 538 
Q 2691 219 2414 64 
Q 2138 -91 1772 -91 
Q 1169 -91 856 284 
Q 544 659 544 1381 
z
M 1991 3584 
L 1991 3584 
z
" transform="scale(0.015625)"/>
       <path id="DejaVuSans-65" d="M 3597 1894 
L 3597 1613 
L 953 1613 
Q 991 1019 1311 708 
Q 1631 397 2203 397 
Q 2534 397 2845 478 
Q 3156 559 3463 722 
L 3463 178 
Q 3153 47 2828 -22 
Q 2503 -91 2169 -91 
Q 1331 -91 842 396 
Q 353 884 353 1716 
Q 353 2575 817 3079 
Q 1281 3584 2069 3584 
Q 2775 3584 3186 3129 
Q 3597 2675 3597 1894 
z
M 3022 2063 
Q 3016 2534 2758 2815 
Q 2500 3097 2075 3097 
Q 1594 3097 1305 2825 
Q 1016 2553 972 2059 
L 3022 2063 
z
" transform="scale(0.015625)"/>
      </defs>
      <use xlink:href="#DejaVuSans-74"/>
      <use xlink:href="#DejaVuSans-72" x="39.208984"/>
      <use xlink:href="#DejaVuSans-75" x="80.322266"/>
      <use xlink:href="#DejaVuSans-65" x="143.701172"/>
     </g>
    </g>
    <g id="line2d_21">
     <path d="M 338.080938 34.976562 
L 348.080938 34.976562 
L 358.080938 34.976562 
" style="fill: none; stroke: #1f77b4; stroke-width: 1.5; stroke-linecap: square"/>
    </g>
    <g id="text_18">
     <!-- SE -->
     <g transform="translate(366.080938 38.476562) scale(0.1 -0.1)">
      <defs>
       <path id="DejaVuSans-53" d="M 3425 4513 
L 3425 3897 
Q 3066 4069 2747 4153 
Q 2428 4238 2131 4238 
Q 1616 4238 1336 4038 
Q 1056 3838 1056 3469 
Q 1056 3159 1242 3001 
Q 1428 2844 1947 2747 
L 2328 2669 
Q 3034 2534 3370 2195 
Q 3706 1856 3706 1288 
Q 3706 609 3251 259 
Q 2797 -91 1919 -91 
Q 1588 -91 1214 -16 
Q 841 59 441 206 
L 441 856 
Q 825 641 1194 531 
Q 1563 422 1919 422 
Q 2459 422 2753 634 
Q 3047 847 3047 1241 
Q 3047 1584 2836 1778 
Q 2625 1972 2144 2069 
L 1759 2144 
Q 1053 2284 737 2584 
Q 422 2884 422 3419 
Q 422 4038 858 4394 
Q 1294 4750 2059 4750 
Q 2388 4750 2728 4690 
Q 3069 4631 3425 4513 
z
" transform="scale(0.015625)"/>
       <path id="DejaVuSans-45" d="M 628 4666 
L 3578 4666 
L 3578 4134 
L 1259 4134 
L 1259 2753 
L 3481 2753 
L 3481 2222 
L 1259 2222 
L 1259 531 
L 3634 531 
L 3634 0 
L 628 0 
L 628 4666 
z
" transform="scale(0.015625)"/>
      </defs>
      <use xlink:href="#DejaVuSans-53"/>
      <use xlink:href="#DejaVuSans-45" x="63.476562"/>
     </g>
    </g>
    <g id="line2d_22">
     <path d="M 338.080938 49.654687 
L 348.080938 49.654687 
L 358.080938 49.654687 
" style="fill: none; stroke: #ff7f0e; stroke-width: 1.5; stroke-linecap: square"/>
    </g>
    <g id="text_19">
     <!-- OU -->
     <g transform="translate(366.080938 53.154687) scale(0.1 -0.1)">
      <defs>
       <path id="DejaVuSans-4f" d="M 2522 4238 
Q 1834 4238 1429 3725 
Q 1025 3213 1025 2328 
Q 1025 1447 1429 934 
Q 1834 422 2522 422 
Q 3209 422 3611 934 
Q 4013 1447 4013 2328 
Q 4013 3213 3611 3725 
Q 3209 4238 2522 4238 
z
M 2522 4750 
Q 3503 4750 4090 4092 
Q 4678 3434 4678 2328 
Q 4678 1225 4090 567 
Q 3503 -91 2522 -91 
Q 1538 -91 948 565 
Q 359 1222 359 2328 
Q 359 3434 948 4092 
Q 1538 4750 2522 4750 
z
" transform="scale(0.015625)"/>
       <path id="DejaVuSans-55" d="M 556 4666 
L 1191 4666 
L 1191 1831 
Q 1191 1081 1462 751 
Q 1734 422 2344 422 
Q 2950 422 3222 751 
Q 3494 1081 3494 1831 
L 3494 4666 
L 4128 4666 
L 4128 1753 
Q 4128 841 3676 375 
Q 3225 -91 2344 -91 
Q 1459 -91 1007 375 
Q 556 841 556 1753 
L 556 4666 
z
" transform="scale(0.015625)"/>
      </defs>
      <use xlink:href="#DejaVuSans-4f"/>
      <use xlink:href="#DejaVuSans-55" x="78.710938"/>
     </g>
    </g>
   </g>
  </g>
 </g>
 <defs>
  <clipPath id="p2c1444c516">
   <rect x="38.482813" y="7.2" width="357.12" height="266.112"/>
  </clipPath>
 </defs>
</svg>
