<?xml version="1.0" encoding="utf-8" standalone="no"?>
<!DOCTYPE svg PUBLIC "-//W3C//DTD SVG 1.1//EN"
  "http://www.w3.org/Graphics/SVG/1.1/DTD/svg11.dtd">
<svg xmlns:xlink="http://www.w3.org/1999/xlink" width="393.262187pt" height="297.190125pt" viewBox="0 0 393.262187 297.190125" xmlns="http://www.w3.org/2000/svg" version="1.1">
 <metadata>
  <rdf:RDF xmlns:dc="http://purl.org/dc/elements/1.1/" xmlns:cc="http://creativecommons.org/ns#" xmlns:rdf="http://www.w3.org/1999/02/22-rdf-syntax-ns#">
   <cc:Work>
    <dc:type rdf:resource="http://purl.org/dc/dcmitype/StillImage"/>
    <dc:date>2024-05-19T16:15:47.897874</dc:date>
    <dc:format>image/svg+xml</dc:format>
    <dc:creator>
     <cc:Agent>
      <dc:title>Matplotlib v3.7.2, https://matplotlib.org/</dc:title>
     </cc:Agent>
    </dc:creator>
   </cc:Work>
  </rdf:RDF>
 </metadata>
 <defs>
  <style type="text/css">*{stroke-linejoin: round; stroke-linecap: butt}</style>
 </defs>
 <g id="figure_1">
  <g id="patch_1">
   <path d="M 0 297.190125 
L 393.262187 297.190125 
L 393.262187 0 
L 0 0 
z
" style="fill: #ffffff"/>
  </g>
  <g id="axes_1">
   <g id="patch_2">
    <path d="M 28.942188 273.312 
L 386.062188 273.312 
L 386.062188 7.2 
L 28.942188 7.2 
z
" style="fill: #ffffff"/>
   </g>
   <g id="matplotlib.axis_1">
    <g id="xtick_1">
     <g id="line2d_1">
      <defs>
       <path id="m50f8358ef2" d="M 0 0 
L 0 3.5 
" style="stroke: #000000; stroke-width: 0.8"/>
      </defs>
      <g>
       <use xlink:href="#m50f8358ef2" x="45.174915" y="273.312" style="stroke: #000000; stroke-width: 0.8"/>
      </g>
     </g>
     <g id="text_1">
      <!-- 0 -->
      <g transform="translate(41.993665 287.910437) scale(0.1 -0.1)">
       <defs>
        <path id="DejaVuSans-30" d="M 2034 4250 
Q 1547 4250 1301 3770 
Q 1056 3291 1056 2328 
Q 1056 1369 1301 889 
Q 1547 409 2034 409 
Q 2525 409 2770 889 
Q 3016 1369 3016 2328 
Q 3016 3291 2770 3770 
Q 2525 4250 2034 4250 
z
M 2034 4750 
Q 2819 4750 3233 4129 
Q 3647 3509 3647 2328 
Q 3647 1150 3233 529 
Q 2819 -91 2034 -91 
Q 1250 -91 836 529 
Q 422 1150 422 2328 
Q 422 3509 836 4129 
Q 1250 4750 2034 4750 
z
" transform="scale(0.015625)"/>
       </defs>
       <use xlink:href="#DejaVuSans-30"/>
      </g>
     </g>
    </g>
    <g id="xtick_2">
     <g id="line2d_2">
      <g>
       <use xlink:href="#m50f8358ef2" x="110.235946" y="273.312" style="stroke: #000000; stroke-width: 0.8"/>
      </g>
     </g>
     <g id="text_2">
      <!-- 100 -->
      <g transform="translate(100.692196 287.910437) scale(0.1 -0.1)">
       <defs>
        <path id="DejaVuSans-31" d="M 794 531 
L 1825 531 
L 1825 4091 
L 703 3866 
L 703 4441 
L 1819 4666 
L 2450 4666 
L 2450 531 
L 3481 531 
L 3481 0 
L 794 0 
L 794 531 
z
" transform="scale(0.015625)"/>
       </defs>
       <use xlink:href="#DejaVuSans-31"/>
       <use xlink:href="#DejaVuSans-30" x="63.623047"/>
       <use xlink:href="#DejaVuSans-30" x="127.246094"/>
      </g>
     </g>
    </g>
    <g id="xtick_3">
     <g id="line2d_3">
      <g>
       <use xlink:href="#m50f8358ef2" x="175.296977" y="273.312" style="stroke: #000000; stroke-width: 0.8"/>
      </g>
     </g>
     <g id="text_3">
      <!-- 200 -->
      <g transform="translate(165.753227 287.910437) scale(0.1 -0.1)">
       <defs>
        <path id="DejaVuSans-32" d="M 1228 531 
L 3431 531 
L 3431 0 
L 469 0 
L 469 531 
Q 828 903 1448 1529 
Q 2069 2156 2228 2338 
Q 2531 2678 2651 2914 
Q 2772 3150 2772 3378 
Q 2772 3750 2511 3984 
Q 2250 4219 1831 4219 
Q 1534 4219 1204 4116 
Q 875 4013 500 3803 
L 500 4441 
Q 881 4594 1212 4672 
Q 1544 4750 1819 4750 
Q 2544 4750 2975 4387 
Q 3406 4025 3406 3419 
Q 3406 3131 3298 2873 
Q 3191 2616 2906 2266 
Q 2828 2175 2409 1742 
Q 1991 1309 1228 531 
z
" transform="scale(0.015625)"/>
       </defs>
       <use xlink:href="#DejaVuSans-32"/>
       <use xlink:href="#DejaVuSans-30" x="63.623047"/>
       <use xlink:href="#DejaVuSans-30" x="127.246094"/>
      </g>
     </g>
    </g>
    <g id="xtick_4">
     <g id="line2d_4">
      <g>
       <use xlink:href="#m50f8358ef2" x="240.358008" y="273.312" style="stroke: #000000; stroke-width: 0.8"/>
      </g>
     </g>
     <g id="text_4">
      <!-- 300 -->
      <g transform="translate(230.814258 287.910437) scale(0.1 -0.1)">
       <defs>
        <path id="DejaVuSans-33" d="M 2597 2516 
Q 3050 2419 3304 2112 
Q 3559 1806 3559 1356 
Q 3559 666 3084 287 
Q 2609 -91 1734 -91 
Q 1441 -91 1130 -33 
Q 819 25 488 141 
L 488 750 
Q 750 597 1062 519 
Q 1375 441 1716 441 
Q 2309 441 2620 675 
Q 2931 909 2931 1356 
Q 2931 1769 2642 2001 
Q 2353 2234 1838 2234 
L 1294 2234 
L 1294 2753 
L 1863 2753 
Q 2328 2753 2575 2939 
Q 2822 3125 2822 3475 
Q 2822 3834 2567 4026 
Q 2313 4219 1838 4219 
Q 1578 4219 1281 4162 
Q 984 4106 628 3988 
L 628 4550 
Q 988 4650 1302 4700 
Q 1616 4750 1894 4750 
Q 2613 4750 3031 4423 
Q 3450 4097 3450 3541 
Q 3450 3153 3228 2886 
Q 3006 2619 2597 2516 
z
" transform="scale(0.015625)"/>
       </defs>
       <use xlink:href="#DejaVuSans-33"/>
       <use xlink:href="#DejaVuSans-30" x="63.623047"/>
       <use xlink:href="#DejaVuSans-30" x="127.246094"/>
      </g>
     </g>
    </g>
    <g id="xtick_5">
     <g id="line2d_5">
      <g>
       <use xlink:href="#m50f8358ef2" x="305.419039" y="273.312" style="stroke: #000000; stroke-width: 0.8"/>
      </g>
     </g>
     <g id="text_5">
      <!-- 400 -->
      <g transform="translate(295.875289 287.910437) scale(0.1 -0.1)">
       <defs>
        <path id="DejaVuSans-34" d="M 2419 4116 
L 825 1625 
L 2419 1625 
L 2419 4116 
z
M 2253 4666 
L 3047 4666 
L 3047 1625 
L 3713 1625 
L 3713 1100 
L 3047 1100 
L 3047 0 
L 2419 0 
L 2419 1100 
L 313 1100 
L 313 1709 
L 2253 4666 
z
" transform="scale(0.015625)"/>
       </defs>
       <use xlink:href="#DejaVuSans-34"/>
       <use xlink:href="#DejaVuSans-30" x="63.623047"/>
       <use xlink:href="#DejaVuSans-30" x="127.246094"/>
      </g>
     </g>
    </g>
    <g id="xtick_6">
     <g id="line2d_6">
      <g>
       <use xlink:href="#m50f8358ef2" x="370.480071" y="273.312" style="stroke: #000000; stroke-width: 0.8"/>
      </g>
     </g>
     <g id="text_6">
      <!-- 500 -->
      <g transform="translate(360.936321 287.910437) scale(0.1 -0.1)">
       <defs>
        <path id="DejaVuSans-35" d="M 691 4666 
L 3169 4666 
L 3169 4134 
L 1269 4134 
L 1269 2991 
Q 1406 3038 1543 3061 
Q 1681 3084 1819 3084 
Q 2600 3084 3056 2656 
Q 3513 2228 3513 1497 
Q 3513 744 3044 326 
Q 2575 -91 1722 -91 
Q 1428 -91 1123 -41 
Q 819 9 494 109 
L 494 744 
Q 775 591 1075 516 
Q 1375 441 1709 441 
Q 2250 441 2565 725 
Q 2881 1009 2881 1497 
Q 2881 1984 2565 2268 
Q 2250 2553 1709 2553 
Q 1456 2553 1204 2497 
Q 953 2441 691 2322 
L 691 4666 
z
" transform="scale(0.015625)"/>
       </defs>
       <use xlink:href="#DejaVuSans-35"/>
       <use xlink:href="#DejaVuSans-30" x="63.623047"/>
       <use xlink:href="#DejaVuSans-30" x="127.246094"/>
      </g>
     </g>
    </g>
   </g>
   <g id="matplotlib.axis_2">
    <g id="ytick_1">
     <g id="line2d_7">
      <defs>
       <path id="mdf12ca11f0" d="M 0 0 
L -3.5 0 
" style="stroke: #000000; stroke-width: 0.8"/>
      </defs>
      <g>
       <use xlink:href="#mdf12ca11f0" x="28.942188" y="252.37292" style="stroke: #000000; stroke-width: 0.8"/>
      </g>
     </g>
     <g id="text_7">
      <!-- −3 -->
      <g transform="translate(7.2 256.172139) scale(0.1 -0.1)">
       <defs>
        <path id="DejaVuSans-2212" d="M 678 2272 
L 4684 2272 
L 4684 1741 
L 678 1741 
L 678 2272 
z
" transform="scale(0.015625)"/>
       </defs>
       <use xlink:href="#DejaVuSans-2212"/>
       <use xlink:href="#DejaVuSans-33" x="83.789062"/>
      </g>
     </g>
    </g>
    <g id="ytick_2">
     <g id="line2d_8">
      <g>
       <use xlink:href="#mdf12ca11f0" x="28.942188" y="216.645574" style="stroke: #000000; stroke-width: 0.8"/>
      </g>
     </g>
     <g id="text_8">
      <!-- −2 -->
      <g transform="translate(7.2 220.444793) scale(0.1 -0.1)">
       <use xlink:href="#DejaVuSans-2212"/>
       <use xlink:href="#DejaVuSans-32" x="83.789062"/>
      </g>
     </g>
    </g>
    <g id="ytick_3">
     <g id="line2d_9">
      <g>
       <use xlink:href="#mdf12ca11f0" x="28.942188" y="180.918229" style="stroke: #000000; stroke-width: 0.8"/>
      </g>
     </g>
     <g id="text_9">
      <!-- −1 -->
      <g transform="translate(7.2 184.717447) scale(0.1 -0.1)">
       <use xlink:href="#DejaVuSans-2212"/>
       <use xlink:href="#DejaVuSans-31" x="83.789062"/>
      </g>
     </g>
    </g>
    <g id="ytick_4">
     <g id="line2d_10">
      <g>
       <use xlink:href="#mdf12ca11f0" x="28.942188" y="145.190883" style="stroke: #000000; stroke-width: 0.8"/>
      </g>
     </g>
     <g id="text_10">
      <!-- 0 -->
      <g transform="translate(15.579688 148.990102) scale(0.1 -0.1)">
       <use xlink:href="#DejaVuSans-30"/>
      </g>
     </g>
    </g>
    <g id="ytick_5">
     <g id="line2d_11">
      <g>
       <use xlink:href="#mdf12ca11f0" x="28.942188" y="109.463537" style="stroke: #000000; stroke-width: 0.8"/>
      </g>
     </g>
     <g id="text_11">
      <!-- 1 -->
      <g transform="translate(15.579688 113.262756) scale(0.1 -0.1)">
       <use xlink:href="#DejaVuSans-31"/>
      </g>
     </g>
    </g>
    <g id="ytick_6">
     <g id="line2d_12">
      <g>
       <use xlink:href="#mdf12ca11f0" x="28.942188" y="73.736191" style="stroke: #000000; stroke-width: 0.8"/>
      </g>
     </g>
     <g id="text_12">
      <!-- 2 -->
      <g transform="translate(15.579688 77.53541) scale(0.1 -0.1)">
       <use xlink:href="#DejaVuSans-32"/>
      </g>
     </g>
    </g>
    <g id="ytick_7">
     <g id="line2d_13">
      <g>
       <use xlink:href="#mdf12ca11f0" x="28.942188" y="38.008846" style="stroke: #000000; stroke-width: 0.8"/>
      </g>
     </g>
     <g id="text_13">
      <!-- 3 -->
      <g transform="translate(15.579688 41.808064) scale(0.1 -0.1)">
       <use xlink:href="#DejaVuSans-33"/>
      </g>
     </g>
    </g>
   </g>
   <g id="line2d_14">
    <path d="M 45.174915 163.444199 
L 45.825525 114.010115 
L 46.476135 192.555946 
L 47.126746 72.600808 
L 47.777356 157.648655 
L 48.427966 157.509945 
L 49.078577 100.719477 
L 49.729187 110.408987 
L 50.379797 46.877905 
L 51.030408 140.985469 
L 51.681018 137.034033 
L 52.331628 185.21202 
L 52.982239 144.196356 
L 53.632849 158.408648 
L 54.283459 149.270536 
L 54.934069 196.411989 
L 55.58468 75.829742 
L 56.23529 186.979085 
L 56.8859 237.786344 
L 57.536511 181.485471 
L 58.187121 161.975889 
L 58.837731 182.852529 
L 59.488342 103.920886 
L 60.138952 149.466254 
L 60.789562 145.02812 
L 61.440173 125.54244 
L 62.090783 138.573339 
L 62.741393 115.295861 
L 63.392003 191.373499 
L 64.042614 172.763108 
L 64.693224 130.834578 
L 65.343834 246.529816 
L 65.994445 206.342268 
L 66.645055 140.392444 
L 67.295665 176.345077 
L 67.946276 126.426493 
L 68.596886 131.416563 
L 69.247496 203.349503 
L 69.898107 145.998568 
L 70.548717 117.349957 
L 71.849938 194.111291 
L 72.500548 126.970203 
L 73.151158 134.756512 
L 73.801768 137.046005 
L 74.452379 129.764498 
L 75.102989 261.216 
L 75.753599 121.643288 
L 76.40421 87.448876 
L 77.05482 135.455 
L 77.70543 143.281433 
L 78.356041 124.531985 
L 79.006651 136.736326 
L 79.657261 125.119978 
L 80.307872 148.134339 
L 80.958482 175.561988 
L 81.609092 184.237357 
L 82.259703 184.401228 
L 82.910313 198.360852 
L 83.560923 188.186369 
L 84.211533 87.989444 
L 84.862144 124.965487 
L 85.512754 175.317776 
L 86.163364 168.070658 
L 86.813975 151.259097 
L 87.464585 179.843172 
L 88.765806 130.705238 
L 89.416416 160.588735 
L 90.067026 147.921058 
L 90.717637 128.60206 
L 91.368247 170.026193 
L 92.018857 149.796602 
L 92.669468 170.301796 
L 93.320078 159.145386 
L 93.970688 168.220534 
L 94.621298 173.66129 
L 95.271909 146.425077 
L 95.922519 130.054922 
L 96.573129 142.626563 
L 97.22374 127.581402 
L 97.87435 169.386688 
L 98.52496 183.80066 
L 99.175571 123.866055 
L 99.826181 112.385291 
L 100.476791 133.599144 
L 101.127402 85.839031 
L 101.778012 100.356261 
L 102.428622 35.923278 
L 103.079232 137.855618 
L 103.729843 165.406356 
L 104.380453 155.237311 
L 105.031063 148.109593 
L 105.681674 110.067612 
L 106.332284 203.437411 
L 106.982894 78.621353 
L 107.633505 133.852273 
L 108.284115 133.912659 
L 108.934725 163.699772 
L 109.585336 129.526796 
L 110.235946 125.546009 
L 110.886556 131.196571 
L 111.537167 115.761898 
L 112.187777 150.148224 
L 112.838387 162.413602 
L 113.488997 112.210499 
L 114.139608 129.682938 
L 114.790218 127.540546 
L 115.440828 98.060131 
L 116.091439 173.64857 
L 116.742049 168.780381 
L 117.392659 94.300602 
L 118.04327 193.070841 
L 118.69388 187.628972 
L 119.34449 112.267523 
L 119.995101 133.503934 
L 120.645711 138.667078 
L 121.296321 145.997299 
L 121.946932 141.779863 
L 122.597542 146.235053 
L 123.248152 94.43162 
L 123.898762 156.858147 
L 124.549373 148.032364 
L 125.199983 77.646971 
L 125.850593 140.125797 
L 126.501204 60.581341 
L 127.151814 143.168792 
L 127.802424 89.547307 
L 128.453035 196.435044 
L 129.103645 130.629748 
L 129.754255 191.512843 
L 130.404866 103.508845 
L 131.055476 175.81046 
L 131.706086 121.197485 
L 132.356697 140.370518 
L 133.007307 170.750307 
L 133.657917 186.471513 
L 134.308527 146.312206 
L 134.959138 65.521665 
L 135.609748 138.087003 
L 136.260358 94.970287 
L 136.910969 130.164915 
L 137.561579 97.429777 
L 138.212189 194.869292 
L 139.51341 97.902297 
L 140.16402 138.949436 
L 140.814631 137.559382 
L 141.465241 151.214625 
L 142.115851 96.102073 
L 142.766462 127.795145 
L 143.417072 138.005623 
L 144.067682 117.629594 
L 144.718292 120.469342 
L 145.368903 134.613764 
L 146.019513 87.494996 
L 146.670123 145.301615 
L 147.320734 133.406642 
L 147.971344 166.305598 
L 148.621954 137.747406 
L 149.272565 85.927736 
L 149.923175 164.934966 
L 150.573785 181.501786 
L 151.224396 104.192655 
L 151.875006 143.694029 
L 152.525616 133.328577 
L 153.176226 136.602562 
L 153.826837 130.310929 
L 154.477447 100.885934 
L 155.128057 159.458606 
L 155.778668 163.989091 
L 156.429278 123.409364 
L 157.079888 182.76473 
L 157.730499 173.744198 
L 158.381109 57.761897 
L 159.031719 97.639542 
L 159.68233 125.806658 
L 160.33294 82.447751 
L 160.98355 165.534989 
L 161.634161 141.695317 
L 162.284771 110.504941 
L 162.935381 103.510111 
L 163.585991 119.635613 
L 164.236602 231.341267 
L 165.537822 128.131906 
L 166.188433 159.761314 
L 166.839043 57.786588 
L 167.489653 116.547179 
L 168.140264 130.436048 
L 168.790874 190.648042 
L 169.441484 152.057685 
L 170.092095 141.972217 
L 170.742705 109.884014 
L 171.393315 118.129169 
L 172.043926 112.028891 
L 172.694536 181.200514 
L 173.345146 96.960342 
L 173.995756 195.946242 
L 175.296977 129.7549 
L 175.947587 149.86333 
L 176.598198 179.927236 
L 177.248808 172.960493 
L 177.899418 198.730548 
L 178.550029 124.427858 
L 179.200639 98.647688 
L 179.851249 147.762872 
L 180.50186 159.206969 
L 181.15247 198.449247 
L 181.80308 114.346611 
L 182.453691 69.232047 
L 183.104301 213.802185 
L 183.754911 188.953504 
L 184.405521 176.588415 
L 185.056132 173.73953 
L 185.706742 146.602004 
L 186.357352 98.039922 
L 187.007963 120.482908 
L 187.658573 138.272718 
L 188.309183 183.384154 
L 188.959794 197.711484 
L 189.610404 186.164307 
L 190.261014 102.183805 
L 190.911625 159.31248 
L 191.562235 172.521187 
L 192.212845 162.427318 
L 192.863455 125.583499 
L 193.514066 201.036252 
L 194.164676 102.60406 
L 194.815286 146.557802 
L 195.465897 158.88737 
L 196.116507 134.409638 
L 196.767117 141.619319 
L 197.417728 161.084858 
L 198.068338 157.416295 
L 198.718948 179.323352 
L 199.369559 125.073185 
L 200.020169 168.17291 
L 200.670779 184.410706 
L 201.972 106.319178 
L 202.62261 158.01085 
L 203.27322 180.916532 
L 203.923831 148.042239 
L 204.574441 96.858555 
L 205.225051 221.70641 
L 205.875662 160.049221 
L 206.526272 170.212864 
L 207.176882 139.7132 
L 207.827493 149.189151 
L 208.478103 194.231878 
L 209.128713 250.200586 
L 209.779324 163.061825 
L 210.429934 222.928014 
L 211.080544 227.447146 
L 211.731155 152.45534 
L 212.381765 225.242947 
L 213.032375 141.211775 
L 213.682985 177.451753 
L 214.333596 175.743327 
L 214.984206 173.528391 
L 215.634816 240.162432 
L 216.285427 242.051839 
L 216.936037 167.754841 
L 217.586647 151.994308 
L 218.237258 166.164673 
L 218.887868 195.310822 
L 219.538478 162.146827 
L 220.189089 162.633087 
L 220.839699 190.787668 
L 221.490309 117.258917 
L 222.14092 212.20899 
L 222.79153 126.291022 
L 223.44214 130.591697 
L 224.09275 105.358536 
L 224.743361 174.63768 
L 225.393971 132.637344 
L 226.044581 56.561419 
L 226.695192 108.75587 
L 227.345802 127.568734 
L 227.996412 111.173283 
L 228.647023 127.176667 
L 229.297633 52.341081 
L 230.598854 135.850105 
L 231.249464 125.437098 
L 231.900074 150.319408 
L 232.550684 95.163465 
L 233.201295 190.663589 
L 233.851905 199.699734 
L 234.502515 92.002721 
L 235.153126 68.696865 
L 235.803736 130.115275 
L 236.454346 143.765506 
L 237.104957 125.009905 
L 237.755567 172.113494 
L 238.406177 143.252586 
L 239.056788 148.296716 
L 239.707398 127.6237 
L 240.358008 206.051293 
L 241.008619 168.968623 
L 241.659229 121.222474 
L 242.309839 176.183246 
L 242.960449 188.209395 
L 243.61106 80.42295 
L 244.26167 152.612032 
L 244.91228 175.126978 
L 245.562891 215.208991 
L 246.213501 128.790338 
L 246.864111 129.763301 
L 247.514722 165.109335 
L 248.165332 193.337599 
L 248.815942 154.229397 
L 249.466553 182.535503 
L 250.117163 185.635173 
L 250.767773 155.008507 
L 251.418384 188.318554 
L 252.068994 141.505914 
L 252.719604 128.313171 
L 253.370214 179.915773 
L 254.020825 198.848228 
L 254.671435 94.38085 
L 255.322045 184.079346 
L 255.972656 174.488922 
L 256.623266 143.795229 
L 257.273876 130.526645 
L 257.924487 161.644975 
L 258.575097 136.559309 
L 259.225707 167.850571 
L 259.876318 188.673929 
L 260.526928 103.405352 
L 261.177538 65.767094 
L 261.828149 94.29635 
L 262.478759 149.932226 
L 263.129369 89.483008 
L 263.779979 142.129801 
L 264.43059 171.590424 
L 265.0812 137.412554 
L 265.73181 156.812992 
L 266.382421 187.756905 
L 267.033031 183.751035 
L 267.683641 121.869565 
L 268.334252 215.231109 
L 268.984862 126.306092 
L 269.635472 204.675454 
L 270.286083 220.780534 
L 270.936693 209.261165 
L 271.587303 71.941396 
L 272.237913 147.993282 
L 272.888524 136.842229 
L 273.539134 88.408448 
L 274.189744 105.18314 
L 274.840355 188.012954 
L 275.490965 107.302874 
L 276.141575 132.13804 
L 276.792186 151.597658 
L 277.442796 139.469855 
L 278.093406 95.791573 
L 278.744017 174.519813 
L 279.394627 129.998186 
L 280.045237 146.147716 
L 280.695848 211.442895 
L 282.647678 104.196068 
L 283.298289 115.379894 
L 283.948899 130.137017 
L 284.599509 180.634911 
L 285.25012 86.923505 
L 285.90073 143.125796 
L 286.55134 186.126824 
L 287.201951 155.931062 
L 287.852561 116.520334 
L 288.503171 147.382487 
L 289.153782 115.094558 
L 289.804392 106.518353 
L 290.455002 130.880853 
L 291.105613 175.160072 
L 291.756223 139.096881 
L 292.406833 141.838757 
L 293.057443 76.634284 
L 293.708054 200.871437 
L 294.358664 147.375702 
L 295.009274 163.302576 
L 295.659885 130.417772 
L 296.310495 229.510007 
L 296.961105 102.693573 
L 297.611716 142.208518 
L 298.262326 208.84256 
L 298.912936 156.133382 
L 299.563547 121.824833 
L 300.214157 200.839299 
L 300.864767 144.312427 
L 301.515378 182.699879 
L 302.816598 145.085726 
L 303.467208 140.124163 
L 304.117819 164.193247 
L 304.768429 138.392571 
L 305.419039 119.755301 
L 306.06965 159.870432 
L 306.72026 99.778213 
L 307.37087 99.798528 
L 308.021481 168.566246 
L 308.672091 177.335233 
L 309.322701 215.370426 
L 309.973312 161.84718 
L 310.623922 171.730336 
L 311.274532 132.298861 
L 311.925143 215.372127 
L 313.226363 128.974762 
L 313.876973 190.425504 
L 314.527584 192.040833 
L 315.178194 216.668017 
L 315.828804 71.197854 
L 316.479415 191.063171 
L 317.130025 210.048152 
L 317.780635 191.270676 
L 318.431246 188.947916 
L 319.081856 169.468122 
L 319.732466 128.801235 
L 320.383077 167.345191 
L 321.684297 205.437134 
L 322.334907 151.412762 
L 322.985518 149.44398 
L 323.636128 95.222218 
L 324.286738 145.762479 
L 324.937349 151.935421 
L 325.587959 185.434408 
L 326.238569 158.465933 
L 326.88918 162.944783 
L 327.53979 160.323925 
L 328.1904 181.2406 
L 328.841011 127.640446 
L 329.491621 151.897439 
L 330.142231 153.937773 
L 330.792842 208.041394 
L 331.443452 129.261536 
L 332.094062 129.683859 
L 332.744672 177.351812 
L 333.395283 112.389942 
L 334.045893 197.007185 
L 334.696503 149.576725 
L 335.347114 159.055929 
L 335.997724 196.972262 
L 337.298945 89.913234 
L 337.949555 148.532826 
L 338.600165 167.539553 
L 339.250776 134.923551 
L 339.901386 146.895782 
L 340.551996 149.389383 
L 341.202607 165.284244 
L 341.853217 99.03267 
L 343.154437 168.625286 
L 343.805048 153.811802 
L 344.455658 176.823338 
L 345.106268 172.648172 
L 345.756879 174.48187 
L 346.407489 192.841591 
L 347.058099 125.249412 
L 347.70871 164.028256 
L 348.35932 134.286357 
L 349.00993 178.273075 
L 349.660541 156.497686 
L 350.311151 179.505081 
L 350.961761 127.90634 
L 351.612372 161.78598 
L 352.262982 178.118905 
L 352.913592 209.59093 
L 353.564202 139.881826 
L 354.214813 173.718569 
L 354.865423 147.55412 
L 355.516033 163.049221 
L 356.166644 109.795392 
L 356.817254 122.767845 
L 357.467864 124.477105 
L 358.118475 160.648597 
L 359.419695 73.626463 
L 360.070306 162.763501 
L 360.720916 125.071698 
L 361.371526 188.446423 
L 362.022136 77.986686 
L 362.672747 140.761268 
L 363.323357 97.356369 
L 363.973967 185.838623 
L 364.624578 59.18762 
L 365.275188 135.461558 
L 365.925798 102.664689 
L 367.227019 130.531213 
L 367.877629 60.934402 
L 368.52824 179.880325 
L 369.17885 110.241463 
L 369.82946 88.37745 
L 369.82946 88.37745 
" clip-path="url(#pad45e01607)" style="fill: none; stroke: #1f77b4; stroke-width: 1.5; stroke-linecap: square"/>
   </g>
   <g id="line2d_15">
    <path d="M 45.174915 147.062731 
L 45.825525 174.827806 
L 46.476135 117.302103 
L 47.126746 171.926258 
L 47.777356 155.05631 
L 48.427966 163.394698 
L 49.078577 132.942403 
L 49.729187 175.72868 
L 50.379797 113.22841 
L 51.030408 152.191927 
L 51.681018 93.307284 
L 52.331628 125.138834 
L 52.982239 147.58782 
L 53.632849 126.703194 
L 54.283459 162.724012 
L 54.934069 155.0405 
L 55.58468 93.240074 
L 56.23529 144.781112 
L 56.8859 126.991483 
L 57.536511 157.208679 
L 58.187121 68.223203 
L 58.837731 67.160028 
L 59.488342 139.497598 
L 60.138952 157.848594 
L 60.789562 140.428833 
L 61.440173 165.606969 
L 62.090783 80.166093 
L 62.741393 138.272783 
L 63.392003 77.957191 
L 64.042614 130.901167 
L 64.693224 82.502817 
L 65.343834 177.926602 
L 65.994445 184.403997 
L 66.645055 150.665983 
L 67.295665 203.21169 
L 67.946276 130.101666 
L 68.596886 193.360402 
L 69.247496 134.566696 
L 69.898107 101.773038 
L 70.548717 100.104818 
L 71.199327 139.354942 
L 71.849938 94.581589 
L 72.500548 230.857285 
L 73.151158 138.388474 
L 73.801768 109.366513 
L 74.452379 129.010274 
L 75.102989 160.94495 
L 75.753599 155.952393 
L 76.40421 153.674646 
L 77.05482 222.429613 
L 77.70543 132.268612 
L 78.356041 168.193849 
L 79.006651 112.472474 
L 79.657261 41.792167 
L 80.307872 84.830923 
L 80.958482 110.056847 
L 81.609092 101.634771 
L 82.259703 156.540171 
L 82.910313 117.936962 
L 83.560923 171.107841 
L 84.211533 134.855374 
L 84.862144 136.350626 
L 85.512754 113.525807 
L 86.163364 160.452786 
L 86.813975 151.008143 
L 87.464585 73.690049 
L 88.115195 111.18609 
L 88.765806 182.534499 
L 89.416416 140.243222 
L 90.067026 124.593783 
L 90.717637 53.703688 
L 91.368247 106.839898 
L 92.018857 114.130659 
L 92.669468 144.637745 
L 93.320078 118.969688 
L 93.970688 110.036836 
L 94.621298 178.736144 
L 95.271909 189.670266 
L 95.922519 203.434976 
L 96.573129 180.983855 
L 97.87435 74.263241 
L 98.52496 165.225092 
L 99.175571 88.057928 
L 100.476791 153.403298 
L 101.127402 160.119327 
L 101.778012 130.55245 
L 102.428622 183.544095 
L 103.079232 151.63346 
L 103.729843 167.050399 
L 104.380453 144.017703 
L 105.031063 115.820973 
L 105.681674 186.17518 
L 106.332284 168.475998 
L 106.982894 160.464956 
L 107.633505 117.914564 
L 108.284115 157.918422 
L 108.934725 151.220712 
L 109.585336 130.775923 
L 110.235946 97.908542 
L 110.886556 94.543295 
L 111.537167 107.53772 
L 112.187777 107.902966 
L 112.838387 141.682183 
L 113.488997 134.871511 
L 114.139608 87.490116 
L 114.790218 185.841015 
L 115.440828 164.692595 
L 116.742049 110.929081 
L 117.392659 149.329431 
L 118.04327 91.298407 
L 118.69388 178.500594 
L 119.34449 71.180655 
L 119.995101 153.480964 
L 120.645711 179.671656 
L 121.296321 108.913963 
L 122.597542 166.088486 
L 123.248152 108.843515 
L 123.898762 134.301742 
L 124.549373 137.526616 
L 125.199983 201.383075 
L 125.850593 132.465288 
L 126.501204 125.870124 
L 127.151814 147.451196 
L 127.802424 187.831207 
L 128.453035 167.96598 
L 129.103645 109.30353 
L 129.754255 82.21357 
L 130.404866 87.093389 
L 131.706086 161.131332 
L 132.356697 163.133489 
L 133.007307 112.732812 
L 133.657917 144.330212 
L 134.308527 132.145603 
L 134.959138 144.365033 
L 135.609748 149.382204 
L 136.260358 163.271341 
L 136.910969 164.535707 
L 137.561579 107.617933 
L 138.212189 149.415248 
L 138.8628 170.967627 
L 139.51341 171.721868 
L 140.16402 95.169819 
L 140.814631 149.765286 
L 141.465241 48.874866 
L 142.115851 152.379569 
L 142.766462 162.186317 
L 143.417072 140.203071 
L 144.067682 205.612075 
L 144.718292 135.532925 
L 145.368903 116.957714 
L 146.019513 67.353254 
L 146.670123 203.021858 
L 147.320734 138.03523 
L 147.971344 169.769672 
L 148.621954 90.623561 
L 149.923175 146.605835 
L 150.573785 149.79821 
L 151.224396 178.076083 
L 153.176226 70.784235 
L 153.826837 174.172405 
L 154.477447 191.61701 
L 155.128057 151.717507 
L 155.778668 127.953391 
L 156.429278 144.121692 
L 157.079888 190.614663 
L 157.730499 114.437492 
L 158.381109 158.183352 
L 159.031719 184.272556 
L 159.68233 142.033081 
L 160.33294 134.970381 
L 160.98355 152.493757 
L 161.634161 139.406947 
L 162.284771 64.205761 
L 162.935381 178.795238 
L 163.585991 159.156323 
L 164.236602 109.379098 
L 164.887212 201.01113 
L 165.537822 198.644958 
L 166.188433 181.554999 
L 166.839043 199.724955 
L 167.489653 210.894347 
L 168.140264 134.577744 
L 168.790874 194.01101 
L 169.441484 99.624999 
L 170.092095 100.912224 
L 170.742705 143.899431 
L 171.393315 165.053029 
L 172.043926 146.775217 
L 172.694536 170.754098 
L 173.345146 159.188433 
L 173.995756 139.035047 
L 174.646367 174.646522 
L 175.296977 126.095892 
L 175.947587 125.492549 
L 176.598198 134.390394 
L 177.248808 147.267261 
L 178.550029 126.390382 
L 179.200639 139.627001 
L 179.851249 143.352477 
L 180.50186 107.805466 
L 181.15247 192.869812 
L 181.80308 40.761153 
L 183.104301 170.917494 
L 183.754911 155.659565 
L 184.405521 146.199742 
L 185.056132 171.960711 
L 185.706742 102.433573 
L 186.357352 128.617367 
L 187.007963 105.182053 
L 187.658573 167.123734 
L 188.309183 91.412317 
L 188.959794 147.692766 
L 189.610404 136.532204 
L 190.261014 176.155119 
L 190.911625 159.236338 
L 191.562235 158.824961 
L 192.212845 172.180359 
L 194.164676 72.564942 
L 194.815286 120.867725 
L 195.465897 126.160808 
L 196.116507 98.146001 
L 196.767117 138.274167 
L 197.417728 208.619656 
L 198.068338 192.772349 
L 198.718948 154.3702 
L 199.369559 126.194321 
L 200.020169 120.921229 
L 200.670779 157.974704 
L 201.32139 163.013117 
L 201.972 71.737436 
L 202.62261 122.958345 
L 203.27322 184.45621 
L 203.923831 166.592471 
L 204.574441 110.673859 
L 205.225051 33.325611 
L 205.875662 100.09165 
L 206.526272 202.451128 
L 207.176882 153.984305 
L 207.827493 157.151139 
L 208.478103 99.327778 
L 209.128713 130.340495 
L 209.779324 145.332581 
L 210.429934 147.241105 
L 211.080544 181.468744 
L 211.731155 130.278961 
L 212.381765 208.643065 
L 213.032375 216.725856 
L 213.682985 147.045963 
L 214.333596 150.28019 
L 214.984206 173.991947 
L 215.634816 105.58523 
L 216.285427 74.407888 
L 216.936037 149.872915 
L 217.586647 157.806568 
L 218.237258 57.305887 
L 218.887868 81.641955 
L 219.538478 203.50123 
L 220.189089 129.185549 
L 220.839699 124.096889 
L 221.490309 234.425835 
L 222.14092 213.041217 
L 222.79153 152.409813 
L 223.44214 182.704068 
L 224.09275 207.787098 
L 224.743361 158.195191 
L 225.393971 194.915085 
L 226.044581 129.312343 
L 226.695192 78.512293 
L 227.345802 157.614989 
L 227.996412 161.321378 
L 228.647023 174.218318 
L 229.297633 173.598199 
L 229.948243 117.338671 
L 230.598854 174.210005 
L 231.249464 182.433212 
L 231.900074 161.910183 
L 232.550684 178.731169 
L 233.201295 171.435196 
L 234.502515 206.502912 
L 235.153126 218.53999 
L 235.803736 119.620904 
L 236.454346 114.877676 
L 237.104957 181.194789 
L 237.755567 166.347478 
L 238.406177 172.685874 
L 239.056788 142.473741 
L 239.707398 123.474187 
L 240.358008 151.899189 
L 241.008619 146.882433 
L 241.659229 110.091099 
L 242.309839 208.174186 
L 242.960449 176.857443 
L 243.61106 134.267007 
L 244.26167 134.57196 
L 244.91228 183.236564 
L 245.562891 143.782126 
L 246.213501 155.220485 
L 246.864111 122.466254 
L 247.514722 110.561086 
L 248.165332 167.146629 
L 249.466553 128.496983 
L 250.117163 136.461527 
L 251.418384 225.487725 
L 252.068994 158.146076 
L 252.719604 153.778877 
L 253.370214 148.064196 
L 254.020825 118.201866 
L 254.671435 177.514234 
L 255.322045 156.139523 
L 255.972656 141.294577 
L 256.623266 76.090632 
L 257.273876 138.112375 
L 257.924487 138.31347 
L 258.575097 104.111626 
L 259.225707 144.303744 
L 259.876318 67.081898 
L 260.526928 52.471034 
L 261.177538 177.180311 
L 261.828149 210.547527 
L 262.478759 122.429328 
L 263.129369 117.900065 
L 263.779979 150.154999 
L 264.43059 118.029434 
L 265.0812 182.048281 
L 265.73181 134.160005 
L 266.382421 193.777808 
L 267.033031 218.996381 
L 267.683641 87.03305 
L 268.334252 143.590021 
L 268.984862 160.184859 
L 269.635472 77.168227 
L 270.286083 134.44245 
L 270.936693 123.915923 
L 271.587303 205.054177 
L 272.237913 172.423374 
L 272.888524 158.786807 
L 273.539134 211.866006 
L 274.189744 135.615443 
L 274.840355 100.905999 
L 275.490965 114.245528 
L 276.141575 120.234458 
L 276.792186 127.485846 
L 277.442796 170.09278 
L 278.093406 146.105757 
L 278.744017 92.992146 
L 279.394627 170.496904 
L 280.045237 135.376112 
L 280.695848 145.345415 
L 281.346458 126.991704 
L 281.997068 123.524729 
L 282.647678 156.691126 
L 283.298289 141.450306 
L 283.948899 226.621136 
L 284.599509 170.468893 
L 285.25012 159.141356 
L 285.90073 154.987951 
L 286.55134 123.801083 
L 287.201951 137.45426 
L 287.852561 154.827995 
L 288.503171 176.79128 
L 289.153782 138.528149 
L 289.804392 130.429432 
L 290.455002 19.296 
L 291.105613 150.351318 
L 291.756223 176.899318 
L 292.406833 227.830499 
L 293.057443 212.426418 
L 293.708054 156.014251 
L 294.358664 112.062403 
L 295.659885 157.536959 
L 296.310495 113.617484 
L 296.961105 135.750806 
L 297.611716 134.042521 
L 298.262326 99.431685 
L 298.912936 147.740681 
L 299.563547 138.554514 
L 300.214157 187.481621 
L 300.864767 171.042064 
L 301.515378 129.915578 
L 302.165988 144.645684 
L 302.816598 82.674624 
L 303.467208 156.518188 
L 304.117819 126.917108 
L 304.768429 181.959026 
L 305.419039 116.732521 
L 306.06965 205.857981 
L 306.72026 164.168901 
L 307.37087 102.492515 
L 308.672091 165.763419 
L 309.322701 185.152853 
L 309.973312 106.125652 
L 310.623922 154.312789 
L 311.274532 136.009948 
L 311.925143 159.183206 
L 312.575753 86.415174 
L 313.226363 170.995476 
L 313.876973 69.676098 
L 314.527584 137.234255 
L 315.178194 93.093863 
L 315.828804 133.125938 
L 316.479415 96.687613 
L 317.130025 163.068916 
L 317.780635 127.420833 
L 318.431246 190.907373 
L 319.081856 97.524067 
L 319.732466 87.464716 
L 320.383077 165.662497 
L 321.033687 139.974308 
L 321.684297 184.855982 
L 322.334907 137.38308 
L 322.985518 144.758483 
L 323.636128 159.319105 
L 324.286738 170.260558 
L 324.937349 161.456513 
L 325.587959 160.704923 
L 326.238569 135.557678 
L 326.88918 127.161168 
L 327.53979 123.975558 
L 328.1904 149.946367 
L 328.841011 125.610394 
L 329.491621 55.570804 
L 330.142231 175.12951 
L 330.792842 108.733466 
L 331.443452 137.488624 
L 332.094062 59.914879 
L 332.744672 138.294756 
L 333.395283 190.336031 
L 334.045893 115.414937 
L 334.696503 91.264716 
L 335.347114 111.548615 
L 335.997724 169.739782 
L 336.648334 163.620225 
L 337.298945 56.268563 
L 337.949555 136.441977 
L 338.600165 147.417064 
L 339.250776 139.760087 
L 339.901386 142.821769 
L 340.551996 141.30545 
L 341.202607 141.95612 
L 341.853217 178.073655 
L 342.503827 165.634219 
L 343.154437 167.442328 
L 343.805048 79.727903 
L 344.455658 148.381755 
L 345.106268 125.849482 
L 345.756879 177.923983 
L 346.407489 99.248336 
L 347.058099 127.685275 
L 347.70871 173.601761 
L 348.35932 113.73487 
L 349.00993 134.817848 
L 349.660541 78.132156 
L 350.311151 183.401403 
L 350.961761 119.226388 
L 351.612372 162.021299 
L 352.262982 174.077473 
L 352.913592 101.088932 
L 353.564202 192.417394 
L 354.214813 95.638942 
L 354.865423 96.340061 
L 356.166644 195.599515 
L 356.817254 95.044949 
L 357.467864 145.72555 
L 358.118475 142.092988 
L 358.769085 196.322322 
L 359.419695 65.053422 
L 360.070306 89.174906 
L 360.720916 171.849273 
L 361.371526 171.68802 
L 362.022136 192.626855 
L 362.672747 141.638698 
L 363.323357 196.318432 
L 363.973967 115.723943 
L 364.624578 115.556455 
L 365.275188 73.202877 
L 365.925798 194.276813 
L 366.576409 172.847797 
L 367.227019 193.478817 
L 367.877629 102.338312 
L 368.52824 75.642324 
L 369.17885 72.488463 
L 369.82946 57.271672 
L 369.82946 57.271672 
" clip-path="url(#pad45e01607)" style="fill: none; stroke: #ff7f0e; stroke-width: 1.5; stroke-linecap: square"/>
   </g>
   <g id="patch_3">
    <path d="M 28.942188 273.312 
L 28.942188 7.2 
" style="fill: none; stroke: #000000; stroke-width: 0.8; stroke-linejoin: miter; stroke-linecap: square"/>
   </g>
   <g id="patch_4">
    <path d="M 28.942188 273.312 
L 386.062188 273.312 
" style="fill: none; stroke: #000000; stroke-width: 0.8; stroke-linejoin: miter; stroke-linecap: square"/>
   </g>
   <g id="legend_1">
    <g id="patch_5">
     <path d="M 242.854375 268.312 
L 379.062188 268.312 
Q 381.062188 268.312 381.062188 266.312 
L 381.062188 237.677625 
Q 381.062188 235.677625 379.062188 235.677625 
L 242.854375 235.677625 
Q 240.854375 235.677625 240.854375 237.677625 
L 240.854375 266.312 
Q 240.854375 268.312 242.854375 268.312 
z
" style="fill: #ffffff; opacity: 0.8; stroke: #cccccc; stroke-linejoin: miter"/>
    </g>
    <g id="line2d_16">
     <path d="M 244.854375 243.776062 
L 254.854375 243.776062 
L 264.854375 243.776062 
" style="fill: none; stroke: #1f77b4; stroke-width: 1.5; stroke-linecap: square"/>
    </g>
    <g id="text_14">
     <!-- squared_exponential -->
     <g transform="translate(272.854375 247.276062) scale(0.1 -0.1)">
      <defs>
       <path id="DejaVuSans-73" d="M 2834 3397 
L 2834 2853 
Q 2591 2978 2328 3040 
Q 2066 3103 1784 3103 
Q 1356 3103 1142 2972 
Q 928 2841 928 2578 
Q 928 2378 1081 2264 
Q 1234 2150 1697 2047 
L 1894 2003 
Q 2506 1872 2764 1633 
Q 3022 1394 3022 966 
Q 3022 478 2636 193 
Q 2250 -91 1575 -91 
Q 1294 -91 989 -36 
Q 684 19 347 128 
L 347 722 
Q 666 556 975 473 
Q 1284 391 1588 391 
Q 1994 391 2212 530 
Q 2431 669 2431 922 
Q 2431 1156 2273 1281 
Q 2116 1406 1581 1522 
L 1381 1569 
Q 847 1681 609 1914 
Q 372 2147 372 2553 
Q 372 3047 722 3315 
Q 1072 3584 1716 3584 
Q 2034 3584 2315 3537 
Q 2597 3491 2834 3397 
z
" transform="scale(0.015625)"/>
       <path id="DejaVuSans-71" d="M 947 1747 
Q 947 1113 1208 752 
Q 1469 391 1925 391 
Q 2381 391 2643 752 
Q 2906 1113 2906 1747 
Q 2906 2381 2643 2742 
Q 2381 3103 1925 3103 
Q 1469 3103 1208 2742 
Q 947 2381 947 1747 
z
M 2906 525 
Q 2725 213 2448 61 
Q 2172 -91 1784 -91 
Q 1150 -91 751 415 
Q 353 922 353 1747 
Q 353 2572 751 3078 
Q 1150 3584 1784 3584 
Q 2172 3584 2448 3432 
Q 2725 3281 2906 2969 
L 2906 3500 
L 3481 3500 
L 3481 -1331 
L 2906 -1331 
L 2906 525 
z
" transform="scale(0.015625)"/>
       <path id="DejaVuSans-75" d="M 544 1381 
L 544 3500 
L 1119 3500 
L 1119 1403 
Q 1119 906 1312 657 
Q 1506 409 1894 409 
Q 2359 409 2629 706 
Q 2900 1003 2900 1516 
L 2900 3500 
L 3475 3500 
L 3475 0 
L 2900 0 
L 2900 538 
Q 2691 219 2414 64 
Q 2138 -91 1772 -91 
Q 1169 -91 856 284 
Q 544 659 544 1381 
z
M 1991 3584 
L 1991 3584 
z
" transform="scale(0.015625)"/>
       <path id="DejaVuSans-61" d="M 2194 1759 
Q 1497 1759 1228 1600 
Q 959 1441 959 1056 
Q 959 750 1161 570 
Q 1363 391 1709 391 
Q 2188 391 2477 730 
Q 2766 1069 2766 1631 
L 2766 1759 
L 2194 1759 
z
M 3341 1997 
L 3341 0 
L 2766 0 
L 2766 531 
Q 2569 213 2275 61 
Q 1981 -91 1556 -91 
Q 1019 -91 701 211 
Q 384 513 384 1019 
Q 384 1609 779 1909 
Q 1175 2209 1959 2209 
L 2766 2209 
L 2766 2266 
Q 2766 2663 2505 2880 
Q 2244 3097 1772 3097 
Q 1472 3097 1187 3025 
Q 903 2953 641 2809 
L 641 3341 
Q 956 3463 1253 3523 
Q 1550 3584 1831 3584 
Q 2591 3584 2966 3190 
Q 3341 2797 3341 1997 
z
" transform="scale(0.015625)"/>
       <path id="DejaVuSans-72" d="M 2631 2963 
Q 2534 3019 2420 3045 
Q 2306 3072 2169 3072 
Q 1681 3072 1420 2755 
Q 1159 2438 1159 1844 
L 1159 0 
L 581 0 
L 581 3500 
L 1159 3500 
L 1159 2956 
Q 1341 3275 1631 3429 
Q 1922 3584 2338 3584 
Q 2397 3584 2469 3576 
Q 2541 3569 2628 3553 
L 2631 2963 
z
" transform="scale(0.015625)"/>
       <path id="DejaVuSans-65" d="M 3597 1894 
L 3597 1613 
L 953 1613 
Q 991 1019 1311 708 
Q 1631 397 2203 397 
Q 2534 397 2845 478 
Q 3156 559 3463 722 
L 3463 178 
Q 3153 47 2828 -22 
Q 2503 -91 2169 -91 
Q 1331 -91 842 396 
Q 353 884 353 1716 
Q 353 2575 817 3079 
Q 1281 3584 2069 3584 
Q 2775 3584 3186 3129 
Q 3597 2675 3597 1894 
z
M 3022 2063 
Q 3016 2534 2758 2815 
Q 2500 3097 2075 3097 
Q 1594 3097 1305 2825 
Q 1016 2553 972 2059 
L 3022 2063 
z
" transform="scale(0.015625)"/>
       <path id="DejaVuSans-64" d="M 2906 2969 
L 2906 4863 
L 3481 4863 
L 3481 0 
L 2906 0 
L 2906 525 
Q 2725 213 2448 61 
Q 2172 -91 1784 -91 
Q 1150 -91 751 415 
Q 353 922 353 1747 
Q 353 2572 751 3078 
Q 1150 3584 1784 3584 
Q 2172 3584 2448 3432 
Q 2725 3281 2906 2969 
z
M 947 1747 
Q 947 1113 1208 752 
Q 1469 391 1925 391 
Q 2381 391 2643 752 
Q 2906 1113 2906 1747 
Q 2906 2381 2643 2742 
Q 2381 3103 1925 3103 
Q 1469 3103 1208 2742 
Q 947 2381 947 1747 
z
" transform="scale(0.015625)"/>
       <path id="DejaVuSans-5f" d="M 3263 -1063 
L 3263 -1509 
L -63 -1509 
L -63 -1063 
L 3263 -1063 
z
" transform="scale(0.015625)"/>
       <path id="DejaVuSans-78" d="M 3513 3500 
L 2247 1797 
L 3578 0 
L 2900 0 
L 1881 1375 
L 863 0 
L 184 0 
L 1544 1831 
L 300 3500 
L 978 3500 
L 1906 2253 
L 2834 3500 
L 3513 3500 
z
" transform="scale(0.015625)"/>
       <path id="DejaVuSans-70" d="M 1159 525 
L 1159 -1331 
L 581 -1331 
L 581 3500 
L 1159 3500 
L 1159 2969 
Q 1341 3281 1617 3432 
Q 1894 3584 2278 3584 
Q 2916 3584 3314 3078 
Q 3713 2572 3713 1747 
Q 3713 922 3314 415 
Q 2916 -91 2278 -91 
Q 1894 -91 1617 61 
Q 1341 213 1159 525 
z
M 3116 1747 
Q 3116 2381 2855 2742 
Q 2594 3103 2138 3103 
Q 1681 3103 1420 2742 
Q 1159 2381 1159 1747 
Q 1159 1113 1420 752 
Q 1681 391 2138 391 
Q 2594 391 2855 752 
Q 3116 1113 3116 1747 
z
" transform="scale(0.015625)"/>
       <path id="DejaVuSans-6f" d="M 1959 3097 
Q 1497 3097 1228 2736 
Q 959 2375 959 1747 
Q 959 1119 1226 758 
Q 1494 397 1959 397 
Q 2419 397 2687 759 
Q 2956 1122 2956 1747 
Q 2956 2369 2687 2733 
Q 2419 3097 1959 3097 
z
M 1959 3584 
Q 2709 3584 3137 3096 
Q 3566 2609 3566 1747 
Q 3566 888 3137 398 
Q 2709 -91 1959 -91 
Q 1206 -91 779 398 
Q 353 888 353 1747 
Q 353 2609 779 3096 
Q 1206 3584 1959 3584 
z
" transform="scale(0.015625)"/>
       <path id="DejaVuSans-6e" d="M 3513 2113 
L 3513 0 
L 2938 0 
L 2938 2094 
Q 2938 2591 2744 2837 
Q 2550 3084 2163 3084 
Q 1697 3084 1428 2787 
Q 1159 2491 1159 1978 
L 1159 0 
L 581 0 
L 581 3500 
L 1159 3500 
L 1159 2956 
Q 1366 3272 1645 3428 
Q 1925 3584 2291 3584 
Q 2894 3584 3203 3211 
Q 3513 2838 3513 2113 
z
" transform="scale(0.015625)"/>
       <path id="DejaVuSans-74" d="M 1172 4494 
L 1172 3500 
L 2356 3500 
L 2356 3053 
L 1172 3053 
L 1172 1153 
Q 1172 725 1289 603 
Q 1406 481 1766 481 
L 2356 481 
L 2356 0 
L 1766 0 
Q 1100 0 847 248 
Q 594 497 594 1153 
L 594 3053 
L 172 3053 
L 172 3500 
L 594 3500 
L 594 4494 
L 1172 4494 
z
" transform="scale(0.015625)"/>
       <path id="DejaVuSans-69" d="M 603 3500 
L 1178 3500 
L 1178 0 
L 603 0 
L 603 3500 
z
M 603 4863 
L 1178 4863 
L 1178 4134 
L 603 4134 
L 603 4863 
z
" transform="scale(0.015625)"/>
       <path id="DejaVuSans-6c" d="M 603 4863 
L 1178 4863 
L 1178 0 
L 603 0 
L 603 4863 
z
" transform="scale(0.015625)"/>
      </defs>
      <use xlink:href="#DejaVuSans-73"/>
      <use xlink:href="#DejaVuSans-71" x="52.099609"/>
      <use xlink:href="#DejaVuSans-75" x="115.576172"/>
      <use xlink:href="#DejaVuSans-61" x="178.955078"/>
      <use xlink:href="#DejaVuSans-72" x="240.234375"/>
      <use xlink:href="#DejaVuSans-65" x="279.097656"/>
      <use xlink:href="#DejaVuSans-64" x="340.621094"/>
      <use xlink:href="#DejaVuSans-5f" x="404.097656"/>
      <use xlink:href="#DejaVuSans-65" x="454.097656"/>
      <use xlink:href="#DejaVuSans-78" x="513.871094"/>
      <use xlink:href="#DejaVuSans-70" x="573.050781"/>
      <use xlink:href="#DejaVuSans-6f" x="636.527344"/>
      <use xlink:href="#DejaVuSans-6e" x="697.708984"/>
      <use xlink:href="#DejaVuSans-65" x="761.087891"/>
      <use xlink:href="#DejaVuSans-6e" x="822.611328"/>
      <use xlink:href="#DejaVuSans-74" x="885.990234"/>
      <use xlink:href="#DejaVuSans-69" x="925.199219"/>
      <use xlink:href="#DejaVuSans-61" x="952.982422"/>
      <use xlink:href="#DejaVuSans-6c" x="1014.261719"/>
     </g>
    </g>
    <g id="line2d_17">
     <path d="M 244.854375 258.732312 
L 254.854375 258.732312 
L 264.854375 258.732312 
" style="fill: none; stroke: #ff7f0e; stroke-width: 1.5; stroke-linecap: square"/>
    </g>
    <g id="text_15">
     <!-- exponential -->
     <g transform="translate(272.854375 262.232312) scale(0.1 -0.1)">
      <use xlink:href="#DejaVuSans-65"/>
      <use xlink:href="#DejaVuSans-78" x="59.773438"/>
      <use xlink:href="#DejaVuSans-70" x="118.953125"/>
      <use xlink:href="#DejaVuSans-6f" x="182.429688"/>
      <use xlink:href="#DejaVuSans-6e" x="243.611328"/>
      <use xlink:href="#DejaVuSans-65" x="306.990234"/>
      <use xlink:href="#DejaVuSans-6e" x="368.513672"/>
      <use xlink:href="#DejaVuSans-74" x="431.892578"/>
      <use xlink:href="#DejaVuSans-69" x="471.101562"/>
      <use xlink:href="#DejaVuSans-61" x="498.884766"/>
      <use xlink:href="#DejaVuSans-6c" x="560.164062"/>
     </g>
    </g>
   </g>
  </g>
 </g>
 <defs>
  <clipPath id="pad45e01607">
   <rect x="28.942188" y="7.2" width="357.12" height="266.112"/>
  </clipPath>
 </defs>
</svg>
