<?xml version="1.0" encoding="utf-8" standalone="no"?>
<!DOCTYPE svg PUBLIC "-//W3C//DTD SVG 1.1//EN"
  "http://www.w3.org/Graphics/SVG/1.1/DTD/svg11.dtd">
<svg xmlns:xlink="http://www.w3.org/1999/xlink" width="402.802812pt" height="300.820671pt" viewBox="0 0 402.802812 300.820671" xmlns="http://www.w3.org/2000/svg" version="1.1">
 <metadata>
  <rdf:RDF xmlns:dc="http://purl.org/dc/elements/1.1/" xmlns:cc="http://creativecommons.org/ns#" xmlns:rdf="http://www.w3.org/1999/02/22-rdf-syntax-ns#">
   <cc:Work>
    <dc:type rdf:resource="http://purl.org/dc/dcmitype/StillImage"/>
    <dc:date>2024-05-19T16:16:31.352192</dc:date>
    <dc:format>image/svg+xml</dc:format>
    <dc:creator>
     <cc:Agent>
      <dc:title>Matplotlib v3.7.2, https://matplotlib.org/</dc:title>
     </cc:Agent>
    </dc:creator>
   </cc:Work>
  </rdf:RDF>
 </metadata>
 <defs>
  <style type="text/css">*{stroke-linejoin: round; stroke-linecap: butt}</style>
 </defs>
 <g id="figure_1">
  <g id="patch_1">
   <path d="M 0 300.820671 
L 402.802812 300.820671 
L 402.802812 0 
L 0 0 
z
" style="fill: #ffffff"/>
  </g>
  <g id="axes_1">
   <g id="patch_2">
    <path d="M 38.482813 276.942546 
L 395.602813 276.942546 
L 395.602813 10.830546 
L 38.482813 10.830546 
z
" style="fill: #ffffff"/>
   </g>
   <g id="matplotlib.axis_1">
    <g id="xtick_1">
     <g id="line2d_1">
      <defs>
       <path id="me99ea62320" d="M 0 0 
L 0 3.5 
" style="stroke: #000000; stroke-width: 0.8"/>
      </defs>
      <g>
       <use xlink:href="#me99ea62320" x="55.95463" y="276.942546" style="stroke: #000000; stroke-width: 0.8"/>
      </g>
     </g>
     <g id="text_1">
      <!-- −1.5 -->
      <g transform="translate(43.813223 291.540984) scale(0.1 -0.1)">
       <defs>
        <path id="DejaVuSans-2212" d="M 678 2272 
L 4684 2272 
L 4684 1741 
L 678 1741 
L 678 2272 
z
" transform="scale(0.015625)"/>
        <path id="DejaVuSans-31" d="M 794 531 
L 1825 531 
L 1825 4091 
L 703 3866 
L 703 4441 
L 1819 4666 
L 2450 4666 
L 2450 531 
L 3481 531 
L 3481 0 
L 794 0 
L 794 531 
z
" transform="scale(0.015625)"/>
        <path id="DejaVuSans-2e" d="M 684 794 
L 1344 794 
L 1344 0 
L 684 0 
L 684 794 
z
" transform="scale(0.015625)"/>
        <path id="DejaVuSans-35" d="M 691 4666 
L 3169 4666 
L 3169 4134 
L 1269 4134 
L 1269 2991 
Q 1406 3038 1543 3061 
Q 1681 3084 1819 3084 
Q 2600 3084 3056 2656 
Q 3513 2228 3513 1497 
Q 3513 744 3044 326 
Q 2575 -91 1722 -91 
Q 1428 -91 1123 -41 
Q 819 9 494 109 
L 494 744 
Q 775 591 1075 516 
Q 1375 441 1709 441 
Q 2250 441 2565 725 
Q 2881 1009 2881 1497 
Q 2881 1984 2565 2268 
Q 2250 2553 1709 2553 
Q 1456 2553 1204 2497 
Q 953 2441 691 2322 
L 691 4666 
z
" transform="scale(0.015625)"/>
       </defs>
       <use xlink:href="#DejaVuSans-2212"/>
       <use xlink:href="#DejaVuSans-31" x="83.789062"/>
       <use xlink:href="#DejaVuSans-2e" x="147.412109"/>
       <use xlink:href="#DejaVuSans-35" x="179.199219"/>
      </g>
     </g>
    </g>
    <g id="xtick_2">
     <g id="line2d_2">
      <g>
       <use xlink:href="#me99ea62320" x="108.766284" y="276.942546" style="stroke: #000000; stroke-width: 0.8"/>
      </g>
     </g>
     <g id="text_2">
      <!-- −1.0 -->
      <g transform="translate(96.624877 291.540984) scale(0.1 -0.1)">
       <defs>
        <path id="DejaVuSans-30" d="M 2034 4250 
Q 1547 4250 1301 3770 
Q 1056 3291 1056 2328 
Q 1056 1369 1301 889 
Q 1547 409 2034 409 
Q 2525 409 2770 889 
Q 3016 1369 3016 2328 
Q 3016 3291 2770 3770 
Q 2525 4250 2034 4250 
z
M 2034 4750 
Q 2819 4750 3233 4129 
Q 3647 3509 3647 2328 
Q 3647 1150 3233 529 
Q 2819 -91 2034 -91 
Q 1250 -91 836 529 
Q 422 1150 422 2328 
Q 422 3509 836 4129 
Q 1250 4750 2034 4750 
z
" transform="scale(0.015625)"/>
       </defs>
       <use xlink:href="#DejaVuSans-2212"/>
       <use xlink:href="#DejaVuSans-31" x="83.789062"/>
       <use xlink:href="#DejaVuSans-2e" x="147.412109"/>
       <use xlink:href="#DejaVuSans-30" x="179.199219"/>
      </g>
     </g>
    </g>
    <g id="xtick_3">
     <g id="line2d_3">
      <g>
       <use xlink:href="#me99ea62320" x="161.577938" y="276.942546" style="stroke: #000000; stroke-width: 0.8"/>
      </g>
     </g>
     <g id="text_3">
      <!-- −0.5 -->
      <g transform="translate(149.436531 291.540984) scale(0.1 -0.1)">
       <use xlink:href="#DejaVuSans-2212"/>
       <use xlink:href="#DejaVuSans-30" x="83.789062"/>
       <use xlink:href="#DejaVuSans-2e" x="147.412109"/>
       <use xlink:href="#DejaVuSans-35" x="179.199219"/>
      </g>
     </g>
    </g>
    <g id="xtick_4">
     <g id="line2d_4">
      <g>
       <use xlink:href="#me99ea62320" x="214.389592" y="276.942546" style="stroke: #000000; stroke-width: 0.8"/>
      </g>
     </g>
     <g id="text_4">
      <!-- 0.0 -->
      <g transform="translate(206.438029 291.540984) scale(0.1 -0.1)">
       <use xlink:href="#DejaVuSans-30"/>
       <use xlink:href="#DejaVuSans-2e" x="63.623047"/>
       <use xlink:href="#DejaVuSans-30" x="95.410156"/>
      </g>
     </g>
    </g>
    <g id="xtick_5">
     <g id="line2d_5">
      <g>
       <use xlink:href="#me99ea62320" x="267.201246" y="276.942546" style="stroke: #000000; stroke-width: 0.8"/>
      </g>
     </g>
     <g id="text_5">
      <!-- 0.5 -->
      <g transform="translate(259.249683 291.540984) scale(0.1 -0.1)">
       <use xlink:href="#DejaVuSans-30"/>
       <use xlink:href="#DejaVuSans-2e" x="63.623047"/>
       <use xlink:href="#DejaVuSans-35" x="95.410156"/>
      </g>
     </g>
    </g>
    <g id="xtick_6">
     <g id="line2d_6">
      <g>
       <use xlink:href="#me99ea62320" x="320.0129" y="276.942546" style="stroke: #000000; stroke-width: 0.8"/>
      </g>
     </g>
     <g id="text_6">
      <!-- 1.0 -->
      <g transform="translate(312.061337 291.540984) scale(0.1 -0.1)">
       <use xlink:href="#DejaVuSans-31"/>
       <use xlink:href="#DejaVuSans-2e" x="63.623047"/>
       <use xlink:href="#DejaVuSans-30" x="95.410156"/>
      </g>
     </g>
    </g>
    <g id="xtick_7">
     <g id="line2d_7">
      <g>
       <use xlink:href="#me99ea62320" x="372.824554" y="276.942546" style="stroke: #000000; stroke-width: 0.8"/>
      </g>
     </g>
     <g id="text_7">
      <!-- 1.5 -->
      <g transform="translate(364.872991 291.540984) scale(0.1 -0.1)">
       <use xlink:href="#DejaVuSans-31"/>
       <use xlink:href="#DejaVuSans-2e" x="63.623047"/>
       <use xlink:href="#DejaVuSans-35" x="95.410156"/>
      </g>
     </g>
    </g>
   </g>
   <g id="matplotlib.axis_2">
    <g id="ytick_1">
     <g id="line2d_8">
      <defs>
       <path id="m715a63f423" d="M 0 0 
L -3.5 0 
" style="stroke: #000000; stroke-width: 0.8"/>
      </defs>
      <g>
       <use xlink:href="#m715a63f423" x="38.482813" y="272.816781" style="stroke: #000000; stroke-width: 0.8"/>
      </g>
     </g>
     <g id="text_8">
      <!-- −1.5 -->
      <g transform="translate(7.2 276.615999) scale(0.1 -0.1)">
       <use xlink:href="#DejaVuSans-2212"/>
       <use xlink:href="#DejaVuSans-31" x="83.789062"/>
       <use xlink:href="#DejaVuSans-2e" x="147.412109"/>
       <use xlink:href="#DejaVuSans-35" x="179.199219"/>
      </g>
     </g>
    </g>
    <g id="ytick_2">
     <g id="line2d_9">
      <g>
       <use xlink:href="#m715a63f423" x="38.482813" y="235.414272" style="stroke: #000000; stroke-width: 0.8"/>
      </g>
     </g>
     <g id="text_9">
      <!-- −1.0 -->
      <g transform="translate(7.2 239.213491) scale(0.1 -0.1)">
       <use xlink:href="#DejaVuSans-2212"/>
       <use xlink:href="#DejaVuSans-31" x="83.789062"/>
       <use xlink:href="#DejaVuSans-2e" x="147.412109"/>
       <use xlink:href="#DejaVuSans-30" x="179.199219"/>
      </g>
     </g>
    </g>
    <g id="ytick_3">
     <g id="line2d_10">
      <g>
       <use xlink:href="#m715a63f423" x="38.482813" y="198.011763" style="stroke: #000000; stroke-width: 0.8"/>
      </g>
     </g>
     <g id="text_10">
      <!-- −0.5 -->
      <g transform="translate(7.2 201.810982) scale(0.1 -0.1)">
       <use xlink:href="#DejaVuSans-2212"/>
       <use xlink:href="#DejaVuSans-30" x="83.789062"/>
       <use xlink:href="#DejaVuSans-2e" x="147.412109"/>
       <use xlink:href="#DejaVuSans-35" x="179.199219"/>
      </g>
     </g>
    </g>
    <g id="ytick_4">
     <g id="line2d_11">
      <g>
       <use xlink:href="#m715a63f423" x="38.482813" y="160.609254" style="stroke: #000000; stroke-width: 0.8"/>
      </g>
     </g>
     <g id="text_11">
      <!-- 0.0 -->
      <g transform="translate(15.579688 164.408473) scale(0.1 -0.1)">
       <use xlink:href="#DejaVuSans-30"/>
       <use xlink:href="#DejaVuSans-2e" x="63.623047"/>
       <use xlink:href="#DejaVuSans-30" x="95.410156"/>
      </g>
     </g>
    </g>
    <g id="ytick_5">
     <g id="line2d_12">
      <g>
       <use xlink:href="#m715a63f423" x="38.482813" y="123.206745" style="stroke: #000000; stroke-width: 0.8"/>
      </g>
     </g>
     <g id="text_12">
      <!-- 0.5 -->
      <g transform="translate(15.579688 127.005964) scale(0.1 -0.1)">
       <use xlink:href="#DejaVuSans-30"/>
       <use xlink:href="#DejaVuSans-2e" x="63.623047"/>
       <use xlink:href="#DejaVuSans-35" x="95.410156"/>
      </g>
     </g>
    </g>
    <g id="ytick_6">
     <g id="line2d_13">
      <g>
       <use xlink:href="#m715a63f423" x="38.482813" y="85.804236" style="stroke: #000000; stroke-width: 0.8"/>
      </g>
     </g>
     <g id="text_13">
      <!-- 1.0 -->
      <g transform="translate(15.579688 89.603455) scale(0.1 -0.1)">
       <use xlink:href="#DejaVuSans-31"/>
       <use xlink:href="#DejaVuSans-2e" x="63.623047"/>
       <use xlink:href="#DejaVuSans-30" x="95.410156"/>
      </g>
     </g>
    </g>
    <g id="ytick_7">
     <g id="line2d_14">
      <g>
       <use xlink:href="#m715a63f423" x="38.482813" y="48.401728" style="stroke: #000000; stroke-width: 0.8"/>
      </g>
     </g>
     <g id="text_14">
      <!-- 1.5 -->
      <g transform="translate(15.579688 52.200946) scale(0.1 -0.1)">
       <use xlink:href="#DejaVuSans-31"/>
       <use xlink:href="#DejaVuSans-2e" x="63.623047"/>
       <use xlink:href="#DejaVuSans-35" x="95.410156"/>
      </g>
     </g>
    </g>
    <g id="ytick_8">
     <g id="line2d_15">
      <g>
       <use xlink:href="#m715a63f423" x="38.482813" y="10.999219" style="stroke: #000000; stroke-width: 0.8"/>
      </g>
     </g>
     <g id="text_15">
      <!-- 2.0 -->
      <g transform="translate(15.579688 14.798437) scale(0.1 -0.1)">
       <defs>
        <path id="DejaVuSans-32" d="M 1228 531 
L 3431 531 
L 3431 0 
L 469 0 
L 469 531 
Q 828 903 1448 1529 
Q 2069 2156 2228 2338 
Q 2531 2678 2651 2914 
Q 2772 3150 2772 3378 
Q 2772 3750 2511 3984 
Q 2250 4219 1831 4219 
Q 1534 4219 1204 4116 
Q 875 4013 500 3803 
L 500 4441 
Q 881 4594 1212 4672 
Q 1544 4750 1819 4750 
Q 2544 4750 2975 4387 
Q 3406 4025 3406 3419 
Q 3406 3131 3298 2873 
Q 3191 2616 2906 2266 
Q 2828 2175 2409 1742 
Q 1991 1309 1228 531 
z
" transform="scale(0.015625)"/>
       </defs>
       <use xlink:href="#DejaVuSans-32"/>
       <use xlink:href="#DejaVuSans-2e" x="63.623047"/>
       <use xlink:href="#DejaVuSans-30" x="95.410156"/>
      </g>
     </g>
    </g>
   </g>
   <g id="line2d_16">
    <path d="M 214.527325 154.839169 
L 225.686877 153.56236 
L 238.405733 153.660676 
L 252.427923 155.140622 
L 267.34092 157.890479 
L 282.596901 161.692592 
L 297.550555 166.24746 
L 311.510141 171.207364 
L 323.797429 176.214787 
L 333.8097 180.94114 
L 341.076167 185.120672 
L 345.301748 188.575079 
L 346.391917 191.226251 
L 344.455045 193.095647 
L 339.781389 194.291483 
L 332.801551 194.985862 
L 324.030226 195.385904 
L 314.003184 195.703578 
L 303.21675 196.128217 
L 292.078282 196.805571 
L 280.874127 197.825655 
L 269.759364 199.219675 
L 258.768669 200.965288 
L 247.845356 202.997887 
L 236.882199 205.224828 
L 225.766385 207.539803 
L 214.42087 209.83493 
L 202.835667 212.008961 
L 191.084926 213.971511 
L 179.328502 215.643995 
L 167.799839 216.958846 
L 156.783321 217.858706 
L 146.586298 218.297201 
L 137.510478 218.242019 
L 129.826808 217.680219 
L 123.756575 216.624872 
L 119.459818 215.121241 
L 117.030617 213.250631 
L 116.497917 211.130219 
L 117.829986 208.907829 
L 120.940673 206.751685 
L 125.696062 204.836075 
L 131.920649 203.325034 
L 139.402742 202.356464 
L 147.899488 202.029374 
L 157.141864 202.396217 
L 166.840208 203.461734 
L 176.690938 205.188277 
L 186.38459 207.506422 
L 195.615239 210.328899 
L 204.091087 213.564951 
L 211.545505 217.132507 
L 217.747845 220.965632 
L 222.512783 225.015784 
L 225.707156 229.246565 
L 227.253226 233.622676 
L 227.127845 238.09508 
L 225.357233 242.584766 
L 222.008411 246.968303 
L 217.178486 251.067779 
L 210.984351 254.647372 
L 203.554949 257.41789 
L 195.028722 259.049632 
L 185.557498 259.192736 
L 175.316988 257.5033 
L 164.522375 253.672941 
L 153.445527 247.45891 
L 142.429433 238.71178 
L 131.894597 227.398198 
L 122.333053 213.616143 
L 114.287236 197.601432 
L 108.313338 179.724445 
L 104.932482 160.477093 
L 104.57538 140.450827 
L 107.528849 120.307034 
L 113.892941 100.741683 
L 123.557062 82.446574 
L 136.200435 66.06961 
L 151.318872 52.176608 
L 168.275077 41.217048 
L 186.365719 33.496135 
L 204.895384 29.15493 
L 223.245806 28.160085 
L 240.930138 30.303968 
L 257.623644 35.215628 
L 273.167379 42.381872 
L 287.545246 51.1775 
L 300.839926 60.902735 
L 313.176702 70.825641 
L 324.665283 80.226647 
L 335.350452 88.442381 
L 345.179637 94.905758 
L 353.992256 99.17953 
L 361.531822 100.980963 
L 367.477742 100.195568 
L 371.490635 96.878954 
L 373.263326 91.246582 
L 372.569269 83.652059 
L 369.301245 74.556168 
L 363.495013 64.489187 
" clip-path="url(#pf837f7716b)" style="fill: none; stroke: #000000; stroke-width: 1.5; stroke-linecap: square"/>
   </g>
   <g id="line2d_17">
    <path d="M 233.066943 133.792725 
L 240.501685 134.589299 
L 249.292795 135.976616 
L 259.237326 138.142913 
L 270.025461 141.259205 
L 281.256896 145.451383 
L 292.467365 150.773157 
L 303.162345 157.184585 
L 312.854032 164.540401 
L 321.097346 172.591 
L 327.521041 180.996982 
L 331.850835 189.356007 
L 333.92266 197.238831 
L 333.685381 204.230095 
L 331.193598 209.968876 
L 326.592082 214.184255 
L 320.094185 216.721988 
L 311.956905 217.559619 
L 302.455471 216.808799 
L 291.860101 214.704947 
L 280.417256 211.585595 
L 268.337071 207.859739 
L 255.787959 203.971187 
L 242.89851 200.359349 
L 229.765961 197.421015 
L 216.469737 195.476582 
L 203.087928 194.743727 
L 189.714225 195.320865 
L 176.47275 197.181764 
L 163.528503 200.181633 
L 151.091698 204.073856 
L 139.415053 208.53551 
L 128.78397 213.199011 
L 119.500457 217.686713 
L 111.862397 221.645196 
L 106.140352 224.776171 
L 102.554357 226.861475 
L 101.253181 227.780297 
L 102.298243 227.517624 
L 105.653858 226.163609 
L 111.184809 223.904342 
L 118.661484 221.005064 
L 127.772024 217.787368 
L 138.140257 214.602294 
L 149.34763 211.801452 
L 160.957044 209.708446 
L 172.536337 208.59279 
L 183.679378 208.64839 
L 194.023034 209.978212 
L 203.258861 212.586358 
L 211.139002 216.378057 
L 217.476484 221.167445 
L 222.140727 226.692317 
L 225.049639 232.634389 
L 226.159987 238.643136 
L 225.457893 244.360946 
L 222.951215 249.447197 
L 218.665249 253.599003 
L 212.642682 256.5667 
L 204.948081 258.162734 
L 195.676448 258.263384 
L 184.964664 256.803625 
L 173.00397 253.766395 
L 160.05123 249.168334 
L 146.436537 243.044655 
L 132.564887 235.436042 
L 118.910226 226.380217 
L 106.000975 215.910152 
L 94.39724 204.059785 
L 84.661098 190.876778 
L 77.32237 176.44053 
L 72.843147 160.882473 
L 71.58472 144.405033 
L 73.780473 127.295452 
L 79.517749 109.931151 
L 88.730684 92.774331 
L 101.204749 76.354849 
L 116.592389 61.241982 
L 134.437912 48.007142 
L 154.208813 37.1808 
L 175.330177 29.207721 
L 197.218709 24.404906 
L 219.313258 22.926546 
L 241.099411 24.739771 
L 262.126654 29.614062 
L 282.017598 37.12614 
L 300.469749 46.680771 
L 317.251117 57.546581 
L 332.191499 68.904534 
L 345.171601 79.905412 
L 356.1121 89.731534 
L 364.96451 97.65725 
L 371.705167 103.102522 
L 376.332981 105.674335 
L 378.870879 105.191769 
L 379.370085 101.692225 
L 377.915827 95.418418 
L 374.632641 86.787965 
L 369.687379 76.349479 
L 363.288247 64.730619 
" clip-path="url(#pf837f7716b)" style="fill: none; stroke: #1f77b4; stroke-width: 1.5; stroke-linecap: square"/>
   </g>
   <g id="line2d_18">
    <path d="M 230.390085 151.90219 
L 231.351748 149.294683 
L 228.954156 146.419921 
L 237.541061 139.907585 
L 257.021474 141.398961 
L 281.196584 143.391703 
L 298.078184 143.020164 
L 306.414002 152.516803 
L 311.148671 165.672296 
L 311.948841 177.767818 
L 320.257288 193.038798 
L 324.016528 205.884439 
L 324.561995 207.648204 
L 320.043263 201.838896 
L 325.306119 202.191229 
L 320.349035 207.704969 
L 316.63875 211.428393 
L 310.915307 210.516577 
L 300.246478 208.476072 
L 285.007211 212.007687 
L 269.596944 215.444877 
L 255.183323 208.700745 
L 243.561375 203.410748 
L 231.466506 197.977043 
L 214.255321 199.782929 
L 200.863599 196.724623 
L 196.969362 184.300868 
L 194.208323 182.391778 
L 191.278224 187.384562 
L 179.267091 197.844913 
L 163.526648 209.749982 
L 154.506042 215.853804 
L 137.691819 222.040524 
L 124.662161 216.693397 
L 109.624101 216.009849 
L 98.284037 216.137605 
L 94.789385 217.804999 
L 102.631252 218.757958 
L 115.802828 223.340227 
L 114.713929 232.770757 
L 113.300909 228.809795 
L 124.126409 225.074264 
L 137.22326 221.985102 
L 145.463433 220.548173 
L 155.428554 216.625886 
L 166.581309 212.4646 
L 172.34242 211.028632 
L 186.247243 214.277458 
L 200.135963 216.952273 
L 202.258091 218.2539 
L 206.943318 221.367984 
L 213.95926 225.158887 
L 217.639068 237.882631 
L 212.828747 247.223778 
L 215.004808 247.347349 
L 218.713149 242.739406 
L 220.658238 243.92262 
L 211.122574 251.148949 
L 206.706072 253.179067 
L 187.804758 257.579165 
L 176.307207 262.197306 
L 174.748466 264.846546 
L 162.056531 254.816934 
L 152.176269 242.405438 
L 147.01078 238.869969 
L 133.470191 225.485121 
L 119.946081 211.214682 
L 116.992605 203.697721 
L 109.207903 198.451226 
L 98.679063 188.06288 
L 87.636864 175.256682 
L 67.982113 165.300127 
L 54.71554 151.226551 
L 55.510311 135.867418 
L 68.140578 115.727626 
L 86.59135 92.362543 
L 101.535387 72.964978 
L 126.375928 58.406072 
L 146.222254 49.441848 
L 170.261524 40.512797 
L 197.973129 36.014317 
L 217.439922 33.629874 
L 231.200088 32.539677 
L 242.226189 32.050211 
L 251.876767 30.952662 
L 267.891367 33.36631 
L 273.985552 42.089642 
L 289.565382 50.450913 
L 315.232416 61.928039 
L 332.167891 75.621054 
L 348.621686 86.944029 
L 363.507175 93.521193 
L 377.43652 97.218325 
L 375.643687 102.900031 
L 362.221399 104.764822 
L 356.990417 100.346195 
L 357.864823 100.591381 
L 363.718651 92.817501 
L 367.681579 74.616057 
L 361.657667 55.379327 
" clip-path="url(#pf837f7716b)" style="fill: none; stroke: #ff7f0e; stroke-width: 1.5; stroke-linecap: square"/>
   </g>
   <g id="patch_3">
    <path d="M 38.482813 276.942546 
L 38.482813 10.830546 
" style="fill: none; stroke: #000000; stroke-width: 0.8; stroke-linejoin: miter; stroke-linecap: square"/>
   </g>
   <g id="patch_4">
    <path d="M 38.482812 276.942546 
L 395.602813 276.942546 
" style="fill: none; stroke: #000000; stroke-width: 0.8; stroke-linejoin: miter; stroke-linecap: square"/>
   </g>
   <g id="legend_1">
    <g id="patch_5">
     <path d="M 45.482813 62.864921 
L 98.004688 62.864921 
Q 100.004688 62.864921 100.004688 60.864921 
L 100.004688 17.830546 
Q 100.004688 15.830546 98.004688 15.830546 
L 45.482813 15.830546 
Q 43.482813 15.830546 43.482813 17.830546 
L 43.482813 60.864921 
Q 43.482813 62.864921 45.482813 62.864921 
z
" style="fill: #ffffff; opacity: 0.8; stroke: #cccccc; stroke-linejoin: miter"/>
    </g>
    <g id="line2d_19">
     <path d="M 47.482813 23.928984 
L 57.482813 23.928984 
L 67.482813 23.928984 
" style="fill: none; stroke: #000000; stroke-width: 1.5; stroke-linecap: square"/>
    </g>
    <g id="text_16">
     <!-- true -->
     <g transform="translate(75.482813 27.428984) scale(0.1 -0.1)">
      <defs>
       <path id="DejaVuSans-74" d="M 1172 4494 
L 1172 3500 
L 2356 3500 
L 2356 3053 
L 1172 3053 
L 1172 1153 
Q 1172 725 1289 603 
Q 1406 481 1766 481 
L 2356 481 
L 2356 0 
L 1766 0 
Q 1100 0 847 248 
Q 594 497 594 1153 
L 594 3053 
L 172 3053 
L 172 3500 
L 594 3500 
L 594 4494 
L 1172 4494 
z
" transform="scale(0.015625)"/>
       <path id="DejaVuSans-72" d="M 2631 2963 
Q 2534 3019 2420 3045 
Q 2306 3072 2169 3072 
Q 1681 3072 1420 2755 
Q 1159 2438 1159 1844 
L 1159 0 
L 581 0 
L 581 3500 
L 1159 3500 
L 1159 2956 
Q 1341 3275 1631 3429 
Q 1922 3584 2338 3584 
Q 2397 3584 2469 3576 
Q 2541 3569 2628 3553 
L 2631 2963 
z
" transform="scale(0.015625)"/>
       <path id="DejaVuSans-75" d="M 544 1381 
L 544 3500 
L 1119 3500 
L 1119 1403 
Q 1119 906 1312 657 
Q 1506 409 1894 409 
Q 2359 409 2629 706 
Q 2900 1003 2900 1516 
L 2900 3500 
L 3475 3500 
L 3475 0 
L 2900 0 
L 2900 538 
Q 2691 219 2414 64 
Q 2138 -91 1772 -91 
Q 1169 -91 856 284 
Q 544 659 544 1381 
z
M 1991 3584 
L 1991 3584 
z
" transform="scale(0.015625)"/>
       <path id="DejaVuSans-65" d="M 3597 1894 
L 3597 1613 
L 953 1613 
Q 991 1019 1311 708 
Q 1631 397 2203 397 
Q 2534 397 2845 478 
Q 3156 559 3463 722 
L 3463 178 
Q 3153 47 2828 -22 
Q 2503 -91 2169 -91 
Q 1331 -91 842 396 
Q 353 884 353 1716 
Q 353 2575 817 3079 
Q 1281 3584 2069 3584 
Q 2775 3584 3186 3129 
Q 3597 2675 3597 1894 
z
M 3022 2063 
Q 3016 2534 2758 2815 
Q 2500 3097 2075 3097 
Q 1594 3097 1305 2825 
Q 1016 2553 972 2059 
L 3022 2063 
z
" transform="scale(0.015625)"/>
      </defs>
      <use xlink:href="#DejaVuSans-74"/>
      <use xlink:href="#DejaVuSans-72" x="39.208984"/>
      <use xlink:href="#DejaVuSans-75" x="80.322266"/>
      <use xlink:href="#DejaVuSans-65" x="143.701172"/>
     </g>
    </g>
    <g id="line2d_20">
     <path d="M 47.482813 38.607109 
L 57.482813 38.607109 
L 67.482813 38.607109 
" style="fill: none; stroke: #1f77b4; stroke-width: 1.5; stroke-linecap: square"/>
    </g>
    <g id="text_17">
     <!-- SE -->
     <g transform="translate(75.482813 42.107109) scale(0.1 -0.1)">
      <defs>
       <path id="DejaVuSans-53" d="M 3425 4513 
L 3425 3897 
Q 3066 4069 2747 4153 
Q 2428 4238 2131 4238 
Q 1616 4238 1336 4038 
Q 1056 3838 1056 3469 
Q 1056 3159 1242 3001 
Q 1428 2844 1947 2747 
L 2328 2669 
Q 3034 2534 3370 2195 
Q 3706 1856 3706 1288 
Q 3706 609 3251 259 
Q 2797 -91 1919 -91 
Q 1588 -91 1214 -16 
Q 841 59 441 206 
L 441 856 
Q 825 641 1194 531 
Q 1563 422 1919 422 
Q 2459 422 2753 634 
Q 3047 847 3047 1241 
Q 3047 1584 2836 1778 
Q 2625 1972 2144 2069 
L 1759 2144 
Q 1053 2284 737 2584 
Q 422 2884 422 3419 
Q 422 4038 858 4394 
Q 1294 4750 2059 4750 
Q 2388 4750 2728 4690 
Q 3069 4631 3425 4513 
z
" transform="scale(0.015625)"/>
       <path id="DejaVuSans-45" d="M 628 4666 
L 3578 4666 
L 3578 4134 
L 1259 4134 
L 1259 2753 
L 3481 2753 
L 3481 2222 
L 1259 2222 
L 1259 531 
L 3634 531 
L 3634 0 
L 628 0 
L 628 4666 
z
" transform="scale(0.015625)"/>
      </defs>
      <use xlink:href="#DejaVuSans-53"/>
      <use xlink:href="#DejaVuSans-45" x="63.476562"/>
     </g>
    </g>
    <g id="line2d_21">
     <path d="M 47.482813 53.285234 
L 57.482813 53.285234 
L 67.482813 53.285234 
" style="fill: none; stroke: #ff7f0e; stroke-width: 1.5; stroke-linecap: square"/>
    </g>
    <g id="text_18">
     <!-- OU -->
     <g transform="translate(75.482813 56.785234) scale(0.1 -0.1)">
      <defs>
       <path id="DejaVuSans-4f" d="M 2522 4238 
Q 1834 4238 1429 3725 
Q 1025 3213 1025 2328 
Q 1025 1447 1429 934 
Q 1834 422 2522 422 
Q 3209 422 3611 934 
Q 4013 1447 4013 2328 
Q 4013 3213 3611 3725 
Q 3209 4238 2522 4238 
z
M 2522 4750 
Q 3503 4750 4090 4092 
Q 4678 3434 4678 2328 
Q 4678 1225 4090 567 
Q 3503 -91 2522 -91 
Q 1538 -91 948 565 
Q 359 1222 359 2328 
Q 359 3434 948 4092 
Q 1538 4750 2522 4750 
z
" transform="scale(0.015625)"/>
       <path id="DejaVuSans-55" d="M 556 4666 
L 1191 4666 
L 1191 1831 
Q 1191 1081 1462 751 
Q 1734 422 2344 422 
Q 2950 422 3222 751 
Q 3494 1081 3494 1831 
L 3494 4666 
L 4128 4666 
L 4128 1753 
Q 4128 841 3676 375 
Q 3225 -91 2344 -91 
Q 1459 -91 1007 375 
Q 556 841 556 1753 
L 556 4666 
z
" transform="scale(0.015625)"/>
      </defs>
      <use xlink:href="#DejaVuSans-4f"/>
      <use xlink:href="#DejaVuSans-55" x="78.710938"/>
     </g>
    </g>
   </g>
  </g>
 </g>
 <defs>
  <clipPath id="pf837f7716b">
   <rect x="38.482813" y="10.830546" width="357.12" height="266.112"/>
  </clipPath>
 </defs>
</svg>
